<svg width="2250" height="1714" xmlns="http://www.w3.org/2000/svg" xmlns:xlink="http://www.w3.org/1999/xlink" xml:space="preserve" overflow="hidden"><defs><clipPath id="clip0"><rect x="-41" y="197" width="2250" height="1714"/></clipPath><clipPath id="clip1"><rect x="-41" y="197" width="2250" height="1714"/></clipPath></defs><g clip-path="url(#clip0)" transform="translate(41 -197)"><g clip-path="url(#clip1)"><path d="M719.863 1601.97 45.1605 326.5 65.4176 315.785 740.12 1591.26ZM30.2613 347.345 28.5 270.5 91.0325 315.198Z" fill="#FFC000" fill-rule="nonzero" fill-opacity="1"/><path d="M2058.02 1706.86 70.0829 283.527 78.0875 272.347 2066.02 1695.68ZM87.326 324.315 62.974 269.981 122.256 275.528C126.037 275.882 128.814 279.233 128.461 283.014 128.107 286.794 124.756 289.572 120.975 289.218L73.4276 284.769 80.3418 275.113 99.8735 318.691C101.426 322.156 99.8763 326.224 96.4116 327.776 92.9467 329.329 88.8789 327.78 87.326 324.315Z" fill="#5B9BD5" fill-rule="nonzero" fill-opacity="1"/><path d="M2060.07 1737.09 742.719 1583.41 744.312 1569.75 2061.66 1723.44ZM777.576 1610.76 729.968 1575 784.529 1551.16C788.008 1549.64 792.061 1551.23 793.581 1554.7 795.101 1558.18 793.513 1562.24 790.034 1563.76L746.273 1582.88 747.65 1571.08 785.833 1599.76C788.869 1602.04 789.482 1606.35 787.202 1609.39 784.921 1612.42 780.612 1613.04 777.576 1610.76Z" fill="#70AD47" fill-rule="nonzero" fill-opacity="1"/><path d="M2049 1734C2049 1708.59 2069.59 1688 2095 1688 2120.41 1688 2141 1708.59 2141 1734 2141 1759.41 2120.41 1780 2095 1780 2069.59 1780 2049 1759.41 2049 1734Z" fill="#000000" fill-rule="evenodd" fill-opacity="1"/><text fill="#000000" fill-opacity="1" font-family="Cambria Math,Cambria Math_MSFontService,sans-serif" font-style="normal" font-variant="normal" font-weight="400" font-stretch="normal" font-size="162" text-anchor="start" direction="ltr" writing-mode="lr-tb" unicode-bidi="normal" text-decoration="none" transform="matrix(1 0 0 1 1089.07 913)">­ЮЉљ</text><path d="M59.6426-105.759 39.7881-88.5937 35.5957-93.3398 48.2519-104.335 0-104.335 0-111.771 48.2519-111.771 35.5957-122.766 39.7881-127.512 59.6426-110.347Z" fill="#000000" fill-rule="nonzero" fill-opacity="1" transform="matrix(1 0 0 1 1112.45 913)"/><text fill="#000000" fill-opacity="0" font-family="Arial,Arial_MSFontService,sans-serif" font-size="38.918" direction="ltr" writing-mode="lr-tb" y="-93.4585">нд</text><text fill="#000000" fill-opacity="1" font-family="Cambria Math,Cambria Math_MSFontService,sans-serif" font-style="normal" font-variant="normal" font-weight="400" font-stretch="normal" font-size="162" text-anchor="start" direction="ltr" writing-mode="lr-tb" unicode-bidi="normal" text-decoration="none" transform="matrix(1 0 0 1 1349.85 1850)">­ЮЉЈ</text><path d="M1417.14 1686.63 1437 1703.79 1437 1708.38 1417.14 1725.54 1412.95 1720.8 1425.61 1709.8 1408.25 1709.8 1377.35 1709.8 1360.78 1709.8 1360.78 1702.37 1377.35 1702.37 1408.25 1702.37 1425.61 1702.37 1412.95 1691.37Z" fill="#000000" fill-rule="evenodd" fill-opacity="1"/><text fill="#000000" fill-opacity="1" font-family="Cambria Math,Cambria Math_MSFontService,sans-serif" font-style="normal" font-variant="normal" font-weight="400" font-stretch="normal" font-size="162" text-anchor="start" direction="ltr" writing-mode="lr-tb" unicode-bidi="normal" text-decoration="none" transform="matrix(1 0 0 1 300.018 1250)">­ЮЉј</text><path d="M59.6426-105.759 39.7881-88.5937 35.5957-93.3398 48.2519-104.335 0-104.335 0-111.771 48.2519-111.771 35.5957-122.766 39.7881-127.512 59.6426-110.347Z" fill="#000000" fill-rule="nonzero" fill-opacity="1" transform="matrix(1 0 0 1 326.258 1250)"/><text fill="#000000" fill-opacity="0" font-family="Arial,Arial_MSFontService,sans-serif" font-size="38.918" direction="ltr" writing-mode="lr-tb" y="-93.4585">нд</text><text fill="#000000" fill-opacity="1" font-family="Cambria Math,Cambria Math_MSFontService,sans-serif" font-style="normal" font-variant="normal" font-weight="400" font-stretch="normal" font-size="162" text-anchor="start" direction="ltr" writing-mode="lr-tb" unicode-bidi="normal" text-decoration="none" transform="matrix(1 0 0 1 2048.69 1592)">­ЮЉЃ</text></g></g></svg>