<?xml version="1.0" encoding="utf-8"?>
<svg xmlns="http://www.w3.org/2000/svg" xmlns:xlink="http://www.w3.org/1999/xlink" width="600" height="400" viewBox="0 0 2400 1600">
<defs>
  <clipPath id="clip130">
    <rect x="0" y="0" width="2400" height="1600"/>
  </clipPath>
</defs>
<path clip-path="url(#clip130)" d="M0 1600 L2400 1600 L2400 0 L0 0  Z" fill="#ffffff" fill-rule="evenodd" fill-opacity="1"/>
<defs>
  <clipPath id="clip131">
    <rect x="480" y="0" width="1681" height="1600"/>
  </clipPath>
</defs>
<path clip-path="url(#clip130)" d="M250.028 1423.18 L2352.76 1423.18 L2352.76 183.952 L250.028 183.952  Z" fill="#ffffff" fill-rule="evenodd" fill-opacity="1"/>
<defs>
  <clipPath id="clip132">
    <rect x="250" y="183" width="2104" height="1240"/>
  </clipPath>
</defs>
<polyline clip-path="url(#clip132)" style="stroke:#000000; stroke-linecap:round; stroke-linejoin:round; stroke-width:2; stroke-opacity:0.1; fill:none" points="250.028,1423.18 250.028,183.952 "/>
<polyline clip-path="url(#clip132)" style="stroke:#000000; stroke-linecap:round; stroke-linejoin:round; stroke-width:2; stroke-opacity:0.1; fill:none" points="662.328,1423.18 662.328,183.952 "/>
<polyline clip-path="url(#clip132)" style="stroke:#000000; stroke-linecap:round; stroke-linejoin:round; stroke-width:2; stroke-opacity:0.1; fill:none" points="1074.63,1423.18 1074.63,183.952 "/>
<polyline clip-path="url(#clip132)" style="stroke:#000000; stroke-linecap:round; stroke-linejoin:round; stroke-width:2; stroke-opacity:0.1; fill:none" points="1486.93,1423.18 1486.93,183.952 "/>
<polyline clip-path="url(#clip132)" style="stroke:#000000; stroke-linecap:round; stroke-linejoin:round; stroke-width:2; stroke-opacity:0.1; fill:none" points="1899.23,1423.18 1899.23,183.952 "/>
<polyline clip-path="url(#clip132)" style="stroke:#000000; stroke-linecap:round; stroke-linejoin:round; stroke-width:2; stroke-opacity:0.1; fill:none" points="2311.53,1423.18 2311.53,183.952 "/>
<polyline clip-path="url(#clip130)" style="stroke:#000000; stroke-linecap:round; stroke-linejoin:round; stroke-width:4; stroke-opacity:1; fill:none" points="250.028,1423.18 2352.76,1423.18 "/>
<polyline clip-path="url(#clip130)" style="stroke:#000000; stroke-linecap:round; stroke-linejoin:round; stroke-width:4; stroke-opacity:1; fill:none" points="250.028,1423.18 250.028,1404.28 "/>
<polyline clip-path="url(#clip130)" style="stroke:#000000; stroke-linecap:round; stroke-linejoin:round; stroke-width:4; stroke-opacity:1; fill:none" points="662.328,1423.18 662.328,1404.28 "/>
<polyline clip-path="url(#clip130)" style="stroke:#000000; stroke-linecap:round; stroke-linejoin:round; stroke-width:4; stroke-opacity:1; fill:none" points="1074.63,1423.18 1074.63,1404.28 "/>
<polyline clip-path="url(#clip130)" style="stroke:#000000; stroke-linecap:round; stroke-linejoin:round; stroke-width:4; stroke-opacity:1; fill:none" points="1486.93,1423.18 1486.93,1404.28 "/>
<polyline clip-path="url(#clip130)" style="stroke:#000000; stroke-linecap:round; stroke-linejoin:round; stroke-width:4; stroke-opacity:1; fill:none" points="1899.23,1423.18 1899.23,1404.28 "/>
<polyline clip-path="url(#clip130)" style="stroke:#000000; stroke-linecap:round; stroke-linejoin:round; stroke-width:4; stroke-opacity:1; fill:none" points="2311.53,1423.18 2311.53,1404.28 "/>
<path clip-path="url(#clip130)" d="M212.332 1454.1 Q208.72 1454.1 206.892 1457.66 Q205.086 1461.2 205.086 1468.33 Q205.086 1475.44 206.892 1479.01 Q208.72 1482.55 212.332 1482.55 Q215.966 1482.55 217.771 1479.01 Q219.6 1475.44 219.6 1468.33 Q219.6 1461.2 217.771 1457.66 Q215.966 1454.1 212.332 1454.1 M212.332 1450.39 Q218.142 1450.39 221.197 1455 Q224.276 1459.58 224.276 1468.33 Q224.276 1477.06 221.197 1481.67 Q218.142 1486.25 212.332 1486.25 Q206.521 1486.25 203.443 1481.67 Q200.387 1477.06 200.387 1468.33 Q200.387 1459.58 203.443 1455 Q206.521 1450.39 212.332 1450.39 Z" fill="#000000" fill-rule="nonzero" fill-opacity="1" /><path clip-path="url(#clip130)" d="M232.494 1479.7 L237.378 1479.7 L237.378 1485.58 L232.494 1485.58 L232.494 1479.7 Z" fill="#000000" fill-rule="nonzero" fill-opacity="1" /><path clip-path="url(#clip130)" d="M257.563 1454.1 Q253.952 1454.1 252.123 1457.66 Q250.317 1461.2 250.317 1468.33 Q250.317 1475.44 252.123 1479.01 Q253.952 1482.55 257.563 1482.55 Q261.197 1482.55 263.003 1479.01 Q264.831 1475.44 264.831 1468.33 Q264.831 1461.2 263.003 1457.66 Q261.197 1454.1 257.563 1454.1 M257.563 1450.39 Q263.373 1450.39 266.429 1455 Q269.507 1459.58 269.507 1468.33 Q269.507 1477.06 266.429 1481.67 Q263.373 1486.25 257.563 1486.25 Q251.753 1486.25 248.674 1481.67 Q245.618 1477.06 245.618 1468.33 Q245.618 1459.58 248.674 1455 Q251.753 1450.39 257.563 1450.39 Z" fill="#000000" fill-rule="nonzero" fill-opacity="1" /><path clip-path="url(#clip130)" d="M287.725 1454.1 Q284.114 1454.1 282.285 1457.66 Q280.479 1461.2 280.479 1468.33 Q280.479 1475.44 282.285 1479.01 Q284.114 1482.55 287.725 1482.55 Q291.359 1482.55 293.164 1479.01 Q294.993 1475.44 294.993 1468.33 Q294.993 1461.2 293.164 1457.66 Q291.359 1454.1 287.725 1454.1 M287.725 1450.39 Q293.535 1450.39 296.59 1455 Q299.669 1459.58 299.669 1468.33 Q299.669 1477.06 296.59 1481.67 Q293.535 1486.25 287.725 1486.25 Q281.915 1486.25 278.836 1481.67 Q275.78 1477.06 275.78 1468.33 Q275.78 1459.58 278.836 1455 Q281.915 1450.39 287.725 1450.39 Z" fill="#000000" fill-rule="nonzero" fill-opacity="1" /><path clip-path="url(#clip130)" d="M625.245 1454.1 Q621.633 1454.1 619.805 1457.66 Q617.999 1461.2 617.999 1468.33 Q617.999 1475.44 619.805 1479.01 Q621.633 1482.55 625.245 1482.55 Q628.879 1482.55 630.684 1479.01 Q632.513 1475.44 632.513 1468.33 Q632.513 1461.2 630.684 1457.66 Q628.879 1454.1 625.245 1454.1 M625.245 1450.39 Q631.055 1450.39 634.11 1455 Q637.189 1459.58 637.189 1468.33 Q637.189 1477.06 634.11 1481.67 Q631.055 1486.25 625.245 1486.25 Q619.434 1486.25 616.356 1481.67 Q613.3 1477.06 613.3 1468.33 Q613.3 1459.58 616.356 1455 Q619.434 1450.39 625.245 1450.39 Z" fill="#000000" fill-rule="nonzero" fill-opacity="1" /><path clip-path="url(#clip130)" d="M645.406 1479.7 L650.291 1479.7 L650.291 1485.58 L645.406 1485.58 L645.406 1479.7 Z" fill="#000000" fill-rule="nonzero" fill-opacity="1" /><path clip-path="url(#clip130)" d="M670.476 1454.1 Q666.865 1454.1 665.036 1457.66 Q663.23 1461.2 663.23 1468.33 Q663.23 1475.44 665.036 1479.01 Q666.865 1482.55 670.476 1482.55 Q674.11 1482.55 675.916 1479.01 Q677.744 1475.44 677.744 1468.33 Q677.744 1461.2 675.916 1457.66 Q674.11 1454.1 670.476 1454.1 M670.476 1450.39 Q676.286 1450.39 679.342 1455 Q682.42 1459.58 682.42 1468.33 Q682.42 1477.06 679.342 1481.67 Q676.286 1486.25 670.476 1486.25 Q664.666 1486.25 661.587 1481.67 Q658.531 1477.06 658.531 1468.33 Q658.531 1459.58 661.587 1455 Q664.666 1450.39 670.476 1450.39 Z" fill="#000000" fill-rule="nonzero" fill-opacity="1" /><path clip-path="url(#clip130)" d="M691.448 1481.64 L699.087 1481.64 L699.087 1455.28 L690.777 1456.95 L690.777 1452.69 L699.04 1451.02 L703.716 1451.02 L703.716 1481.64 L711.355 1481.64 L711.355 1485.58 L691.448 1485.58 L691.448 1481.64 Z" fill="#000000" fill-rule="nonzero" fill-opacity="1" /><path clip-path="url(#clip130)" d="M1037.73 1454.1 Q1034.12 1454.1 1032.29 1457.66 Q1030.48 1461.2 1030.48 1468.33 Q1030.48 1475.44 1032.29 1479.01 Q1034.12 1482.55 1037.73 1482.55 Q1041.36 1482.55 1043.17 1479.01 Q1045 1475.44 1045 1468.33 Q1045 1461.2 1043.17 1457.66 Q1041.36 1454.1 1037.73 1454.1 M1037.73 1450.39 Q1043.54 1450.39 1046.6 1455 Q1049.67 1459.58 1049.67 1468.33 Q1049.67 1477.06 1046.6 1481.67 Q1043.54 1486.25 1037.73 1486.25 Q1031.92 1486.25 1028.84 1481.67 Q1025.78 1477.06 1025.78 1468.33 Q1025.78 1459.58 1028.84 1455 Q1031.92 1450.39 1037.73 1450.39 Z" fill="#000000" fill-rule="nonzero" fill-opacity="1" /><path clip-path="url(#clip130)" d="M1057.89 1479.7 L1062.78 1479.7 L1062.78 1485.58 L1057.89 1485.58 L1057.89 1479.7 Z" fill="#000000" fill-rule="nonzero" fill-opacity="1" /><path clip-path="url(#clip130)" d="M1082.96 1454.1 Q1079.35 1454.1 1077.52 1457.66 Q1075.72 1461.2 1075.72 1468.33 Q1075.72 1475.44 1077.52 1479.01 Q1079.35 1482.55 1082.96 1482.55 Q1086.59 1482.55 1088.4 1479.01 Q1090.23 1475.44 1090.23 1468.33 Q1090.23 1461.2 1088.4 1457.66 Q1086.59 1454.1 1082.96 1454.1 M1082.96 1450.39 Q1088.77 1450.39 1091.83 1455 Q1094.9 1459.58 1094.9 1468.33 Q1094.9 1477.06 1091.83 1481.67 Q1088.77 1486.25 1082.96 1486.25 Q1077.15 1486.25 1074.07 1481.67 Q1071.02 1477.06 1071.02 1468.33 Q1071.02 1459.58 1074.07 1455 Q1077.15 1450.39 1082.96 1450.39 Z" fill="#000000" fill-rule="nonzero" fill-opacity="1" /><path clip-path="url(#clip130)" d="M1107.15 1481.64 L1123.47 1481.64 L1123.47 1485.58 L1101.53 1485.58 L1101.53 1481.64 Q1104.19 1478.89 1108.77 1474.26 Q1113.38 1469.61 1114.56 1468.27 Q1116.8 1465.74 1117.68 1464.01 Q1118.59 1462.25 1118.59 1460.56 Q1118.59 1457.8 1116.64 1456.07 Q1114.72 1454.33 1111.62 1454.33 Q1109.42 1454.33 1106.97 1455.09 Q1104.53 1455.86 1101.76 1457.41 L1101.76 1452.69 Q1104.58 1451.55 1107.03 1450.97 Q1109.49 1450.39 1111.53 1450.39 Q1116.9 1450.39 1120.09 1453.08 Q1123.28 1455.77 1123.28 1460.26 Q1123.28 1462.39 1122.47 1464.31 Q1121.69 1466.2 1119.58 1468.8 Q1119 1469.47 1115.9 1472.69 Q1112.8 1475.88 1107.15 1481.64 Z" fill="#000000" fill-rule="nonzero" fill-opacity="1" /><path clip-path="url(#clip130)" d="M1449.55 1454.1 Q1445.94 1454.1 1444.11 1457.66 Q1442.31 1461.2 1442.31 1468.33 Q1442.31 1475.44 1444.11 1479.01 Q1445.94 1482.55 1449.55 1482.55 Q1453.19 1482.55 1454.99 1479.01 Q1456.82 1475.44 1456.82 1468.33 Q1456.82 1461.2 1454.99 1457.66 Q1453.19 1454.1 1449.55 1454.1 M1449.55 1450.39 Q1455.36 1450.39 1458.42 1455 Q1461.5 1459.58 1461.5 1468.33 Q1461.5 1477.06 1458.42 1481.67 Q1455.36 1486.25 1449.55 1486.25 Q1443.74 1486.25 1440.67 1481.67 Q1437.61 1477.06 1437.61 1468.33 Q1437.61 1459.58 1440.67 1455 Q1443.74 1450.39 1449.55 1450.39 Z" fill="#000000" fill-rule="nonzero" fill-opacity="1" /><path clip-path="url(#clip130)" d="M1469.72 1479.7 L1474.6 1479.7 L1474.6 1485.58 L1469.72 1485.58 L1469.72 1479.7 Z" fill="#000000" fill-rule="nonzero" fill-opacity="1" /><path clip-path="url(#clip130)" d="M1494.79 1454.1 Q1491.17 1454.1 1489.35 1457.66 Q1487.54 1461.2 1487.54 1468.33 Q1487.54 1475.44 1489.35 1479.01 Q1491.17 1482.55 1494.79 1482.55 Q1498.42 1482.55 1500.23 1479.01 Q1502.05 1475.44 1502.05 1468.33 Q1502.05 1461.2 1500.23 1457.66 Q1498.42 1454.1 1494.79 1454.1 M1494.79 1450.39 Q1500.6 1450.39 1503.65 1455 Q1506.73 1459.58 1506.73 1468.33 Q1506.73 1477.06 1503.65 1481.67 Q1500.6 1486.25 1494.79 1486.25 Q1488.98 1486.25 1485.9 1481.67 Q1482.84 1477.06 1482.84 1468.33 Q1482.84 1459.58 1485.9 1455 Q1488.98 1450.39 1494.79 1450.39 Z" fill="#000000" fill-rule="nonzero" fill-opacity="1" /><path clip-path="url(#clip130)" d="M1529.11 1466.95 Q1532.47 1467.66 1534.35 1469.93 Q1536.24 1472.2 1536.24 1475.53 Q1536.24 1480.65 1532.73 1483.45 Q1529.21 1486.25 1522.73 1486.25 Q1520.55 1486.25 1518.23 1485.81 Q1515.94 1485.39 1513.49 1484.54 L1513.49 1480.02 Q1515.43 1481.16 1517.75 1481.74 Q1520.06 1482.32 1522.59 1482.32 Q1526.98 1482.32 1529.28 1480.58 Q1531.59 1478.84 1531.59 1475.53 Q1531.59 1472.48 1529.44 1470.77 Q1527.31 1469.03 1523.49 1469.03 L1519.46 1469.03 L1519.46 1465.19 L1523.67 1465.19 Q1527.12 1465.19 1528.95 1463.82 Q1530.78 1462.43 1530.78 1459.84 Q1530.78 1457.18 1528.88 1455.77 Q1527.01 1454.33 1523.49 1454.33 Q1521.57 1454.33 1519.37 1454.75 Q1517.17 1455.16 1514.53 1456.04 L1514.53 1451.88 Q1517.19 1451.14 1519.51 1450.77 Q1521.85 1450.39 1523.91 1450.39 Q1529.23 1450.39 1532.33 1452.83 Q1535.43 1455.23 1535.43 1459.35 Q1535.43 1462.22 1533.79 1464.21 Q1532.15 1466.18 1529.11 1466.95 Z" fill="#000000" fill-rule="nonzero" fill-opacity="1" /><path clip-path="url(#clip130)" d="M1861.29 1454.1 Q1857.68 1454.1 1855.85 1457.66 Q1854.04 1461.2 1854.04 1468.33 Q1854.04 1475.44 1855.85 1479.01 Q1857.68 1482.55 1861.29 1482.55 Q1864.92 1482.55 1866.73 1479.01 Q1868.56 1475.44 1868.56 1468.33 Q1868.56 1461.2 1866.73 1457.66 Q1864.92 1454.1 1861.29 1454.1 M1861.29 1450.39 Q1867.1 1450.39 1870.15 1455 Q1873.23 1459.58 1873.23 1468.33 Q1873.23 1477.06 1870.15 1481.67 Q1867.1 1486.25 1861.29 1486.25 Q1855.48 1486.25 1852.4 1481.67 Q1849.34 1477.06 1849.34 1468.33 Q1849.34 1459.58 1852.4 1455 Q1855.48 1450.39 1861.29 1450.39 Z" fill="#000000" fill-rule="nonzero" fill-opacity="1" /><path clip-path="url(#clip130)" d="M1881.45 1479.7 L1886.33 1479.7 L1886.33 1485.58 L1881.45 1485.58 L1881.45 1479.7 Z" fill="#000000" fill-rule="nonzero" fill-opacity="1" /><path clip-path="url(#clip130)" d="M1906.52 1454.1 Q1902.91 1454.1 1901.08 1457.66 Q1899.27 1461.2 1899.27 1468.33 Q1899.27 1475.44 1901.08 1479.01 Q1902.91 1482.55 1906.52 1482.55 Q1910.15 1482.55 1911.96 1479.01 Q1913.79 1475.44 1913.79 1468.33 Q1913.79 1461.2 1911.96 1457.66 Q1910.15 1454.1 1906.52 1454.1 M1906.52 1450.39 Q1912.33 1450.39 1915.38 1455 Q1918.46 1459.58 1918.46 1468.33 Q1918.46 1477.06 1915.38 1481.67 Q1912.33 1486.25 1906.52 1486.25 Q1900.71 1486.25 1897.63 1481.67 Q1894.57 1477.06 1894.57 1468.33 Q1894.57 1459.58 1897.63 1455 Q1900.71 1450.39 1906.52 1450.39 Z" fill="#000000" fill-rule="nonzero" fill-opacity="1" /><path clip-path="url(#clip130)" d="M1939.53 1455.09 L1927.72 1473.54 L1939.53 1473.54 L1939.53 1455.09 M1938.3 1451.02 L1944.18 1451.02 L1944.18 1473.54 L1949.11 1473.54 L1949.11 1477.43 L1944.18 1477.43 L1944.18 1485.58 L1939.53 1485.58 L1939.53 1477.43 L1923.93 1477.43 L1923.93 1472.92 L1938.3 1451.02 Z" fill="#000000" fill-rule="nonzero" fill-opacity="1" /><path clip-path="url(#clip130)" d="M2274.33 1454.1 Q2270.72 1454.1 2268.89 1457.66 Q2267.08 1461.2 2267.08 1468.33 Q2267.08 1475.44 2268.89 1479.01 Q2270.72 1482.55 2274.33 1482.55 Q2277.96 1482.55 2279.77 1479.01 Q2281.6 1475.44 2281.6 1468.33 Q2281.6 1461.2 2279.77 1457.66 Q2277.96 1454.1 2274.33 1454.1 M2274.33 1450.39 Q2280.14 1450.39 2283.19 1455 Q2286.27 1459.58 2286.27 1468.33 Q2286.27 1477.06 2283.19 1481.67 Q2280.14 1486.25 2274.33 1486.25 Q2268.52 1486.25 2265.44 1481.67 Q2262.38 1477.06 2262.38 1468.33 Q2262.38 1459.58 2265.44 1455 Q2268.52 1450.39 2274.33 1450.39 Z" fill="#000000" fill-rule="nonzero" fill-opacity="1" /><path clip-path="url(#clip130)" d="M2294.49 1479.7 L2299.37 1479.7 L2299.37 1485.58 L2294.49 1485.58 L2294.49 1479.7 Z" fill="#000000" fill-rule="nonzero" fill-opacity="1" /><path clip-path="url(#clip130)" d="M2319.56 1454.1 Q2315.95 1454.1 2314.12 1457.66 Q2312.31 1461.2 2312.31 1468.33 Q2312.31 1475.44 2314.12 1479.01 Q2315.95 1482.55 2319.56 1482.55 Q2323.19 1482.55 2325 1479.01 Q2326.83 1475.44 2326.83 1468.33 Q2326.83 1461.2 2325 1457.66 Q2323.19 1454.1 2319.56 1454.1 M2319.56 1450.39 Q2325.37 1450.39 2328.42 1455 Q2331.5 1459.58 2331.5 1468.33 Q2331.5 1477.06 2328.42 1481.67 Q2325.37 1486.25 2319.56 1486.25 Q2313.75 1486.25 2310.67 1481.67 Q2307.61 1477.06 2307.61 1468.33 Q2307.61 1459.58 2310.67 1455 Q2313.75 1450.39 2319.56 1450.39 Z" fill="#000000" fill-rule="nonzero" fill-opacity="1" /><path clip-path="url(#clip130)" d="M2339.77 1451.02 L2358.12 1451.02 L2358.12 1454.96 L2344.05 1454.96 L2344.05 1463.43 Q2345.07 1463.08 2346.09 1462.92 Q2347.1 1462.73 2348.12 1462.73 Q2353.91 1462.73 2357.29 1465.9 Q2360.67 1469.08 2360.67 1474.49 Q2360.67 1480.07 2357.2 1483.17 Q2353.72 1486.25 2347.41 1486.25 Q2345.23 1486.25 2342.96 1485.88 Q2340.72 1485.51 2338.31 1484.77 L2338.31 1480.07 Q2340.39 1481.2 2342.61 1481.76 Q2344.84 1482.32 2347.31 1482.32 Q2351.32 1482.32 2353.66 1480.21 Q2355.99 1478.1 2355.99 1474.49 Q2355.99 1470.88 2353.66 1468.77 Q2351.32 1466.67 2347.31 1466.67 Q2345.44 1466.67 2343.56 1467.08 Q2341.71 1467.5 2339.77 1468.38 L2339.77 1451.02 Z" fill="#000000" fill-rule="nonzero" fill-opacity="1" /><path clip-path="url(#clip130)" d="M772.068 1525.81 L772.068 1562.76 L779.834 1562.76 Q789.669 1562.76 794.22 1558.3 Q798.804 1553.85 798.804 1544.24 Q798.804 1534.69 794.22 1530.26 Q789.669 1525.81 779.834 1525.81 L772.068 1525.81 M765.638 1520.52 L778.847 1520.52 Q792.661 1520.52 799.122 1526.28 Q805.583 1532.01 805.583 1544.24 Q805.583 1556.52 799.09 1562.28 Q792.597 1568.04 778.847 1568.04 L765.638 1568.04 L765.638 1520.52 Z" fill="#000000" fill-rule="nonzero" fill-opacity="1" /><path clip-path="url(#clip130)" d="M815.577 1532.4 L821.434 1532.4 L821.434 1568.04 L815.577 1568.04 L815.577 1532.4 M815.577 1518.52 L821.434 1518.52 L821.434 1525.93 L815.577 1525.93 L815.577 1518.52 Z" fill="#000000" fill-rule="nonzero" fill-opacity="1" /><path clip-path="url(#clip130)" d="M856.413 1533.45 L856.413 1538.98 Q853.931 1537.71 851.257 1537.07 Q848.583 1536.44 845.719 1536.44 Q841.358 1536.44 839.162 1537.77 Q836.998 1539.11 836.998 1541.79 Q836.998 1543.82 838.557 1545 Q840.117 1546.15 844.828 1547.2 L846.833 1547.64 Q853.071 1548.98 855.681 1551.43 Q858.323 1553.85 858.323 1558.21 Q858.323 1563.17 854.376 1566.07 Q850.461 1568.97 843.586 1568.97 Q840.722 1568.97 837.603 1568.39 Q834.515 1567.85 831.078 1566.74 L831.078 1560.69 Q834.324 1562.38 837.475 1563.24 Q840.626 1564.07 843.714 1564.07 Q847.851 1564.07 850.079 1562.66 Q852.307 1561.23 852.307 1558.65 Q852.307 1556.27 850.684 1554.99 Q849.093 1553.72 843.65 1552.54 L841.613 1552.07 Q836.17 1550.92 833.751 1548.56 Q831.332 1546.18 831.332 1542.04 Q831.332 1537.01 834.897 1534.27 Q838.462 1531.54 845.019 1531.54 Q848.265 1531.54 851.13 1532.01 Q853.994 1532.49 856.413 1533.45 Z" fill="#000000" fill-rule="nonzero" fill-opacity="1" /><path clip-path="url(#clip130)" d="M873.441 1522.27 L873.441 1532.4 L885.504 1532.4 L885.504 1536.95 L873.441 1536.95 L873.441 1556.3 Q873.441 1560.66 874.619 1561.9 Q875.829 1563.14 879.489 1563.14 L885.504 1563.14 L885.504 1568.04 L879.489 1568.04 Q872.709 1568.04 870.131 1565.53 Q867.553 1562.98 867.553 1556.3 L867.553 1536.95 L863.256 1536.95 L863.256 1532.4 L867.553 1532.4 L867.553 1522.27 L873.441 1522.27 Z" fill="#000000" fill-rule="nonzero" fill-opacity="1" /><path clip-path="url(#clip130)" d="M909.408 1550.12 Q902.31 1550.12 899.573 1551.75 Q896.835 1553.37 896.835 1557.29 Q896.835 1560.4 898.872 1562.25 Q900.941 1564.07 904.474 1564.07 Q909.344 1564.07 912.272 1560.63 Q915.232 1557.16 915.232 1551.43 L915.232 1550.12 L909.408 1550.12 M921.089 1547.71 L921.089 1568.04 L915.232 1568.04 L915.232 1562.63 Q913.227 1565.88 910.235 1567.44 Q907.243 1568.97 902.915 1568.97 Q897.44 1568.97 894.194 1565.91 Q890.979 1562.82 890.979 1557.67 Q890.979 1551.65 894.989 1548.6 Q899.032 1545.54 907.021 1545.54 L915.232 1545.54 L915.232 1544.97 Q915.232 1540.93 912.559 1538.73 Q909.917 1536.5 905.111 1536.5 Q902.055 1536.5 899.159 1537.23 Q896.263 1537.97 893.589 1539.43 L893.589 1534.02 Q896.804 1532.78 899.827 1532.17 Q902.851 1531.54 905.716 1531.54 Q913.45 1531.54 917.269 1535.55 Q921.089 1539.56 921.089 1547.71 Z" fill="#000000" fill-rule="nonzero" fill-opacity="1" /><path clip-path="url(#clip130)" d="M962.784 1546.53 L962.784 1568.04 L956.928 1568.04 L956.928 1546.72 Q956.928 1541.66 954.954 1539.14 Q952.981 1536.63 949.034 1536.63 Q944.292 1536.63 941.555 1539.65 Q938.817 1542.68 938.817 1547.9 L938.817 1568.04 L932.929 1568.04 L932.929 1532.4 L938.817 1532.4 L938.817 1537.93 Q940.918 1534.72 943.751 1533.13 Q946.615 1531.54 950.339 1531.54 Q956.482 1531.54 959.633 1535.36 Q962.784 1539.14 962.784 1546.53 Z" fill="#000000" fill-rule="nonzero" fill-opacity="1" /><path clip-path="url(#clip130)" d="M1000.12 1533.76 L1000.12 1539.24 Q997.636 1537.87 995.122 1537.2 Q992.639 1536.5 990.093 1536.5 Q984.396 1536.5 981.245 1540.13 Q978.094 1543.73 978.094 1550.25 Q978.094 1556.78 981.245 1560.4 Q984.396 1564 990.093 1564 Q992.639 1564 995.122 1563.33 Q997.636 1562.63 1000.12 1561.26 L1000.12 1566.68 Q997.668 1567.82 995.026 1568.39 Q992.417 1568.97 989.456 1568.97 Q981.404 1568.97 976.661 1563.91 Q971.919 1558.85 971.919 1550.25 Q971.919 1541.53 976.693 1536.53 Q981.499 1531.54 989.838 1531.54 Q992.544 1531.54 995.122 1532.11 Q997.7 1532.65 1000.12 1533.76 Z" fill="#000000" fill-rule="nonzero" fill-opacity="1" /><path clip-path="url(#clip130)" d="M1040.8 1548.76 L1040.8 1551.62 L1013.87 1551.62 Q1014.25 1557.67 1017.5 1560.85 Q1020.78 1564 1026.6 1564 Q1029.97 1564 1033.13 1563.17 Q1036.31 1562.35 1039.43 1560.69 L1039.43 1566.23 Q1036.28 1567.57 1032.97 1568.27 Q1029.66 1568.97 1026.25 1568.97 Q1017.72 1568.97 1012.72 1564 Q1007.76 1559.04 1007.76 1550.57 Q1007.76 1541.82 1012.47 1536.69 Q1017.21 1531.54 1025.23 1531.54 Q1032.43 1531.54 1036.59 1536.18 Q1040.8 1540.8 1040.8 1548.76 M1034.94 1547.04 Q1034.88 1542.23 1032.23 1539.37 Q1029.62 1536.5 1025.3 1536.5 Q1020.39 1536.5 1017.43 1539.27 Q1014.51 1542.04 1014.06 1547.07 L1034.94 1547.04 Z" fill="#000000" fill-rule="nonzero" fill-opacity="1" /><path clip-path="url(#clip130)" d="M1089.18 1518.52 L1089.18 1523.39 L1083.57 1523.39 Q1080.42 1523.39 1079.18 1524.66 Q1077.97 1525.93 1077.97 1529.24 L1077.97 1532.4 L1087.62 1532.4 L1087.62 1536.95 L1077.97 1536.95 L1077.97 1568.04 L1072.08 1568.04 L1072.08 1536.95 L1066.48 1536.95 L1066.48 1532.4 L1072.08 1532.4 L1072.08 1529.91 Q1072.08 1523.96 1074.85 1521.26 Q1077.62 1518.52 1083.64 1518.52 L1089.18 1518.52 Z" fill="#000000" fill-rule="nonzero" fill-opacity="1" /><path clip-path="url(#clip130)" d="M1114.73 1537.87 Q1113.75 1537.3 1112.57 1537.04 Q1111.42 1536.76 1110.02 1536.76 Q1105.06 1536.76 1102.38 1540 Q1099.74 1543.22 1099.74 1549.27 L1099.74 1568.04 L1093.85 1568.04 L1093.85 1532.4 L1099.74 1532.4 L1099.74 1537.93 Q1101.59 1534.69 1104.55 1533.13 Q1107.51 1531.54 1111.74 1531.54 Q1112.35 1531.54 1113.08 1531.63 Q1113.81 1531.7 1114.7 1531.85 L1114.73 1537.87 Z" fill="#000000" fill-rule="nonzero" fill-opacity="1" /><path clip-path="url(#clip130)" d="M1133.26 1536.5 Q1128.55 1536.5 1125.81 1540.19 Q1123.07 1543.85 1123.07 1550.25 Q1123.07 1556.65 1125.78 1560.34 Q1128.52 1564 1133.26 1564 Q1137.94 1564 1140.67 1560.31 Q1143.41 1556.62 1143.41 1550.25 Q1143.41 1543.92 1140.67 1540.23 Q1137.94 1536.5 1133.26 1536.5 M1133.26 1531.54 Q1140.9 1531.54 1145.26 1536.5 Q1149.62 1541.47 1149.62 1550.25 Q1149.62 1559 1145.26 1564 Q1140.9 1568.97 1133.26 1568.97 Q1125.59 1568.97 1121.23 1564 Q1116.9 1559 1116.9 1550.25 Q1116.9 1541.47 1121.23 1536.5 Q1125.59 1531.54 1133.26 1531.54 Z" fill="#000000" fill-rule="nonzero" fill-opacity="1" /><path clip-path="url(#clip130)" d="M1187.08 1539.24 Q1189.28 1535.29 1192.33 1533.41 Q1195.39 1531.54 1199.52 1531.54 Q1205.09 1531.54 1208.12 1535.45 Q1211.14 1539.33 1211.14 1546.53 L1211.14 1568.04 L1205.25 1568.04 L1205.25 1546.72 Q1205.25 1541.59 1203.44 1539.11 Q1201.63 1536.63 1197.9 1536.63 Q1193.35 1536.63 1190.71 1539.65 Q1188.07 1542.68 1188.07 1547.9 L1188.07 1568.04 L1182.18 1568.04 L1182.18 1546.72 Q1182.18 1541.56 1180.36 1539.11 Q1178.55 1536.63 1174.76 1536.63 Q1170.27 1536.63 1167.63 1539.68 Q1164.99 1542.71 1164.99 1547.9 L1164.99 1568.04 L1159.1 1568.04 L1159.1 1532.4 L1164.99 1532.4 L1164.99 1537.93 Q1167 1534.66 1169.8 1533.1 Q1172.6 1531.54 1176.45 1531.54 Q1180.33 1531.54 1183.04 1533.51 Q1185.77 1535.48 1187.08 1539.24 Z" fill="#000000" fill-rule="nonzero" fill-opacity="1" /><path clip-path="url(#clip130)" d="M1279.38 1524.18 L1279.38 1530.96 Q1276.14 1527.94 1272.44 1526.44 Q1268.78 1524.95 1264.65 1524.95 Q1256.5 1524.95 1252.17 1529.95 Q1247.84 1534.91 1247.84 1544.33 Q1247.84 1553.72 1252.17 1558.72 Q1256.5 1563.68 1264.65 1563.68 Q1268.78 1563.68 1272.44 1562.19 Q1276.14 1560.69 1279.38 1557.67 L1279.38 1564.38 Q1276.01 1566.68 1272.22 1567.82 Q1268.47 1568.97 1264.26 1568.97 Q1253.47 1568.97 1247.27 1562.38 Q1241.06 1555.76 1241.06 1544.33 Q1241.06 1532.87 1247.27 1526.28 Q1253.47 1519.66 1264.26 1519.66 Q1268.53 1519.66 1272.28 1520.81 Q1276.07 1521.92 1279.38 1524.18 Z" fill="#000000" fill-rule="nonzero" fill-opacity="1" /><path clip-path="url(#clip130)" d="M1319.55 1548.76 L1319.55 1551.62 L1292.62 1551.62 Q1293.01 1557.67 1296.25 1560.85 Q1299.53 1564 1305.35 1564 Q1308.73 1564 1311.88 1563.17 Q1315.06 1562.35 1318.18 1560.69 L1318.18 1566.23 Q1315.03 1567.57 1311.72 1568.27 Q1308.41 1568.97 1305 1568.97 Q1296.47 1568.97 1291.48 1564 Q1286.51 1559.04 1286.51 1550.57 Q1286.51 1541.82 1291.22 1536.69 Q1295.97 1531.54 1303.99 1531.54 Q1311.18 1531.54 1315.35 1536.18 Q1319.55 1540.8 1319.55 1548.76 M1313.69 1547.04 Q1313.63 1542.23 1310.99 1539.37 Q1308.38 1536.5 1304.05 1536.5 Q1299.15 1536.5 1296.19 1539.27 Q1293.26 1542.04 1292.81 1547.07 L1313.69 1547.04 Z" fill="#000000" fill-rule="nonzero" fill-opacity="1" /><path clip-path="url(#clip130)" d="M1358.79 1546.53 L1358.79 1568.04 L1352.94 1568.04 L1352.94 1546.72 Q1352.94 1541.66 1350.96 1539.14 Q1348.99 1536.63 1345.04 1536.63 Q1340.3 1536.63 1337.57 1539.65 Q1334.83 1542.68 1334.83 1547.9 L1334.83 1568.04 L1328.94 1568.04 L1328.94 1532.4 L1334.83 1532.4 L1334.83 1537.93 Q1336.93 1534.72 1339.76 1533.13 Q1342.63 1531.54 1346.35 1531.54 Q1352.49 1531.54 1355.64 1535.36 Q1358.79 1539.14 1358.79 1546.53 Z" fill="#000000" fill-rule="nonzero" fill-opacity="1" /><path clip-path="url(#clip130)" d="M1376.27 1522.27 L1376.27 1532.4 L1388.33 1532.4 L1388.33 1536.95 L1376.27 1536.95 L1376.27 1556.3 Q1376.27 1560.66 1377.45 1561.9 Q1378.66 1563.14 1382.32 1563.14 L1388.33 1563.14 L1388.33 1568.04 L1382.32 1568.04 Q1375.54 1568.04 1372.96 1565.53 Q1370.38 1562.98 1370.38 1556.3 L1370.38 1536.95 L1366.08 1536.95 L1366.08 1532.4 L1370.38 1532.4 L1370.38 1522.27 L1376.27 1522.27 Z" fill="#000000" fill-rule="nonzero" fill-opacity="1" /><path clip-path="url(#clip130)" d="M1426.53 1548.76 L1426.53 1551.62 L1399.6 1551.62 Q1399.98 1557.67 1403.23 1560.85 Q1406.51 1564 1412.33 1564 Q1415.7 1564 1418.86 1563.17 Q1422.04 1562.35 1425.16 1560.69 L1425.16 1566.23 Q1422.01 1567.57 1418.7 1568.27 Q1415.39 1568.97 1411.98 1568.97 Q1403.45 1568.97 1398.45 1564 Q1393.49 1559.04 1393.49 1550.57 Q1393.49 1541.82 1398.2 1536.69 Q1402.94 1531.54 1410.96 1531.54 Q1418.15 1531.54 1422.32 1536.18 Q1426.53 1540.8 1426.53 1548.76 M1420.67 1547.04 Q1420.61 1542.23 1417.96 1539.37 Q1415.35 1536.5 1411.03 1536.5 Q1406.12 1536.5 1403.16 1539.27 Q1400.24 1542.04 1399.79 1547.07 L1420.67 1547.04 Z" fill="#000000" fill-rule="nonzero" fill-opacity="1" /><path clip-path="url(#clip130)" d="M1456.79 1537.87 Q1455.81 1537.3 1454.63 1537.04 Q1453.48 1536.76 1452.08 1536.76 Q1447.12 1536.76 1444.45 1540 Q1441.8 1543.22 1441.8 1549.27 L1441.8 1568.04 L1435.92 1568.04 L1435.92 1532.4 L1441.8 1532.4 L1441.8 1537.93 Q1443.65 1534.69 1446.61 1533.13 Q1449.57 1531.54 1453.8 1531.54 Q1454.41 1531.54 1455.14 1531.63 Q1455.87 1531.7 1456.76 1531.85 L1456.79 1537.87 Z" fill="#000000" fill-rule="nonzero" fill-opacity="1" /><path clip-path="url(#clip130)" d="M1497.47 1536.5 Q1492.76 1536.5 1490.02 1540.19 Q1487.29 1543.85 1487.29 1550.25 Q1487.29 1556.65 1489.99 1560.34 Q1492.73 1564 1497.47 1564 Q1502.15 1564 1504.89 1560.31 Q1507.63 1556.62 1507.63 1550.25 Q1507.63 1543.92 1504.89 1540.23 Q1502.15 1536.5 1497.47 1536.5 M1497.47 1531.54 Q1505.11 1531.54 1509.47 1536.5 Q1513.83 1541.47 1513.83 1550.25 Q1513.83 1559 1509.47 1564 Q1505.11 1568.97 1497.47 1568.97 Q1489.8 1568.97 1485.44 1564 Q1481.11 1559 1481.11 1550.25 Q1481.11 1541.47 1485.44 1536.5 Q1489.8 1531.54 1497.47 1531.54 Z" fill="#000000" fill-rule="nonzero" fill-opacity="1" /><path clip-path="url(#clip130)" d="M1541.59 1518.52 L1541.59 1523.39 L1535.98 1523.39 Q1532.83 1523.39 1531.59 1524.66 Q1530.38 1525.93 1530.38 1529.24 L1530.38 1532.4 L1540.03 1532.4 L1540.03 1536.95 L1530.38 1536.95 L1530.38 1568.04 L1524.49 1568.04 L1524.49 1536.95 L1518.89 1536.95 L1518.89 1532.4 L1524.49 1532.4 L1524.49 1529.91 Q1524.49 1523.96 1527.26 1521.26 Q1530.03 1518.52 1536.05 1518.52 L1541.59 1518.52 Z" fill="#000000" fill-rule="nonzero" fill-opacity="1" /><path clip-path="url(#clip130)" d="M1563.23 1520.52 L1569.72 1520.52 L1579.72 1560.69 L1589.68 1520.52 L1596.9 1520.52 L1606.9 1560.69 L1616.86 1520.52 L1623.39 1520.52 L1611.45 1568.04 L1603.37 1568.04 L1593.34 1526.79 L1583.22 1568.04 L1575.13 1568.04 L1563.23 1520.52 Z" fill="#000000" fill-rule="nonzero" fill-opacity="1" /><path clip-path="url(#clip130)" d="M1630.23 1532.4 L1636.08 1532.4 L1636.08 1568.04 L1630.23 1568.04 L1630.23 1532.4 M1630.23 1518.52 L1636.08 1518.52 L1636.08 1525.93 L1630.23 1525.93 L1630.23 1518.52 Z" fill="#000000" fill-rule="nonzero" fill-opacity="1" /><path clip-path="url(#clip130)" d="M1669 1537.87 Q1668.01 1537.3 1666.83 1537.04 Q1665.69 1536.76 1664.29 1536.76 Q1659.32 1536.76 1656.65 1540 Q1654 1543.22 1654 1549.27 L1654 1568.04 L1648.12 1568.04 L1648.12 1532.4 L1654 1532.4 L1654 1537.93 Q1655.85 1534.69 1658.81 1533.13 Q1661.77 1531.54 1666 1531.54 Q1666.61 1531.54 1667.34 1531.63 Q1668.07 1531.7 1668.96 1531.85 L1669 1537.87 Z" fill="#000000" fill-rule="nonzero" fill-opacity="1" /><path clip-path="url(#clip130)" d="M1704.2 1548.76 L1704.2 1551.62 L1677.27 1551.62 Q1677.65 1557.67 1680.9 1560.85 Q1684.18 1564 1690 1564 Q1693.38 1564 1696.53 1563.17 Q1699.71 1562.35 1702.83 1560.69 L1702.83 1566.23 Q1699.68 1567.57 1696.37 1568.27 Q1693.06 1568.97 1689.65 1568.97 Q1681.12 1568.97 1676.13 1564 Q1671.16 1559.04 1671.16 1550.57 Q1671.16 1541.82 1675.87 1536.69 Q1680.61 1531.54 1688.63 1531.54 Q1695.83 1531.54 1700 1536.18 Q1704.2 1540.8 1704.2 1548.76 M1698.34 1547.04 Q1698.28 1542.23 1695.64 1539.37 Q1693.03 1536.5 1688.7 1536.5 Q1683.8 1536.5 1680.84 1539.27 Q1677.91 1542.04 1677.46 1547.07 L1698.34 1547.04 Z" fill="#000000" fill-rule="nonzero" fill-opacity="1" /><path clip-path="url(#clip130)" d="M1733.99 1518.52 L1747.48 1518.52 L1747.48 1523.07 L1739.85 1523.07 L1739.85 1572.09 L1747.48 1572.09 L1747.48 1576.64 L1733.99 1576.64 L1733.99 1518.52 Z" fill="#000000" fill-rule="nonzero" fill-opacity="1" /><path clip-path="url(#clip130)" d="M1787.72 1539.24 Q1789.91 1535.29 1792.97 1533.41 Q1796.02 1531.54 1800.16 1531.54 Q1805.73 1531.54 1808.75 1535.45 Q1811.78 1539.33 1811.78 1546.53 L1811.78 1568.04 L1805.89 1568.04 L1805.89 1546.72 Q1805.89 1541.59 1804.08 1539.11 Q1802.26 1536.63 1798.54 1536.63 Q1793.99 1536.63 1791.34 1539.65 Q1788.7 1542.68 1788.7 1547.9 L1788.7 1568.04 L1782.81 1568.04 L1782.81 1546.72 Q1782.81 1541.56 1781 1539.11 Q1779.19 1536.63 1775.4 1536.63 Q1770.91 1536.63 1768.27 1539.68 Q1765.63 1542.71 1765.63 1547.9 L1765.63 1568.04 L1759.74 1568.04 L1759.74 1532.4 L1765.63 1532.4 L1765.63 1537.93 Q1767.63 1534.66 1770.43 1533.1 Q1773.23 1531.54 1777.09 1531.54 Q1780.97 1531.54 1783.67 1533.51 Q1786.41 1535.48 1787.72 1539.24 Z" fill="#000000" fill-rule="nonzero" fill-opacity="1" /><path clip-path="url(#clip130)" d="M1837.15 1518.52 L1837.15 1576.64 L1823.65 1576.64 L1823.65 1572.09 L1831.26 1572.09 L1831.26 1523.07 L1823.65 1523.07 L1823.65 1518.52 L1837.15 1518.52 Z" fill="#000000" fill-rule="nonzero" fill-opacity="1" /><polyline clip-path="url(#clip132)" style="stroke:#000000; stroke-linecap:round; stroke-linejoin:round; stroke-width:2; stroke-opacity:0.1; fill:none" points="250.028,1423.18 2352.76,1423.18 "/>
<polyline clip-path="url(#clip132)" style="stroke:#000000; stroke-linecap:round; stroke-linejoin:round; stroke-width:2; stroke-opacity:0.1; fill:none" points="250.028,1117.2 2352.76,1117.2 "/>
<polyline clip-path="url(#clip132)" style="stroke:#000000; stroke-linecap:round; stroke-linejoin:round; stroke-width:2; stroke-opacity:0.1; fill:none" points="250.028,811.216 2352.76,811.216 "/>
<polyline clip-path="url(#clip132)" style="stroke:#000000; stroke-linecap:round; stroke-linejoin:round; stroke-width:2; stroke-opacity:0.1; fill:none" points="250.028,505.233 2352.76,505.233 "/>
<polyline clip-path="url(#clip132)" style="stroke:#000000; stroke-linecap:round; stroke-linejoin:round; stroke-width:2; stroke-opacity:0.1; fill:none" points="250.028,199.251 2352.76,199.251 "/>
<polyline clip-path="url(#clip130)" style="stroke:#000000; stroke-linecap:round; stroke-linejoin:round; stroke-width:4; stroke-opacity:1; fill:none" points="250.028,1423.18 250.028,183.952 "/>
<polyline clip-path="url(#clip130)" style="stroke:#000000; stroke-linecap:round; stroke-linejoin:round; stroke-width:4; stroke-opacity:1; fill:none" points="250.028,1423.18 268.926,1423.18 "/>
<polyline clip-path="url(#clip130)" style="stroke:#000000; stroke-linecap:round; stroke-linejoin:round; stroke-width:4; stroke-opacity:1; fill:none" points="250.028,1117.2 268.926,1117.2 "/>
<polyline clip-path="url(#clip130)" style="stroke:#000000; stroke-linecap:round; stroke-linejoin:round; stroke-width:4; stroke-opacity:1; fill:none" points="250.028,811.216 268.926,811.216 "/>
<polyline clip-path="url(#clip130)" style="stroke:#000000; stroke-linecap:round; stroke-linejoin:round; stroke-width:4; stroke-opacity:1; fill:none" points="250.028,505.233 268.926,505.233 "/>
<polyline clip-path="url(#clip130)" style="stroke:#000000; stroke-linecap:round; stroke-linejoin:round; stroke-width:4; stroke-opacity:1; fill:none" points="250.028,199.251 268.926,199.251 "/>
<path clip-path="url(#clip130)" d="M126.691 1408.98 Q123.08 1408.98 121.251 1412.54 Q119.445 1416.08 119.445 1423.21 Q119.445 1430.32 121.251 1433.89 Q123.08 1437.43 126.691 1437.43 Q130.325 1437.43 132.13 1433.89 Q133.959 1430.32 133.959 1423.21 Q133.959 1416.08 132.13 1412.54 Q130.325 1408.98 126.691 1408.98 M126.691 1405.27 Q132.501 1405.27 135.556 1409.88 Q138.635 1414.46 138.635 1423.21 Q138.635 1431.94 135.556 1436.55 Q132.501 1441.13 126.691 1441.13 Q120.88 1441.13 117.802 1436.55 Q114.746 1431.94 114.746 1423.21 Q114.746 1414.46 117.802 1409.88 Q120.88 1405.27 126.691 1405.27 Z" fill="#000000" fill-rule="nonzero" fill-opacity="1" /><path clip-path="url(#clip130)" d="M146.853 1434.58 L151.737 1434.58 L151.737 1440.46 L146.853 1440.46 L146.853 1434.58 Z" fill="#000000" fill-rule="nonzero" fill-opacity="1" /><path clip-path="url(#clip130)" d="M171.922 1408.98 Q168.311 1408.98 166.482 1412.54 Q164.677 1416.08 164.677 1423.21 Q164.677 1430.32 166.482 1433.89 Q168.311 1437.43 171.922 1437.43 Q175.556 1437.43 177.362 1433.89 Q179.19 1430.32 179.19 1423.21 Q179.19 1416.08 177.362 1412.54 Q175.556 1408.98 171.922 1408.98 M171.922 1405.27 Q177.732 1405.27 180.788 1409.88 Q183.866 1414.46 183.866 1423.21 Q183.866 1431.94 180.788 1436.55 Q177.732 1441.13 171.922 1441.13 Q166.112 1441.13 163.033 1436.55 Q159.978 1431.94 159.978 1423.21 Q159.978 1414.46 163.033 1409.88 Q166.112 1405.27 171.922 1405.27 Z" fill="#000000" fill-rule="nonzero" fill-opacity="1" /><path clip-path="url(#clip130)" d="M202.084 1408.98 Q198.473 1408.98 196.644 1412.54 Q194.838 1416.08 194.838 1423.21 Q194.838 1430.32 196.644 1433.89 Q198.473 1437.43 202.084 1437.43 Q205.718 1437.43 207.524 1433.89 Q209.352 1430.32 209.352 1423.21 Q209.352 1416.08 207.524 1412.54 Q205.718 1408.98 202.084 1408.98 M202.084 1405.27 Q207.894 1405.27 210.949 1409.88 Q214.028 1414.46 214.028 1423.21 Q214.028 1431.94 210.949 1436.55 Q207.894 1441.13 202.084 1441.13 Q196.274 1441.13 193.195 1436.55 Q190.139 1431.94 190.139 1423.21 Q190.139 1414.46 193.195 1409.88 Q196.274 1405.27 202.084 1405.27 Z" fill="#000000" fill-rule="nonzero" fill-opacity="1" /><path clip-path="url(#clip130)" d="M128.288 1103 Q124.677 1103 122.848 1106.56 Q121.043 1110.1 121.043 1117.23 Q121.043 1124.34 122.848 1127.9 Q124.677 1131.45 128.288 1131.45 Q131.922 1131.45 133.728 1127.9 Q135.556 1124.34 135.556 1117.23 Q135.556 1110.1 133.728 1106.56 Q131.922 1103 128.288 1103 M128.288 1099.29 Q134.098 1099.29 137.154 1103.9 Q140.232 1108.48 140.232 1117.23 Q140.232 1125.96 137.154 1130.57 Q134.098 1135.15 128.288 1135.15 Q122.478 1135.15 119.399 1130.57 Q116.343 1125.96 116.343 1117.23 Q116.343 1108.48 119.399 1103.9 Q122.478 1099.29 128.288 1099.29 Z" fill="#000000" fill-rule="nonzero" fill-opacity="1" /><path clip-path="url(#clip130)" d="M148.45 1128.6 L153.334 1128.6 L153.334 1134.48 L148.45 1134.48 L148.45 1128.6 Z" fill="#000000" fill-rule="nonzero" fill-opacity="1" /><path clip-path="url(#clip130)" d="M173.519 1103 Q169.908 1103 168.079 1106.56 Q166.274 1110.1 166.274 1117.23 Q166.274 1124.34 168.079 1127.9 Q169.908 1131.45 173.519 1131.45 Q177.153 1131.45 178.959 1127.9 Q180.788 1124.34 180.788 1117.23 Q180.788 1110.1 178.959 1106.56 Q177.153 1103 173.519 1103 M173.519 1099.29 Q179.329 1099.29 182.385 1103.9 Q185.463 1108.48 185.463 1117.23 Q185.463 1125.96 182.385 1130.57 Q179.329 1135.15 173.519 1135.15 Q167.709 1135.15 164.63 1130.57 Q161.575 1125.96 161.575 1117.23 Q161.575 1108.48 164.63 1103.9 Q167.709 1099.29 173.519 1099.29 Z" fill="#000000" fill-rule="nonzero" fill-opacity="1" /><path clip-path="url(#clip130)" d="M197.709 1130.54 L214.028 1130.54 L214.028 1134.48 L192.084 1134.48 L192.084 1130.54 Q194.746 1127.79 199.329 1123.16 Q203.936 1118.51 205.116 1117.16 Q207.362 1114.64 208.241 1112.9 Q209.144 1111.14 209.144 1109.45 Q209.144 1106.7 207.199 1104.96 Q205.278 1103.23 202.176 1103.23 Q199.977 1103.23 197.524 1103.99 Q195.093 1104.76 192.315 1106.31 L192.315 1101.58 Q195.139 1100.45 197.593 1099.87 Q200.047 1099.29 202.084 1099.29 Q207.454 1099.29 210.649 1101.98 Q213.843 1104.66 213.843 1109.15 Q213.843 1111.28 213.033 1113.2 Q212.246 1115.1 210.139 1117.7 Q209.561 1118.37 206.459 1121.58 Q203.357 1124.78 197.709 1130.54 Z" fill="#000000" fill-rule="nonzero" fill-opacity="1" /><path clip-path="url(#clip130)" d="M126.205 797.014 Q122.593 797.014 120.765 800.579 Q118.959 804.121 118.959 811.25 Q118.959 818.357 120.765 821.921 Q122.593 825.463 126.205 825.463 Q129.839 825.463 131.644 821.921 Q133.473 818.357 133.473 811.25 Q133.473 804.121 131.644 800.579 Q129.839 797.014 126.205 797.014 M126.205 793.311 Q132.015 793.311 135.07 797.917 Q138.149 802.5 138.149 811.25 Q138.149 819.977 135.07 824.584 Q132.015 829.167 126.205 829.167 Q120.394 829.167 117.316 824.584 Q114.26 819.977 114.26 811.25 Q114.26 802.5 117.316 797.917 Q120.394 793.311 126.205 793.311 Z" fill="#000000" fill-rule="nonzero" fill-opacity="1" /><path clip-path="url(#clip130)" d="M146.366 822.616 L151.251 822.616 L151.251 828.496 L146.366 828.496 L146.366 822.616 Z" fill="#000000" fill-rule="nonzero" fill-opacity="1" /><path clip-path="url(#clip130)" d="M171.436 797.014 Q167.825 797.014 165.996 800.579 Q164.19 804.121 164.19 811.25 Q164.19 818.357 165.996 821.921 Q167.825 825.463 171.436 825.463 Q175.07 825.463 176.876 821.921 Q178.704 818.357 178.704 811.25 Q178.704 804.121 176.876 800.579 Q175.07 797.014 171.436 797.014 M171.436 793.311 Q177.246 793.311 180.301 797.917 Q183.38 802.5 183.38 811.25 Q183.38 819.977 180.301 824.584 Q177.246 829.167 171.436 829.167 Q165.626 829.167 162.547 824.584 Q159.491 819.977 159.491 811.25 Q159.491 802.5 162.547 797.917 Q165.626 793.311 171.436 793.311 Z" fill="#000000" fill-rule="nonzero" fill-opacity="1" /><path clip-path="url(#clip130)" d="M204.445 798.01 L192.639 816.459 L204.445 816.459 L204.445 798.01 M203.218 793.936 L209.098 793.936 L209.098 816.459 L214.028 816.459 L214.028 820.347 L209.098 820.347 L209.098 828.496 L204.445 828.496 L204.445 820.347 L188.843 820.347 L188.843 815.834 L203.218 793.936 Z" fill="#000000" fill-rule="nonzero" fill-opacity="1" /><path clip-path="url(#clip130)" d="M126.529 491.032 Q122.918 491.032 121.089 494.597 Q119.283 498.139 119.283 505.268 Q119.283 512.375 121.089 515.939 Q122.918 519.481 126.529 519.481 Q130.163 519.481 131.968 515.939 Q133.797 512.375 133.797 505.268 Q133.797 498.139 131.968 494.597 Q130.163 491.032 126.529 491.032 M126.529 487.328 Q132.339 487.328 135.394 491.935 Q138.473 496.518 138.473 505.268 Q138.473 513.995 135.394 518.601 Q132.339 523.185 126.529 523.185 Q120.718 523.185 117.64 518.601 Q114.584 513.995 114.584 505.268 Q114.584 496.518 117.64 491.935 Q120.718 487.328 126.529 487.328 Z" fill="#000000" fill-rule="nonzero" fill-opacity="1" /><path clip-path="url(#clip130)" d="M146.691 516.634 L151.575 516.634 L151.575 522.513 L146.691 522.513 L146.691 516.634 Z" fill="#000000" fill-rule="nonzero" fill-opacity="1" /><path clip-path="url(#clip130)" d="M171.76 491.032 Q168.149 491.032 166.32 494.597 Q164.515 498.139 164.515 505.268 Q164.515 512.375 166.32 515.939 Q168.149 519.481 171.76 519.481 Q175.394 519.481 177.2 515.939 Q179.028 512.375 179.028 505.268 Q179.028 498.139 177.2 494.597 Q175.394 491.032 171.76 491.032 M171.76 487.328 Q177.57 487.328 180.626 491.935 Q183.704 496.518 183.704 505.268 Q183.704 513.995 180.626 518.601 Q177.57 523.185 171.76 523.185 Q165.95 523.185 162.871 518.601 Q159.815 513.995 159.815 505.268 Q159.815 496.518 162.871 491.935 Q165.95 487.328 171.76 487.328 Z" fill="#000000" fill-rule="nonzero" fill-opacity="1" /><path clip-path="url(#clip130)" d="M202.5 503.37 Q199.352 503.37 197.5 505.523 Q195.672 507.676 195.672 511.425 Q195.672 515.152 197.5 517.328 Q199.352 519.481 202.5 519.481 Q205.649 519.481 207.477 517.328 Q209.329 515.152 209.329 511.425 Q209.329 507.676 207.477 505.523 Q205.649 503.37 202.5 503.37 M211.783 488.717 L211.783 492.977 Q210.024 492.143 208.218 491.703 Q206.436 491.264 204.676 491.264 Q200.047 491.264 197.593 494.389 Q195.163 497.514 194.815 503.833 Q196.181 501.819 198.241 500.754 Q200.301 499.666 202.778 499.666 Q207.987 499.666 210.996 502.838 Q214.028 505.986 214.028 511.425 Q214.028 516.75 210.88 519.967 Q207.732 523.185 202.5 523.185 Q196.505 523.185 193.334 518.601 Q190.163 513.995 190.163 505.268 Q190.163 497.074 194.051 492.213 Q197.94 487.328 204.491 487.328 Q206.25 487.328 208.033 487.676 Q209.838 488.023 211.783 488.717 Z" fill="#000000" fill-rule="nonzero" fill-opacity="1" /><path clip-path="url(#clip130)" d="M126.783 185.05 Q123.172 185.05 121.343 188.615 Q119.538 192.156 119.538 199.286 Q119.538 206.392 121.343 209.957 Q123.172 213.499 126.783 213.499 Q130.417 213.499 132.223 209.957 Q134.052 206.392 134.052 199.286 Q134.052 192.156 132.223 188.615 Q130.417 185.05 126.783 185.05 M126.783 181.346 Q132.593 181.346 135.649 185.953 Q138.728 190.536 138.728 199.286 Q138.728 208.013 135.649 212.619 Q132.593 217.203 126.783 217.203 Q120.973 217.203 117.894 212.619 Q114.839 208.013 114.839 199.286 Q114.839 190.536 117.894 185.953 Q120.973 181.346 126.783 181.346 Z" fill="#000000" fill-rule="nonzero" fill-opacity="1" /><path clip-path="url(#clip130)" d="M146.945 210.652 L151.829 210.652 L151.829 216.531 L146.945 216.531 L146.945 210.652 Z" fill="#000000" fill-rule="nonzero" fill-opacity="1" /><path clip-path="url(#clip130)" d="M172.014 185.05 Q168.403 185.05 166.575 188.615 Q164.769 192.156 164.769 199.286 Q164.769 206.392 166.575 209.957 Q168.403 213.499 172.014 213.499 Q175.649 213.499 177.454 209.957 Q179.283 206.392 179.283 199.286 Q179.283 192.156 177.454 188.615 Q175.649 185.05 172.014 185.05 M172.014 181.346 Q177.825 181.346 180.88 185.953 Q183.959 190.536 183.959 199.286 Q183.959 208.013 180.88 212.619 Q177.825 217.203 172.014 217.203 Q166.204 217.203 163.126 212.619 Q160.07 208.013 160.07 199.286 Q160.07 190.536 163.126 185.953 Q166.204 181.346 172.014 181.346 Z" fill="#000000" fill-rule="nonzero" fill-opacity="1" /><path clip-path="url(#clip130)" d="M202.176 200.119 Q198.843 200.119 196.922 201.902 Q195.024 203.684 195.024 206.809 Q195.024 209.934 196.922 211.716 Q198.843 213.499 202.176 213.499 Q205.51 213.499 207.431 211.716 Q209.352 209.911 209.352 206.809 Q209.352 203.684 207.431 201.902 Q205.533 200.119 202.176 200.119 M197.5 198.129 Q194.491 197.388 192.801 195.328 Q191.135 193.267 191.135 190.305 Q191.135 186.161 194.075 183.754 Q197.037 181.346 202.176 181.346 Q207.338 181.346 210.278 183.754 Q213.218 186.161 213.218 190.305 Q213.218 193.267 211.528 195.328 Q209.861 197.388 206.875 198.129 Q210.255 198.916 212.13 201.207 Q214.028 203.499 214.028 206.809 Q214.028 211.832 210.949 214.517 Q207.894 217.203 202.176 217.203 Q196.459 217.203 193.38 214.517 Q190.325 211.832 190.325 206.809 Q190.325 203.499 192.223 201.207 Q194.121 198.916 197.5 198.129 M195.787 190.744 Q195.787 193.43 197.454 194.934 Q199.144 196.439 202.176 196.439 Q205.186 196.439 206.875 194.934 Q208.588 193.43 208.588 190.744 Q208.588 188.059 206.875 186.555 Q205.186 185.05 202.176 185.05 Q199.144 185.05 197.454 186.555 Q195.787 188.059 195.787 190.744 Z" fill="#000000" fill-rule="nonzero" fill-opacity="1" /><path clip-path="url(#clip130)" d="M16.4842 1312.9 L16.4842 1303.32 L48.8219 1291.2 L16.4842 1279 L16.4842 1269.42 L64.0042 1269.42 L64.0042 1275.69 L22.277 1275.69 L54.8694 1287.95 L54.8694 1294.41 L22.277 1306.66 L64.0042 1306.66 L64.0042 1312.9 L16.4842 1312.9 Z" fill="#000000" fill-rule="nonzero" fill-opacity="1" /><path clip-path="url(#clip130)" d="M46.0847 1240.71 Q46.0847 1247.81 47.7079 1250.55 Q49.3312 1253.29 53.2461 1253.29 Q56.3653 1253.29 58.2114 1251.25 Q60.0256 1249.18 60.0256 1245.65 Q60.0256 1240.78 56.5881 1237.85 Q53.1188 1234.89 47.3897 1234.89 L46.0847 1234.89 L46.0847 1240.71 M43.6657 1229.03 L64.0042 1229.03 L64.0042 1234.89 L58.5933 1234.89 Q61.8398 1236.9 63.3994 1239.89 Q64.9272 1242.88 64.9272 1247.21 Q64.9272 1252.68 61.8716 1255.93 Q58.7843 1259.14 53.6281 1259.14 Q47.6125 1259.14 44.5569 1255.13 Q41.5014 1251.09 41.5014 1243.1 L41.5014 1234.89 L40.9285 1234.89 Q36.8862 1234.89 34.6901 1237.56 Q32.4621 1240.21 32.4621 1245.01 Q32.4621 1248.07 33.1941 1250.96 Q33.9262 1253.86 35.3903 1256.53 L29.9795 1256.53 Q28.7381 1253.32 28.1334 1250.3 Q27.4968 1247.27 27.4968 1244.41 Q27.4968 1236.67 31.5072 1232.85 Q35.5176 1229.03 43.6657 1229.03 Z" fill="#000000" fill-rule="nonzero" fill-opacity="1" /><path clip-path="url(#clip130)" d="M45.7664 1193.51 Q39.4007 1193.51 35.8996 1196.16 Q32.3984 1198.76 32.3984 1203.51 Q32.3984 1208.22 35.8996 1210.86 Q39.4007 1213.47 45.7664 1213.47 Q52.1003 1213.47 55.6014 1210.86 Q59.1026 1208.22 59.1026 1203.51 Q59.1026 1198.76 55.6014 1196.16 Q52.1003 1193.51 45.7664 1193.51 M59.58 1187.66 Q68.683 1187.66 73.1071 1191.7 Q77.5631 1195.74 77.5631 1204.08 Q77.5631 1207.17 77.0857 1209.9 Q76.6401 1212.64 75.6852 1215.22 L69.9879 1215.22 Q71.3884 1212.64 72.0568 1210.13 Q72.7252 1207.61 72.7252 1205 Q72.7252 1199.24 69.7015 1196.38 Q66.7096 1193.51 60.6303 1193.51 L57.7339 1193.51 Q60.885 1195.33 62.4446 1198.16 Q64.0042 1200.99 64.0042 1204.94 Q64.0042 1211.5 59.0071 1215.51 Q54.01 1219.52 45.7664 1219.52 Q37.491 1219.52 32.4939 1215.51 Q27.4968 1211.5 27.4968 1204.94 Q27.4968 1200.99 29.0564 1198.16 Q30.616 1195.33 33.7671 1193.51 L28.3562 1193.51 L28.3562 1187.66 L59.58 1187.66 Z" fill="#000000" fill-rule="nonzero" fill-opacity="1" /><path clip-path="url(#clip130)" d="M42.4881 1145.96 L64.0042 1145.96 L64.0042 1151.82 L42.679 1151.82 Q37.6183 1151.82 35.1038 1153.79 Q32.5894 1155.76 32.5894 1159.71 Q32.5894 1164.45 35.6131 1167.19 Q38.6368 1169.93 43.8567 1169.93 L64.0042 1169.93 L64.0042 1175.82 L28.3562 1175.82 L28.3562 1169.93 L33.8944 1169.93 Q30.6797 1167.83 29.0883 1164.99 Q27.4968 1162.13 27.4968 1158.41 Q27.4968 1152.26 31.3163 1149.11 Q35.1038 1145.96 42.4881 1145.96 Z" fill="#000000" fill-rule="nonzero" fill-opacity="1" /><path clip-path="url(#clip130)" d="M28.3562 1134.28 L28.3562 1128.42 L64.0042 1128.42 L64.0042 1134.28 L28.3562 1134.28 M14.479 1134.28 L14.479 1128.42 L21.895 1128.42 L21.895 1134.28 L14.479 1134.28 Z" fill="#000000" fill-rule="nonzero" fill-opacity="1" /><path clip-path="url(#clip130)" d="M18.2347 1110.38 L28.3562 1110.38 L28.3562 1098.31 L32.9077 1098.31 L32.9077 1110.38 L52.2594 1110.38 Q56.6199 1110.38 57.8613 1109.2 Q59.1026 1107.99 59.1026 1104.33 L59.1026 1098.31 L64.0042 1098.31 L64.0042 1104.33 Q64.0042 1111.11 61.4897 1113.69 Q58.9434 1116.27 52.2594 1116.27 L32.9077 1116.27 L32.9077 1120.56 L28.3562 1120.56 L28.3562 1116.27 L18.2347 1116.27 L18.2347 1110.38 Z" fill="#000000" fill-rule="nonzero" fill-opacity="1" /><path clip-path="url(#clip130)" d="M49.9359 1091.22 L28.3562 1091.22 L28.3562 1085.36 L49.7131 1085.36 Q54.7739 1085.36 57.3202 1083.39 Q59.8346 1081.41 59.8346 1077.47 Q59.8346 1072.72 56.8109 1069.99 Q53.7872 1067.22 48.5673 1067.22 L28.3562 1067.22 L28.3562 1061.36 L64.0042 1061.36 L64.0042 1067.22 L58.5296 1067.22 Q61.7762 1069.35 63.3676 1072.18 Q64.9272 1074.98 64.9272 1078.71 Q64.9272 1084.85 61.1078 1088.03 Q57.2883 1091.22 49.9359 1091.22 M27.4968 1076.48 L27.4968 1076.48 Z" fill="#000000" fill-rule="nonzero" fill-opacity="1" /><path clip-path="url(#clip130)" d="M33.7671 1025.84 L14.479 1025.84 L14.479 1019.98 L64.0042 1019.98 L64.0042 1025.84 L58.657 1025.84 Q61.8398 1027.69 63.3994 1030.52 Q64.9272 1033.32 64.9272 1037.27 Q64.9272 1043.73 59.771 1047.8 Q54.6147 1051.84 46.212 1051.84 Q37.8093 1051.84 32.6531 1047.8 Q27.4968 1043.73 27.4968 1037.27 Q27.4968 1033.32 29.0564 1030.52 Q30.5842 1027.69 33.7671 1025.84 M46.212 1045.8 Q52.6732 1045.8 56.3653 1043.16 Q60.0256 1040.48 60.0256 1035.83 Q60.0256 1031.19 56.3653 1028.51 Q52.6732 1025.84 46.212 1025.84 Q39.7508 1025.84 36.0905 1028.51 Q32.3984 1031.19 32.3984 1035.83 Q32.3984 1040.48 36.0905 1043.16 Q39.7508 1045.8 46.212 1045.8 Z" fill="#000000" fill-rule="nonzero" fill-opacity="1" /><path clip-path="url(#clip130)" d="M44.7161 977.429 L47.5806 977.429 L47.5806 1004.36 Q53.6281 1003.97 56.8109 1000.73 Q59.9619 997.449 59.9619 991.625 Q59.9619 988.251 59.1344 985.1 Q58.3069 981.917 56.6518 978.798 L62.1899 978.798 Q63.5267 981.949 64.227 985.259 Q64.9272 988.569 64.9272 991.975 Q64.9272 1000.51 59.9619 1005.5 Q54.9967 1010.47 46.5303 1010.47 Q37.7774 1010.47 32.6531 1005.76 Q27.4968 1001.01 27.4968 992.993 Q27.4968 985.8 32.1438 981.631 Q36.7589 977.429 44.7161 977.429 M42.9973 983.286 Q38.1912 983.349 35.3266 985.991 Q32.4621 988.601 32.4621 992.93 Q32.4621 997.831 35.2312 1000.79 Q38.0002 1003.72 43.0292 1004.17 L42.9973 983.286 Z" fill="#000000" fill-rule="nonzero" fill-opacity="1" /><path clip-path="url(#clip130)" d="M32.4621 933.283 Q32.4621 937.994 36.1542 940.731 Q39.8145 943.468 46.212 943.468 Q52.6095 943.468 56.3017 940.763 Q59.9619 938.026 59.9619 933.283 Q59.9619 928.604 56.2698 925.867 Q52.5777 923.13 46.212 923.13 Q39.8781 923.13 36.186 925.867 Q32.4621 928.604 32.4621 933.283 M27.4968 933.283 Q27.4968 925.644 32.4621 921.284 Q37.4273 916.923 46.212 916.923 Q54.9649 916.923 59.9619 921.284 Q64.9272 925.644 64.9272 933.283 Q64.9272 940.954 59.9619 945.314 Q54.9649 949.643 46.212 949.643 Q37.4273 949.643 32.4621 945.314 Q27.4968 940.954 27.4968 933.283 Z" fill="#000000" fill-rule="nonzero" fill-opacity="1" /><path clip-path="url(#clip130)" d="M14.479 889.169 L19.3487 889.169 L19.3487 894.771 Q19.3487 897.922 20.6219 899.163 Q21.895 900.372 25.2052 900.372 L28.3562 900.372 L28.3562 890.728 L32.9077 890.728 L32.9077 900.372 L64.0042 900.372 L64.0042 906.261 L32.9077 906.261 L32.9077 911.863 L28.3562 911.863 L28.3562 906.261 L25.8736 906.261 Q19.9216 906.261 17.2162 903.492 Q14.479 900.723 14.479 894.707 L14.479 889.169 Z" fill="#000000" fill-rule="nonzero" fill-opacity="1" /><path clip-path="url(#clip130)" d="M16.4842 863.292 L16.4842 853.712 L48.8219 841.585 L16.4842 829.395 L16.4842 819.814 L64.0042 819.814 L64.0042 826.085 L22.277 826.085 L54.8694 838.339 L54.8694 844.8 L22.277 857.054 L64.0042 857.054 L64.0042 863.292 L16.4842 863.292 Z" fill="#000000" fill-rule="nonzero" fill-opacity="1" /><path clip-path="url(#clip130)" d="M46.0847 791.105 Q46.0847 798.203 47.7079 800.94 Q49.3312 803.677 53.2461 803.677 Q56.3653 803.677 58.2114 801.64 Q60.0256 799.572 60.0256 796.039 Q60.0256 791.169 56.5881 788.241 Q53.1188 785.28 47.3897 785.28 L46.0847 785.28 L46.0847 791.105 M43.6657 779.424 L64.0042 779.424 L64.0042 785.28 L58.5933 785.28 Q61.8398 787.286 63.3994 790.278 Q64.9272 793.269 64.9272 797.598 Q64.9272 803.073 61.8716 806.319 Q58.7843 809.534 53.6281 809.534 Q47.6125 809.534 44.5569 805.523 Q41.5014 801.481 41.5014 793.492 L41.5014 785.28 L40.9285 785.28 Q36.8862 785.28 34.6901 787.954 Q32.4621 790.596 32.4621 795.402 Q32.4621 798.458 33.1941 801.354 Q33.9262 804.25 35.3903 806.924 L29.9795 806.924 Q28.7381 803.709 28.1334 800.686 Q27.4968 797.662 27.4968 794.797 Q27.4968 787.063 31.5072 783.243 Q35.5176 779.424 43.6657 779.424 Z" fill="#000000" fill-rule="nonzero" fill-opacity="1" /><path clip-path="url(#clip130)" d="M45.7664 743.903 Q39.4007 743.903 35.8996 746.545 Q32.3984 749.155 32.3984 753.898 Q32.3984 758.608 35.8996 761.25 Q39.4007 763.86 45.7664 763.86 Q52.1003 763.86 55.6014 761.25 Q59.1026 758.608 59.1026 753.898 Q59.1026 749.155 55.6014 746.545 Q52.1003 743.903 45.7664 743.903 M59.58 738.047 Q68.683 738.047 73.1071 742.089 Q77.5631 746.131 77.5631 754.47 Q77.5631 757.558 77.0857 760.295 Q76.6401 763.032 75.6852 765.61 L69.9879 765.61 Q71.3884 763.032 72.0568 760.518 Q72.7252 758.003 72.7252 755.393 Q72.7252 749.633 69.7015 746.768 Q66.7096 743.903 60.6303 743.903 L57.7339 743.903 Q60.885 745.718 62.4446 748.55 Q64.0042 751.383 64.0042 755.33 Q64.0042 761.887 59.0071 765.897 Q54.01 769.907 45.7664 769.907 Q37.491 769.907 32.4939 765.897 Q27.4968 761.887 27.4968 755.33 Q27.4968 751.383 29.0564 748.55 Q30.616 745.718 33.7671 743.903 L28.3562 743.903 L28.3562 738.047 L59.58 738.047 Z" fill="#000000" fill-rule="nonzero" fill-opacity="1" /><path clip-path="url(#clip130)" d="M42.4881 696.352 L64.0042 696.352 L64.0042 702.208 L42.679 702.208 Q37.6183 702.208 35.1038 704.181 Q32.5894 706.155 32.5894 710.101 Q32.5894 714.844 35.6131 717.581 Q38.6368 720.318 43.8567 720.318 L64.0042 720.318 L64.0042 726.207 L28.3562 726.207 L28.3562 720.318 L33.8944 720.318 Q30.6797 718.218 29.0883 715.385 Q27.4968 712.52 27.4968 708.797 Q27.4968 702.654 31.3163 699.503 Q35.1038 696.352 42.4881 696.352 Z" fill="#000000" fill-rule="nonzero" fill-opacity="1" /><path clip-path="url(#clip130)" d="M44.7161 654.179 L47.5806 654.179 L47.5806 681.106 Q53.6281 680.724 56.8109 677.477 Q59.9619 674.199 59.9619 668.374 Q59.9619 665 59.1344 661.849 Q58.3069 658.667 56.6518 655.547 L62.1899 655.547 Q63.5267 658.698 64.227 662.009 Q64.9272 665.319 64.9272 668.724 Q64.9272 677.254 59.9619 682.252 Q54.9967 687.217 46.5303 687.217 Q37.7774 687.217 32.6531 682.506 Q27.4968 677.764 27.4968 669.743 Q27.4968 662.55 32.1438 658.38 Q36.7589 654.179 44.7161 654.179 M42.9973 660.035 Q38.1912 660.099 35.3266 662.741 Q32.4621 665.351 32.4621 669.679 Q32.4621 674.581 35.2312 677.541 Q38.0002 680.469 43.0292 680.915 L42.9973 660.035 Z" fill="#000000" fill-rule="nonzero" fill-opacity="1" /><path clip-path="url(#clip130)" d="M18.2347 638.774 L28.3562 638.774 L28.3562 626.711 L32.9077 626.711 L32.9077 638.774 L52.2594 638.774 Q56.6199 638.774 57.8613 637.596 Q59.1026 636.387 59.1026 632.726 L59.1026 626.711 L64.0042 626.711 L64.0042 632.726 Q64.0042 639.506 61.4897 642.084 Q58.9434 644.662 52.2594 644.662 L32.9077 644.662 L32.9077 648.959 L28.3562 648.959 L28.3562 644.662 L18.2347 644.662 L18.2347 638.774 Z" fill="#000000" fill-rule="nonzero" fill-opacity="1" /><path clip-path="url(#clip130)" d="M28.3562 619.008 L28.3562 613.152 L64.0042 613.152 L64.0042 619.008 L28.3562 619.008 M14.479 619.008 L14.479 613.152 L21.895 613.152 L21.895 619.008 L14.479 619.008 Z" fill="#000000" fill-rule="nonzero" fill-opacity="1" /><path clip-path="url(#clip130)" d="M29.7248 575.244 L35.1993 575.244 Q33.8307 577.727 33.1623 580.241 Q32.4621 582.724 32.4621 585.27 Q32.4621 590.967 36.0905 594.118 Q39.6872 597.269 46.212 597.269 Q52.7369 597.269 56.3653 594.118 Q59.9619 590.967 59.9619 585.27 Q59.9619 582.724 59.2935 580.241 Q58.5933 577.727 57.2247 575.244 L62.6355 575.244 Q63.7814 577.695 64.3543 580.337 Q64.9272 582.947 64.9272 585.907 Q64.9272 593.959 59.8664 598.702 Q54.8057 603.444 46.212 603.444 Q37.491 603.444 32.4939 598.67 Q27.4968 593.864 27.4968 585.525 Q27.4968 582.819 28.0697 580.241 Q28.6108 577.663 29.7248 575.244 Z" fill="#000000" fill-rule="nonzero" fill-opacity="1" /><path clip-path="url(#clip130)" d="M16.4842 544.084 L16.4842 516.775 L21.895 516.775 L21.895 537.655 L35.8996 537.655 L35.8996 518.812 L41.3104 518.812 L41.3104 537.655 L64.0042 537.655 L64.0042 544.084 L16.4842 544.084 Z" fill="#000000" fill-rule="nonzero" fill-opacity="1" /><path clip-path="url(#clip130)" d="M28.3562 511.587 L28.3562 505.73 L64.0042 505.73 L64.0042 511.587 L28.3562 511.587 M14.479 511.587 L14.479 505.73 L21.895 505.73 L21.895 511.587 L14.479 511.587 Z" fill="#000000" fill-rule="nonzero" fill-opacity="1" /><path clip-path="url(#clip130)" d="M44.7161 462.985 L47.5806 462.985 L47.5806 489.912 Q53.6281 489.53 56.8109 486.283 Q59.9619 483.005 59.9619 477.18 Q59.9619 473.806 59.1344 470.655 Q58.3069 467.473 56.6518 464.353 L62.1899 464.353 Q63.5267 467.504 64.227 470.815 Q64.9272 474.125 64.9272 477.53 Q64.9272 486.06 59.9619 491.058 Q54.9967 496.023 46.5303 496.023 Q37.7774 496.023 32.6531 491.312 Q27.4968 486.57 27.4968 478.549 Q27.4968 471.356 32.1438 467.186 Q36.7589 462.985 44.7161 462.985 M42.9973 468.841 Q38.1912 468.905 35.3266 471.547 Q32.4621 474.157 32.4621 478.485 Q32.4621 483.387 35.2312 486.347 Q38.0002 489.275 43.0292 489.721 L42.9973 468.841 Z" fill="#000000" fill-rule="nonzero" fill-opacity="1" /><path clip-path="url(#clip130)" d="M14.479 453.373 L14.479 447.516 L64.0042 447.516 L64.0042 453.373 L14.479 453.373 Z" fill="#000000" fill-rule="nonzero" fill-opacity="1" /><path clip-path="url(#clip130)" d="M33.7671 411.804 L14.479 411.804 L14.479 405.948 L64.0042 405.948 L64.0042 411.804 L58.657 411.804 Q61.8398 413.651 63.3994 416.483 Q64.9272 419.284 64.9272 423.231 Q64.9272 429.692 59.771 433.766 Q54.6147 437.808 46.212 437.808 Q37.8093 437.808 32.6531 433.766 Q27.4968 429.692 27.4968 423.231 Q27.4968 419.284 29.0564 416.483 Q30.5842 413.651 33.7671 411.804 M46.212 431.761 Q52.6732 431.761 56.3653 429.119 Q60.0256 426.446 60.0256 421.799 Q60.0256 417.152 56.3653 414.478 Q52.6732 411.804 46.212 411.804 Q39.7508 411.804 36.0905 414.478 Q32.3984 417.152 32.3984 421.799 Q32.3984 426.446 36.0905 429.119 Q39.7508 431.761 46.212 431.761 Z" fill="#000000" fill-rule="nonzero" fill-opacity="1" /><path clip-path="url(#clip130)" d="M14.479 373.706 L14.479 360.21 L19.0304 360.21 L19.0304 367.849 L68.0464 367.849 L68.0464 360.21 L72.5979 360.21 L72.5979 373.706 L14.479 373.706 Z" fill="#000000" fill-rule="nonzero" fill-opacity="1" /><path clip-path="url(#clip130)" d="M16.4842 354.068 L16.4842 313.868 L21.895 313.868 L21.895 330.737 L64.0042 330.737 L64.0042 337.198 L21.895 337.198 L21.895 354.068 L16.4842 354.068 Z" fill="#000000" fill-rule="nonzero" fill-opacity="1" /><path clip-path="url(#clip130)" d="M14.479 294.23 L72.5979 294.23 L72.5979 307.725 L68.0464 307.725 L68.0464 300.118 L19.0304 300.118 L19.0304 307.725 L14.479 307.725 L14.479 294.23 Z" fill="#000000" fill-rule="nonzero" fill-opacity="1" /><path clip-path="url(#clip130)" d="M463.766 33.264 L475.96 33.264 L491.393 74.4212 L506.908 33.264 L519.102 33.264 L519.102 93.744 L511.121 93.744 L511.121 40.6366 L495.525 82.1179 L487.302 82.1179 L471.706 40.6366 L471.706 93.744 L463.766 93.744 L463.766 33.264 Z" fill="#000000" fill-rule="nonzero" fill-opacity="1" /><path clip-path="url(#clip130)" d="M555.641 70.9374 Q546.607 70.9374 543.124 73.0034 Q539.64 75.0693 539.64 80.0519 Q539.64 84.0218 542.232 86.3714 Q544.865 88.6804 549.362 88.6804 Q555.56 88.6804 559.287 84.3054 Q563.054 79.8899 563.054 72.5983 L563.054 70.9374 L555.641 70.9374 M570.508 67.8587 L570.508 93.744 L563.054 93.744 L563.054 86.8575 Q560.502 90.9894 556.694 92.9743 Q552.886 94.9188 547.377 94.9188 Q540.409 94.9188 536.277 91.0299 Q532.186 87.1005 532.186 80.5381 Q532.186 72.8818 537.29 68.993 Q542.435 65.1041 552.603 65.1041 L563.054 65.1041 L563.054 64.3749 Q563.054 59.2303 559.651 56.4352 Q556.289 53.5995 550.172 53.5995 Q546.283 53.5995 542.597 54.5312 Q538.911 55.463 535.508 57.3264 L535.508 50.4398 Q539.599 48.86 543.448 48.0903 Q547.296 47.2801 550.942 47.2801 Q560.785 47.2801 565.647 52.3843 Q570.508 57.4884 570.508 67.8587 Z" fill="#000000" fill-rule="nonzero" fill-opacity="1" /><path clip-path="url(#clip130)" d="M615.716 70.5323 Q615.716 62.4305 612.353 57.9745 Q609.032 53.5185 602.996 53.5185 Q597.001 53.5185 593.638 57.9745 Q590.317 62.4305 590.317 70.5323 Q590.317 78.5936 593.638 83.0496 Q597.001 87.5056 602.996 87.5056 Q609.032 87.5056 612.353 83.0496 Q615.716 78.5936 615.716 70.5323 M623.169 88.1132 Q623.169 99.6988 618.025 105.33 Q612.88 111.001 602.267 111.001 Q598.337 111.001 594.854 110.393 Q591.37 109.826 588.089 108.611 L588.089 101.36 Q591.37 103.142 594.57 103.993 Q597.77 104.843 601.092 104.843 Q608.424 104.843 612.07 100.995 Q615.716 97.1873 615.716 89.45 L615.716 85.7637 Q613.407 89.7741 609.801 91.7591 Q606.196 93.744 601.173 93.744 Q592.828 93.744 587.724 87.3841 Q582.62 81.0242 582.62 70.5323 Q582.62 60 587.724 53.64 Q592.828 47.2801 601.173 47.2801 Q606.196 47.2801 609.801 49.2651 Q613.407 51.25 615.716 55.2604 L615.716 48.3739 L623.169 48.3739 L623.169 88.1132 Z" fill="#000000" fill-rule="nonzero" fill-opacity="1" /><path clip-path="url(#clip130)" d="M676.236 66.3599 L676.236 93.744 L668.783 93.744 L668.783 66.6029 Q668.783 60.162 666.271 56.9618 Q663.759 53.7616 658.736 53.7616 Q652.7 53.7616 649.217 57.6099 Q645.733 61.4583 645.733 68.1018 L645.733 93.744 L638.239 93.744 L638.239 48.3739 L645.733 48.3739 L645.733 55.4224 Q648.407 51.331 652.012 49.3056 Q655.658 47.2801 660.397 47.2801 Q668.215 47.2801 672.226 52.1412 Q676.236 56.9618 676.236 66.3599 Z" fill="#000000" fill-rule="nonzero" fill-opacity="1" /><path clip-path="url(#clip130)" d="M729.911 69.1955 L729.911 72.8413 L695.64 72.8413 Q696.126 80.5381 700.258 84.589 Q704.431 88.5994 711.844 88.5994 Q716.138 88.5994 720.148 87.5461 Q724.199 86.4929 728.169 84.3864 L728.169 91.435 Q724.158 93.1364 719.945 94.0276 Q715.733 94.9188 711.398 94.9188 Q700.542 94.9188 694.182 88.5994 Q687.862 82.2799 687.862 71.5045 Q687.862 60.3645 693.858 53.8426 Q699.894 47.2801 710.102 47.2801 Q719.257 47.2801 724.564 53.1944 Q729.911 59.0683 729.911 69.1955 M722.457 67.008 Q722.376 60.8912 719.014 57.2454 Q715.692 53.5995 710.183 53.5995 Q703.944 53.5995 700.177 57.1238 Q696.45 60.6481 695.883 67.0485 L722.457 67.008 Z" fill="#000000" fill-rule="nonzero" fill-opacity="1" /><path clip-path="url(#clip130)" d="M749.517 35.492 L749.517 48.3739 L764.87 48.3739 L764.87 54.1667 L749.517 54.1667 L749.517 78.7962 Q749.517 84.3459 751.016 85.9258 Q752.555 87.5056 757.214 87.5056 L764.87 87.5056 L764.87 93.744 L757.214 93.744 Q748.585 93.744 745.304 90.5438 Q742.023 87.3031 742.023 78.7962 L742.023 54.1667 L736.554 54.1667 L736.554 48.3739 L742.023 48.3739 L742.023 35.492 L749.517 35.492 Z" fill="#000000" fill-rule="nonzero" fill-opacity="1" /><path clip-path="url(#clip130)" d="M774.673 48.3739 L782.127 48.3739 L782.127 93.744 L774.673 93.744 L774.673 48.3739 M774.673 30.7119 L782.127 30.7119 L782.127 40.1505 L774.673 40.1505 L774.673 30.7119 Z" fill="#000000" fill-rule="nonzero" fill-opacity="1" /><path clip-path="url(#clip130)" d="M830.373 50.1158 L830.373 57.0833 Q827.213 55.3414 824.013 54.4907 Q820.854 53.5995 817.613 53.5995 Q810.362 53.5995 806.351 58.2176 Q802.341 62.7951 802.341 71.0994 Q802.341 79.4038 806.351 84.0218 Q810.362 88.5994 817.613 88.5994 Q820.854 88.5994 824.013 87.7487 Q827.213 86.8575 830.373 85.1156 L830.373 92.0021 Q827.254 93.4604 823.892 94.1896 Q820.57 94.9188 816.803 94.9188 Q806.554 94.9188 800.518 88.4778 Q794.482 82.0369 794.482 71.0994 Q794.482 60 800.558 53.64 Q806.675 47.2801 817.289 47.2801 Q820.732 47.2801 824.013 48.0093 Q827.294 48.6979 830.373 50.1158 Z" fill="#000000" fill-rule="nonzero" fill-opacity="1" /><path clip-path="url(#clip130)" d="M870.031 33.264 L904.788 33.264 L904.788 40.1505 L878.214 40.1505 L878.214 57.9745 L902.196 57.9745 L902.196 64.8611 L878.214 64.8611 L878.214 93.744 L870.031 93.744 L870.031 33.264 Z" fill="#000000" fill-rule="nonzero" fill-opacity="1" /><path clip-path="url(#clip130)" d="M911.391 48.3739 L918.845 48.3739 L918.845 93.744 L911.391 93.744 L911.391 48.3739 M911.391 30.7119 L918.845 30.7119 L918.845 40.1505 L911.391 40.1505 L911.391 30.7119 Z" fill="#000000" fill-rule="nonzero" fill-opacity="1" /><path clip-path="url(#clip130)" d="M973.249 69.1955 L973.249 72.8413 L938.978 72.8413 Q939.464 80.5381 943.596 84.589 Q947.768 88.5994 955.181 88.5994 Q959.475 88.5994 963.486 87.5461 Q967.537 86.4929 971.507 84.3864 L971.507 91.435 Q967.496 93.1364 963.283 94.0276 Q959.07 94.9188 954.736 94.9188 Q943.879 94.9188 937.52 88.5994 Q931.2 82.2799 931.2 71.5045 Q931.2 60.3645 937.195 53.8426 Q943.231 47.2801 953.44 47.2801 Q962.595 47.2801 967.901 53.1944 Q973.249 59.0683 973.249 69.1955 M965.795 67.008 Q965.714 60.8912 962.352 57.2454 Q959.03 53.5995 953.521 53.5995 Q947.282 53.5995 943.515 57.1238 Q939.788 60.6481 939.221 67.0485 L965.795 67.008 Z" fill="#000000" fill-rule="nonzero" fill-opacity="1" /><path clip-path="url(#clip130)" d="M985.482 30.7119 L992.936 30.7119 L992.936 93.744 L985.482 93.744 L985.482 30.7119 Z" fill="#000000" fill-rule="nonzero" fill-opacity="1" /><path clip-path="url(#clip130)" d="M1038.39 55.2604 L1038.39 30.7119 L1045.84 30.7119 L1045.84 93.744 L1038.39 93.744 L1038.39 86.9385 Q1036.04 90.9894 1032.43 92.9743 Q1028.87 94.9188 1023.84 94.9188 Q1015.62 94.9188 1010.44 88.3563 Q1005.29 81.7938 1005.29 71.0994 Q1005.29 60.4051 1010.44 53.8426 Q1015.62 47.2801 1023.84 47.2801 Q1028.87 47.2801 1032.43 49.2651 Q1036.04 51.2095 1038.39 55.2604 M1012.99 71.0994 Q1012.99 79.3228 1016.35 84.0218 Q1019.75 88.6804 1025.67 88.6804 Q1031.58 88.6804 1034.98 84.0218 Q1038.39 79.3228 1038.39 71.0994 Q1038.39 62.8761 1034.98 58.2176 Q1031.58 53.5185 1025.67 53.5185 Q1019.75 53.5185 1016.35 58.2176 Q1012.99 62.8761 1012.99 71.0994 Z" fill="#000000" fill-rule="nonzero" fill-opacity="1" /><path clip-path="url(#clip130)" d="M1108.1 41.3253 L1097 71.4235 L1119.24 71.4235 L1108.1 41.3253 M1103.49 33.264 L1112.76 33.264 L1135.81 93.744 L1127.3 93.744 L1121.8 78.229 L1094.53 78.229 L1089.02 93.744 L1080.39 93.744 L1103.49 33.264 Z" fill="#000000" fill-rule="nonzero" fill-opacity="1" /><path clip-path="url(#clip130)" d="M1170.61 55.3414 Q1169.35 54.6123 1167.85 54.2882 Q1166.4 53.9236 1164.61 53.9236 Q1158.29 53.9236 1154.89 58.0555 Q1151.53 62.1469 1151.53 69.8437 L1151.53 93.744 L1144.03 93.744 L1144.03 48.3739 L1151.53 48.3739 L1151.53 55.4224 Q1153.88 51.2905 1157.65 49.3056 Q1161.41 47.2801 1166.8 47.2801 Q1167.57 47.2801 1168.5 47.4017 Q1169.43 47.4827 1170.57 47.6852 L1170.61 55.3414 Z" fill="#000000" fill-rule="nonzero" fill-opacity="1" /><path clip-path="url(#clip130)" d="M1194.18 53.5995 Q1188.19 53.5995 1184.71 58.2986 Q1181.22 62.9571 1181.22 71.0994 Q1181.22 79.2418 1184.67 83.9408 Q1188.15 88.5994 1194.18 88.5994 Q1200.14 88.5994 1203.62 83.9003 Q1207.11 79.2013 1207.11 71.0994 Q1207.11 63.0381 1203.62 58.3391 Q1200.14 53.5995 1194.18 53.5995 M1194.18 47.2801 Q1203.91 47.2801 1209.46 53.5995 Q1215.01 59.9189 1215.01 71.0994 Q1215.01 82.2394 1209.46 88.5994 Q1203.91 94.9188 1194.18 94.9188 Q1184.42 94.9188 1178.87 88.5994 Q1173.36 82.2394 1173.36 71.0994 Q1173.36 59.9189 1178.87 53.5995 Q1184.42 47.2801 1194.18 47.2801 Z" fill="#000000" fill-rule="nonzero" fill-opacity="1" /><path clip-path="url(#clip130)" d="M1226.59 75.839 L1226.59 48.3739 L1234.05 48.3739 L1234.05 75.5554 Q1234.05 81.9964 1236.56 85.2371 Q1239.07 88.4373 1244.09 88.4373 Q1250.13 88.4373 1253.61 84.589 Q1257.14 80.7406 1257.14 74.0971 L1257.14 48.3739 L1264.59 48.3739 L1264.59 93.744 L1257.14 93.744 L1257.14 86.7764 Q1254.42 90.9084 1250.82 92.9338 Q1247.25 94.9188 1242.51 94.9188 Q1234.69 94.9188 1230.64 90.0577 Q1226.59 85.1966 1226.59 75.839 M1245.35 47.2801 L1245.35 47.2801 Z" fill="#000000" fill-rule="nonzero" fill-opacity="1" /><path clip-path="url(#clip130)" d="M1317.66 66.3599 L1317.66 93.744 L1310.2 93.744 L1310.2 66.6029 Q1310.2 60.162 1307.69 56.9618 Q1305.18 53.7616 1300.16 53.7616 Q1294.12 53.7616 1290.64 57.6099 Q1287.15 61.4583 1287.15 68.1018 L1287.15 93.744 L1279.66 93.744 L1279.66 48.3739 L1287.15 48.3739 L1287.15 55.4224 Q1289.83 51.331 1293.43 49.3056 Q1297.08 47.2801 1301.82 47.2801 Q1309.64 47.2801 1313.65 52.1412 Q1317.66 56.9618 1317.66 66.3599 Z" fill="#000000" fill-rule="nonzero" fill-opacity="1" /><path clip-path="url(#clip130)" d="M1362.38 55.2604 L1362.38 30.7119 L1369.83 30.7119 L1369.83 93.744 L1362.38 93.744 L1362.38 86.9385 Q1360.03 90.9894 1356.42 92.9743 Q1352.86 94.9188 1347.84 94.9188 Q1339.61 94.9188 1334.43 88.3563 Q1329.28 81.7938 1329.28 71.0994 Q1329.28 60.4051 1334.43 53.8426 Q1339.61 47.2801 1347.84 47.2801 Q1352.86 47.2801 1356.42 49.2651 Q1360.03 51.2095 1362.38 55.2604 M1336.98 71.0994 Q1336.98 79.3228 1340.34 84.0218 Q1343.74 88.6804 1349.66 88.6804 Q1355.57 88.6804 1358.98 84.0218 Q1362.38 79.3228 1362.38 71.0994 Q1362.38 62.8761 1358.98 58.2176 Q1355.57 53.5185 1349.66 53.5185 Q1343.74 53.5185 1340.34 58.2176 Q1336.98 62.8761 1336.98 71.0994 Z" fill="#000000" fill-rule="nonzero" fill-opacity="1" /><path clip-path="url(#clip130)" d="M1432.18 70.9374 Q1423.14 70.9374 1419.66 73.0034 Q1416.17 75.0693 1416.17 80.0519 Q1416.17 84.0218 1418.77 86.3714 Q1421.4 88.6804 1425.9 88.6804 Q1432.09 88.6804 1435.82 84.3054 Q1439.59 79.8899 1439.59 72.5983 L1439.59 70.9374 L1432.18 70.9374 M1447.04 67.8587 L1447.04 93.744 L1439.59 93.744 L1439.59 86.8575 Q1437.04 90.9894 1433.23 92.9743 Q1429.42 94.9188 1423.91 94.9188 Q1416.94 94.9188 1412.81 91.0299 Q1408.72 87.1005 1408.72 80.5381 Q1408.72 72.8818 1413.82 68.993 Q1418.97 65.1041 1429.14 65.1041 L1439.59 65.1041 L1439.59 64.3749 Q1439.59 59.2303 1436.19 56.4352 Q1432.82 53.5995 1426.71 53.5995 Q1422.82 53.5995 1419.13 54.5312 Q1415.45 55.463 1412.04 57.3264 L1412.04 50.4398 Q1416.13 48.86 1419.98 48.0903 Q1423.83 47.2801 1427.48 47.2801 Q1437.32 47.2801 1442.18 52.3843 Q1447.04 57.4884 1447.04 67.8587 Z" fill="#000000" fill-rule="nonzero" fill-opacity="1" /><path clip-path="url(#clip130)" d="M1525.35 35.2489 L1525.35 43.2292 Q1520.69 41.0012 1516.56 39.9075 Q1512.42 38.8137 1508.58 38.8137 Q1501.89 38.8137 1498.25 41.4063 Q1494.64 43.9989 1494.64 48.779 Q1494.64 52.7894 1497.03 54.8553 Q1499.46 56.8808 1506.19 58.1366 L1511.13 59.1493 Q1520.28 60.8912 1524.62 65.3067 Q1528.99 69.6816 1528.99 77.0543 Q1528.99 85.8447 1523.08 90.3817 Q1517.2 94.9188 1505.82 94.9188 Q1501.53 94.9188 1496.67 93.9465 Q1491.85 92.9743 1486.66 91.0704 L1486.66 82.6445 Q1491.64 85.4396 1496.42 86.8575 Q1501.2 88.2753 1505.82 88.2753 Q1512.83 88.2753 1516.64 85.5207 Q1520.44 82.766 1520.44 77.6619 Q1520.44 73.2059 1517.69 70.6944 Q1514.98 68.1828 1508.74 66.927 L1503.75 65.9548 Q1494.6 64.1319 1490.51 60.243 Q1486.42 56.3542 1486.42 49.4271 Q1486.42 41.4063 1492.05 36.7883 Q1497.72 32.1703 1507.64 32.1703 Q1511.9 32.1703 1516.31 32.9399 Q1520.73 33.7096 1525.35 35.2489 Z" fill="#000000" fill-rule="nonzero" fill-opacity="1" /><path clip-path="url(#clip130)" d="M1559.01 53.5995 Q1553.01 53.5995 1549.53 58.2986 Q1546.05 62.9571 1546.05 71.0994 Q1546.05 79.2418 1549.49 83.9408 Q1552.97 88.5994 1559.01 88.5994 Q1564.96 88.5994 1568.45 83.9003 Q1571.93 79.2013 1571.93 71.0994 Q1571.93 63.0381 1568.45 58.3391 Q1564.96 53.5995 1559.01 53.5995 M1559.01 47.2801 Q1568.73 47.2801 1574.28 53.5995 Q1579.83 59.9189 1579.83 71.0994 Q1579.83 82.2394 1574.28 88.5994 Q1568.73 94.9188 1559.01 94.9188 Q1549.25 94.9188 1543.7 88.5994 Q1538.19 82.2394 1538.19 71.0994 Q1538.19 59.9189 1543.7 53.5995 Q1549.25 47.2801 1559.01 47.2801 Z" fill="#000000" fill-rule="nonzero" fill-opacity="1" /><path clip-path="url(#clip130)" d="M1592.19 30.7119 L1599.64 30.7119 L1599.64 93.744 L1592.19 93.744 L1592.19 30.7119 Z" fill="#000000" fill-rule="nonzero" fill-opacity="1" /><path clip-path="url(#clip130)" d="M1615.24 48.3739 L1622.69 48.3739 L1622.69 93.744 L1615.24 93.744 L1615.24 48.3739 M1615.24 30.7119 L1622.69 30.7119 L1622.69 40.1505 L1615.24 40.1505 L1615.24 30.7119 Z" fill="#000000" fill-rule="nonzero" fill-opacity="1" /><path clip-path="url(#clip130)" d="M1668.14 55.2604 L1668.14 30.7119 L1675.59 30.7119 L1675.59 93.744 L1668.14 93.744 L1668.14 86.9385 Q1665.79 90.9894 1662.19 92.9743 Q1658.62 94.9188 1653.6 94.9188 Q1645.37 94.9188 1640.19 88.3563 Q1635.04 81.7938 1635.04 71.0994 Q1635.04 60.4051 1640.19 53.8426 Q1645.37 47.2801 1653.6 47.2801 Q1658.62 47.2801 1662.19 49.2651 Q1665.79 51.2095 1668.14 55.2604 M1642.74 71.0994 Q1642.74 79.3228 1646.1 84.0218 Q1649.51 88.6804 1655.42 88.6804 Q1661.34 88.6804 1664.74 84.0218 Q1668.14 79.3228 1668.14 71.0994 Q1668.14 62.8761 1664.74 58.2176 Q1661.34 53.5185 1655.42 53.5185 Q1649.51 53.5185 1646.1 58.2176 Q1642.74 62.8761 1642.74 71.0994 Z" fill="#000000" fill-rule="nonzero" fill-opacity="1" /><path clip-path="url(#clip130)" d="M1762.93 37.9225 L1762.93 46.551 Q1758.8 42.7026 1754.1 40.7987 Q1749.44 38.8948 1744.18 38.8948 Q1733.81 38.8948 1728.3 45.2547 Q1722.79 51.5741 1722.79 63.5648 Q1722.79 75.5149 1728.3 81.8749 Q1733.81 88.1943 1744.18 88.1943 Q1749.44 88.1943 1754.1 86.2903 Q1758.8 84.3864 1762.93 80.5381 L1762.93 89.0855 Q1758.64 92.0021 1753.82 93.4604 Q1749.04 94.9188 1743.69 94.9188 Q1729.96 94.9188 1722.06 86.5334 Q1714.16 78.1075 1714.16 63.5648 Q1714.16 48.9815 1722.06 40.5961 Q1729.96 32.1703 1743.69 32.1703 Q1749.12 32.1703 1753.9 33.6286 Q1758.72 35.0464 1762.93 37.9225 Z" fill="#000000" fill-rule="nonzero" fill-opacity="1" /><path clip-path="url(#clip130)" d="M1792.83 53.5995 Q1786.83 53.5995 1783.35 58.2986 Q1779.86 62.9571 1779.86 71.0994 Q1779.86 79.2418 1783.31 83.9408 Q1786.79 88.5994 1792.83 88.5994 Q1798.78 88.5994 1802.27 83.9003 Q1805.75 79.2013 1805.75 71.0994 Q1805.75 63.0381 1802.27 58.3391 Q1798.78 53.5995 1792.83 53.5995 M1792.83 47.2801 Q1802.55 47.2801 1808.1 53.5995 Q1813.65 59.9189 1813.65 71.0994 Q1813.65 82.2394 1808.1 88.5994 Q1802.55 94.9188 1792.83 94.9188 Q1783.06 94.9188 1777.52 88.5994 Q1772.01 82.2394 1772.01 71.0994 Q1772.01 59.9189 1777.52 53.5995 Q1783.06 47.2801 1792.83 47.2801 Z" fill="#000000" fill-rule="nonzero" fill-opacity="1" /><path clip-path="url(#clip130)" d="M1863.72 66.3599 L1863.72 93.744 L1856.26 93.744 L1856.26 66.6029 Q1856.26 60.162 1853.75 56.9618 Q1851.24 53.7616 1846.22 53.7616 Q1840.18 53.7616 1836.7 57.6099 Q1833.21 61.4583 1833.21 68.1018 L1833.21 93.744 L1825.72 93.744 L1825.72 48.3739 L1833.21 48.3739 L1833.21 55.4224 Q1835.89 51.331 1839.49 49.3056 Q1843.14 47.2801 1847.88 47.2801 Q1855.7 47.2801 1859.71 52.1412 Q1863.72 56.9618 1863.72 66.3599 Z" fill="#000000" fill-rule="nonzero" fill-opacity="1" /><path clip-path="url(#clip130)" d="M1908.44 55.2604 L1908.44 30.7119 L1915.89 30.7119 L1915.89 93.744 L1908.44 93.744 L1908.44 86.9385 Q1906.09 90.9894 1902.49 92.9743 Q1898.92 94.9188 1893.9 94.9188 Q1885.67 94.9188 1880.49 88.3563 Q1875.34 81.7938 1875.34 71.0994 Q1875.34 60.4051 1880.49 53.8426 Q1885.67 47.2801 1893.9 47.2801 Q1898.92 47.2801 1902.49 49.2651 Q1906.09 51.2095 1908.44 55.2604 M1883.04 71.0994 Q1883.04 79.3228 1886.4 84.0218 Q1889.81 88.6804 1895.72 88.6804 Q1901.63 88.6804 1905.04 84.0218 Q1908.44 79.3228 1908.44 71.0994 Q1908.44 62.8761 1905.04 58.2176 Q1901.63 53.5185 1895.72 53.5185 Q1889.81 53.5185 1886.4 58.2176 Q1883.04 62.8761 1883.04 71.0994 Z" fill="#000000" fill-rule="nonzero" fill-opacity="1" /><path clip-path="url(#clip130)" d="M1930.48 75.839 L1930.48 48.3739 L1937.93 48.3739 L1937.93 75.5554 Q1937.93 81.9964 1940.44 85.2371 Q1942.95 88.4373 1947.98 88.4373 Q1954.01 88.4373 1957.5 84.589 Q1961.02 80.7406 1961.02 74.0971 L1961.02 48.3739 L1968.47 48.3739 L1968.47 93.744 L1961.02 93.744 L1961.02 86.7764 Q1958.31 90.9084 1954.7 92.9338 Q1951.14 94.9188 1946.4 94.9188 Q1938.58 94.9188 1934.53 90.0577 Q1930.48 85.1966 1930.48 75.839 M1949.23 47.2801 L1949.23 47.2801 Z" fill="#000000" fill-rule="nonzero" fill-opacity="1" /><path clip-path="url(#clip130)" d="M2016.48 50.1158 L2016.48 57.0833 Q2013.32 55.3414 2010.12 54.4907 Q2006.96 53.5995 2003.72 53.5995 Q1996.47 53.5995 1992.46 58.2176 Q1988.45 62.7951 1988.45 71.0994 Q1988.45 79.4038 1992.46 84.0218 Q1996.47 88.5994 2003.72 88.5994 Q2006.96 88.5994 2010.12 87.7487 Q2013.32 86.8575 2016.48 85.1156 L2016.48 92.0021 Q2013.36 93.4604 2010 94.1896 Q2006.67 94.9188 2002.91 94.9188 Q1992.66 94.9188 1986.62 88.4778 Q1980.59 82.0369 1980.59 71.0994 Q1980.59 60 1986.66 53.64 Q1992.78 47.2801 2003.39 47.2801 Q2006.84 47.2801 2010.12 48.0093 Q2013.4 48.6979 2016.48 50.1158 Z" fill="#000000" fill-rule="nonzero" fill-opacity="1" /><path clip-path="url(#clip130)" d="M2036.81 35.492 L2036.81 48.3739 L2052.17 48.3739 L2052.17 54.1667 L2036.81 54.1667 L2036.81 78.7962 Q2036.81 84.3459 2038.31 85.9258 Q2039.85 87.5056 2044.51 87.5056 L2052.17 87.5056 L2052.17 93.744 L2044.51 93.744 Q2035.88 93.744 2032.6 90.5438 Q2029.32 87.3031 2029.32 78.7962 L2029.32 54.1667 L2023.85 54.1667 L2023.85 48.3739 L2029.32 48.3739 L2029.32 35.492 L2036.81 35.492 Z" fill="#000000" fill-rule="nonzero" fill-opacity="1" /><path clip-path="url(#clip130)" d="M2079.55 53.5995 Q2073.56 53.5995 2070.07 58.2986 Q2066.59 62.9571 2066.59 71.0994 Q2066.59 79.2418 2070.03 83.9408 Q2073.51 88.5994 2079.55 88.5994 Q2085.51 88.5994 2088.99 83.9003 Q2092.47 79.2013 2092.47 71.0994 Q2092.47 63.0381 2088.99 58.3391 Q2085.51 53.5995 2079.55 53.5995 M2079.55 47.2801 Q2089.27 47.2801 2094.82 53.5995 Q2100.37 59.9189 2100.37 71.0994 Q2100.37 82.2394 2094.82 88.5994 Q2089.27 94.9188 2079.55 94.9188 Q2069.79 94.9188 2064.24 88.5994 Q2058.73 82.2394 2058.73 71.0994 Q2058.73 59.9189 2064.24 53.5995 Q2069.79 47.2801 2079.55 47.2801 Z" fill="#000000" fill-rule="nonzero" fill-opacity="1" /><path clip-path="url(#clip130)" d="M2139.02 55.3414 Q2137.76 54.6123 2136.26 54.2882 Q2134.8 53.9236 2133.02 53.9236 Q2126.7 53.9236 2123.3 58.0555 Q2119.94 62.1469 2119.94 69.8437 L2119.94 93.744 L2112.44 93.744 L2112.44 48.3739 L2119.94 48.3739 L2119.94 55.4224 Q2122.29 51.2905 2126.05 49.3056 Q2129.82 47.2801 2135.21 47.2801 Q2135.98 47.2801 2136.91 47.4017 Q2137.84 47.4827 2138.98 47.6852 L2139.02 55.3414 Z" fill="#000000" fill-rule="nonzero" fill-opacity="1" /><path clip-path="url(#clip130)" d="M945.601 156.108 Q948.234 156.999 950.705 159.916 Q953.217 162.832 955.728 167.936 L964.033 184.464 L955.242 184.464 L947.505 168.949 Q944.507 162.873 941.672 160.888 Q938.877 158.903 934.016 158.903 L925.104 158.903 L925.104 184.464 L916.921 184.464 L916.921 123.984 L935.393 123.984 Q945.763 123.984 950.867 128.318 Q955.971 132.653 955.971 141.403 Q955.971 147.115 953.298 150.882 Q950.665 154.649 945.601 156.108 M925.104 130.709 L925.104 152.178 L935.393 152.178 Q941.307 152.178 944.305 149.464 Q947.343 146.71 947.343 141.403 Q947.343 136.096 944.305 133.423 Q941.307 130.709 935.393 130.709 L925.104 130.709 Z" fill="#000000" fill-rule="nonzero" fill-opacity="1" /><path clip-path="url(#clip130)" d="M975.213 146.791 L1027.15 146.791 L1027.15 153.596 L975.213 153.596 L975.213 146.791 M975.213 163.318 L1027.15 163.318 L1027.15 170.205 L975.213 170.205 L975.213 163.318 Z" fill="#000000" fill-rule="nonzero" fill-opacity="1" /><path clip-path="url(#clip130)" d="M1051.86 177.577 L1080.42 177.577 L1080.42 184.464 L1042.01 184.464 L1042.01 177.577 Q1046.67 172.757 1054.69 164.655 Q1062.75 156.513 1064.82 154.163 Q1068.75 149.748 1070.29 146.71 Q1071.87 143.631 1071.87 140.674 Q1071.87 135.853 1068.47 132.815 Q1065.1 129.777 1059.67 129.777 Q1055.83 129.777 1051.53 131.114 Q1047.28 132.45 1042.42 135.164 L1042.42 126.901 Q1047.36 124.916 1051.65 123.903 Q1055.95 122.89 1059.51 122.89 Q1068.91 122.89 1074.5 127.589 Q1080.09 132.288 1080.09 140.147 Q1080.09 143.874 1078.67 147.236 Q1077.3 150.558 1073.61 155.095 Q1072.6 156.27 1067.17 161.9 Q1061.74 167.491 1051.86 177.577 Z" fill="#000000" fill-rule="nonzero" fill-opacity="1" /><path clip-path="url(#clip130)" d="M1097.59 174.175 L1106.14 174.175 L1106.14 184.464 L1097.59 184.464 L1097.59 174.175 Z" fill="#000000" fill-rule="nonzero" fill-opacity="1" /><path clip-path="url(#clip130)" d="M1124.04 123.984 L1156.17 123.984 L1156.17 130.871 L1131.54 130.871 L1131.54 145.697 Q1133.32 145.089 1135.1 144.806 Q1136.88 144.482 1138.67 144.482 Q1148.79 144.482 1154.71 150.031 Q1160.62 155.581 1160.62 165.06 Q1160.62 174.823 1154.55 180.251 Q1148.47 185.639 1137.41 185.639 Q1133.6 185.639 1129.63 184.991 Q1125.7 184.342 1121.49 183.046 L1121.49 174.823 Q1125.14 176.808 1129.03 177.78 Q1132.91 178.752 1137.25 178.752 Q1144.26 178.752 1148.35 175.066 Q1152.44 171.38 1152.44 165.06 Q1152.44 158.741 1148.35 155.054 Q1144.26 151.368 1137.25 151.368 Q1133.97 151.368 1130.69 152.097 Q1127.45 152.826 1124.04 154.366 L1124.04 123.984 Z" fill="#000000" fill-rule="nonzero" fill-opacity="1" /><path clip-path="url(#clip130)" d="M1211.02 147.803 Q1213.81 142.78 1217.7 140.39 Q1221.59 138 1226.86 138 Q1233.94 138 1237.79 142.983 Q1241.64 147.925 1241.64 157.08 L1241.64 184.464 L1234.15 184.464 L1234.15 157.323 Q1234.15 150.801 1231.84 147.641 Q1229.53 144.482 1224.79 144.482 Q1219 144.482 1215.63 148.33 Q1212.27 152.178 1212.27 158.822 L1212.27 184.464 L1204.78 184.464 L1204.78 157.323 Q1204.78 150.76 1202.47 147.641 Q1200.16 144.482 1195.34 144.482 Q1189.63 144.482 1186.27 148.37 Q1182.9 152.219 1182.9 158.822 L1182.9 184.464 L1175.41 184.464 L1175.41 139.094 L1182.9 139.094 L1182.9 146.142 Q1185.46 141.97 1189.02 139.985 Q1192.58 138 1197.49 138 Q1202.43 138 1205.87 140.512 Q1209.36 143.023 1211.02 147.803 Z" fill="#000000" fill-rule="nonzero" fill-opacity="1" /><path clip-path="url(#clip130)" d="M1291.83 147.803 Q1294.63 142.78 1298.52 140.39 Q1302.4 138 1307.67 138 Q1314.76 138 1318.61 142.983 Q1322.46 147.925 1322.46 157.08 L1322.46 184.464 L1314.96 184.464 L1314.96 157.323 Q1314.96 150.801 1312.65 147.641 Q1310.34 144.482 1305.6 144.482 Q1299.81 144.482 1296.45 148.33 Q1293.09 152.178 1293.09 158.822 L1293.09 184.464 L1285.59 184.464 L1285.59 157.323 Q1285.59 150.76 1283.28 147.641 Q1280.98 144.482 1276.15 144.482 Q1270.44 144.482 1267.08 148.37 Q1263.72 152.219 1263.72 158.822 L1263.72 184.464 L1256.22 184.464 L1256.22 139.094 L1263.72 139.094 L1263.72 146.142 Q1266.27 141.97 1269.84 139.985 Q1273.4 138 1278.3 138 Q1283.24 138 1286.69 140.512 Q1290.17 143.023 1291.83 147.803 Z" fill="#000000" fill-rule="nonzero" fill-opacity="1" /><path clip-path="url(#clip130)" d="M1339.23 174.175 L1347.77 174.175 L1347.77 181.142 L1341.13 194.105 L1335.91 194.105 L1339.23 181.142 L1339.23 174.175 Z" fill="#000000" fill-rule="nonzero" fill-opacity="1" /><path clip-path="url(#clip130)" d="M1390.39 123.984 L1398.57 123.984 L1398.57 184.464 L1390.39 184.464 L1390.39 123.984 Z" fill="#000000" fill-rule="nonzero" fill-opacity="1" /><path clip-path="url(#clip130)" d="M1441.88 146.791 L1493.81 146.791 L1493.81 153.596 L1441.88 153.596 L1441.88 146.791 M1441.88 163.318 L1493.81 163.318 L1493.81 170.205 L1441.88 170.205 L1441.88 163.318 Z" fill="#000000" fill-rule="nonzero" fill-opacity="1" /><path clip-path="url(#clip130)" d="M1539.26 177.577 L1552.63 177.577 L1552.63 131.438 L1538.09 134.354 L1538.09 126.901 L1552.55 123.984 L1560.73 123.984 L1560.73 177.577 L1574.1 177.577 L1574.1 184.464 L1539.26 184.464 L1539.26 177.577 Z" fill="#000000" fill-rule="nonzero" fill-opacity="1" /><path clip-path="url(#clip130)" d="M1589.29 121.432 L1596.78 121.432 L1596.78 158.66 L1619.02 139.094 L1628.54 139.094 L1604.48 160.321 L1629.56 184.464 L1619.83 184.464 L1596.78 162.306 L1596.78 184.464 L1589.29 184.464 L1589.29 121.432 Z" fill="#000000" fill-rule="nonzero" fill-opacity="1" /><path clip-path="url(#clip130)" d="M1658.16 132.045 L1647.06 162.144 L1669.3 162.144 L1658.16 132.045 M1653.54 123.984 L1662.81 123.984 L1685.86 184.464 L1677.36 184.464 L1671.85 168.949 L1644.58 168.949 L1639.08 184.464 L1630.45 184.464 L1653.54 123.984 Z" fill="#000000" fill-rule="nonzero" fill-opacity="1" /><polyline clip-path="url(#clip132)" style="stroke:#009af9; stroke-linecap:round; stroke-linejoin:round; stroke-width:4; stroke-opacity:1; fill:none" points="250.028,1423.18 254.151,1374.22 258.274,1325.27 262.397,1276.31 266.52,1227.35 270.643,1178.39 274.766,1129.44 278.889,1080.48 283.012,1031.52 287.135,982.566 291.258,933.608 295.381,884.651 299.504,835.694 303.627,786.737 307.75,737.78 311.873,688.823 315.996,639.866 320.119,590.908 324.242,541.951 328.365,492.994 332.488,444.037 336.611,395.08 340.734,346.123 344.857,297.166 348.98,248.208 353.103,199.251 357.226,246.325 361.349,289.913 365.472,330.386 369.595,368.069 373.718,403.239 377.841,436.141 381.964,466.986 386.087,495.961 390.21,523.232 394.333,548.945 398.456,573.229 402.579,596.201 406.702,617.964 410.825,638.61 414.948,658.224 419.071,676.882 423.194,694.651 427.317,711.593 431.44,727.766 435.563,743.22 439.686,758.001 443.809,772.154 447.932,785.717 452.055,798.726 456.178,811.216 460.301,823.215 464.424,834.753 468.547,845.855 472.67,856.546 476.793,866.849 480.916,876.783 485.039,886.369 489.162,895.624 493.285,904.566 497.408,913.21 501.531,921.57 505.654,929.66 509.777,937.494 513.9,945.083 518.023,952.438 522.146,959.571 526.269,966.49 530.392,973.206 534.515,979.727 538.638,986.062 542.761,992.219 546.884,998.205 551.007,1004.03 555.13,1009.69 559.253,1015.2 563.376,1020.57 567.499,1025.8 571.622,1030.9 575.745,1035.86 579.868,1040.7 583.991,1045.42 588.114,1050.03 592.237,1054.53 596.36,1058.92 600.483,1063.2 604.606,1067.39 608.729,1071.48 612.852,1075.47 616.975,1079.38 621.098,1083.2 625.221,1086.94 629.344,1090.59 633.467,1094.17 637.59,1097.67 641.713,1101.09 645.836,1104.45 649.959,1107.73 654.082,1110.95 658.205,1114.11 662.328,1117.2 666.451,1120.23 670.574,1123.2 674.697,1126.11 678.82,1128.97 682.943,1131.77 687.066,1134.52 691.189,1137.22 695.312,1139.86 699.435,1142.46 703.558,1145.01 707.681,1147.52 711.804,1149.98 715.927,1152.4 720.05,1154.77 724.173,1157.11 728.296,1159.4 732.419,1161.66 736.542,1163.87 740.665,1166.05 744.788,1168.19 748.911,1170.3 753.034,1172.37 757.157,1174.41 761.28,1176.42 765.403,1178.39 769.526,1180.34 773.649,1182.25 777.772,1184.13 781.895,1185.98 786.018,1187.81 790.141,1189.61 794.264,1191.38 798.387,1193.12 802.51,1194.83 806.633,1196.53 810.756,1198.19 814.879,1199.84 819.002,1201.45 823.125,1203.05 827.248,1204.62 831.371,1206.17 835.494,1207.7 839.617,1209.21 843.74,1210.69 847.863,1212.16 851.986,1213.6 856.108,1215.03 860.231,1216.44 864.354,1217.82 868.477,1219.19 872.6,1220.54 876.723,1221.88 880.846,1223.19 884.969,1224.49 889.092,1225.77 893.215,1227.04 897.338,1228.29 901.461,1229.52 905.584,1230.74 909.707,1231.94 913.83,1233.13 917.953,1234.3 922.076,1235.46 926.199,1236.61 930.322,1237.74 934.445,1238.85 938.568,1239.96 942.691,1241.05 946.814,1242.13 950.937,1243.19 955.06,1244.24 959.183,1245.28 963.306,1246.31 967.429,1247.33 971.552,1248.33 975.675,1249.33 979.798,1250.31 983.921,1251.28 988.044,1252.24 992.167,1253.19 996.29,1254.13 1000.41,1255.06 1004.54,1255.98 1008.66,1256.89 1012.78,1257.78 1016.91,1258.67 1021.03,1259.55 1025.15,1260.42 1029.27,1261.28 1033.4,1262.14 1037.52,1262.98 1041.64,1263.81 1045.77,1264.64 1049.89,1265.46 1054.01,1266.27 1058.14,1267.07 1062.26,1267.86 1066.38,1268.64 1070.5,1269.42 1074.63,1270.19 1078.75,1270.95 1082.87,1271.7 1087,1272.45 1091.12,1273.19 1095.24,1273.92 1099.37,1274.64 1103.49,1275.36 1107.61,1276.07 1111.73,1276.78 1115.86,1277.47 1119.98,1278.16 1124.1,1278.85 1128.23,1279.53 1132.35,1280.2 1136.47,1280.86 1140.6,1281.52 1144.72,1282.17 1148.84,1282.82 1152.96,1283.46 1157.09,1284.1 1161.21,1284.73 1165.33,1285.35 1169.46,1285.97 1173.58,1286.58 1177.7,1287.19 1181.83,1287.79 1185.95,1288.39 1190.07,1288.98 1194.19,1289.56 1198.32,1290.14 1202.44,1290.72 1206.56,1291.29 1210.69,1291.86 1214.81,1292.42 1218.93,1292.97 1223.06,1293.53 1227.18,1294.07 1231.3,1294.62 1235.42,1295.15 1239.55,1295.69 1243.67,1296.22 1247.79,1296.74 1251.92,1297.26 1256.04,1297.78 1260.16,1298.29 1264.29,1298.8 1268.41,1299.3 1272.53,1299.8 1276.65,1300.3 1280.78,1300.79 1284.9,1301.27 1289.02,1301.76 1293.15,1302.24 1297.27,1302.71 1301.39,1303.19 1305.52,1303.66 1309.64,1304.12 1313.76,1304.58 1317.88,1305.04 1322.01,1305.49 1326.13,1305.95 1330.25,1306.39 1334.38,1306.84 1338.5,1307.28 1342.62,1307.71 1346.74,1308.15 1350.87,1308.58 1354.99,1309.01 1359.11,1309.43 1363.24,1309.85 1367.36,1310.27 1371.48,1310.69 1375.61,1311.1 1379.73,1311.51 1383.85,1311.91 1387.97,1312.32 1392.1,1312.72 1396.22,1313.11 1400.34,1313.51 1404.47,1313.9 1408.59,1314.29 1412.71,1314.68 1416.84,1315.06 1420.96,1315.44 1425.08,1315.82 1429.2,1316.19 1433.33,1316.57 1437.45,1316.94 1441.57,1317.3 1445.7,1317.67 1449.82,1318.03 1453.94,1318.39 1458.07,1318.75 1462.19,1319.1 1466.31,1319.46 1470.43,1319.81 1474.56,1320.16 1478.68,1320.5 1482.8,1320.84 1486.93,1321.19 1491.05,1321.52 1495.17,1321.86 1499.3,1322.2 1503.42,1322.53 1507.54,1322.86 1511.66,1323.19 1515.79,1323.51 1519.91,1323.83 1524.03,1324.16 1528.16,1324.48 1532.28,1324.79 1536.4,1325.11 1540.53,1325.42 1544.65,1325.73 1548.77,1326.04 1552.89,1326.35 1557.02,1326.66 1561.14,1326.96 1565.26,1327.26 1569.39,1327.56 1573.51,1327.86 1577.63,1328.15 1581.76,1328.45 1585.88,1328.74 1590,1329.03 1594.12,1329.32 1598.25,1329.61 1602.37,1329.89 1606.49,1330.18 1610.62,1330.46 1614.74,1330.74 1618.86,1331.02 1622.99,1331.29 1627.11,1331.57 1631.23,1331.84 1635.35,1332.11 1639.48,1332.38 1643.6,1332.65 1647.72,1332.92 1651.85,1333.19 1655.97,1333.45 1660.09,1333.71 1664.22,1333.97 1668.34,1334.23 1672.46,1334.49 1676.58,1334.75 1680.71,1335 1684.83,1335.25 1688.95,1335.51 1693.08,1335.76 1697.2,1336.01 1701.32,1336.25 1705.45,1336.5 1709.57,1336.74 1713.69,1336.99 1717.81,1337.23 1721.94,1337.47 1726.06,1337.71 1730.18,1337.95 1734.31,1338.18 1738.43,1338.42 1742.55,1338.65 1746.68,1338.89 1750.8,1339.12 1754.92,1339.35 1759.04,1339.58 1763.17,1339.81 1767.29,1340.03 1771.41,1340.26 1775.54,1340.48 1779.66,1340.7 1783.78,1340.93 1787.91,1341.15 1792.03,1341.37 1796.15,1341.58 1800.27,1341.8 1804.4,1342.02 1808.52,1342.23 1812.64,1342.45 1816.77,1342.66 1820.89,1342.87 1825.01,1343.08 1829.14,1343.29 1833.26,1343.5 1837.38,1343.7 1841.5,1343.91 1845.63,1344.11 1849.75,1344.32 1853.87,1344.52 1858,1344.72 1862.12,1344.92 1866.24,1345.12 1870.37,1345.32 1874.49,1345.52 1878.61,1345.72 1882.73,1345.91 1886.86,1346.11 1890.98,1346.3 1895.1,1346.49 1899.23,1346.68 1903.35,1346.88 1907.47,1347.06 1911.6,1347.25 1915.72,1347.44 1919.84,1347.63 1923.96,1347.81 1928.09,1348 1932.21,1348.18 1936.33,1348.37 1940.46,1348.55 1944.58,1348.73 1948.7,1348.91 1952.83,1349.09 1956.95,1349.27 1961.07,1349.45 1965.19,1349.63 1969.32,1349.8 1973.44,1349.98 1977.56,1350.15 1981.69,1350.33 1985.81,1350.5 1989.93,1350.67 1994.06,1350.84 1998.18,1351.01 2002.3,1351.18 2006.42,1351.35 2010.55,1351.52 2014.67,1351.69 2018.79,1351.86 2022.92,1352.02 2027.04,1352.19 2031.16,1352.35 2035.29,1352.51 2039.41,1352.68 2043.53,1352.84 2047.65,1353 2051.78,1353.16 2055.9,1353.32 2060.02,1353.48 2064.15,1353.64 2068.27,1353.8 2072.39,1353.95 2076.52,1354.11 2080.64,1354.26 2084.76,1354.42 2088.88,1354.57 2093.01,1354.73 2097.13,1354.88 2101.25,1355.03 2105.38,1355.18 2109.5,1355.33 2113.62,1355.48 2117.75,1355.63 2121.87,1355.78 2125.99,1355.93 2130.11,1356.08 2134.24,1356.23 2138.36,1356.37 2142.48,1356.52 2146.61,1356.66 2150.73,1356.81 2154.85,1356.95 2158.98,1357.09 2163.1,1357.24 2167.22,1357.38 2171.34,1357.52 2175.47,1357.66 2179.59,1357.8 2183.71,1357.94 2187.84,1358.08 2191.96,1358.22 2196.08,1358.35 2200.21,1358.49 2204.33,1358.63 2208.45,1358.76 2212.57,1358.9 2216.7,1359.03 2220.82,1359.17 2224.94,1359.3 2229.07,1359.43 2233.19,1359.57 2237.31,1359.7 2241.44,1359.83 2245.56,1359.96 2249.68,1360.09 2253.8,1360.22 2257.93,1360.35 2262.05,1360.48 2266.17,1360.61 2270.3,1360.73 2274.42,1360.86 2278.54,1360.99 2282.66,1361.11 2286.79,1361.24 2290.91,1361.37 2295.03,1361.49 2299.16,1361.61 2303.28,1361.74 2307.4,1361.86 2311.53,1361.98 "/>
</svg>
