<?xml version="1.0" encoding="utf-8"?>
<svg xmlns="http://www.w3.org/2000/svg" xmlns:xlink="http://www.w3.org/1999/xlink" width="600" height="400" viewBox="0 0 2400 1600">
<defs>
  <clipPath id="clip010">
    <rect x="0" y="0" width="2400" height="1600"/>
  </clipPath>
</defs>
<path clip-path="url(#clip010)" d="M0 1600 L2400 1600 L2400 0 L0 0  Z" fill="#ffffff" fill-rule="evenodd" fill-opacity="1"/>
<defs>
  <clipPath id="clip011">
    <rect x="480" y="0" width="1681" height="1600"/>
  </clipPath>
</defs>
<path clip-path="url(#clip010)" d="M250.028 1423.18 L2352.76 1423.18 L2352.76 183.952 L250.028 183.952  Z" fill="#ffffff" fill-rule="evenodd" fill-opacity="1"/>
<defs>
  <clipPath id="clip012">
    <rect x="250" y="183" width="2104" height="1240"/>
  </clipPath>
</defs>
<polyline clip-path="url(#clip012)" style="stroke:#000000; stroke-linecap:round; stroke-linejoin:round; stroke-width:2; stroke-opacity:0.1; fill:none" points="250.028,1423.18 250.028,183.952 "/>
<polyline clip-path="url(#clip012)" style="stroke:#000000; stroke-linecap:round; stroke-linejoin:round; stroke-width:2; stroke-opacity:0.1; fill:none" points="662.328,1423.18 662.328,183.952 "/>
<polyline clip-path="url(#clip012)" style="stroke:#000000; stroke-linecap:round; stroke-linejoin:round; stroke-width:2; stroke-opacity:0.1; fill:none" points="1074.63,1423.18 1074.63,183.952 "/>
<polyline clip-path="url(#clip012)" style="stroke:#000000; stroke-linecap:round; stroke-linejoin:round; stroke-width:2; stroke-opacity:0.1; fill:none" points="1486.93,1423.18 1486.93,183.952 "/>
<polyline clip-path="url(#clip012)" style="stroke:#000000; stroke-linecap:round; stroke-linejoin:round; stroke-width:2; stroke-opacity:0.1; fill:none" points="1899.23,1423.18 1899.23,183.952 "/>
<polyline clip-path="url(#clip012)" style="stroke:#000000; stroke-linecap:round; stroke-linejoin:round; stroke-width:2; stroke-opacity:0.1; fill:none" points="2311.53,1423.18 2311.53,183.952 "/>
<polyline clip-path="url(#clip010)" style="stroke:#000000; stroke-linecap:round; stroke-linejoin:round; stroke-width:4; stroke-opacity:1; fill:none" points="250.028,1423.18 2352.76,1423.18 "/>
<polyline clip-path="url(#clip010)" style="stroke:#000000; stroke-linecap:round; stroke-linejoin:round; stroke-width:4; stroke-opacity:1; fill:none" points="250.028,1423.18 250.028,1404.28 "/>
<polyline clip-path="url(#clip010)" style="stroke:#000000; stroke-linecap:round; stroke-linejoin:round; stroke-width:4; stroke-opacity:1; fill:none" points="662.328,1423.18 662.328,1404.28 "/>
<polyline clip-path="url(#clip010)" style="stroke:#000000; stroke-linecap:round; stroke-linejoin:round; stroke-width:4; stroke-opacity:1; fill:none" points="1074.63,1423.18 1074.63,1404.28 "/>
<polyline clip-path="url(#clip010)" style="stroke:#000000; stroke-linecap:round; stroke-linejoin:round; stroke-width:4; stroke-opacity:1; fill:none" points="1486.93,1423.18 1486.93,1404.28 "/>
<polyline clip-path="url(#clip010)" style="stroke:#000000; stroke-linecap:round; stroke-linejoin:round; stroke-width:4; stroke-opacity:1; fill:none" points="1899.23,1423.18 1899.23,1404.28 "/>
<polyline clip-path="url(#clip010)" style="stroke:#000000; stroke-linecap:round; stroke-linejoin:round; stroke-width:4; stroke-opacity:1; fill:none" points="2311.53,1423.18 2311.53,1404.28 "/>
<path clip-path="url(#clip010)" d="M212.332 1454.1 Q208.72 1454.1 206.892 1457.66 Q205.086 1461.2 205.086 1468.33 Q205.086 1475.44 206.892 1479.01 Q208.72 1482.55 212.332 1482.55 Q215.966 1482.55 217.771 1479.01 Q219.6 1475.44 219.6 1468.33 Q219.6 1461.2 217.771 1457.66 Q215.966 1454.1 212.332 1454.1 M212.332 1450.39 Q218.142 1450.39 221.197 1455 Q224.276 1459.58 224.276 1468.33 Q224.276 1477.06 221.197 1481.67 Q218.142 1486.25 212.332 1486.25 Q206.521 1486.25 203.443 1481.67 Q200.387 1477.06 200.387 1468.33 Q200.387 1459.58 203.443 1455 Q206.521 1450.39 212.332 1450.39 Z" fill="#000000" fill-rule="nonzero" fill-opacity="1" /><path clip-path="url(#clip010)" d="M232.494 1479.7 L237.378 1479.7 L237.378 1485.58 L232.494 1485.58 L232.494 1479.7 Z" fill="#000000" fill-rule="nonzero" fill-opacity="1" /><path clip-path="url(#clip010)" d="M257.563 1454.1 Q253.952 1454.1 252.123 1457.66 Q250.317 1461.2 250.317 1468.33 Q250.317 1475.44 252.123 1479.01 Q253.952 1482.55 257.563 1482.55 Q261.197 1482.55 263.003 1479.01 Q264.831 1475.44 264.831 1468.33 Q264.831 1461.2 263.003 1457.66 Q261.197 1454.1 257.563 1454.1 M257.563 1450.39 Q263.373 1450.39 266.429 1455 Q269.507 1459.58 269.507 1468.33 Q269.507 1477.06 266.429 1481.67 Q263.373 1486.25 257.563 1486.25 Q251.753 1486.25 248.674 1481.67 Q245.618 1477.06 245.618 1468.33 Q245.618 1459.58 248.674 1455 Q251.753 1450.39 257.563 1450.39 Z" fill="#000000" fill-rule="nonzero" fill-opacity="1" /><path clip-path="url(#clip010)" d="M287.725 1454.1 Q284.114 1454.1 282.285 1457.66 Q280.479 1461.2 280.479 1468.33 Q280.479 1475.44 282.285 1479.01 Q284.114 1482.55 287.725 1482.55 Q291.359 1482.55 293.164 1479.01 Q294.993 1475.44 294.993 1468.33 Q294.993 1461.2 293.164 1457.66 Q291.359 1454.1 287.725 1454.1 M287.725 1450.39 Q293.535 1450.39 296.59 1455 Q299.669 1459.58 299.669 1468.33 Q299.669 1477.06 296.59 1481.67 Q293.535 1486.25 287.725 1486.25 Q281.915 1486.25 278.836 1481.67 Q275.78 1477.06 275.78 1468.33 Q275.78 1459.58 278.836 1455 Q281.915 1450.39 287.725 1450.39 Z" fill="#000000" fill-rule="nonzero" fill-opacity="1" /><path clip-path="url(#clip010)" d="M625.245 1454.1 Q621.633 1454.1 619.805 1457.66 Q617.999 1461.2 617.999 1468.33 Q617.999 1475.44 619.805 1479.01 Q621.633 1482.55 625.245 1482.55 Q628.879 1482.55 630.684 1479.01 Q632.513 1475.44 632.513 1468.33 Q632.513 1461.2 630.684 1457.66 Q628.879 1454.1 625.245 1454.1 M625.245 1450.39 Q631.055 1450.39 634.11 1455 Q637.189 1459.58 637.189 1468.33 Q637.189 1477.06 634.11 1481.67 Q631.055 1486.25 625.245 1486.25 Q619.434 1486.25 616.356 1481.67 Q613.3 1477.06 613.3 1468.33 Q613.3 1459.58 616.356 1455 Q619.434 1450.39 625.245 1450.39 Z" fill="#000000" fill-rule="nonzero" fill-opacity="1" /><path clip-path="url(#clip010)" d="M645.406 1479.7 L650.291 1479.7 L650.291 1485.58 L645.406 1485.58 L645.406 1479.7 Z" fill="#000000" fill-rule="nonzero" fill-opacity="1" /><path clip-path="url(#clip010)" d="M670.476 1454.1 Q666.865 1454.1 665.036 1457.66 Q663.23 1461.2 663.23 1468.33 Q663.23 1475.44 665.036 1479.01 Q666.865 1482.55 670.476 1482.55 Q674.11 1482.55 675.916 1479.01 Q677.744 1475.44 677.744 1468.33 Q677.744 1461.2 675.916 1457.66 Q674.11 1454.1 670.476 1454.1 M670.476 1450.39 Q676.286 1450.39 679.342 1455 Q682.42 1459.58 682.42 1468.33 Q682.42 1477.06 679.342 1481.67 Q676.286 1486.25 670.476 1486.25 Q664.666 1486.25 661.587 1481.67 Q658.531 1477.06 658.531 1468.33 Q658.531 1459.58 661.587 1455 Q664.666 1450.39 670.476 1450.39 Z" fill="#000000" fill-rule="nonzero" fill-opacity="1" /><path clip-path="url(#clip010)" d="M691.448 1481.64 L699.087 1481.64 L699.087 1455.28 L690.777 1456.95 L690.777 1452.69 L699.04 1451.02 L703.716 1451.02 L703.716 1481.64 L711.355 1481.64 L711.355 1485.58 L691.448 1485.58 L691.448 1481.64 Z" fill="#000000" fill-rule="nonzero" fill-opacity="1" /><path clip-path="url(#clip010)" d="M1037.73 1454.1 Q1034.12 1454.1 1032.29 1457.66 Q1030.48 1461.2 1030.48 1468.33 Q1030.48 1475.44 1032.29 1479.01 Q1034.12 1482.55 1037.73 1482.55 Q1041.36 1482.55 1043.17 1479.01 Q1045 1475.44 1045 1468.33 Q1045 1461.2 1043.17 1457.66 Q1041.36 1454.1 1037.73 1454.1 M1037.73 1450.39 Q1043.54 1450.39 1046.6 1455 Q1049.67 1459.58 1049.67 1468.33 Q1049.67 1477.06 1046.6 1481.67 Q1043.54 1486.25 1037.73 1486.25 Q1031.92 1486.25 1028.84 1481.67 Q1025.78 1477.06 1025.78 1468.33 Q1025.78 1459.58 1028.84 1455 Q1031.92 1450.39 1037.73 1450.39 Z" fill="#000000" fill-rule="nonzero" fill-opacity="1" /><path clip-path="url(#clip010)" d="M1057.89 1479.7 L1062.78 1479.7 L1062.78 1485.58 L1057.89 1485.58 L1057.89 1479.7 Z" fill="#000000" fill-rule="nonzero" fill-opacity="1" /><path clip-path="url(#clip010)" d="M1082.96 1454.1 Q1079.35 1454.1 1077.52 1457.66 Q1075.72 1461.2 1075.72 1468.33 Q1075.72 1475.44 1077.52 1479.01 Q1079.35 1482.55 1082.96 1482.55 Q1086.59 1482.55 1088.4 1479.01 Q1090.23 1475.44 1090.23 1468.33 Q1090.23 1461.2 1088.4 1457.66 Q1086.59 1454.1 1082.96 1454.1 M1082.96 1450.39 Q1088.77 1450.39 1091.83 1455 Q1094.9 1459.58 1094.9 1468.33 Q1094.9 1477.06 1091.83 1481.67 Q1088.77 1486.25 1082.96 1486.25 Q1077.15 1486.25 1074.07 1481.67 Q1071.02 1477.06 1071.02 1468.33 Q1071.02 1459.58 1074.07 1455 Q1077.15 1450.39 1082.96 1450.39 Z" fill="#000000" fill-rule="nonzero" fill-opacity="1" /><path clip-path="url(#clip010)" d="M1107.15 1481.64 L1123.47 1481.64 L1123.47 1485.58 L1101.53 1485.58 L1101.53 1481.64 Q1104.19 1478.89 1108.77 1474.26 Q1113.38 1469.61 1114.56 1468.27 Q1116.8 1465.74 1117.68 1464.01 Q1118.59 1462.25 1118.59 1460.56 Q1118.59 1457.8 1116.64 1456.07 Q1114.72 1454.33 1111.62 1454.33 Q1109.42 1454.33 1106.97 1455.09 Q1104.53 1455.86 1101.76 1457.41 L1101.76 1452.69 Q1104.58 1451.55 1107.03 1450.97 Q1109.49 1450.39 1111.53 1450.39 Q1116.9 1450.39 1120.09 1453.08 Q1123.28 1455.77 1123.28 1460.26 Q1123.28 1462.39 1122.47 1464.31 Q1121.69 1466.2 1119.58 1468.8 Q1119 1469.47 1115.9 1472.69 Q1112.8 1475.88 1107.15 1481.64 Z" fill="#000000" fill-rule="nonzero" fill-opacity="1" /><path clip-path="url(#clip010)" d="M1449.55 1454.1 Q1445.94 1454.1 1444.11 1457.66 Q1442.31 1461.2 1442.31 1468.33 Q1442.31 1475.44 1444.11 1479.01 Q1445.94 1482.55 1449.55 1482.55 Q1453.19 1482.55 1454.99 1479.01 Q1456.82 1475.44 1456.82 1468.33 Q1456.82 1461.2 1454.99 1457.66 Q1453.19 1454.1 1449.55 1454.1 M1449.55 1450.39 Q1455.36 1450.39 1458.42 1455 Q1461.5 1459.58 1461.5 1468.33 Q1461.5 1477.06 1458.42 1481.67 Q1455.36 1486.25 1449.55 1486.25 Q1443.74 1486.25 1440.67 1481.67 Q1437.61 1477.06 1437.61 1468.33 Q1437.61 1459.58 1440.67 1455 Q1443.74 1450.39 1449.55 1450.39 Z" fill="#000000" fill-rule="nonzero" fill-opacity="1" /><path clip-path="url(#clip010)" d="M1469.72 1479.7 L1474.6 1479.7 L1474.6 1485.58 L1469.72 1485.58 L1469.72 1479.7 Z" fill="#000000" fill-rule="nonzero" fill-opacity="1" /><path clip-path="url(#clip010)" d="M1494.79 1454.1 Q1491.17 1454.1 1489.35 1457.66 Q1487.54 1461.2 1487.54 1468.33 Q1487.54 1475.44 1489.35 1479.01 Q1491.17 1482.55 1494.79 1482.55 Q1498.42 1482.55 1500.23 1479.01 Q1502.05 1475.44 1502.05 1468.33 Q1502.05 1461.2 1500.23 1457.66 Q1498.42 1454.1 1494.79 1454.1 M1494.79 1450.39 Q1500.6 1450.39 1503.65 1455 Q1506.73 1459.58 1506.73 1468.33 Q1506.73 1477.06 1503.65 1481.67 Q1500.6 1486.25 1494.79 1486.25 Q1488.98 1486.25 1485.9 1481.67 Q1482.84 1477.06 1482.84 1468.33 Q1482.84 1459.58 1485.9 1455 Q1488.98 1450.39 1494.79 1450.39 Z" fill="#000000" fill-rule="nonzero" fill-opacity="1" /><path clip-path="url(#clip010)" d="M1529.11 1466.95 Q1532.47 1467.66 1534.35 1469.93 Q1536.24 1472.2 1536.24 1475.53 Q1536.24 1480.65 1532.73 1483.45 Q1529.21 1486.25 1522.73 1486.25 Q1520.55 1486.25 1518.23 1485.81 Q1515.94 1485.39 1513.49 1484.54 L1513.49 1480.02 Q1515.43 1481.16 1517.75 1481.74 Q1520.06 1482.32 1522.59 1482.32 Q1526.98 1482.32 1529.28 1480.58 Q1531.59 1478.84 1531.59 1475.53 Q1531.59 1472.48 1529.44 1470.77 Q1527.31 1469.03 1523.49 1469.03 L1519.46 1469.03 L1519.46 1465.19 L1523.67 1465.19 Q1527.12 1465.19 1528.95 1463.82 Q1530.78 1462.43 1530.78 1459.84 Q1530.78 1457.18 1528.88 1455.77 Q1527.01 1454.33 1523.49 1454.33 Q1521.57 1454.33 1519.37 1454.75 Q1517.17 1455.16 1514.53 1456.04 L1514.53 1451.88 Q1517.19 1451.14 1519.51 1450.77 Q1521.85 1450.39 1523.91 1450.39 Q1529.23 1450.39 1532.33 1452.83 Q1535.43 1455.23 1535.43 1459.35 Q1535.43 1462.22 1533.79 1464.21 Q1532.15 1466.18 1529.11 1466.95 Z" fill="#000000" fill-rule="nonzero" fill-opacity="1" /><path clip-path="url(#clip010)" d="M1861.29 1454.1 Q1857.68 1454.1 1855.85 1457.66 Q1854.04 1461.2 1854.04 1468.33 Q1854.04 1475.44 1855.85 1479.01 Q1857.68 1482.55 1861.29 1482.55 Q1864.92 1482.55 1866.73 1479.01 Q1868.56 1475.44 1868.56 1468.33 Q1868.56 1461.2 1866.73 1457.66 Q1864.92 1454.1 1861.29 1454.1 M1861.29 1450.39 Q1867.1 1450.39 1870.15 1455 Q1873.23 1459.58 1873.23 1468.33 Q1873.23 1477.06 1870.15 1481.67 Q1867.1 1486.25 1861.29 1486.25 Q1855.48 1486.25 1852.4 1481.67 Q1849.34 1477.06 1849.34 1468.33 Q1849.34 1459.58 1852.4 1455 Q1855.48 1450.39 1861.29 1450.39 Z" fill="#000000" fill-rule="nonzero" fill-opacity="1" /><path clip-path="url(#clip010)" d="M1881.45 1479.7 L1886.33 1479.7 L1886.33 1485.58 L1881.45 1485.58 L1881.45 1479.7 Z" fill="#000000" fill-rule="nonzero" fill-opacity="1" /><path clip-path="url(#clip010)" d="M1906.52 1454.1 Q1902.91 1454.1 1901.08 1457.66 Q1899.27 1461.2 1899.27 1468.33 Q1899.27 1475.44 1901.08 1479.01 Q1902.91 1482.55 1906.52 1482.55 Q1910.15 1482.55 1911.96 1479.01 Q1913.79 1475.44 1913.79 1468.33 Q1913.79 1461.2 1911.96 1457.66 Q1910.15 1454.1 1906.52 1454.1 M1906.52 1450.39 Q1912.33 1450.39 1915.38 1455 Q1918.46 1459.58 1918.46 1468.33 Q1918.46 1477.06 1915.38 1481.67 Q1912.33 1486.25 1906.52 1486.25 Q1900.71 1486.25 1897.63 1481.67 Q1894.57 1477.06 1894.57 1468.33 Q1894.57 1459.58 1897.63 1455 Q1900.71 1450.39 1906.52 1450.39 Z" fill="#000000" fill-rule="nonzero" fill-opacity="1" /><path clip-path="url(#clip010)" d="M1939.53 1455.09 L1927.72 1473.54 L1939.53 1473.54 L1939.53 1455.09 M1938.3 1451.02 L1944.18 1451.02 L1944.18 1473.54 L1949.11 1473.54 L1949.11 1477.43 L1944.18 1477.43 L1944.18 1485.58 L1939.53 1485.58 L1939.53 1477.43 L1923.93 1477.43 L1923.93 1472.92 L1938.3 1451.02 Z" fill="#000000" fill-rule="nonzero" fill-opacity="1" /><path clip-path="url(#clip010)" d="M2274.33 1454.1 Q2270.72 1454.1 2268.89 1457.66 Q2267.08 1461.2 2267.08 1468.33 Q2267.08 1475.44 2268.89 1479.01 Q2270.72 1482.55 2274.33 1482.55 Q2277.96 1482.55 2279.77 1479.01 Q2281.6 1475.44 2281.6 1468.33 Q2281.6 1461.2 2279.77 1457.66 Q2277.96 1454.1 2274.33 1454.1 M2274.33 1450.39 Q2280.14 1450.39 2283.19 1455 Q2286.27 1459.58 2286.27 1468.33 Q2286.27 1477.06 2283.19 1481.67 Q2280.14 1486.25 2274.33 1486.25 Q2268.52 1486.25 2265.44 1481.67 Q2262.38 1477.06 2262.38 1468.33 Q2262.38 1459.58 2265.44 1455 Q2268.52 1450.39 2274.33 1450.39 Z" fill="#000000" fill-rule="nonzero" fill-opacity="1" /><path clip-path="url(#clip010)" d="M2294.49 1479.7 L2299.37 1479.7 L2299.37 1485.58 L2294.49 1485.58 L2294.49 1479.7 Z" fill="#000000" fill-rule="nonzero" fill-opacity="1" /><path clip-path="url(#clip010)" d="M2319.56 1454.1 Q2315.95 1454.1 2314.12 1457.66 Q2312.31 1461.2 2312.31 1468.33 Q2312.31 1475.44 2314.12 1479.01 Q2315.95 1482.55 2319.56 1482.55 Q2323.19 1482.55 2325 1479.01 Q2326.83 1475.44 2326.83 1468.33 Q2326.83 1461.2 2325 1457.66 Q2323.19 1454.1 2319.56 1454.1 M2319.56 1450.39 Q2325.37 1450.39 2328.42 1455 Q2331.5 1459.58 2331.5 1468.33 Q2331.5 1477.06 2328.42 1481.67 Q2325.37 1486.25 2319.56 1486.25 Q2313.75 1486.25 2310.67 1481.67 Q2307.61 1477.06 2307.61 1468.33 Q2307.61 1459.58 2310.67 1455 Q2313.75 1450.39 2319.56 1450.39 Z" fill="#000000" fill-rule="nonzero" fill-opacity="1" /><path clip-path="url(#clip010)" d="M2339.77 1451.02 L2358.12 1451.02 L2358.12 1454.96 L2344.05 1454.96 L2344.05 1463.43 Q2345.07 1463.08 2346.09 1462.92 Q2347.1 1462.73 2348.12 1462.73 Q2353.91 1462.73 2357.29 1465.9 Q2360.67 1469.08 2360.67 1474.49 Q2360.67 1480.07 2357.2 1483.17 Q2353.72 1486.25 2347.41 1486.25 Q2345.23 1486.25 2342.96 1485.88 Q2340.72 1485.51 2338.31 1484.77 L2338.31 1480.07 Q2340.39 1481.2 2342.61 1481.76 Q2344.84 1482.32 2347.31 1482.32 Q2351.32 1482.32 2353.66 1480.21 Q2355.99 1478.1 2355.99 1474.49 Q2355.99 1470.88 2353.66 1468.77 Q2351.32 1466.67 2347.31 1466.67 Q2345.44 1466.67 2343.56 1467.08 Q2341.71 1467.5 2339.77 1468.38 L2339.77 1451.02 Z" fill="#000000" fill-rule="nonzero" fill-opacity="1" /><path clip-path="url(#clip010)" d="M772.068 1525.81 L772.068 1562.76 L779.834 1562.76 Q789.669 1562.76 794.22 1558.3 Q798.804 1553.85 798.804 1544.24 Q798.804 1534.69 794.22 1530.26 Q789.669 1525.81 779.834 1525.81 L772.068 1525.81 M765.638 1520.52 L778.847 1520.52 Q792.661 1520.52 799.122 1526.28 Q805.583 1532.01 805.583 1544.24 Q805.583 1556.52 799.09 1562.28 Q792.597 1568.04 778.847 1568.04 L765.638 1568.04 L765.638 1520.52 Z" fill="#000000" fill-rule="nonzero" fill-opacity="1" /><path clip-path="url(#clip010)" d="M815.577 1532.4 L821.434 1532.4 L821.434 1568.04 L815.577 1568.04 L815.577 1532.4 M815.577 1518.52 L821.434 1518.52 L821.434 1525.93 L815.577 1525.93 L815.577 1518.52 Z" fill="#000000" fill-rule="nonzero" fill-opacity="1" /><path clip-path="url(#clip010)" d="M856.413 1533.45 L856.413 1538.98 Q853.931 1537.71 851.257 1537.07 Q848.583 1536.44 845.719 1536.44 Q841.358 1536.44 839.162 1537.77 Q836.998 1539.11 836.998 1541.79 Q836.998 1543.82 838.557 1545 Q840.117 1546.15 844.828 1547.2 L846.833 1547.64 Q853.071 1548.98 855.681 1551.43 Q858.323 1553.85 858.323 1558.21 Q858.323 1563.17 854.376 1566.07 Q850.461 1568.97 843.586 1568.97 Q840.722 1568.97 837.603 1568.39 Q834.515 1567.85 831.078 1566.74 L831.078 1560.69 Q834.324 1562.38 837.475 1563.24 Q840.626 1564.07 843.714 1564.07 Q847.851 1564.07 850.079 1562.66 Q852.307 1561.23 852.307 1558.65 Q852.307 1556.27 850.684 1554.99 Q849.093 1553.72 843.65 1552.54 L841.613 1552.07 Q836.17 1550.92 833.751 1548.56 Q831.332 1546.18 831.332 1542.04 Q831.332 1537.01 834.897 1534.27 Q838.462 1531.54 845.019 1531.54 Q848.265 1531.54 851.13 1532.01 Q853.994 1532.49 856.413 1533.45 Z" fill="#000000" fill-rule="nonzero" fill-opacity="1" /><path clip-path="url(#clip010)" d="M873.441 1522.27 L873.441 1532.4 L885.504 1532.4 L885.504 1536.95 L873.441 1536.95 L873.441 1556.3 Q873.441 1560.66 874.619 1561.9 Q875.829 1563.14 879.489 1563.14 L885.504 1563.14 L885.504 1568.04 L879.489 1568.04 Q872.709 1568.04 870.131 1565.53 Q867.553 1562.98 867.553 1556.3 L867.553 1536.95 L863.256 1536.95 L863.256 1532.4 L867.553 1532.4 L867.553 1522.27 L873.441 1522.27 Z" fill="#000000" fill-rule="nonzero" fill-opacity="1" /><path clip-path="url(#clip010)" d="M909.408 1550.12 Q902.31 1550.12 899.573 1551.75 Q896.835 1553.37 896.835 1557.29 Q896.835 1560.4 898.872 1562.25 Q900.941 1564.07 904.474 1564.07 Q909.344 1564.07 912.272 1560.63 Q915.232 1557.16 915.232 1551.43 L915.232 1550.12 L909.408 1550.12 M921.089 1547.71 L921.089 1568.04 L915.232 1568.04 L915.232 1562.63 Q913.227 1565.88 910.235 1567.44 Q907.243 1568.97 902.915 1568.97 Q897.44 1568.97 894.194 1565.91 Q890.979 1562.82 890.979 1557.67 Q890.979 1551.65 894.989 1548.6 Q899.032 1545.54 907.021 1545.54 L915.232 1545.54 L915.232 1544.97 Q915.232 1540.93 912.559 1538.73 Q909.917 1536.5 905.111 1536.5 Q902.055 1536.5 899.159 1537.23 Q896.263 1537.97 893.589 1539.43 L893.589 1534.02 Q896.804 1532.78 899.827 1532.17 Q902.851 1531.54 905.716 1531.54 Q913.45 1531.54 917.269 1535.55 Q921.089 1539.56 921.089 1547.71 Z" fill="#000000" fill-rule="nonzero" fill-opacity="1" /><path clip-path="url(#clip010)" d="M962.784 1546.53 L962.784 1568.04 L956.928 1568.04 L956.928 1546.72 Q956.928 1541.66 954.954 1539.14 Q952.981 1536.63 949.034 1536.63 Q944.292 1536.63 941.555 1539.65 Q938.817 1542.68 938.817 1547.9 L938.817 1568.04 L932.929 1568.04 L932.929 1532.4 L938.817 1532.4 L938.817 1537.93 Q940.918 1534.72 943.751 1533.13 Q946.615 1531.54 950.339 1531.54 Q956.482 1531.54 959.633 1535.36 Q962.784 1539.14 962.784 1546.53 Z" fill="#000000" fill-rule="nonzero" fill-opacity="1" /><path clip-path="url(#clip010)" d="M1000.12 1533.76 L1000.12 1539.24 Q997.636 1537.87 995.122 1537.2 Q992.639 1536.5 990.093 1536.5 Q984.396 1536.5 981.245 1540.13 Q978.094 1543.73 978.094 1550.25 Q978.094 1556.78 981.245 1560.4 Q984.396 1564 990.093 1564 Q992.639 1564 995.122 1563.33 Q997.636 1562.63 1000.12 1561.26 L1000.12 1566.68 Q997.668 1567.82 995.026 1568.39 Q992.417 1568.97 989.456 1568.97 Q981.404 1568.97 976.661 1563.91 Q971.919 1558.85 971.919 1550.25 Q971.919 1541.53 976.693 1536.53 Q981.499 1531.54 989.838 1531.54 Q992.544 1531.54 995.122 1532.11 Q997.7 1532.65 1000.12 1533.76 Z" fill="#000000" fill-rule="nonzero" fill-opacity="1" /><path clip-path="url(#clip010)" d="M1040.8 1548.76 L1040.8 1551.62 L1013.87 1551.62 Q1014.25 1557.67 1017.5 1560.85 Q1020.78 1564 1026.6 1564 Q1029.97 1564 1033.13 1563.17 Q1036.31 1562.35 1039.43 1560.69 L1039.43 1566.23 Q1036.28 1567.57 1032.97 1568.27 Q1029.66 1568.97 1026.25 1568.97 Q1017.72 1568.97 1012.72 1564 Q1007.76 1559.04 1007.76 1550.57 Q1007.76 1541.82 1012.47 1536.69 Q1017.21 1531.54 1025.23 1531.54 Q1032.43 1531.54 1036.59 1536.18 Q1040.8 1540.8 1040.8 1548.76 M1034.94 1547.04 Q1034.88 1542.23 1032.23 1539.37 Q1029.62 1536.5 1025.3 1536.5 Q1020.39 1536.5 1017.43 1539.27 Q1014.51 1542.04 1014.06 1547.07 L1034.94 1547.04 Z" fill="#000000" fill-rule="nonzero" fill-opacity="1" /><path clip-path="url(#clip010)" d="M1089.18 1518.52 L1089.18 1523.39 L1083.57 1523.39 Q1080.42 1523.39 1079.18 1524.66 Q1077.97 1525.93 1077.97 1529.24 L1077.97 1532.4 L1087.62 1532.4 L1087.62 1536.95 L1077.97 1536.95 L1077.97 1568.04 L1072.08 1568.04 L1072.08 1536.95 L1066.48 1536.95 L1066.48 1532.4 L1072.08 1532.4 L1072.08 1529.91 Q1072.08 1523.96 1074.85 1521.26 Q1077.62 1518.52 1083.64 1518.52 L1089.18 1518.52 Z" fill="#000000" fill-rule="nonzero" fill-opacity="1" /><path clip-path="url(#clip010)" d="M1114.73 1537.87 Q1113.75 1537.3 1112.57 1537.04 Q1111.42 1536.76 1110.02 1536.76 Q1105.06 1536.76 1102.38 1540 Q1099.74 1543.22 1099.74 1549.27 L1099.74 1568.04 L1093.85 1568.04 L1093.85 1532.4 L1099.74 1532.4 L1099.74 1537.93 Q1101.59 1534.69 1104.55 1533.13 Q1107.51 1531.54 1111.74 1531.54 Q1112.35 1531.54 1113.08 1531.63 Q1113.81 1531.7 1114.7 1531.85 L1114.73 1537.87 Z" fill="#000000" fill-rule="nonzero" fill-opacity="1" /><path clip-path="url(#clip010)" d="M1133.26 1536.5 Q1128.55 1536.5 1125.81 1540.19 Q1123.07 1543.85 1123.07 1550.25 Q1123.07 1556.65 1125.78 1560.34 Q1128.52 1564 1133.26 1564 Q1137.94 1564 1140.67 1560.31 Q1143.41 1556.62 1143.41 1550.25 Q1143.41 1543.92 1140.67 1540.23 Q1137.94 1536.5 1133.26 1536.5 M1133.26 1531.54 Q1140.9 1531.54 1145.26 1536.5 Q1149.62 1541.47 1149.62 1550.25 Q1149.62 1559 1145.26 1564 Q1140.9 1568.97 1133.26 1568.97 Q1125.59 1568.97 1121.23 1564 Q1116.9 1559 1116.9 1550.25 Q1116.9 1541.47 1121.23 1536.5 Q1125.59 1531.54 1133.26 1531.54 Z" fill="#000000" fill-rule="nonzero" fill-opacity="1" /><path clip-path="url(#clip010)" d="M1187.08 1539.24 Q1189.28 1535.29 1192.33 1533.41 Q1195.39 1531.54 1199.52 1531.54 Q1205.09 1531.54 1208.12 1535.45 Q1211.14 1539.33 1211.14 1546.53 L1211.14 1568.04 L1205.25 1568.04 L1205.25 1546.72 Q1205.25 1541.59 1203.44 1539.11 Q1201.63 1536.63 1197.9 1536.63 Q1193.35 1536.63 1190.71 1539.65 Q1188.07 1542.68 1188.07 1547.9 L1188.07 1568.04 L1182.18 1568.04 L1182.18 1546.72 Q1182.18 1541.56 1180.36 1539.11 Q1178.55 1536.63 1174.76 1536.63 Q1170.27 1536.63 1167.63 1539.68 Q1164.99 1542.71 1164.99 1547.9 L1164.99 1568.04 L1159.1 1568.04 L1159.1 1532.4 L1164.99 1532.4 L1164.99 1537.93 Q1167 1534.66 1169.8 1533.1 Q1172.6 1531.54 1176.45 1531.54 Q1180.33 1531.54 1183.04 1533.51 Q1185.77 1535.48 1187.08 1539.24 Z" fill="#000000" fill-rule="nonzero" fill-opacity="1" /><path clip-path="url(#clip010)" d="M1279.38 1524.18 L1279.38 1530.96 Q1276.14 1527.94 1272.44 1526.44 Q1268.78 1524.95 1264.65 1524.95 Q1256.5 1524.95 1252.17 1529.95 Q1247.84 1534.91 1247.84 1544.33 Q1247.84 1553.72 1252.17 1558.72 Q1256.5 1563.68 1264.65 1563.68 Q1268.78 1563.68 1272.44 1562.19 Q1276.14 1560.69 1279.38 1557.67 L1279.38 1564.38 Q1276.01 1566.68 1272.22 1567.82 Q1268.47 1568.97 1264.26 1568.97 Q1253.47 1568.97 1247.27 1562.38 Q1241.06 1555.76 1241.06 1544.33 Q1241.06 1532.87 1247.27 1526.28 Q1253.47 1519.66 1264.26 1519.66 Q1268.53 1519.66 1272.28 1520.81 Q1276.07 1521.92 1279.38 1524.18 Z" fill="#000000" fill-rule="nonzero" fill-opacity="1" /><path clip-path="url(#clip010)" d="M1319.55 1548.76 L1319.55 1551.62 L1292.62 1551.62 Q1293.01 1557.67 1296.25 1560.85 Q1299.53 1564 1305.35 1564 Q1308.73 1564 1311.88 1563.17 Q1315.06 1562.35 1318.18 1560.69 L1318.18 1566.23 Q1315.03 1567.57 1311.72 1568.27 Q1308.41 1568.97 1305 1568.97 Q1296.47 1568.97 1291.48 1564 Q1286.51 1559.04 1286.51 1550.57 Q1286.51 1541.82 1291.22 1536.69 Q1295.97 1531.54 1303.99 1531.54 Q1311.18 1531.54 1315.35 1536.18 Q1319.55 1540.8 1319.55 1548.76 M1313.69 1547.04 Q1313.63 1542.23 1310.99 1539.37 Q1308.38 1536.5 1304.05 1536.5 Q1299.15 1536.5 1296.19 1539.27 Q1293.26 1542.04 1292.81 1547.07 L1313.69 1547.04 Z" fill="#000000" fill-rule="nonzero" fill-opacity="1" /><path clip-path="url(#clip010)" d="M1358.79 1546.53 L1358.79 1568.04 L1352.94 1568.04 L1352.94 1546.72 Q1352.94 1541.66 1350.96 1539.14 Q1348.99 1536.63 1345.04 1536.63 Q1340.3 1536.63 1337.57 1539.65 Q1334.83 1542.68 1334.83 1547.9 L1334.83 1568.04 L1328.94 1568.04 L1328.94 1532.4 L1334.83 1532.4 L1334.83 1537.93 Q1336.93 1534.72 1339.76 1533.13 Q1342.63 1531.54 1346.35 1531.54 Q1352.49 1531.54 1355.64 1535.36 Q1358.79 1539.14 1358.79 1546.53 Z" fill="#000000" fill-rule="nonzero" fill-opacity="1" /><path clip-path="url(#clip010)" d="M1376.27 1522.27 L1376.27 1532.4 L1388.33 1532.4 L1388.33 1536.95 L1376.27 1536.95 L1376.27 1556.3 Q1376.27 1560.66 1377.45 1561.9 Q1378.66 1563.14 1382.32 1563.14 L1388.33 1563.14 L1388.33 1568.04 L1382.32 1568.04 Q1375.54 1568.04 1372.96 1565.53 Q1370.38 1562.98 1370.38 1556.3 L1370.38 1536.95 L1366.08 1536.95 L1366.08 1532.4 L1370.38 1532.4 L1370.38 1522.27 L1376.27 1522.27 Z" fill="#000000" fill-rule="nonzero" fill-opacity="1" /><path clip-path="url(#clip010)" d="M1426.53 1548.76 L1426.53 1551.62 L1399.6 1551.62 Q1399.98 1557.67 1403.23 1560.85 Q1406.51 1564 1412.33 1564 Q1415.7 1564 1418.86 1563.17 Q1422.04 1562.35 1425.16 1560.69 L1425.16 1566.23 Q1422.01 1567.57 1418.7 1568.27 Q1415.39 1568.97 1411.98 1568.97 Q1403.45 1568.97 1398.45 1564 Q1393.49 1559.04 1393.49 1550.57 Q1393.49 1541.82 1398.2 1536.69 Q1402.94 1531.54 1410.96 1531.54 Q1418.15 1531.54 1422.32 1536.18 Q1426.53 1540.8 1426.53 1548.76 M1420.67 1547.04 Q1420.61 1542.23 1417.96 1539.37 Q1415.35 1536.5 1411.03 1536.5 Q1406.12 1536.5 1403.16 1539.27 Q1400.24 1542.04 1399.79 1547.07 L1420.67 1547.04 Z" fill="#000000" fill-rule="nonzero" fill-opacity="1" /><path clip-path="url(#clip010)" d="M1456.79 1537.87 Q1455.81 1537.3 1454.63 1537.04 Q1453.48 1536.76 1452.08 1536.76 Q1447.12 1536.76 1444.45 1540 Q1441.8 1543.22 1441.8 1549.27 L1441.8 1568.04 L1435.92 1568.04 L1435.92 1532.4 L1441.8 1532.4 L1441.8 1537.93 Q1443.65 1534.69 1446.61 1533.13 Q1449.57 1531.54 1453.8 1531.54 Q1454.41 1531.54 1455.14 1531.63 Q1455.87 1531.7 1456.76 1531.85 L1456.79 1537.87 Z" fill="#000000" fill-rule="nonzero" fill-opacity="1" /><path clip-path="url(#clip010)" d="M1497.47 1536.5 Q1492.76 1536.5 1490.02 1540.19 Q1487.29 1543.85 1487.29 1550.25 Q1487.29 1556.65 1489.99 1560.34 Q1492.73 1564 1497.47 1564 Q1502.15 1564 1504.89 1560.31 Q1507.63 1556.62 1507.63 1550.25 Q1507.63 1543.92 1504.89 1540.23 Q1502.15 1536.5 1497.47 1536.5 M1497.47 1531.54 Q1505.11 1531.54 1509.47 1536.5 Q1513.83 1541.47 1513.83 1550.25 Q1513.83 1559 1509.47 1564 Q1505.11 1568.97 1497.47 1568.97 Q1489.8 1568.97 1485.44 1564 Q1481.11 1559 1481.11 1550.25 Q1481.11 1541.47 1485.44 1536.5 Q1489.8 1531.54 1497.47 1531.54 Z" fill="#000000" fill-rule="nonzero" fill-opacity="1" /><path clip-path="url(#clip010)" d="M1541.59 1518.52 L1541.59 1523.39 L1535.98 1523.39 Q1532.83 1523.39 1531.59 1524.66 Q1530.38 1525.93 1530.38 1529.24 L1530.38 1532.4 L1540.03 1532.4 L1540.03 1536.95 L1530.38 1536.95 L1530.38 1568.04 L1524.49 1568.04 L1524.49 1536.95 L1518.89 1536.95 L1518.89 1532.4 L1524.49 1532.4 L1524.49 1529.91 Q1524.49 1523.96 1527.26 1521.26 Q1530.03 1518.52 1536.05 1518.52 L1541.59 1518.52 Z" fill="#000000" fill-rule="nonzero" fill-opacity="1" /><path clip-path="url(#clip010)" d="M1563.23 1520.52 L1569.72 1520.52 L1579.72 1560.69 L1589.68 1520.52 L1596.9 1520.52 L1606.9 1560.69 L1616.86 1520.52 L1623.39 1520.52 L1611.45 1568.04 L1603.37 1568.04 L1593.34 1526.79 L1583.22 1568.04 L1575.13 1568.04 L1563.23 1520.52 Z" fill="#000000" fill-rule="nonzero" fill-opacity="1" /><path clip-path="url(#clip010)" d="M1630.23 1532.4 L1636.08 1532.4 L1636.08 1568.04 L1630.23 1568.04 L1630.23 1532.4 M1630.23 1518.52 L1636.08 1518.52 L1636.08 1525.93 L1630.23 1525.93 L1630.23 1518.52 Z" fill="#000000" fill-rule="nonzero" fill-opacity="1" /><path clip-path="url(#clip010)" d="M1669 1537.87 Q1668.01 1537.3 1666.83 1537.04 Q1665.69 1536.76 1664.29 1536.76 Q1659.32 1536.76 1656.65 1540 Q1654 1543.22 1654 1549.27 L1654 1568.04 L1648.12 1568.04 L1648.12 1532.4 L1654 1532.4 L1654 1537.93 Q1655.85 1534.69 1658.81 1533.13 Q1661.77 1531.54 1666 1531.54 Q1666.61 1531.54 1667.34 1531.63 Q1668.07 1531.7 1668.96 1531.85 L1669 1537.87 Z" fill="#000000" fill-rule="nonzero" fill-opacity="1" /><path clip-path="url(#clip010)" d="M1704.2 1548.76 L1704.2 1551.62 L1677.27 1551.62 Q1677.65 1557.67 1680.9 1560.85 Q1684.18 1564 1690 1564 Q1693.38 1564 1696.53 1563.17 Q1699.71 1562.35 1702.83 1560.69 L1702.83 1566.23 Q1699.68 1567.57 1696.37 1568.27 Q1693.06 1568.97 1689.65 1568.97 Q1681.12 1568.97 1676.13 1564 Q1671.16 1559.04 1671.16 1550.57 Q1671.16 1541.82 1675.87 1536.69 Q1680.61 1531.54 1688.63 1531.54 Q1695.83 1531.54 1700 1536.18 Q1704.2 1540.8 1704.2 1548.76 M1698.34 1547.04 Q1698.28 1542.23 1695.64 1539.37 Q1693.03 1536.5 1688.7 1536.5 Q1683.8 1536.5 1680.84 1539.27 Q1677.91 1542.04 1677.46 1547.07 L1698.34 1547.04 Z" fill="#000000" fill-rule="nonzero" fill-opacity="1" /><path clip-path="url(#clip010)" d="M1733.99 1518.52 L1747.48 1518.52 L1747.48 1523.07 L1739.85 1523.07 L1739.85 1572.09 L1747.48 1572.09 L1747.48 1576.64 L1733.99 1576.64 L1733.99 1518.52 Z" fill="#000000" fill-rule="nonzero" fill-opacity="1" /><path clip-path="url(#clip010)" d="M1787.72 1539.24 Q1789.91 1535.29 1792.97 1533.41 Q1796.02 1531.54 1800.16 1531.54 Q1805.73 1531.54 1808.75 1535.45 Q1811.78 1539.33 1811.78 1546.53 L1811.78 1568.04 L1805.89 1568.04 L1805.89 1546.72 Q1805.89 1541.59 1804.08 1539.11 Q1802.26 1536.63 1798.54 1536.63 Q1793.99 1536.63 1791.34 1539.65 Q1788.7 1542.68 1788.7 1547.9 L1788.7 1568.04 L1782.81 1568.04 L1782.81 1546.72 Q1782.81 1541.56 1781 1539.11 Q1779.19 1536.63 1775.4 1536.63 Q1770.91 1536.63 1768.27 1539.68 Q1765.63 1542.71 1765.63 1547.9 L1765.63 1568.04 L1759.74 1568.04 L1759.74 1532.4 L1765.63 1532.4 L1765.63 1537.93 Q1767.63 1534.66 1770.43 1533.1 Q1773.23 1531.54 1777.09 1531.54 Q1780.97 1531.54 1783.67 1533.51 Q1786.41 1535.48 1787.72 1539.24 Z" fill="#000000" fill-rule="nonzero" fill-opacity="1" /><path clip-path="url(#clip010)" d="M1837.15 1518.52 L1837.15 1576.64 L1823.65 1576.64 L1823.65 1572.09 L1831.26 1572.09 L1831.26 1523.07 L1823.65 1523.07 L1823.65 1518.52 L1837.15 1518.52 Z" fill="#000000" fill-rule="nonzero" fill-opacity="1" /><polyline clip-path="url(#clip012)" style="stroke:#000000; stroke-linecap:round; stroke-linejoin:round; stroke-width:2; stroke-opacity:0.1; fill:none" points="250.028,1423.18 2352.76,1423.18 "/>
<polyline clip-path="url(#clip012)" style="stroke:#000000; stroke-linecap:round; stroke-linejoin:round; stroke-width:2; stroke-opacity:0.1; fill:none" points="250.028,1117.2 2352.76,1117.2 "/>
<polyline clip-path="url(#clip012)" style="stroke:#000000; stroke-linecap:round; stroke-linejoin:round; stroke-width:2; stroke-opacity:0.1; fill:none" points="250.028,811.216 2352.76,811.216 "/>
<polyline clip-path="url(#clip012)" style="stroke:#000000; stroke-linecap:round; stroke-linejoin:round; stroke-width:2; stroke-opacity:0.1; fill:none" points="250.028,505.233 2352.76,505.233 "/>
<polyline clip-path="url(#clip012)" style="stroke:#000000; stroke-linecap:round; stroke-linejoin:round; stroke-width:2; stroke-opacity:0.1; fill:none" points="250.028,199.251 2352.76,199.251 "/>
<polyline clip-path="url(#clip010)" style="stroke:#000000; stroke-linecap:round; stroke-linejoin:round; stroke-width:4; stroke-opacity:1; fill:none" points="250.028,1423.18 250.028,183.952 "/>
<polyline clip-path="url(#clip010)" style="stroke:#000000; stroke-linecap:round; stroke-linejoin:round; stroke-width:4; stroke-opacity:1; fill:none" points="250.028,1423.18 268.926,1423.18 "/>
<polyline clip-path="url(#clip010)" style="stroke:#000000; stroke-linecap:round; stroke-linejoin:round; stroke-width:4; stroke-opacity:1; fill:none" points="250.028,1117.2 268.926,1117.2 "/>
<polyline clip-path="url(#clip010)" style="stroke:#000000; stroke-linecap:round; stroke-linejoin:round; stroke-width:4; stroke-opacity:1; fill:none" points="250.028,811.216 268.926,811.216 "/>
<polyline clip-path="url(#clip010)" style="stroke:#000000; stroke-linecap:round; stroke-linejoin:round; stroke-width:4; stroke-opacity:1; fill:none" points="250.028,505.233 268.926,505.233 "/>
<polyline clip-path="url(#clip010)" style="stroke:#000000; stroke-linecap:round; stroke-linejoin:round; stroke-width:4; stroke-opacity:1; fill:none" points="250.028,199.251 268.926,199.251 "/>
<path clip-path="url(#clip010)" d="M126.691 1408.98 Q123.08 1408.98 121.251 1412.54 Q119.445 1416.08 119.445 1423.21 Q119.445 1430.32 121.251 1433.89 Q123.08 1437.43 126.691 1437.43 Q130.325 1437.43 132.13 1433.89 Q133.959 1430.32 133.959 1423.21 Q133.959 1416.08 132.13 1412.54 Q130.325 1408.98 126.691 1408.98 M126.691 1405.27 Q132.501 1405.27 135.556 1409.88 Q138.635 1414.46 138.635 1423.21 Q138.635 1431.94 135.556 1436.55 Q132.501 1441.13 126.691 1441.13 Q120.88 1441.13 117.802 1436.55 Q114.746 1431.94 114.746 1423.21 Q114.746 1414.46 117.802 1409.88 Q120.88 1405.27 126.691 1405.27 Z" fill="#000000" fill-rule="nonzero" fill-opacity="1" /><path clip-path="url(#clip010)" d="M146.853 1434.58 L151.737 1434.58 L151.737 1440.46 L146.853 1440.46 L146.853 1434.58 Z" fill="#000000" fill-rule="nonzero" fill-opacity="1" /><path clip-path="url(#clip010)" d="M171.922 1408.98 Q168.311 1408.98 166.482 1412.54 Q164.677 1416.08 164.677 1423.21 Q164.677 1430.32 166.482 1433.89 Q168.311 1437.43 171.922 1437.43 Q175.556 1437.43 177.362 1433.89 Q179.19 1430.32 179.19 1423.21 Q179.19 1416.08 177.362 1412.54 Q175.556 1408.98 171.922 1408.98 M171.922 1405.27 Q177.732 1405.27 180.788 1409.88 Q183.866 1414.46 183.866 1423.21 Q183.866 1431.94 180.788 1436.55 Q177.732 1441.13 171.922 1441.13 Q166.112 1441.13 163.033 1436.55 Q159.978 1431.94 159.978 1423.21 Q159.978 1414.46 163.033 1409.88 Q166.112 1405.27 171.922 1405.27 Z" fill="#000000" fill-rule="nonzero" fill-opacity="1" /><path clip-path="url(#clip010)" d="M202.084 1408.98 Q198.473 1408.98 196.644 1412.54 Q194.838 1416.08 194.838 1423.21 Q194.838 1430.32 196.644 1433.89 Q198.473 1437.43 202.084 1437.43 Q205.718 1437.43 207.524 1433.89 Q209.352 1430.32 209.352 1423.21 Q209.352 1416.08 207.524 1412.54 Q205.718 1408.98 202.084 1408.98 M202.084 1405.27 Q207.894 1405.27 210.949 1409.88 Q214.028 1414.46 214.028 1423.21 Q214.028 1431.94 210.949 1436.55 Q207.894 1441.13 202.084 1441.13 Q196.274 1441.13 193.195 1436.55 Q190.139 1431.94 190.139 1423.21 Q190.139 1414.46 193.195 1409.88 Q196.274 1405.27 202.084 1405.27 Z" fill="#000000" fill-rule="nonzero" fill-opacity="1" /><path clip-path="url(#clip010)" d="M128.288 1103 Q124.677 1103 122.848 1106.56 Q121.043 1110.1 121.043 1117.23 Q121.043 1124.34 122.848 1127.9 Q124.677 1131.45 128.288 1131.45 Q131.922 1131.45 133.728 1127.9 Q135.556 1124.34 135.556 1117.23 Q135.556 1110.1 133.728 1106.56 Q131.922 1103 128.288 1103 M128.288 1099.29 Q134.098 1099.29 137.154 1103.9 Q140.232 1108.48 140.232 1117.23 Q140.232 1125.96 137.154 1130.57 Q134.098 1135.15 128.288 1135.15 Q122.478 1135.15 119.399 1130.57 Q116.343 1125.96 116.343 1117.23 Q116.343 1108.48 119.399 1103.9 Q122.478 1099.29 128.288 1099.29 Z" fill="#000000" fill-rule="nonzero" fill-opacity="1" /><path clip-path="url(#clip010)" d="M148.45 1128.6 L153.334 1128.6 L153.334 1134.48 L148.45 1134.48 L148.45 1128.6 Z" fill="#000000" fill-rule="nonzero" fill-opacity="1" /><path clip-path="url(#clip010)" d="M173.519 1103 Q169.908 1103 168.079 1106.56 Q166.274 1110.1 166.274 1117.23 Q166.274 1124.34 168.079 1127.9 Q169.908 1131.45 173.519 1131.45 Q177.153 1131.45 178.959 1127.9 Q180.788 1124.34 180.788 1117.23 Q180.788 1110.1 178.959 1106.56 Q177.153 1103 173.519 1103 M173.519 1099.29 Q179.329 1099.29 182.385 1103.9 Q185.463 1108.48 185.463 1117.23 Q185.463 1125.96 182.385 1130.57 Q179.329 1135.15 173.519 1135.15 Q167.709 1135.15 164.63 1130.57 Q161.575 1125.96 161.575 1117.23 Q161.575 1108.48 164.63 1103.9 Q167.709 1099.29 173.519 1099.29 Z" fill="#000000" fill-rule="nonzero" fill-opacity="1" /><path clip-path="url(#clip010)" d="M197.709 1130.54 L214.028 1130.54 L214.028 1134.48 L192.084 1134.48 L192.084 1130.54 Q194.746 1127.79 199.329 1123.16 Q203.936 1118.51 205.116 1117.16 Q207.362 1114.64 208.241 1112.9 Q209.144 1111.14 209.144 1109.45 Q209.144 1106.7 207.199 1104.96 Q205.278 1103.23 202.176 1103.23 Q199.977 1103.23 197.524 1103.99 Q195.093 1104.76 192.315 1106.31 L192.315 1101.58 Q195.139 1100.45 197.593 1099.87 Q200.047 1099.29 202.084 1099.29 Q207.454 1099.29 210.649 1101.98 Q213.843 1104.66 213.843 1109.15 Q213.843 1111.28 213.033 1113.2 Q212.246 1115.1 210.139 1117.7 Q209.561 1118.37 206.459 1121.58 Q203.357 1124.78 197.709 1130.54 Z" fill="#000000" fill-rule="nonzero" fill-opacity="1" /><path clip-path="url(#clip010)" d="M126.205 797.014 Q122.593 797.014 120.765 800.579 Q118.959 804.121 118.959 811.25 Q118.959 818.357 120.765 821.921 Q122.593 825.463 126.205 825.463 Q129.839 825.463 131.644 821.921 Q133.473 818.357 133.473 811.25 Q133.473 804.121 131.644 800.579 Q129.839 797.014 126.205 797.014 M126.205 793.311 Q132.015 793.311 135.07 797.917 Q138.149 802.5 138.149 811.25 Q138.149 819.977 135.07 824.584 Q132.015 829.167 126.205 829.167 Q120.394 829.167 117.316 824.584 Q114.26 819.977 114.26 811.25 Q114.26 802.5 117.316 797.917 Q120.394 793.311 126.205 793.311 Z" fill="#000000" fill-rule="nonzero" fill-opacity="1" /><path clip-path="url(#clip010)" d="M146.366 822.616 L151.251 822.616 L151.251 828.496 L146.366 828.496 L146.366 822.616 Z" fill="#000000" fill-rule="nonzero" fill-opacity="1" /><path clip-path="url(#clip010)" d="M171.436 797.014 Q167.825 797.014 165.996 800.579 Q164.19 804.121 164.19 811.25 Q164.19 818.357 165.996 821.921 Q167.825 825.463 171.436 825.463 Q175.07 825.463 176.876 821.921 Q178.704 818.357 178.704 811.25 Q178.704 804.121 176.876 800.579 Q175.07 797.014 171.436 797.014 M171.436 793.311 Q177.246 793.311 180.301 797.917 Q183.38 802.5 183.38 811.25 Q183.38 819.977 180.301 824.584 Q177.246 829.167 171.436 829.167 Q165.626 829.167 162.547 824.584 Q159.491 819.977 159.491 811.25 Q159.491 802.5 162.547 797.917 Q165.626 793.311 171.436 793.311 Z" fill="#000000" fill-rule="nonzero" fill-opacity="1" /><path clip-path="url(#clip010)" d="M204.445 798.01 L192.639 816.459 L204.445 816.459 L204.445 798.01 M203.218 793.936 L209.098 793.936 L209.098 816.459 L214.028 816.459 L214.028 820.347 L209.098 820.347 L209.098 828.496 L204.445 828.496 L204.445 820.347 L188.843 820.347 L188.843 815.834 L203.218 793.936 Z" fill="#000000" fill-rule="nonzero" fill-opacity="1" /><path clip-path="url(#clip010)" d="M126.529 491.032 Q122.918 491.032 121.089 494.597 Q119.283 498.139 119.283 505.268 Q119.283 512.375 121.089 515.939 Q122.918 519.481 126.529 519.481 Q130.163 519.481 131.968 515.939 Q133.797 512.375 133.797 505.268 Q133.797 498.139 131.968 494.597 Q130.163 491.032 126.529 491.032 M126.529 487.328 Q132.339 487.328 135.394 491.935 Q138.473 496.518 138.473 505.268 Q138.473 513.995 135.394 518.601 Q132.339 523.185 126.529 523.185 Q120.718 523.185 117.64 518.601 Q114.584 513.995 114.584 505.268 Q114.584 496.518 117.64 491.935 Q120.718 487.328 126.529 487.328 Z" fill="#000000" fill-rule="nonzero" fill-opacity="1" /><path clip-path="url(#clip010)" d="M146.691 516.634 L151.575 516.634 L151.575 522.513 L146.691 522.513 L146.691 516.634 Z" fill="#000000" fill-rule="nonzero" fill-opacity="1" /><path clip-path="url(#clip010)" d="M171.76 491.032 Q168.149 491.032 166.32 494.597 Q164.515 498.139 164.515 505.268 Q164.515 512.375 166.32 515.939 Q168.149 519.481 171.76 519.481 Q175.394 519.481 177.2 515.939 Q179.028 512.375 179.028 505.268 Q179.028 498.139 177.2 494.597 Q175.394 491.032 171.76 491.032 M171.76 487.328 Q177.57 487.328 180.626 491.935 Q183.704 496.518 183.704 505.268 Q183.704 513.995 180.626 518.601 Q177.57 523.185 171.76 523.185 Q165.95 523.185 162.871 518.601 Q159.815 513.995 159.815 505.268 Q159.815 496.518 162.871 491.935 Q165.95 487.328 171.76 487.328 Z" fill="#000000" fill-rule="nonzero" fill-opacity="1" /><path clip-path="url(#clip010)" d="M202.5 503.37 Q199.352 503.37 197.5 505.523 Q195.672 507.676 195.672 511.425 Q195.672 515.152 197.5 517.328 Q199.352 519.481 202.5 519.481 Q205.649 519.481 207.477 517.328 Q209.329 515.152 209.329 511.425 Q209.329 507.676 207.477 505.523 Q205.649 503.37 202.5 503.37 M211.783 488.717 L211.783 492.977 Q210.024 492.143 208.218 491.703 Q206.436 491.264 204.676 491.264 Q200.047 491.264 197.593 494.389 Q195.163 497.514 194.815 503.833 Q196.181 501.819 198.241 500.754 Q200.301 499.666 202.778 499.666 Q207.987 499.666 210.996 502.838 Q214.028 505.986 214.028 511.425 Q214.028 516.75 210.88 519.967 Q207.732 523.185 202.5 523.185 Q196.505 523.185 193.334 518.601 Q190.163 513.995 190.163 505.268 Q190.163 497.074 194.051 492.213 Q197.94 487.328 204.491 487.328 Q206.25 487.328 208.033 487.676 Q209.838 488.023 211.783 488.717 Z" fill="#000000" fill-rule="nonzero" fill-opacity="1" /><path clip-path="url(#clip010)" d="M126.783 185.05 Q123.172 185.05 121.343 188.615 Q119.538 192.156 119.538 199.286 Q119.538 206.392 121.343 209.957 Q123.172 213.499 126.783 213.499 Q130.417 213.499 132.223 209.957 Q134.052 206.392 134.052 199.286 Q134.052 192.156 132.223 188.615 Q130.417 185.05 126.783 185.05 M126.783 181.346 Q132.593 181.346 135.649 185.953 Q138.728 190.536 138.728 199.286 Q138.728 208.013 135.649 212.619 Q132.593 217.203 126.783 217.203 Q120.973 217.203 117.894 212.619 Q114.839 208.013 114.839 199.286 Q114.839 190.536 117.894 185.953 Q120.973 181.346 126.783 181.346 Z" fill="#000000" fill-rule="nonzero" fill-opacity="1" /><path clip-path="url(#clip010)" d="M146.945 210.652 L151.829 210.652 L151.829 216.531 L146.945 216.531 L146.945 210.652 Z" fill="#000000" fill-rule="nonzero" fill-opacity="1" /><path clip-path="url(#clip010)" d="M172.014 185.05 Q168.403 185.05 166.575 188.615 Q164.769 192.156 164.769 199.286 Q164.769 206.392 166.575 209.957 Q168.403 213.499 172.014 213.499 Q175.649 213.499 177.454 209.957 Q179.283 206.392 179.283 199.286 Q179.283 192.156 177.454 188.615 Q175.649 185.05 172.014 185.05 M172.014 181.346 Q177.825 181.346 180.88 185.953 Q183.959 190.536 183.959 199.286 Q183.959 208.013 180.88 212.619 Q177.825 217.203 172.014 217.203 Q166.204 217.203 163.126 212.619 Q160.07 208.013 160.07 199.286 Q160.07 190.536 163.126 185.953 Q166.204 181.346 172.014 181.346 Z" fill="#000000" fill-rule="nonzero" fill-opacity="1" /><path clip-path="url(#clip010)" d="M202.176 200.119 Q198.843 200.119 196.922 201.902 Q195.024 203.684 195.024 206.809 Q195.024 209.934 196.922 211.716 Q198.843 213.499 202.176 213.499 Q205.51 213.499 207.431 211.716 Q209.352 209.911 209.352 206.809 Q209.352 203.684 207.431 201.902 Q205.533 200.119 202.176 200.119 M197.5 198.129 Q194.491 197.388 192.801 195.328 Q191.135 193.267 191.135 190.305 Q191.135 186.161 194.075 183.754 Q197.037 181.346 202.176 181.346 Q207.338 181.346 210.278 183.754 Q213.218 186.161 213.218 190.305 Q213.218 193.267 211.528 195.328 Q209.861 197.388 206.875 198.129 Q210.255 198.916 212.13 201.207 Q214.028 203.499 214.028 206.809 Q214.028 211.832 210.949 214.517 Q207.894 217.203 202.176 217.203 Q196.459 217.203 193.38 214.517 Q190.325 211.832 190.325 206.809 Q190.325 203.499 192.223 201.207 Q194.121 198.916 197.5 198.129 M195.787 190.744 Q195.787 193.43 197.454 194.934 Q199.144 196.439 202.176 196.439 Q205.186 196.439 206.875 194.934 Q208.588 193.43 208.588 190.744 Q208.588 188.059 206.875 186.555 Q205.186 185.05 202.176 185.05 Q199.144 185.05 197.454 186.555 Q195.787 188.059 195.787 190.744 Z" fill="#000000" fill-rule="nonzero" fill-opacity="1" /><path clip-path="url(#clip010)" d="M16.4842 1312.9 L16.4842 1303.32 L48.8219 1291.2 L16.4842 1279 L16.4842 1269.42 L64.0042 1269.42 L64.0042 1275.69 L22.277 1275.69 L54.8694 1287.95 L54.8694 1294.41 L22.277 1306.66 L64.0042 1306.66 L64.0042 1312.9 L16.4842 1312.9 Z" fill="#000000" fill-rule="nonzero" fill-opacity="1" /><path clip-path="url(#clip010)" d="M46.0847 1240.71 Q46.0847 1247.81 47.7079 1250.55 Q49.3312 1253.29 53.2461 1253.29 Q56.3653 1253.29 58.2114 1251.25 Q60.0256 1249.18 60.0256 1245.65 Q60.0256 1240.78 56.5881 1237.85 Q53.1188 1234.89 47.3897 1234.89 L46.0847 1234.89 L46.0847 1240.71 M43.6657 1229.03 L64.0042 1229.03 L64.0042 1234.89 L58.5933 1234.89 Q61.8398 1236.9 63.3994 1239.89 Q64.9272 1242.88 64.9272 1247.21 Q64.9272 1252.68 61.8716 1255.93 Q58.7843 1259.14 53.6281 1259.14 Q47.6125 1259.14 44.5569 1255.13 Q41.5014 1251.09 41.5014 1243.1 L41.5014 1234.89 L40.9285 1234.89 Q36.8862 1234.89 34.6901 1237.56 Q32.4621 1240.21 32.4621 1245.01 Q32.4621 1248.07 33.1941 1250.96 Q33.9262 1253.86 35.3903 1256.53 L29.9795 1256.53 Q28.7381 1253.32 28.1334 1250.3 Q27.4968 1247.27 27.4968 1244.41 Q27.4968 1236.67 31.5072 1232.85 Q35.5176 1229.03 43.6657 1229.03 Z" fill="#000000" fill-rule="nonzero" fill-opacity="1" /><path clip-path="url(#clip010)" d="M45.7664 1193.51 Q39.4007 1193.51 35.8996 1196.16 Q32.3984 1198.76 32.3984 1203.51 Q32.3984 1208.22 35.8996 1210.86 Q39.4007 1213.47 45.7664 1213.47 Q52.1003 1213.47 55.6014 1210.86 Q59.1026 1208.22 59.1026 1203.51 Q59.1026 1198.76 55.6014 1196.16 Q52.1003 1193.51 45.7664 1193.51 M59.58 1187.66 Q68.683 1187.66 73.1071 1191.7 Q77.5631 1195.74 77.5631 1204.08 Q77.5631 1207.17 77.0857 1209.9 Q76.6401 1212.64 75.6852 1215.22 L69.9879 1215.22 Q71.3884 1212.64 72.0568 1210.13 Q72.7252 1207.61 72.7252 1205 Q72.7252 1199.24 69.7015 1196.38 Q66.7096 1193.51 60.6303 1193.51 L57.7339 1193.51 Q60.885 1195.33 62.4446 1198.16 Q64.0042 1200.99 64.0042 1204.94 Q64.0042 1211.5 59.0071 1215.51 Q54.01 1219.52 45.7664 1219.52 Q37.491 1219.52 32.4939 1215.51 Q27.4968 1211.5 27.4968 1204.94 Q27.4968 1200.99 29.0564 1198.16 Q30.616 1195.33 33.7671 1193.51 L28.3562 1193.51 L28.3562 1187.66 L59.58 1187.66 Z" fill="#000000" fill-rule="nonzero" fill-opacity="1" /><path clip-path="url(#clip010)" d="M42.4881 1145.96 L64.0042 1145.96 L64.0042 1151.82 L42.679 1151.82 Q37.6183 1151.82 35.1038 1153.79 Q32.5894 1155.76 32.5894 1159.71 Q32.5894 1164.45 35.6131 1167.19 Q38.6368 1169.93 43.8567 1169.93 L64.0042 1169.93 L64.0042 1175.82 L28.3562 1175.82 L28.3562 1169.93 L33.8944 1169.93 Q30.6797 1167.83 29.0883 1164.99 Q27.4968 1162.13 27.4968 1158.41 Q27.4968 1152.26 31.3163 1149.11 Q35.1038 1145.96 42.4881 1145.96 Z" fill="#000000" fill-rule="nonzero" fill-opacity="1" /><path clip-path="url(#clip010)" d="M28.3562 1134.28 L28.3562 1128.42 L64.0042 1128.42 L64.0042 1134.28 L28.3562 1134.28 M14.479 1134.28 L14.479 1128.42 L21.895 1128.42 L21.895 1134.28 L14.479 1134.28 Z" fill="#000000" fill-rule="nonzero" fill-opacity="1" /><path clip-path="url(#clip010)" d="M18.2347 1110.38 L28.3562 1110.38 L28.3562 1098.31 L32.9077 1098.31 L32.9077 1110.38 L52.2594 1110.38 Q56.6199 1110.38 57.8613 1109.2 Q59.1026 1107.99 59.1026 1104.33 L59.1026 1098.31 L64.0042 1098.31 L64.0042 1104.33 Q64.0042 1111.11 61.4897 1113.69 Q58.9434 1116.27 52.2594 1116.27 L32.9077 1116.27 L32.9077 1120.56 L28.3562 1120.56 L28.3562 1116.27 L18.2347 1116.27 L18.2347 1110.38 Z" fill="#000000" fill-rule="nonzero" fill-opacity="1" /><path clip-path="url(#clip010)" d="M49.9359 1091.22 L28.3562 1091.22 L28.3562 1085.36 L49.7131 1085.36 Q54.7739 1085.36 57.3202 1083.39 Q59.8346 1081.41 59.8346 1077.47 Q59.8346 1072.72 56.8109 1069.99 Q53.7872 1067.22 48.5673 1067.22 L28.3562 1067.22 L28.3562 1061.36 L64.0042 1061.36 L64.0042 1067.22 L58.5296 1067.22 Q61.7762 1069.35 63.3676 1072.18 Q64.9272 1074.98 64.9272 1078.71 Q64.9272 1084.85 61.1078 1088.03 Q57.2883 1091.22 49.9359 1091.22 M27.4968 1076.48 L27.4968 1076.48 Z" fill="#000000" fill-rule="nonzero" fill-opacity="1" /><path clip-path="url(#clip010)" d="M33.7671 1025.84 L14.479 1025.84 L14.479 1019.98 L64.0042 1019.98 L64.0042 1025.84 L58.657 1025.84 Q61.8398 1027.69 63.3994 1030.52 Q64.9272 1033.32 64.9272 1037.27 Q64.9272 1043.73 59.771 1047.8 Q54.6147 1051.84 46.212 1051.84 Q37.8093 1051.84 32.6531 1047.8 Q27.4968 1043.73 27.4968 1037.27 Q27.4968 1033.32 29.0564 1030.52 Q30.5842 1027.69 33.7671 1025.84 M46.212 1045.8 Q52.6732 1045.8 56.3653 1043.16 Q60.0256 1040.48 60.0256 1035.83 Q60.0256 1031.19 56.3653 1028.51 Q52.6732 1025.84 46.212 1025.84 Q39.7508 1025.84 36.0905 1028.51 Q32.3984 1031.19 32.3984 1035.83 Q32.3984 1040.48 36.0905 1043.16 Q39.7508 1045.8 46.212 1045.8 Z" fill="#000000" fill-rule="nonzero" fill-opacity="1" /><path clip-path="url(#clip010)" d="M44.7161 977.429 L47.5806 977.429 L47.5806 1004.36 Q53.6281 1003.97 56.8109 1000.73 Q59.9619 997.449 59.9619 991.625 Q59.9619 988.251 59.1344 985.1 Q58.3069 981.917 56.6518 978.798 L62.1899 978.798 Q63.5267 981.949 64.227 985.259 Q64.9272 988.569 64.9272 991.975 Q64.9272 1000.51 59.9619 1005.5 Q54.9967 1010.47 46.5303 1010.47 Q37.7774 1010.47 32.6531 1005.76 Q27.4968 1001.01 27.4968 992.993 Q27.4968 985.8 32.1438 981.631 Q36.7589 977.429 44.7161 977.429 M42.9973 983.286 Q38.1912 983.349 35.3266 985.991 Q32.4621 988.601 32.4621 992.93 Q32.4621 997.831 35.2312 1000.79 Q38.0002 1003.72 43.0292 1004.17 L42.9973 983.286 Z" fill="#000000" fill-rule="nonzero" fill-opacity="1" /><path clip-path="url(#clip010)" d="M32.4621 933.283 Q32.4621 937.994 36.1542 940.731 Q39.8145 943.468 46.212 943.468 Q52.6095 943.468 56.3017 940.763 Q59.9619 938.026 59.9619 933.283 Q59.9619 928.604 56.2698 925.867 Q52.5777 923.13 46.212 923.13 Q39.8781 923.13 36.186 925.867 Q32.4621 928.604 32.4621 933.283 M27.4968 933.283 Q27.4968 925.644 32.4621 921.284 Q37.4273 916.923 46.212 916.923 Q54.9649 916.923 59.9619 921.284 Q64.9272 925.644 64.9272 933.283 Q64.9272 940.954 59.9619 945.314 Q54.9649 949.643 46.212 949.643 Q37.4273 949.643 32.4621 945.314 Q27.4968 940.954 27.4968 933.283 Z" fill="#000000" fill-rule="nonzero" fill-opacity="1" /><path clip-path="url(#clip010)" d="M14.479 889.169 L19.3487 889.169 L19.3487 894.771 Q19.3487 897.922 20.6219 899.163 Q21.895 900.372 25.2052 900.372 L28.3562 900.372 L28.3562 890.728 L32.9077 890.728 L32.9077 900.372 L64.0042 900.372 L64.0042 906.261 L32.9077 906.261 L32.9077 911.863 L28.3562 911.863 L28.3562 906.261 L25.8736 906.261 Q19.9216 906.261 17.2162 903.492 Q14.479 900.723 14.479 894.707 L14.479 889.169 Z" fill="#000000" fill-rule="nonzero" fill-opacity="1" /><path clip-path="url(#clip010)" d="M16.4842 863.292 L16.4842 853.712 L48.8219 841.585 L16.4842 829.395 L16.4842 819.814 L64.0042 819.814 L64.0042 826.085 L22.277 826.085 L54.8694 838.339 L54.8694 844.8 L22.277 857.054 L64.0042 857.054 L64.0042 863.292 L16.4842 863.292 Z" fill="#000000" fill-rule="nonzero" fill-opacity="1" /><path clip-path="url(#clip010)" d="M46.0847 791.105 Q46.0847 798.203 47.7079 800.94 Q49.3312 803.677 53.2461 803.677 Q56.3653 803.677 58.2114 801.64 Q60.0256 799.572 60.0256 796.039 Q60.0256 791.169 56.5881 788.241 Q53.1188 785.28 47.3897 785.28 L46.0847 785.28 L46.0847 791.105 M43.6657 779.424 L64.0042 779.424 L64.0042 785.28 L58.5933 785.28 Q61.8398 787.286 63.3994 790.278 Q64.9272 793.269 64.9272 797.598 Q64.9272 803.073 61.8716 806.319 Q58.7843 809.534 53.6281 809.534 Q47.6125 809.534 44.5569 805.523 Q41.5014 801.481 41.5014 793.492 L41.5014 785.28 L40.9285 785.28 Q36.8862 785.28 34.6901 787.954 Q32.4621 790.596 32.4621 795.402 Q32.4621 798.458 33.1941 801.354 Q33.9262 804.25 35.3903 806.924 L29.9795 806.924 Q28.7381 803.709 28.1334 800.686 Q27.4968 797.662 27.4968 794.797 Q27.4968 787.063 31.5072 783.243 Q35.5176 779.424 43.6657 779.424 Z" fill="#000000" fill-rule="nonzero" fill-opacity="1" /><path clip-path="url(#clip010)" d="M45.7664 743.903 Q39.4007 743.903 35.8996 746.545 Q32.3984 749.155 32.3984 753.898 Q32.3984 758.608 35.8996 761.25 Q39.4007 763.86 45.7664 763.86 Q52.1003 763.86 55.6014 761.25 Q59.1026 758.608 59.1026 753.898 Q59.1026 749.155 55.6014 746.545 Q52.1003 743.903 45.7664 743.903 M59.58 738.047 Q68.683 738.047 73.1071 742.089 Q77.5631 746.131 77.5631 754.47 Q77.5631 757.558 77.0857 760.295 Q76.6401 763.032 75.6852 765.61 L69.9879 765.61 Q71.3884 763.032 72.0568 760.518 Q72.7252 758.003 72.7252 755.393 Q72.7252 749.633 69.7015 746.768 Q66.7096 743.903 60.6303 743.903 L57.7339 743.903 Q60.885 745.718 62.4446 748.55 Q64.0042 751.383 64.0042 755.33 Q64.0042 761.887 59.0071 765.897 Q54.01 769.907 45.7664 769.907 Q37.491 769.907 32.4939 765.897 Q27.4968 761.887 27.4968 755.33 Q27.4968 751.383 29.0564 748.55 Q30.616 745.718 33.7671 743.903 L28.3562 743.903 L28.3562 738.047 L59.58 738.047 Z" fill="#000000" fill-rule="nonzero" fill-opacity="1" /><path clip-path="url(#clip010)" d="M42.4881 696.352 L64.0042 696.352 L64.0042 702.208 L42.679 702.208 Q37.6183 702.208 35.1038 704.181 Q32.5894 706.155 32.5894 710.101 Q32.5894 714.844 35.6131 717.581 Q38.6368 720.318 43.8567 720.318 L64.0042 720.318 L64.0042 726.207 L28.3562 726.207 L28.3562 720.318 L33.8944 720.318 Q30.6797 718.218 29.0883 715.385 Q27.4968 712.52 27.4968 708.797 Q27.4968 702.654 31.3163 699.503 Q35.1038 696.352 42.4881 696.352 Z" fill="#000000" fill-rule="nonzero" fill-opacity="1" /><path clip-path="url(#clip010)" d="M44.7161 654.179 L47.5806 654.179 L47.5806 681.106 Q53.6281 680.724 56.8109 677.477 Q59.9619 674.199 59.9619 668.374 Q59.9619 665 59.1344 661.849 Q58.3069 658.667 56.6518 655.547 L62.1899 655.547 Q63.5267 658.698 64.227 662.009 Q64.9272 665.319 64.9272 668.724 Q64.9272 677.254 59.9619 682.252 Q54.9967 687.217 46.5303 687.217 Q37.7774 687.217 32.6531 682.506 Q27.4968 677.764 27.4968 669.743 Q27.4968 662.55 32.1438 658.38 Q36.7589 654.179 44.7161 654.179 M42.9973 660.035 Q38.1912 660.099 35.3266 662.741 Q32.4621 665.351 32.4621 669.679 Q32.4621 674.581 35.2312 677.541 Q38.0002 680.469 43.0292 680.915 L42.9973 660.035 Z" fill="#000000" fill-rule="nonzero" fill-opacity="1" /><path clip-path="url(#clip010)" d="M18.2347 638.774 L28.3562 638.774 L28.3562 626.711 L32.9077 626.711 L32.9077 638.774 L52.2594 638.774 Q56.6199 638.774 57.8613 637.596 Q59.1026 636.387 59.1026 632.726 L59.1026 626.711 L64.0042 626.711 L64.0042 632.726 Q64.0042 639.506 61.4897 642.084 Q58.9434 644.662 52.2594 644.662 L32.9077 644.662 L32.9077 648.959 L28.3562 648.959 L28.3562 644.662 L18.2347 644.662 L18.2347 638.774 Z" fill="#000000" fill-rule="nonzero" fill-opacity="1" /><path clip-path="url(#clip010)" d="M28.3562 619.008 L28.3562 613.152 L64.0042 613.152 L64.0042 619.008 L28.3562 619.008 M14.479 619.008 L14.479 613.152 L21.895 613.152 L21.895 619.008 L14.479 619.008 Z" fill="#000000" fill-rule="nonzero" fill-opacity="1" /><path clip-path="url(#clip010)" d="M29.7248 575.244 L35.1993 575.244 Q33.8307 577.727 33.1623 580.241 Q32.4621 582.724 32.4621 585.27 Q32.4621 590.967 36.0905 594.118 Q39.6872 597.269 46.212 597.269 Q52.7369 597.269 56.3653 594.118 Q59.9619 590.967 59.9619 585.27 Q59.9619 582.724 59.2935 580.241 Q58.5933 577.727 57.2247 575.244 L62.6355 575.244 Q63.7814 577.695 64.3543 580.337 Q64.9272 582.947 64.9272 585.907 Q64.9272 593.959 59.8664 598.702 Q54.8057 603.444 46.212 603.444 Q37.491 603.444 32.4939 598.67 Q27.4968 593.864 27.4968 585.525 Q27.4968 582.819 28.0697 580.241 Q28.6108 577.663 29.7248 575.244 Z" fill="#000000" fill-rule="nonzero" fill-opacity="1" /><path clip-path="url(#clip010)" d="M16.4842 544.084 L16.4842 516.775 L21.895 516.775 L21.895 537.655 L35.8996 537.655 L35.8996 518.812 L41.3104 518.812 L41.3104 537.655 L64.0042 537.655 L64.0042 544.084 L16.4842 544.084 Z" fill="#000000" fill-rule="nonzero" fill-opacity="1" /><path clip-path="url(#clip010)" d="M28.3562 511.587 L28.3562 505.73 L64.0042 505.73 L64.0042 511.587 L28.3562 511.587 M14.479 511.587 L14.479 505.73 L21.895 505.73 L21.895 511.587 L14.479 511.587 Z" fill="#000000" fill-rule="nonzero" fill-opacity="1" /><path clip-path="url(#clip010)" d="M44.7161 462.985 L47.5806 462.985 L47.5806 489.912 Q53.6281 489.53 56.8109 486.283 Q59.9619 483.005 59.9619 477.18 Q59.9619 473.806 59.1344 470.655 Q58.3069 467.473 56.6518 464.353 L62.1899 464.353 Q63.5267 467.504 64.227 470.815 Q64.9272 474.125 64.9272 477.53 Q64.9272 486.06 59.9619 491.058 Q54.9967 496.023 46.5303 496.023 Q37.7774 496.023 32.6531 491.312 Q27.4968 486.57 27.4968 478.549 Q27.4968 471.356 32.1438 467.186 Q36.7589 462.985 44.7161 462.985 M42.9973 468.841 Q38.1912 468.905 35.3266 471.547 Q32.4621 474.157 32.4621 478.485 Q32.4621 483.387 35.2312 486.347 Q38.0002 489.275 43.0292 489.721 L42.9973 468.841 Z" fill="#000000" fill-rule="nonzero" fill-opacity="1" /><path clip-path="url(#clip010)" d="M14.479 453.373 L14.479 447.516 L64.0042 447.516 L64.0042 453.373 L14.479 453.373 Z" fill="#000000" fill-rule="nonzero" fill-opacity="1" /><path clip-path="url(#clip010)" d="M33.7671 411.804 L14.479 411.804 L14.479 405.948 L64.0042 405.948 L64.0042 411.804 L58.657 411.804 Q61.8398 413.651 63.3994 416.483 Q64.9272 419.284 64.9272 423.231 Q64.9272 429.692 59.771 433.766 Q54.6147 437.808 46.212 437.808 Q37.8093 437.808 32.6531 433.766 Q27.4968 429.692 27.4968 423.231 Q27.4968 419.284 29.0564 416.483 Q30.5842 413.651 33.7671 411.804 M46.212 431.761 Q52.6732 431.761 56.3653 429.119 Q60.0256 426.446 60.0256 421.799 Q60.0256 417.152 56.3653 414.478 Q52.6732 411.804 46.212 411.804 Q39.7508 411.804 36.0905 414.478 Q32.3984 417.152 32.3984 421.799 Q32.3984 426.446 36.0905 429.119 Q39.7508 431.761 46.212 431.761 Z" fill="#000000" fill-rule="nonzero" fill-opacity="1" /><path clip-path="url(#clip010)" d="M14.479 373.706 L14.479 360.21 L19.0304 360.21 L19.0304 367.849 L68.0464 367.849 L68.0464 360.21 L72.5979 360.21 L72.5979 373.706 L14.479 373.706 Z" fill="#000000" fill-rule="nonzero" fill-opacity="1" /><path clip-path="url(#clip010)" d="M16.4842 354.068 L16.4842 313.868 L21.895 313.868 L21.895 330.737 L64.0042 330.737 L64.0042 337.198 L21.895 337.198 L21.895 354.068 L16.4842 354.068 Z" fill="#000000" fill-rule="nonzero" fill-opacity="1" /><path clip-path="url(#clip010)" d="M14.479 294.23 L72.5979 294.23 L72.5979 307.725 L68.0464 307.725 L68.0464 300.118 L19.0304 300.118 L19.0304 307.725 L14.479 307.725 L14.479 294.23 Z" fill="#000000" fill-rule="nonzero" fill-opacity="1" /><path clip-path="url(#clip010)" d="M379.285 33.264 L391.478 33.264 L406.912 74.4212 L422.427 33.264 L434.62 33.264 L434.62 93.744 L426.64 93.744 L426.64 40.6366 L411.044 82.1179 L402.82 82.1179 L387.224 40.6366 L387.224 93.744 L379.285 93.744 L379.285 33.264 Z" fill="#000000" fill-rule="nonzero" fill-opacity="1" /><path clip-path="url(#clip010)" d="M471.159 70.9374 Q462.126 70.9374 458.642 73.0034 Q455.158 75.0693 455.158 80.0519 Q455.158 84.0218 457.751 86.3714 Q460.384 88.6804 464.88 88.6804 Q471.078 88.6804 474.805 84.3054 Q478.572 79.8899 478.572 72.5983 L478.572 70.9374 L471.159 70.9374 M486.026 67.8587 L486.026 93.744 L478.572 93.744 L478.572 86.8575 Q476.02 90.9894 472.212 92.9743 Q468.405 94.9188 462.895 94.9188 Q455.928 94.9188 451.796 91.0299 Q447.704 87.1005 447.704 80.5381 Q447.704 72.8818 452.809 68.993 Q457.953 65.1041 468.121 65.1041 L478.572 65.1041 L478.572 64.3749 Q478.572 59.2303 475.17 56.4352 Q471.807 53.5995 465.69 53.5995 Q461.802 53.5995 458.115 54.5312 Q454.429 55.463 451.026 57.3264 L451.026 50.4398 Q455.118 48.86 458.966 48.0903 Q462.814 47.2801 466.46 47.2801 Q476.304 47.2801 481.165 52.3843 Q486.026 57.4884 486.026 67.8587 Z" fill="#000000" fill-rule="nonzero" fill-opacity="1" /><path clip-path="url(#clip010)" d="M531.234 70.5323 Q531.234 62.4305 527.872 57.9745 Q524.55 53.5185 518.514 53.5185 Q512.519 53.5185 509.157 57.9745 Q505.835 62.4305 505.835 70.5323 Q505.835 78.5936 509.157 83.0496 Q512.519 87.5056 518.514 87.5056 Q524.55 87.5056 527.872 83.0496 Q531.234 78.5936 531.234 70.5323 M538.688 88.1132 Q538.688 99.6988 533.543 105.33 Q528.398 111.001 517.785 111.001 Q513.856 111.001 510.372 110.393 Q506.888 109.826 503.607 108.611 L503.607 101.36 Q506.888 103.142 510.088 103.993 Q513.289 104.843 516.61 104.843 Q523.942 104.843 527.588 100.995 Q531.234 97.1873 531.234 89.45 L531.234 85.7637 Q528.925 89.7741 525.32 91.7591 Q521.714 93.744 516.691 93.744 Q508.347 93.744 503.242 87.3841 Q498.138 81.0242 498.138 70.5323 Q498.138 60 503.242 53.64 Q508.347 47.2801 516.691 47.2801 Q521.714 47.2801 525.32 49.2651 Q528.925 51.25 531.234 55.2604 L531.234 48.3739 L538.688 48.3739 L538.688 88.1132 Z" fill="#000000" fill-rule="nonzero" fill-opacity="1" /><path clip-path="url(#clip010)" d="M591.755 66.3599 L591.755 93.744 L584.301 93.744 L584.301 66.6029 Q584.301 60.162 581.789 56.9618 Q579.278 53.7616 574.255 53.7616 Q568.219 53.7616 564.735 57.6099 Q561.251 61.4583 561.251 68.1018 L561.251 93.744 L553.757 93.744 L553.757 48.3739 L561.251 48.3739 L561.251 55.4224 Q563.925 51.331 567.53 49.3056 Q571.176 47.2801 575.916 47.2801 Q583.734 47.2801 587.744 52.1412 Q591.755 56.9618 591.755 66.3599 Z" fill="#000000" fill-rule="nonzero" fill-opacity="1" /><path clip-path="url(#clip010)" d="M645.429 69.1955 L645.429 72.8413 L611.158 72.8413 Q611.645 80.5381 615.776 84.589 Q619.949 88.5994 627.362 88.5994 Q631.656 88.5994 635.666 87.5461 Q639.717 86.4929 643.687 84.3864 L643.687 91.435 Q639.677 93.1364 635.464 94.0276 Q631.251 94.9188 626.916 94.9188 Q616.06 94.9188 609.7 88.5994 Q603.381 82.2799 603.381 71.5045 Q603.381 60.3645 609.376 53.8426 Q615.412 47.2801 625.62 47.2801 Q634.775 47.2801 640.082 53.1944 Q645.429 59.0683 645.429 69.1955 M637.975 67.008 Q637.894 60.8912 634.532 57.2454 Q631.21 53.5995 625.701 53.5995 Q619.463 53.5995 615.695 57.1238 Q611.969 60.6481 611.402 67.0485 L637.975 67.008 Z" fill="#000000" fill-rule="nonzero" fill-opacity="1" /><path clip-path="url(#clip010)" d="M665.035 35.492 L665.035 48.3739 L680.388 48.3739 L680.388 54.1667 L665.035 54.1667 L665.035 78.7962 Q665.035 84.3459 666.534 85.9258 Q668.074 87.5056 672.732 87.5056 L680.388 87.5056 L680.388 93.744 L672.732 93.744 Q664.104 93.744 660.823 90.5438 Q657.541 87.3031 657.541 78.7962 L657.541 54.1667 L652.073 54.1667 L652.073 48.3739 L657.541 48.3739 L657.541 35.492 L665.035 35.492 Z" fill="#000000" fill-rule="nonzero" fill-opacity="1" /><path clip-path="url(#clip010)" d="M690.192 48.3739 L697.645 48.3739 L697.645 93.744 L690.192 93.744 L690.192 48.3739 M690.192 30.7119 L697.645 30.7119 L697.645 40.1505 L690.192 40.1505 L690.192 30.7119 Z" fill="#000000" fill-rule="nonzero" fill-opacity="1" /><path clip-path="url(#clip010)" d="M745.892 50.1158 L745.892 57.0833 Q742.732 55.3414 739.532 54.4907 Q736.372 53.5995 733.131 53.5995 Q725.88 53.5995 721.87 58.2176 Q717.859 62.7951 717.859 71.0994 Q717.859 79.4038 721.87 84.0218 Q725.88 88.5994 733.131 88.5994 Q736.372 88.5994 739.532 87.7487 Q742.732 86.8575 745.892 85.1156 L745.892 92.0021 Q742.772 93.4604 739.41 94.1896 Q736.088 94.9188 732.321 94.9188 Q722.072 94.9188 716.036 88.4778 Q710.001 82.0369 710.001 71.0994 Q710.001 60 716.077 53.64 Q722.194 47.2801 732.807 47.2801 Q736.25 47.2801 739.532 48.0093 Q742.813 48.6979 745.892 50.1158 Z" fill="#000000" fill-rule="nonzero" fill-opacity="1" /><path clip-path="url(#clip010)" d="M785.55 33.264 L820.307 33.264 L820.307 40.1505 L793.733 40.1505 L793.733 57.9745 L817.714 57.9745 L817.714 64.8611 L793.733 64.8611 L793.733 93.744 L785.55 93.744 L785.55 33.264 Z" fill="#000000" fill-rule="nonzero" fill-opacity="1" /><path clip-path="url(#clip010)" d="M826.91 48.3739 L834.363 48.3739 L834.363 93.744 L826.91 93.744 L826.91 48.3739 M826.91 30.7119 L834.363 30.7119 L834.363 40.1505 L826.91 40.1505 L826.91 30.7119 Z" fill="#000000" fill-rule="nonzero" fill-opacity="1" /><path clip-path="url(#clip010)" d="M888.767 69.1955 L888.767 72.8413 L854.496 72.8413 Q854.982 80.5381 859.114 84.589 Q863.287 88.5994 870.7 88.5994 Q874.994 88.5994 879.004 87.5461 Q883.055 86.4929 887.025 84.3864 L887.025 91.435 Q883.015 93.1364 878.802 94.0276 Q874.589 94.9188 870.254 94.9188 Q859.398 94.9188 853.038 88.5994 Q846.719 82.2799 846.719 71.5045 Q846.719 60.3645 852.714 53.8426 Q858.75 47.2801 868.958 47.2801 Q878.113 47.2801 883.42 53.1944 Q888.767 59.0683 888.767 69.1955 M881.313 67.008 Q881.232 60.8912 877.87 57.2454 Q874.548 53.5995 869.039 53.5995 Q862.801 53.5995 859.033 57.1238 Q855.306 60.6481 854.739 67.0485 L881.313 67.008 Z" fill="#000000" fill-rule="nonzero" fill-opacity="1" /><path clip-path="url(#clip010)" d="M901.001 30.7119 L908.454 30.7119 L908.454 93.744 L901.001 93.744 L901.001 30.7119 Z" fill="#000000" fill-rule="nonzero" fill-opacity="1" /><path clip-path="url(#clip010)" d="M953.905 55.2604 L953.905 30.7119 L961.359 30.7119 L961.359 93.744 L953.905 93.744 L953.905 86.9385 Q951.556 90.9894 947.951 92.9743 Q944.386 94.9188 939.363 94.9188 Q931.139 94.9188 925.954 88.3563 Q920.81 81.7938 920.81 71.0994 Q920.81 60.4051 925.954 53.8426 Q931.139 47.2801 939.363 47.2801 Q944.386 47.2801 947.951 49.2651 Q951.556 51.2095 953.905 55.2604 M928.506 71.0994 Q928.506 79.3228 931.869 84.0218 Q935.271 88.6804 941.186 88.6804 Q947.1 88.6804 950.503 84.0218 Q953.905 79.3228 953.905 71.0994 Q953.905 62.8761 950.503 58.2176 Q947.1 53.5185 941.186 53.5185 Q935.271 53.5185 931.869 58.2176 Q928.506 62.8761 928.506 71.0994 Z" fill="#000000" fill-rule="nonzero" fill-opacity="1" /><path clip-path="url(#clip010)" d="M1023.62 41.3253 L1012.52 71.4235 L1034.76 71.4235 L1023.62 41.3253 M1019 33.264 L1028.28 33.264 L1051.33 93.744 L1042.82 93.744 L1037.31 78.229 L1010.05 78.229 L1004.54 93.744 L995.913 93.744 L1019 33.264 Z" fill="#000000" fill-rule="nonzero" fill-opacity="1" /><path clip-path="url(#clip010)" d="M1086.13 55.3414 Q1084.87 54.6123 1083.37 54.2882 Q1081.91 53.9236 1080.13 53.9236 Q1073.81 53.9236 1070.41 58.0555 Q1067.05 62.1469 1067.05 69.8437 L1067.05 93.744 L1059.55 93.744 L1059.55 48.3739 L1067.05 48.3739 L1067.05 55.4224 Q1069.4 51.2905 1073.16 49.3056 Q1076.93 47.2801 1082.32 47.2801 Q1083.09 47.2801 1084.02 47.4017 Q1084.95 47.4827 1086.09 47.6852 L1086.13 55.3414 Z" fill="#000000" fill-rule="nonzero" fill-opacity="1" /><path clip-path="url(#clip010)" d="M1109.7 53.5995 Q1103.71 53.5995 1100.22 58.2986 Q1096.74 62.9571 1096.74 71.0994 Q1096.74 79.2418 1100.18 83.9408 Q1103.67 88.5994 1109.7 88.5994 Q1115.66 88.5994 1119.14 83.9003 Q1122.63 79.2013 1122.63 71.0994 Q1122.63 63.0381 1119.14 58.3391 Q1115.66 53.5995 1109.7 53.5995 M1109.7 47.2801 Q1119.43 47.2801 1124.98 53.5995 Q1130.52 59.9189 1130.52 71.0994 Q1130.52 82.2394 1124.98 88.5994 Q1119.43 94.9188 1109.7 94.9188 Q1099.94 94.9188 1094.39 88.5994 Q1088.88 82.2394 1088.88 71.0994 Q1088.88 59.9189 1094.39 53.5995 Q1099.94 47.2801 1109.7 47.2801 Z" fill="#000000" fill-rule="nonzero" fill-opacity="1" /><path clip-path="url(#clip010)" d="M1142.11 75.839 L1142.11 48.3739 L1149.56 48.3739 L1149.56 75.5554 Q1149.56 81.9964 1152.08 85.2371 Q1154.59 88.4373 1159.61 88.4373 Q1165.65 88.4373 1169.13 84.589 Q1172.65 80.7406 1172.65 74.0971 L1172.65 48.3739 L1180.11 48.3739 L1180.11 93.744 L1172.65 93.744 L1172.65 86.7764 Q1169.94 90.9084 1166.33 92.9338 Q1162.77 94.9188 1158.03 94.9188 Q1150.21 94.9188 1146.16 90.0577 Q1142.11 85.1966 1142.11 75.839 M1160.87 47.2801 L1160.87 47.2801 Z" fill="#000000" fill-rule="nonzero" fill-opacity="1" /><path clip-path="url(#clip010)" d="M1233.17 66.3599 L1233.17 93.744 L1225.72 93.744 L1225.72 66.6029 Q1225.72 60.162 1223.21 56.9618 Q1220.7 53.7616 1215.67 53.7616 Q1209.64 53.7616 1206.16 57.6099 Q1202.67 61.4583 1202.67 68.1018 L1202.67 93.744 L1195.18 93.744 L1195.18 48.3739 L1202.67 48.3739 L1202.67 55.4224 Q1205.35 51.331 1208.95 49.3056 Q1212.6 47.2801 1217.34 47.2801 Q1225.15 47.2801 1229.16 52.1412 Q1233.17 56.9618 1233.17 66.3599 Z" fill="#000000" fill-rule="nonzero" fill-opacity="1" /><path clip-path="url(#clip010)" d="M1277.9 55.2604 L1277.9 30.7119 L1285.35 30.7119 L1285.35 93.744 L1277.9 93.744 L1277.9 86.9385 Q1275.55 90.9894 1271.94 92.9743 Q1268.38 94.9188 1263.35 94.9188 Q1255.13 94.9188 1249.95 88.3563 Q1244.8 81.7938 1244.8 71.0994 Q1244.8 60.4051 1249.95 53.8426 Q1255.13 47.2801 1263.35 47.2801 Q1268.38 47.2801 1271.94 49.2651 Q1275.55 51.2095 1277.9 55.2604 M1252.5 71.0994 Q1252.5 79.3228 1255.86 84.0218 Q1259.26 88.6804 1265.18 88.6804 Q1271.09 88.6804 1274.49 84.0218 Q1277.9 79.3228 1277.9 71.0994 Q1277.9 62.8761 1274.49 58.2176 Q1271.09 53.5185 1265.18 53.5185 Q1259.26 53.5185 1255.86 58.2176 Q1252.5 62.8761 1252.5 71.0994 Z" fill="#000000" fill-rule="nonzero" fill-opacity="1" /><path clip-path="url(#clip010)" d="M1347.69 70.9374 Q1338.66 70.9374 1335.18 73.0034 Q1331.69 75.0693 1331.69 80.0519 Q1331.69 84.0218 1334.29 86.3714 Q1336.92 88.6804 1341.41 88.6804 Q1347.61 88.6804 1351.34 84.3054 Q1355.11 79.8899 1355.11 72.5983 L1355.11 70.9374 L1347.69 70.9374 M1362.56 67.8587 L1362.56 93.744 L1355.11 93.744 L1355.11 86.8575 Q1352.55 90.9894 1348.75 92.9743 Q1344.94 94.9188 1339.43 94.9188 Q1332.46 94.9188 1328.33 91.0299 Q1324.24 87.1005 1324.24 80.5381 Q1324.24 72.8818 1329.34 68.993 Q1334.49 65.1041 1344.66 65.1041 L1355.11 65.1041 L1355.11 64.3749 Q1355.11 59.2303 1351.7 56.4352 Q1348.34 53.5995 1342.23 53.5995 Q1338.34 53.5995 1334.65 54.5312 Q1330.96 55.463 1327.56 57.3264 L1327.56 50.4398 Q1331.65 48.86 1335.5 48.0903 Q1339.35 47.2801 1342.99 47.2801 Q1352.84 47.2801 1357.7 52.3843 Q1362.56 57.4884 1362.56 67.8587 Z" fill="#000000" fill-rule="nonzero" fill-opacity="1" /><path clip-path="url(#clip010)" d="M1415.63 66.3599 L1415.63 93.744 L1408.17 93.744 L1408.17 66.6029 Q1408.17 60.162 1405.66 56.9618 Q1403.15 53.7616 1398.13 53.7616 Q1392.09 53.7616 1388.61 57.6099 Q1385.12 61.4583 1385.12 68.1018 L1385.12 93.744 L1377.63 93.744 L1377.63 48.3739 L1385.12 48.3739 L1385.12 55.4224 Q1387.8 51.331 1391.4 49.3056 Q1395.05 47.2801 1399.79 47.2801 Q1407.61 47.2801 1411.62 52.1412 Q1415.63 56.9618 1415.63 66.3599 Z" fill="#000000" fill-rule="nonzero" fill-opacity="1" /><path clip-path="url(#clip010)" d="M1457.19 33.264 L1465.37 33.264 L1465.37 93.744 L1457.19 93.744 L1457.19 33.264 Z" fill="#000000" fill-rule="nonzero" fill-opacity="1" /><path clip-path="url(#clip010)" d="M1519.05 66.3599 L1519.05 93.744 L1511.59 93.744 L1511.59 66.6029 Q1511.59 60.162 1509.08 56.9618 Q1506.57 53.7616 1501.55 53.7616 Q1495.51 53.7616 1492.03 57.6099 Q1488.54 61.4583 1488.54 68.1018 L1488.54 93.744 L1481.05 93.744 L1481.05 48.3739 L1488.54 48.3739 L1488.54 55.4224 Q1491.22 51.331 1494.82 49.3056 Q1498.47 47.2801 1503.21 47.2801 Q1511.03 47.2801 1515.04 52.1412 Q1519.05 56.9618 1519.05 66.3599 Z" fill="#000000" fill-rule="nonzero" fill-opacity="1" /><path clip-path="url(#clip010)" d="M1556.88 30.7119 L1556.88 36.9098 L1549.75 36.9098 Q1545.74 36.9098 1544.16 38.5302 Q1542.62 40.1505 1542.62 44.3635 L1542.62 48.3739 L1554.9 48.3739 L1554.9 54.1667 L1542.62 54.1667 L1542.62 93.744 L1535.13 93.744 L1535.13 54.1667 L1528 54.1667 L1528 48.3739 L1535.13 48.3739 L1535.13 45.2142 Q1535.13 37.639 1538.65 34.1957 Q1542.18 30.7119 1549.83 30.7119 L1556.88 30.7119 Z" fill="#000000" fill-rule="nonzero" fill-opacity="1" /><path clip-path="url(#clip010)" d="M1563.12 48.3739 L1570.57 48.3739 L1570.57 93.744 L1563.12 93.744 L1563.12 48.3739 M1563.12 30.7119 L1570.57 30.7119 L1570.57 40.1505 L1563.12 40.1505 L1563.12 30.7119 Z" fill="#000000" fill-rule="nonzero" fill-opacity="1" /><path clip-path="url(#clip010)" d="M1623.88 66.3599 L1623.88 93.744 L1616.43 93.744 L1616.43 66.6029 Q1616.43 60.162 1613.92 56.9618 Q1611.41 53.7616 1606.38 53.7616 Q1600.35 53.7616 1596.86 57.6099 Q1593.38 61.4583 1593.38 68.1018 L1593.38 93.744 L1585.89 93.744 L1585.89 48.3739 L1593.38 48.3739 L1593.38 55.4224 Q1596.05 51.331 1599.66 49.3056 Q1603.31 47.2801 1608.05 47.2801 Q1615.86 47.2801 1619.87 52.1412 Q1623.88 56.9618 1623.88 66.3599 Z" fill="#000000" fill-rule="nonzero" fill-opacity="1" /><path clip-path="url(#clip010)" d="M1638.75 48.3739 L1646.2 48.3739 L1646.2 93.744 L1638.75 93.744 L1638.75 48.3739 M1638.75 30.7119 L1646.2 30.7119 L1646.2 40.1505 L1638.75 40.1505 L1638.75 30.7119 Z" fill="#000000" fill-rule="nonzero" fill-opacity="1" /><path clip-path="url(#clip010)" d="M1669.17 35.492 L1669.17 48.3739 L1684.53 48.3739 L1684.53 54.1667 L1669.17 54.1667 L1669.17 78.7962 Q1669.17 84.3459 1670.67 85.9258 Q1672.21 87.5056 1676.87 87.5056 L1684.53 87.5056 L1684.53 93.744 L1676.87 93.744 Q1668.24 93.744 1664.96 90.5438 Q1661.68 87.3031 1661.68 78.7962 L1661.68 54.1667 L1656.21 54.1667 L1656.21 48.3739 L1661.68 48.3739 L1661.68 35.492 L1669.17 35.492 Z" fill="#000000" fill-rule="nonzero" fill-opacity="1" /><path clip-path="url(#clip010)" d="M1733.14 69.1955 L1733.14 72.8413 L1698.87 72.8413 Q1699.35 80.5381 1703.48 84.589 Q1707.66 88.5994 1715.07 88.5994 Q1719.36 88.5994 1723.37 87.5461 Q1727.43 86.4929 1731.4 84.3864 L1731.4 91.435 Q1727.39 93.1364 1723.17 94.0276 Q1718.96 94.9188 1714.62 94.9188 Q1703.77 94.9188 1697.41 88.5994 Q1691.09 82.2799 1691.09 71.5045 Q1691.09 60.3645 1697.08 53.8426 Q1703.12 47.2801 1713.33 47.2801 Q1722.48 47.2801 1727.79 53.1944 Q1733.14 59.0683 1733.14 69.1955 M1725.68 67.008 Q1725.6 60.8912 1722.24 57.2454 Q1718.92 53.5995 1713.41 53.5995 Q1707.17 53.5995 1703.4 57.1238 Q1699.68 60.6481 1699.11 67.0485 L1725.68 67.008 Z" fill="#000000" fill-rule="nonzero" fill-opacity="1" /><path clip-path="url(#clip010)" d="M1745.37 30.7119 L1752.82 30.7119 L1752.82 93.744 L1745.37 93.744 L1745.37 30.7119 Z" fill="#000000" fill-rule="nonzero" fill-opacity="1" /><path clip-path="url(#clip010)" d="M1787.3 97.9569 Q1784.14 106.059 1781.14 108.53 Q1778.14 111.001 1773.12 111.001 L1767.16 111.001 L1767.16 104.762 L1771.54 104.762 Q1774.62 104.762 1776.32 103.304 Q1778.02 101.846 1780.09 96.4176 L1781.42 93.0148 L1763.07 48.3739 L1770.97 48.3739 L1785.15 83.8598 L1799.33 48.3739 L1807.23 48.3739 L1787.3 97.9569 Z" fill="#000000" fill-rule="nonzero" fill-opacity="1" /><path clip-path="url(#clip010)" d="M1835.83 33.264 L1886.99 33.264 L1886.99 40.1505 L1865.52 40.1505 L1865.52 93.744 L1857.3 93.744 L1857.3 40.1505 L1835.83 40.1505 L1835.83 33.264 Z" fill="#000000" fill-rule="nonzero" fill-opacity="1" /><path clip-path="url(#clip010)" d="M1932.28 66.3599 L1932.28 93.744 L1924.83 93.744 L1924.83 66.6029 Q1924.83 60.162 1922.31 56.9618 Q1919.8 53.7616 1914.78 53.7616 Q1908.74 53.7616 1905.26 57.6099 Q1901.78 61.4583 1901.78 68.1018 L1901.78 93.744 L1894.28 93.744 L1894.28 30.7119 L1901.78 30.7119 L1901.78 55.4224 Q1904.45 51.331 1908.06 49.3056 Q1911.7 47.2801 1916.44 47.2801 Q1924.26 47.2801 1928.27 52.1412 Q1932.28 56.9618 1932.28 66.3599 Z" fill="#000000" fill-rule="nonzero" fill-opacity="1" /><path clip-path="url(#clip010)" d="M1947.15 48.3739 L1954.6 48.3739 L1954.6 93.744 L1947.15 93.744 L1947.15 48.3739 M1947.15 30.7119 L1954.6 30.7119 L1954.6 40.1505 L1947.15 40.1505 L1947.15 30.7119 Z" fill="#000000" fill-rule="nonzero" fill-opacity="1" /><path clip-path="url(#clip010)" d="M2007.91 66.3599 L2007.91 93.744 L2000.46 93.744 L2000.46 66.6029 Q2000.46 60.162 1997.95 56.9618 Q1995.43 53.7616 1990.41 53.7616 Q1984.37 53.7616 1980.89 57.6099 Q1977.41 61.4583 1977.41 68.1018 L1977.41 93.744 L1969.91 93.744 L1969.91 48.3739 L1977.41 48.3739 L1977.41 55.4224 Q1980.08 51.331 1983.69 49.3056 Q1987.33 47.2801 1992.07 47.2801 Q1999.89 47.2801 2003.9 52.1412 Q2007.91 56.9618 2007.91 66.3599 Z" fill="#000000" fill-rule="nonzero" fill-opacity="1" /><path clip-path="url(#clip010)" d="M2044.08 33.264 L2052.35 33.264 L2065.07 84.3864 L2077.75 33.264 L2086.94 33.264 L2099.66 84.3864 L2112.34 33.264 L2120.65 33.264 L2105.46 93.744 L2095.17 93.744 L2082.41 41.2443 L2069.52 93.744 L2059.24 93.744 L2044.08 33.264 Z" fill="#000000" fill-rule="nonzero" fill-opacity="1" /><path clip-path="url(#clip010)" d="M2129.36 48.3739 L2136.81 48.3739 L2136.81 93.744 L2129.36 93.744 L2129.36 48.3739 M2129.36 30.7119 L2136.81 30.7119 L2136.81 40.1505 L2129.36 40.1505 L2129.36 30.7119 Z" fill="#000000" fill-rule="nonzero" fill-opacity="1" /><path clip-path="url(#clip010)" d="M2178.7 55.3414 Q2177.44 54.6123 2175.94 54.2882 Q2174.48 53.9236 2172.7 53.9236 Q2166.38 53.9236 2162.98 58.0555 Q2159.62 62.1469 2159.62 69.8437 L2159.62 93.744 L2152.12 93.744 L2152.12 48.3739 L2159.62 48.3739 L2159.62 55.4224 Q2161.97 51.2905 2165.73 49.3056 Q2169.5 47.2801 2174.89 47.2801 Q2175.66 47.2801 2176.59 47.4017 Q2177.52 47.4827 2178.66 47.6852 L2178.7 55.3414 Z" fill="#000000" fill-rule="nonzero" fill-opacity="1" /><path clip-path="url(#clip010)" d="M2223.5 69.1955 L2223.5 72.8413 L2189.23 72.8413 Q2189.71 80.5381 2193.85 84.589 Q2198.02 88.5994 2205.43 88.5994 Q2209.73 88.5994 2213.74 87.5461 Q2217.79 86.4929 2221.76 84.3864 L2221.76 91.435 Q2217.75 93.1364 2213.53 94.0276 Q2209.32 94.9188 2204.99 94.9188 Q2194.13 94.9188 2187.77 88.5994 Q2181.45 82.2799 2181.45 71.5045 Q2181.45 60.3645 2187.45 53.8426 Q2193.48 47.2801 2203.69 47.2801 Q2212.85 47.2801 2218.15 53.1944 Q2223.5 59.0683 2223.5 69.1955 M2216.05 67.008 Q2215.96 60.8912 2212.6 57.2454 Q2209.28 53.5995 2203.77 53.5995 Q2197.53 53.5995 2193.77 57.1238 Q2190.04 60.6481 2189.47 67.0485 L2216.05 67.008 Z" fill="#000000" fill-rule="nonzero" fill-opacity="1" /><path clip-path="url(#clip010)" d="M1170.91 123.984 L1179.1 123.984 L1179.1 184.464 L1170.91 184.464 L1170.91 123.984 Z" fill="#000000" fill-rule="nonzero" fill-opacity="1" /><path clip-path="url(#clip010)" d="M1222.4 146.791 L1274.33 146.791 L1274.33 153.596 L1222.4 153.596 L1222.4 146.791 M1222.4 163.318 L1274.33 163.318 L1274.33 170.205 L1222.4 170.205 L1222.4 163.318 Z" fill="#000000" fill-rule="nonzero" fill-opacity="1" /><path clip-path="url(#clip010)" d="M1319.78 177.577 L1333.15 177.577 L1333.15 131.438 L1318.61 134.354 L1318.61 126.901 L1333.07 123.984 L1341.25 123.984 L1341.25 177.577 L1354.62 177.577 L1354.62 184.464 L1319.78 184.464 L1319.78 177.577 Z" fill="#000000" fill-rule="nonzero" fill-opacity="1" /><path clip-path="url(#clip010)" d="M1369.81 121.432 L1377.31 121.432 L1377.31 158.66 L1399.55 139.094 L1409.07 139.094 L1385 160.321 L1410.08 184.464 L1400.36 184.464 L1377.31 162.306 L1377.31 184.464 L1369.81 184.464 L1369.81 121.432 Z" fill="#000000" fill-rule="nonzero" fill-opacity="1" /><path clip-path="url(#clip010)" d="M1438.68 132.045 L1427.58 162.144 L1449.82 162.144 L1438.68 132.045 M1434.06 123.984 L1443.34 123.984 L1466.39 184.464 L1457.88 184.464 L1452.37 168.949 L1425.11 168.949 L1419.6 184.464 L1410.97 184.464 L1434.06 123.984 Z" fill="#000000" fill-rule="nonzero" fill-opacity="1" /><polyline clip-path="url(#clip012)" style="stroke:#009af9; stroke-linecap:round; stroke-linejoin:round; stroke-width:4; stroke-opacity:1; fill:none" points="254.151,-29175 258.274,-13875.9 262.397,-8776.23 266.52,-6226.37 270.643,-4696.46 274.766,-3676.52 278.889,-2947.99 283.012,-2401.6 287.135,-1976.62 291.258,-1636.64 295.381,-1358.48 299.504,-1126.67 303.627,-930.529 307.75,-762.407 311.873,-616.701 315.996,-489.209 320.119,-376.715 324.242,-276.721 328.365,-187.253 332.488,-106.731 336.611,-33.878 340.734,32.3519 344.857,92.8227 348.98,148.254 353.103,199.251 357.226,246.325 361.349,289.913 365.472,330.386 369.595,368.069 373.718,403.239 377.841,436.141 381.964,466.986 386.087,495.961 390.21,523.232 394.333,548.945 398.456,573.229 402.579,596.201 406.702,617.964 410.825,638.61 414.948,658.224 419.071,676.882 423.194,694.651 427.317,711.593 431.44,727.766 435.563,743.22 439.686,758.001 443.809,772.154 447.932,785.717 452.055,798.726 456.178,811.216 460.301,823.215 464.424,834.753 468.547,845.855 472.67,856.546 476.793,866.849 480.916,876.783 485.039,886.369 489.162,895.624 493.285,904.566 497.408,913.21 501.531,921.57 505.654,929.66 509.777,937.494 513.9,945.083 518.023,952.438 522.146,959.571 526.269,966.49 530.392,973.206 534.515,979.727 538.638,986.062 542.761,992.219 546.884,998.205 551.007,1004.03 555.13,1009.69 559.253,1015.2 563.376,1020.57 567.499,1025.8 571.622,1030.9 575.745,1035.86 579.868,1040.7 583.991,1045.42 588.114,1050.03 592.237,1054.53 596.36,1058.92 600.483,1063.2 604.606,1067.39 608.729,1071.48 612.852,1075.47 616.975,1079.38 621.098,1083.2 625.221,1086.94 629.344,1090.59 633.467,1094.17 637.59,1097.67 641.713,1101.09 645.836,1104.45 649.959,1107.73 654.082,1110.95 658.205,1114.11 662.328,1117.2 666.451,1120.23 670.574,1123.2 674.697,1126.11 678.82,1128.97 682.943,1131.77 687.066,1134.52 691.189,1137.22 695.312,1139.86 699.435,1142.46 703.558,1145.01 707.681,1147.52 711.804,1149.98 715.927,1152.4 720.05,1154.77 724.173,1157.11 728.296,1159.4 732.419,1161.66 736.542,1163.87 740.665,1166.05 744.788,1168.19 748.911,1170.3 753.034,1172.37 757.157,1174.41 761.28,1176.42 765.403,1178.39 769.526,1180.34 773.649,1182.25 777.772,1184.13 781.895,1185.98 786.018,1187.81 790.141,1189.61 794.264,1191.38 798.387,1193.12 802.51,1194.83 806.633,1196.53 810.756,1198.19 814.879,1199.84 819.002,1201.45 823.125,1203.05 827.248,1204.62 831.371,1206.17 835.494,1207.7 839.617,1209.21 843.74,1210.69 847.863,1212.16 851.986,1213.6 856.108,1215.03 860.231,1216.44 864.354,1217.82 868.477,1219.19 872.6,1220.54 876.723,1221.88 880.846,1223.19 884.969,1224.49 889.092,1225.77 893.215,1227.04 897.338,1228.29 901.461,1229.52 905.584,1230.74 909.707,1231.94 913.83,1233.13 917.953,1234.3 922.076,1235.46 926.199,1236.61 930.322,1237.74 934.445,1238.85 938.568,1239.96 942.691,1241.05 946.814,1242.13 950.937,1243.19 955.06,1244.24 959.183,1245.28 963.306,1246.31 967.429,1247.33 971.552,1248.33 975.675,1249.33 979.798,1250.31 983.921,1251.28 988.044,1252.24 992.167,1253.19 996.29,1254.13 1000.41,1255.06 1004.54,1255.98 1008.66,1256.89 1012.78,1257.78 1016.91,1258.67 1021.03,1259.55 1025.15,1260.42 1029.27,1261.28 1033.4,1262.14 1037.52,1262.98 1041.64,1263.81 1045.77,1264.64 1049.89,1265.46 1054.01,1266.27 1058.14,1267.07 1062.26,1267.86 1066.38,1268.64 1070.5,1269.42 1074.63,1270.19 1078.75,1270.95 1082.87,1271.7 1087,1272.45 1091.12,1273.19 1095.24,1273.92 1099.37,1274.64 1103.49,1275.36 1107.61,1276.07 1111.73,1276.78 1115.86,1277.47 1119.98,1278.16 1124.1,1278.85 1128.23,1279.53 1132.35,1280.2 1136.47,1280.86 1140.6,1281.52 1144.72,1282.17 1148.84,1282.82 1152.96,1283.46 1157.09,1284.1 1161.21,1284.73 1165.33,1285.35 1169.46,1285.97 1173.58,1286.58 1177.7,1287.19 1181.83,1287.79 1185.95,1288.39 1190.07,1288.98 1194.19,1289.56 1198.32,1290.14 1202.44,1290.72 1206.56,1291.29 1210.69,1291.86 1214.81,1292.42 1218.93,1292.97 1223.06,1293.53 1227.18,1294.07 1231.3,1294.62 1235.42,1295.15 1239.55,1295.69 1243.67,1296.22 1247.79,1296.74 1251.92,1297.26 1256.04,1297.78 1260.16,1298.29 1264.29,1298.8 1268.41,1299.3 1272.53,1299.8 1276.65,1300.3 1280.78,1300.79 1284.9,1301.27 1289.02,1301.76 1293.15,1302.24 1297.27,1302.71 1301.39,1303.19 1305.52,1303.66 1309.64,1304.12 1313.76,1304.58 1317.88,1305.04 1322.01,1305.49 1326.13,1305.95 1330.25,1306.39 1334.38,1306.84 1338.5,1307.28 1342.62,1307.71 1346.74,1308.15 1350.87,1308.58 1354.99,1309.01 1359.11,1309.43 1363.24,1309.85 1367.36,1310.27 1371.48,1310.69 1375.61,1311.1 1379.73,1311.51 1383.85,1311.91 1387.97,1312.32 1392.1,1312.72 1396.22,1313.11 1400.34,1313.51 1404.47,1313.9 1408.59,1314.29 1412.71,1314.68 1416.84,1315.06 1420.96,1315.44 1425.08,1315.82 1429.2,1316.19 1433.33,1316.57 1437.45,1316.94 1441.57,1317.3 1445.7,1317.67 1449.82,1318.03 1453.94,1318.39 1458.07,1318.75 1462.19,1319.1 1466.31,1319.46 1470.43,1319.81 1474.56,1320.16 1478.68,1320.5 1482.8,1320.84 1486.93,1321.19 1491.05,1321.52 1495.17,1321.86 1499.3,1322.2 1503.42,1322.53 1507.54,1322.86 1511.66,1323.19 1515.79,1323.51 1519.91,1323.83 1524.03,1324.16 1528.16,1324.48 1532.28,1324.79 1536.4,1325.11 1540.53,1325.42 1544.65,1325.73 1548.77,1326.04 1552.89,1326.35 1557.02,1326.66 1561.14,1326.96 1565.26,1327.26 1569.39,1327.56 1573.51,1327.86 1577.63,1328.15 1581.76,1328.45 1585.88,1328.74 1590,1329.03 1594.12,1329.32 1598.25,1329.61 1602.37,1329.89 1606.49,1330.18 1610.62,1330.46 1614.74,1330.74 1618.86,1331.02 1622.99,1331.29 1627.11,1331.57 1631.23,1331.84 1635.35,1332.11 1639.48,1332.38 1643.6,1332.65 1647.72,1332.92 1651.85,1333.19 1655.97,1333.45 1660.09,1333.71 1664.22,1333.97 1668.34,1334.23 1672.46,1334.49 1676.58,1334.75 1680.71,1335 1684.83,1335.25 1688.95,1335.51 1693.08,1335.76 1697.2,1336.01 1701.32,1336.25 1705.45,1336.5 1709.57,1336.74 1713.69,1336.99 1717.81,1337.23 1721.94,1337.47 1726.06,1337.71 1730.18,1337.95 1734.31,1338.18 1738.43,1338.42 1742.55,1338.65 1746.68,1338.89 1750.8,1339.12 1754.92,1339.35 1759.04,1339.58 1763.17,1339.81 1767.29,1340.03 1771.41,1340.26 1775.54,1340.48 1779.66,1340.7 1783.78,1340.93 1787.91,1341.15 1792.03,1341.37 1796.15,1341.58 1800.27,1341.8 1804.4,1342.02 1808.52,1342.23 1812.64,1342.45 1816.77,1342.66 1820.89,1342.87 1825.01,1343.08 1829.14,1343.29 1833.26,1343.5 1837.38,1343.7 1841.5,1343.91 1845.63,1344.11 1849.75,1344.32 1853.87,1344.52 1858,1344.72 1862.12,1344.92 1866.24,1345.12 1870.37,1345.32 1874.49,1345.52 1878.61,1345.72 1882.73,1345.91 1886.86,1346.11 1890.98,1346.3 1895.1,1346.49 1899.23,1346.68 1903.35,1346.88 1907.47,1347.06 1911.6,1347.25 1915.72,1347.44 1919.84,1347.63 1923.96,1347.81 1928.09,1348 1932.21,1348.18 1936.33,1348.37 1940.46,1348.55 1944.58,1348.73 1948.7,1348.91 1952.83,1349.09 1956.95,1349.27 1961.07,1349.45 1965.19,1349.63 1969.32,1349.8 1973.44,1349.98 1977.56,1350.15 1981.69,1350.33 1985.81,1350.5 1989.93,1350.67 1994.06,1350.84 1998.18,1351.01 2002.3,1351.18 2006.42,1351.35 2010.55,1351.52 2014.67,1351.69 2018.79,1351.86 2022.92,1352.02 2027.04,1352.19 2031.16,1352.35 2035.29,1352.51 2039.41,1352.68 2043.53,1352.84 2047.65,1353 2051.78,1353.16 2055.9,1353.32 2060.02,1353.48 2064.15,1353.64 2068.27,1353.8 2072.39,1353.95 2076.52,1354.11 2080.64,1354.26 2084.76,1354.42 2088.88,1354.57 2093.01,1354.73 2097.13,1354.88 2101.25,1355.03 2105.38,1355.18 2109.5,1355.33 2113.62,1355.48 2117.75,1355.63 2121.87,1355.78 2125.99,1355.93 2130.11,1356.08 2134.24,1356.23 2138.36,1356.37 2142.48,1356.52 2146.61,1356.66 2150.73,1356.81 2154.85,1356.95 2158.98,1357.09 2163.1,1357.24 2167.22,1357.38 2171.34,1357.52 2175.47,1357.66 2179.59,1357.8 2183.71,1357.94 2187.84,1358.08 2191.96,1358.22 2196.08,1358.35 2200.21,1358.49 2204.33,1358.63 2208.45,1358.76 2212.57,1358.9 2216.7,1359.03 2220.82,1359.17 2224.94,1359.3 2229.07,1359.43 2233.19,1359.57 2237.31,1359.7 2241.44,1359.83 2245.56,1359.96 2249.68,1360.09 2253.8,1360.22 2257.93,1360.35 2262.05,1360.48 2266.17,1360.61 2270.3,1360.73 2274.42,1360.86 2278.54,1360.99 2282.66,1361.11 2286.79,1361.24 2290.91,1361.37 2295.03,1361.49 2299.16,1361.61 2303.28,1361.74 2307.4,1361.86 2311.53,1361.98 "/>
</svg>
