<?xml version="1.0" encoding="utf-8"?>
<svg xmlns="http://www.w3.org/2000/svg" xmlns:xlink="http://www.w3.org/1999/xlink" width="600" height="400" viewBox="0 0 2400 1600">
<defs>
  <clipPath id="clip450">
    <rect x="0" y="0" width="2400" height="1600"/>
  </clipPath>
</defs>
<path clip-path="url(#clip450)" d="M0 1600 L2400 1600 L2400 0 L0 0  Z" fill="#ffffff" fill-rule="evenodd" fill-opacity="1"/>
<defs>
  <clipPath id="clip451">
    <rect x="480" y="0" width="1681" height="1600"/>
  </clipPath>
</defs>
<path clip-path="url(#clip450)" d="M250.028 1486.45 L2352.76 1486.45 L2352.76 183.952 L250.028 183.952  Z" fill="#ffffff" fill-rule="evenodd" fill-opacity="1"/>
<defs>
  <clipPath id="clip452">
    <rect x="250" y="183" width="2104" height="1303"/>
  </clipPath>
</defs>
<polyline clip-path="url(#clip452)" style="stroke:#000000; stroke-linecap:round; stroke-linejoin:round; stroke-width:2; stroke-opacity:0.1; fill:none" points="309.539,1486.45 309.539,183.952 "/>
<polyline clip-path="url(#clip452)" style="stroke:#000000; stroke-linecap:round; stroke-linejoin:round; stroke-width:2; stroke-opacity:0.1; fill:none" points="805.466,1486.45 805.466,183.952 "/>
<polyline clip-path="url(#clip452)" style="stroke:#000000; stroke-linecap:round; stroke-linejoin:round; stroke-width:2; stroke-opacity:0.1; fill:none" points="1301.39,1486.45 1301.39,183.952 "/>
<polyline clip-path="url(#clip452)" style="stroke:#000000; stroke-linecap:round; stroke-linejoin:round; stroke-width:2; stroke-opacity:0.1; fill:none" points="1797.32,1486.45 1797.32,183.952 "/>
<polyline clip-path="url(#clip452)" style="stroke:#000000; stroke-linecap:round; stroke-linejoin:round; stroke-width:2; stroke-opacity:0.1; fill:none" points="2293.24,1486.45 2293.24,183.952 "/>
<polyline clip-path="url(#clip450)" style="stroke:#000000; stroke-linecap:round; stroke-linejoin:round; stroke-width:4; stroke-opacity:1; fill:none" points="250.028,1486.45 2352.76,1486.45 "/>
<polyline clip-path="url(#clip450)" style="stroke:#000000; stroke-linecap:round; stroke-linejoin:round; stroke-width:4; stroke-opacity:1; fill:none" points="309.539,1486.45 309.539,1467.55 "/>
<polyline clip-path="url(#clip450)" style="stroke:#000000; stroke-linecap:round; stroke-linejoin:round; stroke-width:4; stroke-opacity:1; fill:none" points="805.466,1486.45 805.466,1467.55 "/>
<polyline clip-path="url(#clip450)" style="stroke:#000000; stroke-linecap:round; stroke-linejoin:round; stroke-width:4; stroke-opacity:1; fill:none" points="1301.39,1486.45 1301.39,1467.55 "/>
<polyline clip-path="url(#clip450)" style="stroke:#000000; stroke-linecap:round; stroke-linejoin:round; stroke-width:4; stroke-opacity:1; fill:none" points="1797.32,1486.45 1797.32,1467.55 "/>
<polyline clip-path="url(#clip450)" style="stroke:#000000; stroke-linecap:round; stroke-linejoin:round; stroke-width:4; stroke-opacity:1; fill:none" points="2293.24,1486.45 2293.24,1467.55 "/>
<path clip-path="url(#clip450)" d="M151.23 1514.29 L155.906 1514.29 L155.906 1544.91 L172.734 1544.91 L172.734 1548.85 L151.23 1548.85 L151.23 1514.29 Z" fill="#000000" fill-rule="nonzero" fill-opacity="1" /><path clip-path="url(#clip450)" d="M186.67 1525.91 Q183.244 1525.91 181.253 1528.59 Q179.262 1531.26 179.262 1535.91 Q179.262 1540.56 181.23 1543.25 Q183.221 1545.91 186.67 1545.91 Q190.072 1545.91 192.063 1543.22 Q194.054 1540.54 194.054 1535.91 Q194.054 1531.3 192.063 1528.62 Q190.072 1525.91 186.67 1525.91 M186.67 1522.3 Q192.225 1522.3 195.396 1525.91 Q198.568 1529.52 198.568 1535.91 Q198.568 1542.27 195.396 1545.91 Q192.225 1549.52 186.67 1549.52 Q181.091 1549.52 177.92 1545.91 Q174.772 1542.27 174.772 1535.91 Q174.772 1529.52 177.92 1525.91 Q181.091 1522.3 186.67 1522.3 Z" fill="#000000" fill-rule="nonzero" fill-opacity="1" /><path clip-path="url(#clip450)" d="M215.674 1525.91 Q212.248 1525.91 210.257 1528.59 Q208.267 1531.26 208.267 1535.91 Q208.267 1540.56 210.234 1543.25 Q212.225 1545.91 215.674 1545.91 Q219.077 1545.91 221.068 1543.22 Q223.058 1540.54 223.058 1535.91 Q223.058 1531.3 221.068 1528.62 Q219.077 1525.91 215.674 1525.91 M215.674 1522.3 Q221.23 1522.3 224.401 1525.91 Q227.572 1529.52 227.572 1535.91 Q227.572 1542.27 224.401 1545.91 Q221.23 1549.52 215.674 1549.52 Q210.095 1549.52 206.924 1545.91 Q203.776 1542.27 203.776 1535.91 Q203.776 1529.52 206.924 1525.91 Q210.095 1522.3 215.674 1522.3 Z" fill="#000000" fill-rule="nonzero" fill-opacity="1" /><path clip-path="url(#clip450)" d="M238.753 1544.96 L238.753 1558.71 L234.47 1558.71 L234.47 1522.92 L238.753 1522.92 L238.753 1526.86 Q240.095 1524.54 242.132 1523.43 Q244.192 1522.3 247.04 1522.3 Q251.762 1522.3 254.702 1526.05 Q257.665 1529.8 257.665 1535.91 Q257.665 1542.02 254.702 1545.77 Q251.762 1549.52 247.04 1549.52 Q244.192 1549.52 242.132 1548.41 Q240.095 1547.27 238.753 1544.96 M253.243 1535.91 Q253.243 1531.21 251.299 1528.55 Q249.378 1525.86 245.998 1525.86 Q242.618 1525.86 240.674 1528.55 Q238.753 1531.21 238.753 1535.91 Q238.753 1540.61 240.674 1543.29 Q242.618 1545.95 245.998 1545.95 Q249.378 1545.95 251.299 1543.29 Q253.243 1540.61 253.243 1535.91 Z" fill="#000000" fill-rule="nonzero" fill-opacity="1" /><path clip-path="url(#clip450)" d="M281.252 1523.69 L281.252 1527.71 Q279.447 1526.79 277.502 1526.32 Q275.558 1525.86 273.475 1525.86 Q270.303 1525.86 268.706 1526.83 Q267.132 1527.81 267.132 1529.75 Q267.132 1531.23 268.266 1532.09 Q269.401 1532.92 272.827 1533.69 L274.285 1534.01 Q278.822 1534.98 280.72 1536.76 Q282.641 1538.52 282.641 1541.7 Q282.641 1545.31 279.771 1547.41 Q276.924 1549.52 271.924 1549.52 Q269.84 1549.52 267.572 1549.1 Q265.327 1548.71 262.827 1547.9 L262.827 1543.5 Q265.188 1544.73 267.479 1545.35 Q269.771 1545.95 272.016 1545.95 Q275.026 1545.95 276.646 1544.94 Q278.266 1543.89 278.266 1542.02 Q278.266 1540.28 277.086 1539.36 Q275.928 1538.43 271.97 1537.57 L270.489 1537.23 Q266.53 1536.39 264.771 1534.68 Q263.012 1532.95 263.012 1529.94 Q263.012 1526.28 265.604 1524.29 Q268.197 1522.3 272.965 1522.3 Q275.327 1522.3 277.41 1522.64 Q279.493 1522.99 281.252 1523.69 Z" fill="#000000" fill-rule="nonzero" fill-opacity="1" /><path clip-path="url(#clip450)" d="M296.993 1514.29 L300.928 1514.29 L288.891 1553.25 L284.956 1553.25 L296.993 1514.29 Z" fill="#000000" fill-rule="nonzero" fill-opacity="1" /><path clip-path="url(#clip450)" d="M305.581 1514.29 L311.877 1514.29 L327.201 1543.2 L327.201 1514.29 L331.738 1514.29 L331.738 1548.85 L325.442 1548.85 L310.118 1519.94 L310.118 1548.85 L305.581 1548.85 L305.581 1514.29 Z" fill="#000000" fill-rule="nonzero" fill-opacity="1" /><path clip-path="url(#clip450)" d="M340.419 1538.62 L340.419 1522.92 L344.678 1522.92 L344.678 1538.45 Q344.678 1542.13 346.113 1543.99 Q347.548 1545.82 350.419 1545.82 Q353.868 1545.82 355.859 1543.62 Q357.872 1541.42 357.872 1537.62 L357.872 1522.92 L362.132 1522.92 L362.132 1548.85 L357.872 1548.85 L357.872 1544.87 Q356.321 1547.23 354.261 1548.38 Q352.224 1549.52 349.516 1549.52 Q345.048 1549.52 342.734 1546.74 Q340.419 1543.96 340.419 1538.62 M351.136 1522.3 L351.136 1522.3 Z" fill="#000000" fill-rule="nonzero" fill-opacity="1" /><path clip-path="url(#clip450)" d="M391.09 1527.9 Q392.687 1525.03 394.909 1523.66 Q397.131 1522.3 400.141 1522.3 Q404.192 1522.3 406.391 1525.14 Q408.59 1527.97 408.59 1533.2 L408.59 1548.85 L404.307 1548.85 L404.307 1533.34 Q404.307 1529.61 402.988 1527.81 Q401.668 1526 398.96 1526 Q395.65 1526 393.729 1528.2 Q391.807 1530.4 391.807 1534.2 L391.807 1548.85 L387.525 1548.85 L387.525 1533.34 Q387.525 1529.59 386.206 1527.81 Q384.886 1526 382.132 1526 Q378.868 1526 376.946 1528.22 Q375.025 1530.42 375.025 1534.2 L375.025 1548.85 L370.743 1548.85 L370.743 1522.92 L375.025 1522.92 L375.025 1526.95 Q376.483 1524.57 378.52 1523.43 Q380.557 1522.3 383.358 1522.3 Q386.182 1522.3 388.15 1523.73 Q390.141 1525.17 391.09 1527.9 Z" fill="#000000" fill-rule="nonzero" fill-opacity="1" /><path clip-path="url(#clip450)" d="M421.946 1518.13 L421.946 1531.12 L427.826 1531.12 Q431.09 1531.12 432.872 1529.43 Q434.654 1527.74 434.654 1524.61 Q434.654 1521.51 432.872 1519.82 Q431.09 1518.13 427.826 1518.13 L421.946 1518.13 M417.27 1514.29 L427.826 1514.29 Q433.636 1514.29 436.599 1516.93 Q439.585 1519.54 439.585 1524.61 Q439.585 1529.73 436.599 1532.34 Q433.636 1534.96 427.826 1534.96 L421.946 1534.96 L421.946 1548.85 L417.27 1548.85 L417.27 1514.29 Z" fill="#000000" fill-rule="nonzero" fill-opacity="1" /><path clip-path="url(#clip450)" d="M456.46 1551.26 Q454.654 1555.88 452.941 1557.3 Q451.228 1558.71 448.358 1558.71 L444.955 1558.71 L444.955 1555.14 L447.455 1555.14 Q449.214 1555.14 450.187 1554.31 Q451.159 1553.48 452.339 1550.38 L453.103 1548.43 L442.617 1522.92 L447.131 1522.92 L455.233 1543.2 L463.335 1522.92 L467.849 1522.92 L456.46 1551.26 Z" fill="#000000" fill-rule="nonzero" fill-opacity="1" /><path clip-path="url(#clip450)" d="M603.407 1548.85 L590.212 1514.29 L595.096 1514.29 L606.045 1543.38 L617.018 1514.29 L621.879 1514.29 L608.707 1548.85 L603.407 1548.85 Z" fill="#000000" fill-rule="nonzero" fill-opacity="1" /><path clip-path="url(#clip450)" d="M645.235 1534.82 L645.235 1536.9 L625.652 1536.9 Q625.93 1541.3 628.291 1543.62 Q630.675 1545.91 634.911 1545.91 Q637.365 1545.91 639.656 1545.31 Q641.971 1544.7 644.24 1543.5 L644.24 1547.53 Q641.948 1548.5 639.541 1549.01 Q637.133 1549.52 634.656 1549.52 Q628.453 1549.52 624.818 1545.91 Q621.207 1542.3 621.207 1536.14 Q621.207 1529.77 624.633 1526.05 Q628.082 1522.3 633.916 1522.3 Q639.147 1522.3 642.18 1525.68 Q645.235 1529.03 645.235 1534.82 M640.976 1533.57 Q640.93 1530.07 639.008 1527.99 Q637.11 1525.91 633.962 1525.91 Q630.397 1525.91 628.244 1527.92 Q626.115 1529.94 625.791 1533.59 L640.976 1533.57 Z" fill="#000000" fill-rule="nonzero" fill-opacity="1" /><path clip-path="url(#clip450)" d="M670.883 1523.92 L670.883 1527.9 Q669.078 1526.9 667.249 1526.42 Q665.443 1525.91 663.591 1525.91 Q659.448 1525.91 657.156 1528.55 Q654.865 1531.16 654.865 1535.91 Q654.865 1540.65 657.156 1543.29 Q659.448 1545.91 663.591 1545.91 Q665.443 1545.91 667.249 1545.42 Q669.078 1544.91 670.883 1543.92 L670.883 1547.85 Q669.101 1548.69 667.179 1549.1 Q665.281 1549.52 663.128 1549.52 Q657.272 1549.52 653.823 1545.84 Q650.374 1542.16 650.374 1535.91 Q650.374 1529.57 653.846 1525.93 Q657.341 1522.3 663.406 1522.3 Q665.374 1522.3 667.249 1522.71 Q669.124 1523.11 670.883 1523.92 Z" fill="#000000" fill-rule="nonzero" fill-opacity="1" /><path clip-path="url(#clip450)" d="M682.503 1515.56 L682.503 1522.92 L691.276 1522.92 L691.276 1526.23 L682.503 1526.23 L682.503 1540.31 Q682.503 1543.48 683.36 1544.38 Q684.239 1545.28 686.901 1545.28 L691.276 1545.28 L691.276 1548.85 L686.901 1548.85 Q681.971 1548.85 680.096 1547.02 Q678.221 1545.17 678.221 1540.31 L678.221 1526.23 L675.096 1526.23 L675.096 1522.92 L678.221 1522.92 L678.221 1515.56 L682.503 1515.56 Z" fill="#000000" fill-rule="nonzero" fill-opacity="1" /><path clip-path="url(#clip450)" d="M706.925 1525.91 Q703.499 1525.91 701.508 1528.59 Q699.517 1531.26 699.517 1535.91 Q699.517 1540.56 701.485 1543.25 Q703.475 1545.91 706.925 1545.91 Q710.327 1545.91 712.318 1543.22 Q714.309 1540.54 714.309 1535.91 Q714.309 1531.3 712.318 1528.62 Q710.327 1525.91 706.925 1525.91 M706.925 1522.3 Q712.48 1522.3 715.651 1525.91 Q718.823 1529.52 718.823 1535.91 Q718.823 1542.27 715.651 1545.91 Q712.48 1549.52 706.925 1549.52 Q701.346 1549.52 698.175 1545.91 Q695.026 1542.27 695.026 1535.91 Q695.026 1529.52 698.175 1525.91 Q701.346 1522.3 706.925 1522.3 Z" fill="#000000" fill-rule="nonzero" fill-opacity="1" /><path clip-path="url(#clip450)" d="M740.906 1526.9 Q740.188 1526.49 739.332 1526.3 Q738.498 1526.09 737.48 1526.09 Q733.869 1526.09 731.924 1528.45 Q730.003 1530.79 730.003 1535.19 L730.003 1548.85 L725.721 1548.85 L725.721 1522.92 L730.003 1522.92 L730.003 1526.95 Q731.346 1524.59 733.498 1523.45 Q735.651 1522.3 738.73 1522.3 Q739.17 1522.3 739.702 1522.37 Q740.235 1522.41 740.883 1522.53 L740.906 1526.9 Z" fill="#000000" fill-rule="nonzero" fill-opacity="1" /><path clip-path="url(#clip450)" d="M745.373 1522.92 L749.633 1522.92 L749.633 1548.85 L745.373 1548.85 L745.373 1522.92 M745.373 1512.83 L749.633 1512.83 L749.633 1518.22 L745.373 1518.22 L745.373 1512.83 Z" fill="#000000" fill-rule="nonzero" fill-opacity="1" /><path clip-path="url(#clip450)" d="M756.693 1522.92 L776.924 1522.92 L776.924 1526.81 L760.906 1545.45 L776.924 1545.45 L776.924 1548.85 L756.114 1548.85 L756.114 1544.96 L772.133 1526.32 L756.693 1526.32 L756.693 1522.92 Z" fill="#000000" fill-rule="nonzero" fill-opacity="1" /><path clip-path="url(#clip450)" d="M805.605 1534.82 L805.605 1536.9 L786.021 1536.9 Q786.299 1541.3 788.66 1543.62 Q791.044 1545.91 795.281 1545.91 Q797.734 1545.91 800.026 1545.31 Q802.341 1544.7 804.609 1543.5 L804.609 1547.53 Q802.318 1548.5 799.91 1549.01 Q797.503 1549.52 795.026 1549.52 Q788.822 1549.52 785.188 1545.91 Q781.577 1542.3 781.577 1536.14 Q781.577 1529.77 785.003 1526.05 Q788.452 1522.3 794.285 1522.3 Q799.517 1522.3 802.549 1525.68 Q805.605 1529.03 805.605 1534.82 M801.345 1533.57 Q801.299 1530.07 799.378 1527.99 Q797.48 1525.91 794.331 1525.91 Q790.767 1525.91 788.614 1527.92 Q786.484 1529.94 786.16 1533.59 L801.345 1533.57 Z" fill="#000000" fill-rule="nonzero" fill-opacity="1" /><path clip-path="url(#clip450)" d="M829.655 1526.86 L829.655 1512.83 L833.915 1512.83 L833.915 1548.85 L829.655 1548.85 L829.655 1544.96 Q828.313 1547.27 826.253 1548.41 Q824.216 1549.52 821.345 1549.52 Q816.646 1549.52 813.683 1545.77 Q810.743 1542.02 810.743 1535.91 Q810.743 1529.8 813.683 1526.05 Q816.646 1522.3 821.345 1522.3 Q824.216 1522.3 826.253 1523.43 Q828.313 1524.54 829.655 1526.86 M815.142 1535.91 Q815.142 1540.61 817.063 1543.29 Q819.007 1545.95 822.387 1545.95 Q825.766 1545.95 827.711 1543.29 Q829.655 1540.61 829.655 1535.91 Q829.655 1531.21 827.711 1528.55 Q825.766 1525.86 822.387 1525.86 Q819.007 1525.86 817.063 1528.55 Q815.142 1531.21 815.142 1535.91 Z" fill="#000000" fill-rule="nonzero" fill-opacity="1" /><path clip-path="url(#clip450)" d="M850.257 1514.29 L854.192 1514.29 L842.155 1553.25 L838.22 1553.25 L850.257 1514.29 Z" fill="#000000" fill-rule="nonzero" fill-opacity="1" /><path clip-path="url(#clip450)" d="M858.845 1514.29 L865.141 1514.29 L880.465 1543.2 L880.465 1514.29 L885.002 1514.29 L885.002 1548.85 L878.706 1548.85 L863.382 1519.94 L863.382 1548.85 L858.845 1548.85 L858.845 1514.29 Z" fill="#000000" fill-rule="nonzero" fill-opacity="1" /><path clip-path="url(#clip450)" d="M893.683 1538.62 L893.683 1522.92 L897.942 1522.92 L897.942 1538.45 Q897.942 1542.13 899.377 1543.99 Q900.812 1545.82 903.683 1545.82 Q907.132 1545.82 909.123 1543.62 Q911.136 1541.42 911.136 1537.62 L911.136 1522.92 L915.396 1522.92 L915.396 1548.85 L911.136 1548.85 L911.136 1544.87 Q909.585 1547.23 907.525 1548.38 Q905.488 1549.52 902.78 1549.52 Q898.312 1549.52 895.998 1546.74 Q893.683 1543.96 893.683 1538.62 M904.4 1522.3 L904.4 1522.3 Z" fill="#000000" fill-rule="nonzero" fill-opacity="1" /><path clip-path="url(#clip450)" d="M944.354 1527.9 Q945.951 1525.03 948.173 1523.66 Q950.395 1522.3 953.405 1522.3 Q957.456 1522.3 959.655 1525.14 Q961.854 1527.97 961.854 1533.2 L961.854 1548.85 L957.571 1548.85 L957.571 1533.34 Q957.571 1529.61 956.252 1527.81 Q954.932 1526 952.224 1526 Q948.914 1526 946.993 1528.2 Q945.071 1530.4 945.071 1534.2 L945.071 1548.85 L940.789 1548.85 L940.789 1533.34 Q940.789 1529.59 939.47 1527.81 Q938.15 1526 935.396 1526 Q932.132 1526 930.21 1528.22 Q928.289 1530.42 928.289 1534.2 L928.289 1548.85 L924.007 1548.85 L924.007 1522.92 L928.289 1522.92 L928.289 1526.95 Q929.747 1524.57 931.784 1523.43 Q933.821 1522.3 936.622 1522.3 Q939.446 1522.3 941.414 1523.73 Q943.405 1525.17 944.354 1527.9 Z" fill="#000000" fill-rule="nonzero" fill-opacity="1" /><path clip-path="url(#clip450)" d="M988.96 1535.91 Q988.96 1531.21 987.016 1528.55 Q985.094 1525.86 981.715 1525.86 Q978.335 1525.86 976.391 1528.55 Q974.469 1531.21 974.469 1535.91 Q974.469 1540.61 976.391 1543.29 Q978.335 1545.95 981.715 1545.95 Q985.094 1545.95 987.016 1543.29 Q988.96 1540.61 988.96 1535.91 M974.469 1526.86 Q975.812 1524.54 977.849 1523.43 Q979.909 1522.3 982.756 1522.3 Q987.479 1522.3 990.418 1526.05 Q993.381 1529.8 993.381 1535.91 Q993.381 1542.02 990.418 1545.77 Q987.479 1549.52 982.756 1549.52 Q979.909 1549.52 977.849 1548.41 Q975.812 1547.27 974.469 1544.96 L974.469 1548.85 L970.187 1548.85 L970.187 1512.83 L974.469 1512.83 L974.469 1526.86 Z" fill="#000000" fill-rule="nonzero" fill-opacity="1" /><path clip-path="url(#clip450)" d="M1012.22 1535.82 Q1007.06 1535.82 1005.07 1537 Q1003.08 1538.18 1003.08 1541.02 Q1003.08 1543.29 1004.56 1544.63 Q1006.07 1545.95 1008.64 1545.95 Q1012.18 1545.95 1014.31 1543.45 Q1016.46 1540.93 1016.46 1536.76 L1016.46 1535.82 L1012.22 1535.82 M1020.72 1534.06 L1020.72 1548.85 L1016.46 1548.85 L1016.46 1544.91 Q1015 1547.27 1012.83 1548.41 Q1010.65 1549.52 1007.5 1549.52 Q1003.52 1549.52 1001.16 1547.3 Q998.821 1545.05 998.821 1541.3 Q998.821 1536.93 1001.74 1534.7 Q1004.68 1532.48 1010.49 1532.48 L1016.46 1532.48 L1016.46 1532.07 Q1016.46 1529.13 1014.52 1527.53 Q1012.59 1525.91 1009.1 1525.91 Q1006.88 1525.91 1004.77 1526.44 Q1002.66 1526.97 1000.72 1528.04 L1000.72 1524.1 Q1003.06 1523.2 1005.26 1522.76 Q1007.46 1522.3 1009.54 1522.3 Q1015.16 1522.3 1017.94 1525.21 Q1020.72 1528.13 1020.72 1534.06 Z" fill="#000000" fill-rule="nonzero" fill-opacity="1" /><path clip-path="url(#clip450)" d="M1220.08 1544.91 L1236.4 1544.91 L1236.4 1548.85 L1214.46 1548.85 L1214.46 1544.91 Q1217.12 1542.16 1221.7 1537.53 Q1226.31 1532.88 1227.49 1531.53 Q1229.74 1529.01 1230.62 1527.27 Q1231.52 1525.51 1231.52 1523.82 Q1231.52 1521.07 1229.58 1519.33 Q1227.65 1517.6 1224.55 1517.6 Q1222.35 1517.6 1219.9 1518.36 Q1217.47 1519.13 1214.69 1520.68 L1214.69 1515.95 Q1217.52 1514.82 1219.97 1514.24 Q1222.42 1513.66 1224.46 1513.66 Q1229.83 1513.66 1233.02 1516.35 Q1236.22 1519.03 1236.22 1523.52 Q1236.22 1525.65 1235.41 1527.57 Q1234.62 1529.47 1232.52 1532.07 Q1231.94 1532.74 1228.83 1535.95 Q1225.73 1539.15 1220.08 1544.91 Z" fill="#000000" fill-rule="nonzero" fill-opacity="1" /><path clip-path="url(#clip450)" d="M1286.75 1516.95 L1286.75 1521.88 Q1284.39 1519.68 1281.7 1518.59 Q1279.04 1517.51 1276.03 1517.51 Q1270.11 1517.51 1266.96 1521.14 Q1263.81 1524.75 1263.81 1531.6 Q1263.81 1538.43 1266.96 1542.07 Q1270.11 1545.68 1276.03 1545.68 Q1279.04 1545.68 1281.7 1544.59 Q1284.39 1543.5 1286.75 1541.3 L1286.75 1546.19 Q1284.3 1547.85 1281.54 1548.69 Q1278.81 1549.52 1275.76 1549.52 Q1267.91 1549.52 1263.39 1544.73 Q1258.88 1539.91 1258.88 1531.6 Q1258.88 1523.27 1263.39 1518.48 Q1267.91 1513.66 1275.76 1513.66 Q1278.86 1513.66 1281.59 1514.5 Q1284.34 1515.31 1286.75 1516.95 Z" fill="#000000" fill-rule="nonzero" fill-opacity="1" /><path clip-path="url(#clip450)" d="M1303.83 1525.91 Q1300.41 1525.91 1298.42 1528.59 Q1296.43 1531.26 1296.43 1535.91 Q1296.43 1540.56 1298.39 1543.25 Q1300.39 1545.91 1303.83 1545.91 Q1307.24 1545.91 1309.23 1543.22 Q1311.22 1540.54 1311.22 1535.91 Q1311.22 1531.3 1309.23 1528.62 Q1307.24 1525.91 1303.83 1525.91 M1303.83 1522.3 Q1309.39 1522.3 1312.56 1525.91 Q1315.73 1529.52 1315.73 1535.91 Q1315.73 1542.27 1312.56 1545.91 Q1309.39 1549.52 1303.83 1549.52 Q1298.26 1549.52 1295.08 1545.91 Q1291.94 1542.27 1291.94 1535.91 Q1291.94 1529.52 1295.08 1525.91 Q1298.26 1522.3 1303.83 1522.3 Z" fill="#000000" fill-rule="nonzero" fill-opacity="1" /><path clip-path="url(#clip450)" d="M1337.82 1526.9 Q1337.1 1526.49 1336.24 1526.3 Q1335.41 1526.09 1334.39 1526.09 Q1330.78 1526.09 1328.83 1528.45 Q1326.91 1530.79 1326.91 1535.19 L1326.91 1548.85 L1322.63 1548.85 L1322.63 1522.92 L1326.91 1522.92 L1326.91 1526.95 Q1328.26 1524.59 1330.41 1523.45 Q1332.56 1522.3 1335.64 1522.3 Q1336.08 1522.3 1336.61 1522.37 Q1337.14 1522.41 1337.79 1522.53 L1337.82 1526.9 Z" fill="#000000" fill-rule="nonzero" fill-opacity="1" /><path clip-path="url(#clip450)" d="M1363.42 1534.82 L1363.42 1536.9 L1343.83 1536.9 Q1344.11 1541.3 1346.47 1543.62 Q1348.86 1545.91 1353.09 1545.91 Q1355.55 1545.91 1357.84 1545.31 Q1360.15 1544.7 1362.42 1543.5 L1362.42 1547.53 Q1360.13 1548.5 1357.72 1549.01 Q1355.32 1549.52 1352.84 1549.52 Q1346.63 1549.52 1343 1545.91 Q1339.39 1542.3 1339.39 1536.14 Q1339.39 1529.77 1342.82 1526.05 Q1346.26 1522.3 1352.1 1522.3 Q1357.33 1522.3 1360.36 1525.68 Q1363.42 1529.03 1363.42 1534.82 M1359.16 1533.57 Q1359.11 1530.07 1357.19 1527.99 Q1355.29 1525.91 1352.14 1525.91 Q1348.58 1525.91 1346.43 1527.92 Q1344.3 1529.94 1343.97 1533.59 L1359.16 1533.57 Z" fill="#000000" fill-rule="nonzero" fill-opacity="1" /><path clip-path="url(#clip450)" d="M1386.94 1523.69 L1386.94 1527.71 Q1385.13 1526.79 1383.19 1526.32 Q1381.24 1525.86 1379.16 1525.86 Q1375.99 1525.86 1374.39 1526.83 Q1372.82 1527.81 1372.82 1529.75 Q1372.82 1531.23 1373.95 1532.09 Q1375.08 1532.92 1378.51 1533.69 L1379.97 1534.01 Q1384.51 1534.98 1386.4 1536.76 Q1388.32 1538.52 1388.32 1541.7 Q1388.32 1545.31 1385.45 1547.41 Q1382.61 1549.52 1377.61 1549.52 Q1375.52 1549.52 1373.26 1549.1 Q1371.01 1548.71 1368.51 1547.9 L1368.51 1543.5 Q1370.87 1544.73 1373.16 1545.35 Q1375.45 1545.95 1377.7 1545.95 Q1380.71 1545.95 1382.33 1544.94 Q1383.95 1543.89 1383.95 1542.02 Q1383.95 1540.28 1382.77 1539.36 Q1381.61 1538.43 1377.65 1537.57 L1376.17 1537.23 Q1372.21 1536.39 1370.45 1534.68 Q1368.69 1532.95 1368.69 1529.94 Q1368.69 1526.28 1371.29 1524.29 Q1373.88 1522.3 1378.65 1522.3 Q1381.01 1522.3 1383.09 1522.64 Q1385.18 1522.99 1386.94 1523.69 Z" fill="#000000" fill-rule="nonzero" fill-opacity="1" /><path clip-path="url(#clip450)" d="M1725.41 1518.36 L1713.6 1536.81 L1725.41 1536.81 L1725.41 1518.36 M1724.18 1514.29 L1730.06 1514.29 L1730.06 1536.81 L1734.99 1536.81 L1734.99 1540.7 L1730.06 1540.7 L1730.06 1548.85 L1725.41 1548.85 L1725.41 1540.7 L1709.81 1540.7 L1709.81 1536.19 L1724.18 1514.29 Z" fill="#000000" fill-rule="nonzero" fill-opacity="1" /><path clip-path="url(#clip450)" d="M1783.26 1516.95 L1783.26 1521.88 Q1780.89 1519.68 1778.21 1518.59 Q1775.55 1517.51 1772.54 1517.51 Q1766.61 1517.51 1763.46 1521.14 Q1760.32 1524.75 1760.32 1531.6 Q1760.32 1538.43 1763.46 1542.07 Q1766.61 1545.68 1772.54 1545.68 Q1775.55 1545.68 1778.21 1544.59 Q1780.89 1543.5 1783.26 1541.3 L1783.26 1546.19 Q1780.8 1547.85 1778.05 1548.69 Q1775.32 1549.52 1772.26 1549.52 Q1764.41 1549.52 1759.9 1544.73 Q1755.39 1539.91 1755.39 1531.6 Q1755.39 1523.27 1759.9 1518.48 Q1764.41 1513.66 1772.26 1513.66 Q1775.36 1513.66 1778.09 1514.5 Q1780.85 1515.31 1783.26 1516.95 Z" fill="#000000" fill-rule="nonzero" fill-opacity="1" /><path clip-path="url(#clip450)" d="M1800.34 1525.91 Q1796.91 1525.91 1794.92 1528.59 Q1792.93 1531.26 1792.93 1535.91 Q1792.93 1540.56 1794.9 1543.25 Q1796.89 1545.91 1800.34 1545.91 Q1803.74 1545.91 1805.73 1543.22 Q1807.72 1540.54 1807.72 1535.91 Q1807.72 1531.3 1805.73 1528.62 Q1803.74 1525.91 1800.34 1525.91 M1800.34 1522.3 Q1805.89 1522.3 1809.07 1525.91 Q1812.24 1529.52 1812.24 1535.91 Q1812.24 1542.27 1809.07 1545.91 Q1805.89 1549.52 1800.34 1549.52 Q1794.76 1549.52 1791.59 1545.91 Q1788.44 1542.27 1788.44 1535.91 Q1788.44 1529.52 1791.59 1525.91 Q1794.76 1522.3 1800.34 1522.3 Z" fill="#000000" fill-rule="nonzero" fill-opacity="1" /><path clip-path="url(#clip450)" d="M1834.32 1526.9 Q1833.6 1526.49 1832.75 1526.3 Q1831.91 1526.09 1830.89 1526.09 Q1827.28 1526.09 1825.34 1528.45 Q1823.42 1530.79 1823.42 1535.19 L1823.42 1548.85 L1819.14 1548.85 L1819.14 1522.92 L1823.42 1522.92 L1823.42 1526.95 Q1824.76 1524.59 1826.91 1523.45 Q1829.07 1522.3 1832.14 1522.3 Q1832.58 1522.3 1833.12 1522.37 Q1833.65 1522.41 1834.3 1522.53 L1834.32 1526.9 Z" fill="#000000" fill-rule="nonzero" fill-opacity="1" /><path clip-path="url(#clip450)" d="M1859.92 1534.82 L1859.92 1536.9 L1840.34 1536.9 Q1840.62 1541.3 1842.98 1543.62 Q1845.36 1545.91 1849.6 1545.91 Q1852.05 1545.91 1854.34 1545.31 Q1856.66 1544.7 1858.93 1543.5 L1858.93 1547.53 Q1856.64 1548.5 1854.23 1549.01 Q1851.82 1549.52 1849.34 1549.52 Q1843.14 1549.52 1839.51 1545.91 Q1835.89 1542.3 1835.89 1536.14 Q1835.89 1529.77 1839.32 1526.05 Q1842.77 1522.3 1848.6 1522.3 Q1853.83 1522.3 1856.87 1525.68 Q1859.92 1529.03 1859.92 1534.82 M1855.66 1533.57 Q1855.62 1530.07 1853.7 1527.99 Q1851.8 1525.91 1848.65 1525.91 Q1845.08 1525.91 1842.93 1527.92 Q1840.8 1529.94 1840.48 1533.59 L1855.66 1533.57 Z" fill="#000000" fill-rule="nonzero" fill-opacity="1" /><path clip-path="url(#clip450)" d="M1883.44 1523.69 L1883.44 1527.71 Q1881.64 1526.79 1879.69 1526.32 Q1877.75 1525.86 1875.66 1525.86 Q1872.49 1525.86 1870.89 1526.83 Q1869.32 1527.81 1869.32 1529.75 Q1869.32 1531.23 1870.45 1532.09 Q1871.59 1532.92 1875.01 1533.69 L1876.47 1534.01 Q1881.01 1534.98 1882.91 1536.76 Q1884.83 1538.52 1884.83 1541.7 Q1884.83 1545.31 1881.96 1547.41 Q1879.11 1549.52 1874.11 1549.52 Q1872.03 1549.52 1869.76 1549.1 Q1867.51 1548.71 1865.01 1547.9 L1865.01 1543.5 Q1867.38 1544.73 1869.67 1545.35 Q1871.96 1545.95 1874.2 1545.95 Q1877.21 1545.95 1878.83 1544.94 Q1880.45 1543.89 1880.45 1542.02 Q1880.45 1540.28 1879.27 1539.36 Q1878.12 1538.43 1874.16 1537.57 L1872.68 1537.23 Q1868.72 1536.39 1866.96 1534.68 Q1865.2 1532.95 1865.2 1529.94 Q1865.2 1526.28 1867.79 1524.29 Q1870.39 1522.3 1875.15 1522.3 Q1877.51 1522.3 1879.6 1522.64 Q1881.68 1522.99 1883.44 1523.69 Z" fill="#000000" fill-rule="nonzero" fill-opacity="1" /><path clip-path="url(#clip450)" d="M2218.04 1532.44 Q2214.7 1532.44 2212.78 1534.22 Q2210.88 1536 2210.88 1539.13 Q2210.88 1542.25 2212.78 1544.03 Q2214.7 1545.82 2218.04 1545.82 Q2221.37 1545.82 2223.29 1544.03 Q2225.21 1542.23 2225.21 1539.13 Q2225.21 1536 2223.29 1534.22 Q2221.39 1532.44 2218.04 1532.44 M2213.36 1530.45 Q2210.35 1529.7 2208.66 1527.64 Q2207 1525.58 2207 1522.62 Q2207 1518.48 2209.94 1516.07 Q2212.9 1513.66 2218.04 1513.66 Q2223.2 1513.66 2226.14 1516.07 Q2229.08 1518.48 2229.08 1522.62 Q2229.08 1525.58 2227.39 1527.64 Q2225.72 1529.7 2222.74 1530.45 Q2226.12 1531.23 2227.99 1533.52 Q2229.89 1535.82 2229.89 1539.13 Q2229.89 1544.15 2226.81 1546.83 Q2223.75 1549.52 2218.04 1549.52 Q2212.32 1549.52 2209.24 1546.83 Q2206.19 1544.15 2206.19 1539.13 Q2206.19 1535.82 2208.08 1533.52 Q2209.98 1531.23 2213.36 1530.45 M2211.65 1523.06 Q2211.65 1525.75 2213.31 1527.25 Q2215 1528.76 2218.04 1528.76 Q2221.05 1528.76 2222.74 1527.25 Q2224.45 1525.75 2224.45 1523.06 Q2224.45 1520.38 2222.74 1518.87 Q2221.05 1517.37 2218.04 1517.37 Q2215 1517.37 2213.31 1518.87 Q2211.65 1520.38 2211.65 1523.06 Z" fill="#000000" fill-rule="nonzero" fill-opacity="1" /><path clip-path="url(#clip450)" d="M2278.73 1516.95 L2278.73 1521.88 Q2276.37 1519.68 2273.68 1518.59 Q2271.02 1517.51 2268.01 1517.51 Q2262.09 1517.51 2258.94 1521.14 Q2255.79 1524.75 2255.79 1531.6 Q2255.79 1538.43 2258.94 1542.07 Q2262.09 1545.68 2268.01 1545.68 Q2271.02 1545.68 2273.68 1544.59 Q2276.37 1543.5 2278.73 1541.3 L2278.73 1546.19 Q2276.28 1547.85 2273.52 1548.69 Q2270.79 1549.52 2267.74 1549.52 Q2259.89 1549.52 2255.37 1544.73 Q2250.86 1539.91 2250.86 1531.6 Q2250.86 1523.27 2255.37 1518.48 Q2259.89 1513.66 2267.74 1513.66 Q2270.84 1513.66 2273.57 1514.5 Q2276.32 1515.31 2278.73 1516.95 Z" fill="#000000" fill-rule="nonzero" fill-opacity="1" /><path clip-path="url(#clip450)" d="M2295.81 1525.91 Q2292.39 1525.91 2290.4 1528.59 Q2288.41 1531.26 2288.41 1535.91 Q2288.41 1540.56 2290.37 1543.25 Q2292.37 1545.91 2295.81 1545.91 Q2299.22 1545.91 2301.21 1543.22 Q2303.2 1540.54 2303.2 1535.91 Q2303.2 1531.3 2301.21 1528.62 Q2299.22 1525.91 2295.81 1525.91 M2295.81 1522.3 Q2301.37 1522.3 2304.54 1525.91 Q2307.71 1529.52 2307.71 1535.91 Q2307.71 1542.27 2304.54 1545.91 Q2301.37 1549.52 2295.81 1549.52 Q2290.24 1549.52 2287.06 1545.91 Q2283.92 1542.27 2283.92 1535.91 Q2283.92 1529.52 2287.06 1525.91 Q2290.24 1522.3 2295.81 1522.3 Z" fill="#000000" fill-rule="nonzero" fill-opacity="1" /><path clip-path="url(#clip450)" d="M2329.8 1526.9 Q2329.08 1526.49 2328.22 1526.3 Q2327.39 1526.09 2326.37 1526.09 Q2322.76 1526.09 2320.81 1528.45 Q2318.89 1530.79 2318.89 1535.19 L2318.89 1548.85 L2314.61 1548.85 L2314.61 1522.92 L2318.89 1522.92 L2318.89 1526.95 Q2320.24 1524.59 2322.39 1523.45 Q2324.54 1522.3 2327.62 1522.3 Q2328.06 1522.3 2328.59 1522.37 Q2329.12 1522.41 2329.77 1522.53 L2329.8 1526.9 Z" fill="#000000" fill-rule="nonzero" fill-opacity="1" /><path clip-path="url(#clip450)" d="M2355.4 1534.82 L2355.4 1536.9 L2335.81 1536.9 Q2336.09 1541.3 2338.45 1543.62 Q2340.84 1545.91 2345.07 1545.91 Q2347.53 1545.91 2349.82 1545.31 Q2352.13 1544.7 2354.4 1543.5 L2354.4 1547.53 Q2352.11 1548.5 2349.7 1549.01 Q2347.3 1549.52 2344.82 1549.52 Q2338.61 1549.52 2334.98 1545.91 Q2331.37 1542.3 2331.37 1536.14 Q2331.37 1529.77 2334.8 1526.05 Q2338.24 1522.3 2344.08 1522.3 Q2349.31 1522.3 2352.34 1525.68 Q2355.4 1529.03 2355.4 1534.82 M2351.14 1533.57 Q2351.09 1530.07 2349.17 1527.99 Q2347.27 1525.91 2344.12 1525.91 Q2340.56 1525.91 2338.41 1527.92 Q2336.28 1529.94 2335.95 1533.59 L2351.14 1533.57 Z" fill="#000000" fill-rule="nonzero" fill-opacity="1" /><path clip-path="url(#clip450)" d="M2378.92 1523.69 L2378.92 1527.71 Q2377.11 1526.79 2375.17 1526.32 Q2373.22 1525.86 2371.14 1525.86 Q2367.97 1525.86 2366.37 1526.83 Q2364.8 1527.81 2364.8 1529.75 Q2364.8 1531.23 2365.93 1532.09 Q2367.06 1532.92 2370.49 1533.69 L2371.95 1534.01 Q2376.49 1534.98 2378.38 1536.76 Q2380.3 1538.52 2380.3 1541.7 Q2380.3 1545.31 2377.43 1547.41 Q2374.59 1549.52 2369.59 1549.52 Q2367.5 1549.52 2365.24 1549.1 Q2362.99 1548.71 2360.49 1547.9 L2360.49 1543.5 Q2362.85 1544.73 2365.14 1545.35 Q2367.43 1545.95 2369.68 1545.95 Q2372.69 1545.95 2374.31 1544.94 Q2375.93 1543.89 2375.93 1542.02 Q2375.93 1540.28 2374.75 1539.36 Q2373.59 1538.43 2369.63 1537.57 L2368.15 1537.23 Q2364.19 1536.39 2362.43 1534.68 Q2360.67 1532.95 2360.67 1529.94 Q2360.67 1526.28 2363.27 1524.29 Q2365.86 1522.3 2370.63 1522.3 Q2372.99 1522.3 2375.07 1522.64 Q2377.16 1522.99 2378.92 1523.69 Z" fill="#000000" fill-rule="nonzero" fill-opacity="1" /><polyline clip-path="url(#clip452)" style="stroke:#000000; stroke-linecap:round; stroke-linejoin:round; stroke-width:2; stroke-opacity:0.1; fill:none" points="250.028,1322.69 2352.76,1322.69 "/>
<polyline clip-path="url(#clip452)" style="stroke:#000000; stroke-linecap:round; stroke-linejoin:round; stroke-width:2; stroke-opacity:0.1; fill:none" points="250.028,1157.88 2352.76,1157.88 "/>
<polyline clip-path="url(#clip452)" style="stroke:#000000; stroke-linecap:round; stroke-linejoin:round; stroke-width:2; stroke-opacity:0.1; fill:none" points="250.028,993.081 2352.76,993.081 "/>
<polyline clip-path="url(#clip452)" style="stroke:#000000; stroke-linecap:round; stroke-linejoin:round; stroke-width:2; stroke-opacity:0.1; fill:none" points="250.028,828.278 2352.76,828.278 "/>
<polyline clip-path="url(#clip452)" style="stroke:#000000; stroke-linecap:round; stroke-linejoin:round; stroke-width:2; stroke-opacity:0.1; fill:none" points="250.028,663.475 2352.76,663.475 "/>
<polyline clip-path="url(#clip452)" style="stroke:#000000; stroke-linecap:round; stroke-linejoin:round; stroke-width:2; stroke-opacity:0.1; fill:none" points="250.028,498.673 2352.76,498.673 "/>
<polyline clip-path="url(#clip452)" style="stroke:#000000; stroke-linecap:round; stroke-linejoin:round; stroke-width:2; stroke-opacity:0.1; fill:none" points="250.028,333.87 2352.76,333.87 "/>
<polyline clip-path="url(#clip450)" style="stroke:#000000; stroke-linecap:round; stroke-linejoin:round; stroke-width:4; stroke-opacity:1; fill:none" points="250.028,1486.45 250.028,183.952 "/>
<polyline clip-path="url(#clip450)" style="stroke:#000000; stroke-linecap:round; stroke-linejoin:round; stroke-width:4; stroke-opacity:1; fill:none" points="250.028,1322.69 268.926,1322.69 "/>
<polyline clip-path="url(#clip450)" style="stroke:#000000; stroke-linecap:round; stroke-linejoin:round; stroke-width:4; stroke-opacity:1; fill:none" points="250.028,1157.88 268.926,1157.88 "/>
<polyline clip-path="url(#clip450)" style="stroke:#000000; stroke-linecap:round; stroke-linejoin:round; stroke-width:4; stroke-opacity:1; fill:none" points="250.028,993.081 268.926,993.081 "/>
<polyline clip-path="url(#clip450)" style="stroke:#000000; stroke-linecap:round; stroke-linejoin:round; stroke-width:4; stroke-opacity:1; fill:none" points="250.028,828.278 268.926,828.278 "/>
<polyline clip-path="url(#clip450)" style="stroke:#000000; stroke-linecap:round; stroke-linejoin:round; stroke-width:4; stroke-opacity:1; fill:none" points="250.028,663.475 268.926,663.475 "/>
<polyline clip-path="url(#clip450)" style="stroke:#000000; stroke-linecap:round; stroke-linejoin:round; stroke-width:4; stroke-opacity:1; fill:none" points="250.028,498.673 268.926,498.673 "/>
<polyline clip-path="url(#clip450)" style="stroke:#000000; stroke-linecap:round; stroke-linejoin:round; stroke-width:4; stroke-opacity:1; fill:none" points="250.028,333.87 268.926,333.87 "/>
<path clip-path="url(#clip450)" d="M127.917 1308.49 Q124.306 1308.49 122.478 1312.05 Q120.672 1315.59 120.672 1322.72 Q120.672 1329.83 122.478 1333.39 Q124.306 1336.93 127.917 1336.93 Q131.552 1336.93 133.357 1333.39 Q135.186 1329.83 135.186 1322.72 Q135.186 1315.59 133.357 1312.05 Q131.552 1308.49 127.917 1308.49 M127.917 1304.78 Q133.728 1304.78 136.783 1309.39 Q139.862 1313.97 139.862 1322.72 Q139.862 1331.45 136.783 1336.05 Q133.728 1340.64 127.917 1340.64 Q122.107 1340.64 119.029 1336.05 Q115.973 1331.45 115.973 1322.72 Q115.973 1313.97 119.029 1309.39 Q122.107 1304.78 127.917 1304.78 Z" fill="#000000" fill-rule="nonzero" fill-opacity="1" /><path clip-path="url(#clip450)" d="M148.079 1334.09 L152.964 1334.09 L152.964 1339.97 L148.079 1339.97 L148.079 1334.09 Z" fill="#000000" fill-rule="nonzero" fill-opacity="1" /><path clip-path="url(#clip450)" d="M173.149 1308.49 Q169.538 1308.49 167.709 1312.05 Q165.903 1315.59 165.903 1322.72 Q165.903 1329.83 167.709 1333.39 Q169.538 1336.93 173.149 1336.93 Q176.783 1336.93 178.589 1333.39 Q180.417 1329.83 180.417 1322.72 Q180.417 1315.59 178.589 1312.05 Q176.783 1308.49 173.149 1308.49 M173.149 1304.78 Q178.959 1304.78 182.014 1309.39 Q185.093 1313.97 185.093 1322.72 Q185.093 1331.45 182.014 1336.05 Q178.959 1340.64 173.149 1340.64 Q167.339 1340.64 164.26 1336.05 Q161.204 1331.45 161.204 1322.72 Q161.204 1313.97 164.26 1309.39 Q167.339 1304.78 173.149 1304.78 Z" fill="#000000" fill-rule="nonzero" fill-opacity="1" /><path clip-path="url(#clip450)" d="M194.121 1336.03 L201.76 1336.03 L201.76 1309.67 L193.45 1311.33 L193.45 1307.07 L201.713 1305.41 L206.389 1305.41 L206.389 1336.03 L214.028 1336.03 L214.028 1339.97 L194.121 1339.97 L194.121 1336.03 Z" fill="#000000" fill-rule="nonzero" fill-opacity="1" /><path clip-path="url(#clip450)" d="M128.288 1143.68 Q124.677 1143.68 122.848 1147.25 Q121.043 1150.79 121.043 1157.92 Q121.043 1165.03 122.848 1168.59 Q124.677 1172.13 128.288 1172.13 Q131.922 1172.13 133.728 1168.59 Q135.556 1165.03 135.556 1157.92 Q135.556 1150.79 133.728 1147.25 Q131.922 1143.68 128.288 1143.68 M128.288 1139.98 Q134.098 1139.98 137.154 1144.59 Q140.232 1149.17 140.232 1157.92 Q140.232 1166.65 137.154 1171.25 Q134.098 1175.84 128.288 1175.84 Q122.478 1175.84 119.399 1171.25 Q116.343 1166.65 116.343 1157.92 Q116.343 1149.17 119.399 1144.59 Q122.478 1139.98 128.288 1139.98 Z" fill="#000000" fill-rule="nonzero" fill-opacity="1" /><path clip-path="url(#clip450)" d="M148.45 1169.28 L153.334 1169.28 L153.334 1175.16 L148.45 1175.16 L148.45 1169.28 Z" fill="#000000" fill-rule="nonzero" fill-opacity="1" /><path clip-path="url(#clip450)" d="M173.519 1143.68 Q169.908 1143.68 168.079 1147.25 Q166.274 1150.79 166.274 1157.92 Q166.274 1165.03 168.079 1168.59 Q169.908 1172.13 173.519 1172.13 Q177.153 1172.13 178.959 1168.59 Q180.788 1165.03 180.788 1157.92 Q180.788 1150.79 178.959 1147.25 Q177.153 1143.68 173.519 1143.68 M173.519 1139.98 Q179.329 1139.98 182.385 1144.59 Q185.463 1149.17 185.463 1157.92 Q185.463 1166.65 182.385 1171.25 Q179.329 1175.84 173.519 1175.84 Q167.709 1175.84 164.63 1171.25 Q161.575 1166.65 161.575 1157.92 Q161.575 1149.17 164.63 1144.59 Q167.709 1139.98 173.519 1139.98 Z" fill="#000000" fill-rule="nonzero" fill-opacity="1" /><path clip-path="url(#clip450)" d="M197.709 1171.23 L214.028 1171.23 L214.028 1175.16 L192.084 1175.16 L192.084 1171.23 Q194.746 1168.47 199.329 1163.84 Q203.936 1159.19 205.116 1157.85 Q207.362 1155.33 208.241 1153.59 Q209.144 1151.83 209.144 1150.14 Q209.144 1147.39 207.199 1145.65 Q205.278 1143.91 202.176 1143.91 Q199.977 1143.91 197.524 1144.68 Q195.093 1145.44 192.315 1146.99 L192.315 1142.27 Q195.139 1141.14 197.593 1140.56 Q200.047 1139.98 202.084 1139.98 Q207.454 1139.98 210.649 1142.66 Q213.843 1145.35 213.843 1149.84 Q213.843 1151.97 213.033 1153.89 Q212.246 1155.79 210.139 1158.38 Q209.561 1159.05 206.459 1162.27 Q203.357 1165.46 197.709 1171.23 Z" fill="#000000" fill-rule="nonzero" fill-opacity="1" /><path clip-path="url(#clip450)" d="M127.339 978.88 Q123.728 978.88 121.899 982.445 Q120.093 985.986 120.093 993.116 Q120.093 1000.22 121.899 1003.79 Q123.728 1007.33 127.339 1007.33 Q130.973 1007.33 132.779 1003.79 Q134.607 1000.22 134.607 993.116 Q134.607 985.986 132.779 982.445 Q130.973 978.88 127.339 978.88 M127.339 975.176 Q133.149 975.176 136.204 979.783 Q139.283 984.366 139.283 993.116 Q139.283 1001.84 136.204 1006.45 Q133.149 1011.03 127.339 1011.03 Q121.529 1011.03 118.45 1006.45 Q115.394 1001.84 115.394 993.116 Q115.394 984.366 118.45 979.783 Q121.529 975.176 127.339 975.176 Z" fill="#000000" fill-rule="nonzero" fill-opacity="1" /><path clip-path="url(#clip450)" d="M147.501 1004.48 L152.385 1004.48 L152.385 1010.36 L147.501 1010.36 L147.501 1004.48 Z" fill="#000000" fill-rule="nonzero" fill-opacity="1" /><path clip-path="url(#clip450)" d="M172.57 978.88 Q168.959 978.88 167.13 982.445 Q165.325 985.986 165.325 993.116 Q165.325 1000.22 167.13 1003.79 Q168.959 1007.33 172.57 1007.33 Q176.204 1007.33 178.01 1003.79 Q179.839 1000.22 179.839 993.116 Q179.839 985.986 178.01 982.445 Q176.204 978.88 172.57 978.88 M172.57 975.176 Q178.38 975.176 181.436 979.783 Q184.514 984.366 184.514 993.116 Q184.514 1001.84 181.436 1006.45 Q178.38 1011.03 172.57 1011.03 Q166.76 1011.03 163.681 1006.45 Q160.626 1001.84 160.626 993.116 Q160.626 984.366 163.681 979.783 Q166.76 975.176 172.57 975.176 Z" fill="#000000" fill-rule="nonzero" fill-opacity="1" /><path clip-path="url(#clip450)" d="M206.899 991.727 Q210.255 992.444 212.13 994.713 Q214.028 996.982 214.028 1000.31 Q214.028 1005.43 210.51 1008.23 Q206.991 1011.03 200.51 1011.03 Q198.334 1011.03 196.019 1010.59 Q193.727 1010.18 191.274 1009.32 L191.274 1004.81 Q193.218 1005.94 195.533 1006.52 Q197.848 1007.1 200.371 1007.1 Q204.769 1007.1 207.061 1005.36 Q209.375 1003.62 209.375 1000.31 Q209.375 997.259 207.223 995.546 Q205.093 993.81 201.274 993.81 L197.246 993.81 L197.246 989.968 L201.459 989.968 Q204.908 989.968 206.737 988.602 Q208.565 987.213 208.565 984.62 Q208.565 981.958 206.667 980.546 Q204.792 979.111 201.274 979.111 Q199.352 979.111 197.153 979.528 Q194.954 979.945 192.315 980.824 L192.315 976.658 Q194.977 975.917 197.292 975.546 Q199.63 975.176 201.69 975.176 Q207.014 975.176 210.116 977.607 Q213.218 980.014 213.218 984.134 Q213.218 987.005 211.574 988.995 Q209.931 990.963 206.899 991.727 Z" fill="#000000" fill-rule="nonzero" fill-opacity="1" /><path clip-path="url(#clip450)" d="M126.205 814.077 Q122.593 814.077 120.765 817.642 Q118.959 821.183 118.959 828.313 Q118.959 835.419 120.765 838.984 Q122.593 842.526 126.205 842.526 Q129.839 842.526 131.644 838.984 Q133.473 835.419 133.473 828.313 Q133.473 821.183 131.644 817.642 Q129.839 814.077 126.205 814.077 M126.205 810.373 Q132.015 810.373 135.07 814.98 Q138.149 819.563 138.149 828.313 Q138.149 837.04 135.07 841.646 Q132.015 846.23 126.205 846.23 Q120.394 846.23 117.316 841.646 Q114.26 837.04 114.26 828.313 Q114.26 819.563 117.316 814.98 Q120.394 810.373 126.205 810.373 Z" fill="#000000" fill-rule="nonzero" fill-opacity="1" /><path clip-path="url(#clip450)" d="M146.366 839.679 L151.251 839.679 L151.251 845.558 L146.366 845.558 L146.366 839.679 Z" fill="#000000" fill-rule="nonzero" fill-opacity="1" /><path clip-path="url(#clip450)" d="M171.436 814.077 Q167.825 814.077 165.996 817.642 Q164.19 821.183 164.19 828.313 Q164.19 835.419 165.996 838.984 Q167.825 842.526 171.436 842.526 Q175.07 842.526 176.876 838.984 Q178.704 835.419 178.704 828.313 Q178.704 821.183 176.876 817.642 Q175.07 814.077 171.436 814.077 M171.436 810.373 Q177.246 810.373 180.301 814.98 Q183.38 819.563 183.38 828.313 Q183.38 837.04 180.301 841.646 Q177.246 846.23 171.436 846.23 Q165.626 846.23 162.547 841.646 Q159.491 837.04 159.491 828.313 Q159.491 819.563 162.547 814.98 Q165.626 810.373 171.436 810.373 Z" fill="#000000" fill-rule="nonzero" fill-opacity="1" /><path clip-path="url(#clip450)" d="M204.445 815.072 L192.639 833.521 L204.445 833.521 L204.445 815.072 M203.218 810.998 L209.098 810.998 L209.098 833.521 L214.028 833.521 L214.028 837.41 L209.098 837.41 L209.098 845.558 L204.445 845.558 L204.445 837.41 L188.843 837.41 L188.843 832.896 L203.218 810.998 Z" fill="#000000" fill-rule="nonzero" fill-opacity="1" /><path clip-path="url(#clip450)" d="M127.686 649.274 Q124.075 649.274 122.246 652.839 Q120.441 656.381 120.441 663.51 Q120.441 670.617 122.246 674.181 Q124.075 677.723 127.686 677.723 Q131.32 677.723 133.126 674.181 Q134.954 670.617 134.954 663.51 Q134.954 656.381 133.126 652.839 Q131.32 649.274 127.686 649.274 M127.686 645.571 Q133.496 645.571 136.552 650.177 Q139.63 654.76 139.63 663.51 Q139.63 672.237 136.552 676.843 Q133.496 681.427 127.686 681.427 Q121.876 681.427 118.797 676.843 Q115.742 672.237 115.742 663.51 Q115.742 654.76 118.797 650.177 Q121.876 645.571 127.686 645.571 Z" fill="#000000" fill-rule="nonzero" fill-opacity="1" /><path clip-path="url(#clip450)" d="M147.848 674.876 L152.732 674.876 L152.732 680.755 L147.848 680.755 L147.848 674.876 Z" fill="#000000" fill-rule="nonzero" fill-opacity="1" /><path clip-path="url(#clip450)" d="M172.917 649.274 Q169.306 649.274 167.477 652.839 Q165.672 656.381 165.672 663.51 Q165.672 670.617 167.477 674.181 Q169.306 677.723 172.917 677.723 Q176.551 677.723 178.357 674.181 Q180.186 670.617 180.186 663.51 Q180.186 656.381 178.357 652.839 Q176.551 649.274 172.917 649.274 M172.917 645.571 Q178.727 645.571 181.783 650.177 Q184.862 654.76 184.862 663.51 Q184.862 672.237 181.783 676.843 Q178.727 681.427 172.917 681.427 Q167.107 681.427 164.028 676.843 Q160.973 672.237 160.973 663.51 Q160.973 654.76 164.028 650.177 Q167.107 645.571 172.917 645.571 Z" fill="#000000" fill-rule="nonzero" fill-opacity="1" /><path clip-path="url(#clip450)" d="M193.125 646.195 L211.482 646.195 L211.482 650.131 L197.408 650.131 L197.408 658.603 Q198.426 658.256 199.445 658.094 Q200.463 657.908 201.482 657.908 Q207.269 657.908 210.649 661.08 Q214.028 664.251 214.028 669.668 Q214.028 675.246 210.556 678.348 Q207.084 681.427 200.764 681.427 Q198.588 681.427 196.32 681.056 Q194.075 680.686 191.667 679.945 L191.667 675.246 Q193.75 676.381 195.973 676.936 Q198.195 677.492 200.672 677.492 Q204.676 677.492 207.014 675.385 Q209.352 673.279 209.352 669.668 Q209.352 666.057 207.014 663.95 Q204.676 661.844 200.672 661.844 Q198.797 661.844 196.922 662.26 Q195.07 662.677 193.125 663.557 L193.125 646.195 Z" fill="#000000" fill-rule="nonzero" fill-opacity="1" /><path clip-path="url(#clip450)" d="M126.529 484.471 Q122.918 484.471 121.089 488.036 Q119.283 491.578 119.283 498.707 Q119.283 505.814 121.089 509.379 Q122.918 512.92 126.529 512.92 Q130.163 512.92 131.968 509.379 Q133.797 505.814 133.797 498.707 Q133.797 491.578 131.968 488.036 Q130.163 484.471 126.529 484.471 M126.529 480.768 Q132.339 480.768 135.394 485.374 Q138.473 489.957 138.473 498.707 Q138.473 507.434 135.394 512.041 Q132.339 516.624 126.529 516.624 Q120.718 516.624 117.64 512.041 Q114.584 507.434 114.584 498.707 Q114.584 489.957 117.64 485.374 Q120.718 480.768 126.529 480.768 Z" fill="#000000" fill-rule="nonzero" fill-opacity="1" /><path clip-path="url(#clip450)" d="M146.691 510.073 L151.575 510.073 L151.575 515.953 L146.691 515.953 L146.691 510.073 Z" fill="#000000" fill-rule="nonzero" fill-opacity="1" /><path clip-path="url(#clip450)" d="M171.76 484.471 Q168.149 484.471 166.32 488.036 Q164.515 491.578 164.515 498.707 Q164.515 505.814 166.32 509.379 Q168.149 512.92 171.76 512.92 Q175.394 512.92 177.2 509.379 Q179.028 505.814 179.028 498.707 Q179.028 491.578 177.2 488.036 Q175.394 484.471 171.76 484.471 M171.76 480.768 Q177.57 480.768 180.626 485.374 Q183.704 489.957 183.704 498.707 Q183.704 507.434 180.626 512.041 Q177.57 516.624 171.76 516.624 Q165.95 516.624 162.871 512.041 Q159.815 507.434 159.815 498.707 Q159.815 489.957 162.871 485.374 Q165.95 480.768 171.76 480.768 Z" fill="#000000" fill-rule="nonzero" fill-opacity="1" /><path clip-path="url(#clip450)" d="M202.5 496.809 Q199.352 496.809 197.5 498.962 Q195.672 501.115 195.672 504.865 Q195.672 508.592 197.5 510.768 Q199.352 512.92 202.5 512.92 Q205.649 512.92 207.477 510.768 Q209.329 508.592 209.329 504.865 Q209.329 501.115 207.477 498.962 Q205.649 496.809 202.5 496.809 M211.783 482.157 L211.783 486.416 Q210.024 485.583 208.218 485.143 Q206.436 484.703 204.676 484.703 Q200.047 484.703 197.593 487.828 Q195.163 490.953 194.815 497.272 Q196.181 495.258 198.241 494.194 Q200.301 493.106 202.778 493.106 Q207.987 493.106 210.996 496.277 Q214.028 499.425 214.028 504.865 Q214.028 510.189 210.88 513.406 Q207.732 516.624 202.5 516.624 Q196.505 516.624 193.334 512.041 Q190.163 507.434 190.163 498.707 Q190.163 490.513 194.051 485.652 Q197.94 480.768 204.491 480.768 Q206.25 480.768 208.033 481.115 Q209.838 481.462 211.783 482.157 Z" fill="#000000" fill-rule="nonzero" fill-opacity="1" /><path clip-path="url(#clip450)" d="M127.593 319.669 Q123.982 319.669 122.154 323.233 Q120.348 326.775 120.348 333.905 Q120.348 341.011 122.154 344.576 Q123.982 348.118 127.593 348.118 Q131.228 348.118 133.033 344.576 Q134.862 341.011 134.862 333.905 Q134.862 326.775 133.033 323.233 Q131.228 319.669 127.593 319.669 M127.593 315.965 Q133.404 315.965 136.459 320.571 Q139.538 325.155 139.538 333.905 Q139.538 342.631 136.459 347.238 Q133.404 351.821 127.593 351.821 Q121.783 351.821 118.705 347.238 Q115.649 342.631 115.649 333.905 Q115.649 325.155 118.705 320.571 Q121.783 315.965 127.593 315.965 Z" fill="#000000" fill-rule="nonzero" fill-opacity="1" /><path clip-path="url(#clip450)" d="M147.755 345.27 L152.64 345.27 L152.64 351.15 L147.755 351.15 L147.755 345.27 Z" fill="#000000" fill-rule="nonzero" fill-opacity="1" /><path clip-path="url(#clip450)" d="M172.825 319.669 Q169.214 319.669 167.385 323.233 Q165.579 326.775 165.579 333.905 Q165.579 341.011 167.385 344.576 Q169.214 348.118 172.825 348.118 Q176.459 348.118 178.264 344.576 Q180.093 341.011 180.093 333.905 Q180.093 326.775 178.264 323.233 Q176.459 319.669 172.825 319.669 M172.825 315.965 Q178.635 315.965 181.69 320.571 Q184.769 325.155 184.769 333.905 Q184.769 342.631 181.69 347.238 Q178.635 351.821 172.825 351.821 Q167.015 351.821 163.936 347.238 Q160.88 342.631 160.88 333.905 Q160.88 325.155 163.936 320.571 Q167.015 315.965 172.825 315.965 Z" fill="#000000" fill-rule="nonzero" fill-opacity="1" /><path clip-path="url(#clip450)" d="M191.806 316.59 L214.028 316.59 L214.028 318.581 L201.482 351.15 L196.598 351.15 L208.403 320.525 L191.806 320.525 L191.806 316.59 Z" fill="#000000" fill-rule="nonzero" fill-opacity="1" /><path clip-path="url(#clip450)" d="M16.4842 1132.03 L16.4842 1101.99 L21.895 1101.99 L21.895 1125.6 L35.9632 1125.6 L35.9632 1102.97 L41.3741 1102.97 L41.3741 1125.6 L58.5933 1125.6 L58.5933 1101.41 L64.0042 1101.41 L64.0042 1132.03 L16.4842 1132.03 Z" fill="#000000" fill-rule="nonzero" fill-opacity="1" /><path clip-path="url(#clip450)" d="M28.3562 1061.47 L45.7028 1074.36 L64.0042 1060.8 L64.0042 1067.71 L49.9996 1078.08 L64.0042 1088.46 L64.0042 1095.37 L45.3526 1081.52 L28.3562 1094.19 L28.3562 1087.28 L41.0558 1077.83 L28.3562 1068.38 L28.3562 1061.47 Z" fill="#000000" fill-rule="nonzero" fill-opacity="1" /><path clip-path="url(#clip450)" d="M44.7161 1024.04 L47.5806 1024.04 L47.5806 1050.97 Q53.6281 1050.58 56.8109 1047.34 Q59.9619 1044.06 59.9619 1038.23 Q59.9619 1034.86 59.1344 1031.71 Q58.3069 1028.53 56.6518 1025.41 L62.1899 1025.41 Q63.5267 1028.56 64.227 1031.87 Q64.9272 1035.18 64.9272 1038.58 Q64.9272 1047.11 59.9619 1052.11 Q54.9967 1057.08 46.5303 1057.08 Q37.7774 1057.08 32.6531 1052.37 Q27.4968 1047.62 27.4968 1039.6 Q27.4968 1032.41 32.1438 1028.24 Q36.7589 1024.04 44.7161 1024.04 M42.9973 1029.9 Q38.1912 1029.96 35.3266 1032.6 Q32.4621 1035.21 32.4621 1039.54 Q32.4621 1044.44 35.2312 1047.4 Q38.0002 1050.33 43.0292 1050.77 L42.9973 1029.9 Z" fill="#000000" fill-rule="nonzero" fill-opacity="1" /><path clip-path="url(#clip450)" d="M29.7248 988.773 L35.1993 988.773 Q33.8307 991.255 33.1623 993.77 Q32.4621 996.252 32.4621 998.799 Q32.4621 1004.5 36.0905 1007.65 Q39.6872 1010.8 46.212 1010.8 Q52.7369 1010.8 56.3653 1007.65 Q59.9619 1004.5 59.9619 998.799 Q59.9619 996.252 59.2935 993.77 Q58.5933 991.255 57.2247 988.773 L62.6355 988.773 Q63.7814 991.223 64.3543 993.865 Q64.9272 996.475 64.9272 999.435 Q64.9272 1007.49 59.8664 1012.23 Q54.8057 1016.97 46.212 1016.97 Q37.491 1016.97 32.4939 1012.2 Q27.4968 1007.39 27.4968 999.053 Q27.4968 996.348 28.0697 993.77 Q28.6108 991.192 29.7248 988.773 Z" fill="#000000" fill-rule="nonzero" fill-opacity="1" /><path clip-path="url(#clip450)" d="M49.9359 979.192 L28.3562 979.192 L28.3562 973.336 L49.7131 973.336 Q54.7739 973.336 57.3202 971.362 Q59.8346 969.389 59.8346 965.442 Q59.8346 960.7 56.8109 957.963 Q53.7872 955.194 48.5673 955.194 L28.3562 955.194 L28.3562 949.337 L64.0042 949.337 L64.0042 955.194 L58.5296 955.194 Q61.7762 957.326 63.3676 960.159 Q64.9272 962.96 64.9272 966.684 Q64.9272 972.827 61.1078 976.009 Q57.2883 979.192 49.9359 979.192 M27.4968 964.456 L27.4968 964.456 Z" fill="#000000" fill-rule="nonzero" fill-opacity="1" /><path clip-path="url(#clip450)" d="M18.2347 931.481 L28.3562 931.481 L28.3562 919.418 L32.9077 919.418 L32.9077 931.481 L52.2594 931.481 Q56.6199 931.481 57.8613 930.304 Q59.1026 929.094 59.1026 925.434 L59.1026 919.418 L64.0042 919.418 L64.0042 925.434 Q64.0042 932.213 61.4897 934.791 Q58.9434 937.37 52.2594 937.37 L32.9077 937.37 L32.9077 941.666 L28.3562 941.666 L28.3562 937.37 L18.2347 937.37 L18.2347 931.481 Z" fill="#000000" fill-rule="nonzero" fill-opacity="1" /><path clip-path="url(#clip450)" d="M28.3562 911.716 L28.3562 905.859 L64.0042 905.859 L64.0042 911.716 L28.3562 911.716 M14.479 911.716 L14.479 905.859 L21.895 905.859 L21.895 911.716 L14.479 911.716 Z" fill="#000000" fill-rule="nonzero" fill-opacity="1" /><path clip-path="url(#clip450)" d="M32.4621 879.792 Q32.4621 884.502 36.1542 887.24 Q39.8145 889.977 46.212 889.977 Q52.6095 889.977 56.3017 887.271 Q59.9619 884.534 59.9619 879.792 Q59.9619 875.113 56.2698 872.376 Q52.5777 869.638 46.212 869.638 Q39.8781 869.638 36.186 872.376 Q32.4621 875.113 32.4621 879.792 M27.4968 879.792 Q27.4968 872.153 32.4621 867.792 Q37.4273 863.432 46.212 863.432 Q54.9649 863.432 59.9619 867.792 Q64.9272 872.153 64.9272 879.792 Q64.9272 887.462 59.9619 891.823 Q54.9649 896.152 46.212 896.152 Q37.4273 896.152 32.4621 891.823 Q27.4968 887.462 27.4968 879.792 Z" fill="#000000" fill-rule="nonzero" fill-opacity="1" /><path clip-path="url(#clip450)" d="M42.4881 824.092 L64.0042 824.092 L64.0042 829.948 L42.679 829.948 Q37.6183 829.948 35.1038 831.922 Q32.5894 833.895 32.5894 837.842 Q32.5894 842.584 35.6131 845.321 Q38.6368 848.059 43.8567 848.059 L64.0042 848.059 L64.0042 853.947 L28.3562 853.947 L28.3562 848.059 L33.8944 848.059 Q30.6797 845.958 29.0883 843.125 Q27.4968 840.261 27.4968 836.537 Q27.4968 830.394 31.3163 827.243 Q35.1038 824.092 42.4881 824.092 Z" fill="#000000" fill-rule="nonzero" fill-opacity="1" /><path clip-path="url(#clip450)" d="M16.4842 798.024 L16.4842 757.825 L21.895 757.825 L21.895 774.694 L64.0042 774.694 L64.0042 781.155 L21.895 781.155 L21.895 798.024 L16.4842 798.024 Z" fill="#000000" fill-rule="nonzero" fill-opacity="1" /><path clip-path="url(#clip450)" d="M28.3562 753.878 L28.3562 748.022 L64.0042 748.022 L64.0042 753.878 L28.3562 753.878 M14.479 753.878 L14.479 748.022 L21.895 748.022 L21.895 753.878 L14.479 753.878 Z" fill="#000000" fill-rule="nonzero" fill-opacity="1" /><path clip-path="url(#clip450)" d="M35.1993 708.013 Q31.2526 705.817 29.3747 702.761 Q27.4968 699.706 27.4968 695.568 Q27.4968 689.998 31.4117 686.975 Q35.2948 683.951 42.4881 683.951 L64.0042 683.951 L64.0042 689.839 L42.679 689.839 Q37.5546 689.839 35.072 691.653 Q32.5894 693.468 32.5894 697.191 Q32.5894 701.743 35.6131 704.385 Q38.6368 707.026 43.8567 707.026 L64.0042 707.026 L64.0042 712.915 L42.679 712.915 Q37.5228 712.915 35.072 714.729 Q32.5894 716.543 32.5894 720.331 Q32.5894 724.819 35.6449 727.46 Q38.6686 730.102 43.8567 730.102 L64.0042 730.102 L64.0042 735.99 L28.3562 735.99 L28.3562 730.102 L33.8944 730.102 Q30.616 728.097 29.0564 725.296 Q27.4968 722.495 27.4968 718.644 Q27.4968 714.761 29.4702 712.055 Q31.4436 709.318 35.1993 708.013 Z" fill="#000000" fill-rule="nonzero" fill-opacity="1" /><path clip-path="url(#clip450)" d="M44.7161 641.778 L47.5806 641.778 L47.5806 668.705 Q53.6281 668.323 56.8109 665.076 Q59.9619 661.798 59.9619 655.974 Q59.9619 652.6 59.1344 649.449 Q58.3069 646.266 56.6518 643.147 L62.1899 643.147 Q63.5267 646.298 64.227 649.608 Q64.9272 652.918 64.9272 656.324 Q64.9272 664.854 59.9619 669.851 Q54.9967 674.816 46.5303 674.816 Q37.7774 674.816 32.6531 670.105 Q27.4968 665.363 27.4968 657.342 Q27.4968 650.149 32.1438 645.979 Q36.7589 641.778 44.7161 641.778 M42.9973 647.634 Q38.1912 647.698 35.3266 650.34 Q32.4621 652.95 32.4621 657.278 Q32.4621 662.18 35.2312 665.14 Q38.0002 668.068 43.0292 668.514 L42.9973 647.634 Z" fill="#000000" fill-rule="nonzero" fill-opacity="1" /><path clip-path="url(#clip450)" d="M14.479 611.986 L14.479 598.491 L19.0304 598.491 L19.0304 606.13 L68.0464 606.13 L68.0464 598.491 L72.5979 598.491 L72.5979 611.986 L14.479 611.986 Z" fill="#000000" fill-rule="nonzero" fill-opacity="1" /><path clip-path="url(#clip450)" d="M29.4065 563.289 L34.9447 563.289 Q33.6716 565.771 33.035 568.445 Q32.3984 571.119 32.3984 573.983 Q32.3984 578.344 33.7352 580.54 Q35.072 582.704 37.7456 582.704 Q39.7826 582.704 40.9603 581.145 Q42.1061 579.585 43.1565 574.874 L43.6021 572.869 Q44.9389 566.631 47.3897 564.021 Q49.8086 561.379 54.1691 561.379 Q59.1344 561.379 62.0308 565.326 Q64.9272 569.241 64.9272 576.116 Q64.9272 578.98 64.3543 582.1 Q63.8132 585.187 62.6992 588.624 L56.6518 588.624 Q58.3387 585.378 59.198 582.227 Q60.0256 579.076 60.0256 575.988 Q60.0256 571.851 58.6251 569.623 Q57.1929 567.395 54.6147 567.395 Q52.2276 567.395 50.9545 569.018 Q49.6813 570.609 48.5037 576.052 L48.0262 578.089 Q46.8804 583.532 44.5251 585.951 Q42.138 588.37 38.0002 588.37 Q32.9713 588.37 30.2341 584.805 Q27.4968 581.24 27.4968 574.683 Q27.4968 571.437 27.9743 568.572 Q28.4517 565.708 29.4065 563.289 Z" fill="#000000" fill-rule="nonzero" fill-opacity="1" /><path clip-path="url(#clip450)" d="M14.479 538.367 L72.5979 538.367 L72.5979 551.862 L68.0464 551.862 L68.0464 544.255 L19.0304 544.255 L19.0304 551.862 L14.479 551.862 L14.479 538.367 Z" fill="#000000" fill-rule="nonzero" fill-opacity="1" /><path clip-path="url(#clip450)" d="M897.578 33.264 L905.841 33.264 L918.561 84.3864 L931.241 33.264 L940.436 33.264 L953.156 84.3864 L965.835 33.264 L974.14 33.264 L958.949 93.744 L948.66 93.744 L935.899 41.2443 L923.017 93.744 L912.728 93.744 L897.578 33.264 Z" fill="#000000" fill-rule="nonzero" fill-opacity="1" /><path clip-path="url(#clip450)" d="M982.849 48.3739 L990.303 48.3739 L990.303 93.744 L982.849 93.744 L982.849 48.3739 M982.849 30.7119 L990.303 30.7119 L990.303 40.1505 L982.849 40.1505 L982.849 30.7119 Z" fill="#000000" fill-rule="nonzero" fill-opacity="1" /><path clip-path="url(#clip450)" d="M1032.19 55.3414 Q1030.93 54.6123 1029.43 54.2882 Q1027.98 53.9236 1026.19 53.9236 Q1019.87 53.9236 1016.47 58.0555 Q1013.11 62.1469 1013.11 69.8437 L1013.11 93.744 L1005.62 93.744 L1005.62 48.3739 L1013.11 48.3739 L1013.11 55.4224 Q1015.46 51.2905 1019.23 49.3056 Q1022.99 47.2801 1028.38 47.2801 Q1029.15 47.2801 1030.08 47.4017 Q1031.01 47.4827 1032.15 47.6852 L1032.19 55.3414 Z" fill="#000000" fill-rule="nonzero" fill-opacity="1" /><path clip-path="url(#clip450)" d="M1076.99 69.1955 L1076.99 72.8413 L1042.72 72.8413 Q1043.21 80.5381 1047.34 84.589 Q1051.51 88.5994 1058.93 88.5994 Q1063.22 88.5994 1067.23 87.5461 Q1071.28 86.4929 1075.25 84.3864 L1075.25 91.435 Q1071.24 93.1364 1067.03 94.0276 Q1062.81 94.9188 1058.48 94.9188 Q1047.62 94.9188 1041.26 88.5994 Q1034.94 82.2799 1034.94 71.5045 Q1034.94 60.3645 1040.94 53.8426 Q1046.97 47.2801 1057.18 47.2801 Q1066.34 47.2801 1071.64 53.1944 Q1076.99 59.0683 1076.99 69.1955 M1069.54 67.008 Q1069.46 60.8912 1066.1 57.2454 Q1062.77 53.5995 1057.26 53.5995 Q1051.03 53.5995 1047.26 57.1238 Q1043.53 60.6481 1042.96 67.0485 L1069.54 67.008 Z" fill="#000000" fill-rule="nonzero" fill-opacity="1" /><path clip-path="url(#clip450)" d="M1119.08 55.2604 L1119.08 30.7119 L1126.53 30.7119 L1126.53 93.744 L1119.08 93.744 L1119.08 86.9385 Q1116.73 90.9894 1113.13 92.9743 Q1109.56 94.9188 1104.54 94.9188 Q1096.31 94.9188 1091.13 88.3563 Q1085.99 81.7938 1085.99 71.0994 Q1085.99 60.4051 1091.13 53.8426 Q1096.31 47.2801 1104.54 47.2801 Q1109.56 47.2801 1113.13 49.2651 Q1116.73 51.2095 1119.08 55.2604 M1093.68 71.0994 Q1093.68 79.3228 1097.04 84.0218 Q1100.45 88.6804 1106.36 88.6804 Q1112.28 88.6804 1115.68 84.0218 Q1119.08 79.3228 1119.08 71.0994 Q1119.08 62.8761 1115.68 58.2176 Q1112.28 53.5185 1106.36 53.5185 Q1100.45 53.5185 1097.04 58.2176 Q1093.68 62.8761 1093.68 71.0994 Z" fill="#000000" fill-rule="nonzero" fill-opacity="1" /><path clip-path="url(#clip450)" d="M1142.94 83.4547 L1151.49 83.4547 L1151.49 93.744 L1142.94 93.744 L1142.94 83.4547 Z" fill="#000000" fill-rule="nonzero" fill-opacity="1" /><path clip-path="url(#clip450)" d="M1168.26 48.3739 L1175.71 48.3739 L1175.71 94.5542 Q1175.71 103.223 1172.39 107.112 Q1169.11 111.001 1161.78 111.001 L1158.94 111.001 L1158.94 104.681 L1160.93 104.681 Q1165.18 104.681 1166.72 102.696 Q1168.26 100.752 1168.26 94.5542 L1168.26 48.3739 M1168.26 30.7119 L1175.71 30.7119 L1175.71 40.1505 L1168.26 40.1505 L1168.26 30.7119 Z" fill="#000000" fill-rule="nonzero" fill-opacity="1" /><path clip-path="url(#clip450)" d="M1191.31 30.7119 L1198.76 30.7119 L1198.76 93.744 L1191.31 93.744 L1191.31 30.7119 Z" fill="#000000" fill-rule="nonzero" fill-opacity="1" /><path clip-path="url(#clip450)" d="M1249.24 64.8611 L1249.24 87.0195 L1262.36 87.0195 Q1268.96 87.0195 1272.12 84.3054 Q1275.32 81.5508 1275.32 75.92 Q1275.32 70.2488 1272.12 67.5752 Q1268.96 64.8611 1262.36 64.8611 L1249.24 64.8611 M1249.24 39.9885 L1249.24 58.2176 L1261.35 58.2176 Q1267.34 58.2176 1270.26 55.9896 Q1273.22 53.7211 1273.22 49.103 Q1273.22 44.5255 1270.26 42.257 Q1267.34 39.9885 1261.35 39.9885 L1249.24 39.9885 M1241.05 33.264 L1261.96 33.264 Q1271.31 33.264 1276.38 37.1529 Q1281.44 41.0417 1281.44 48.2118 Q1281.44 53.7616 1278.85 57.0428 Q1276.26 60.324 1271.23 61.1342 Q1277.27 62.4305 1280.59 66.5624 Q1283.95 70.6538 1283.95 76.8112 Q1283.95 84.913 1278.44 89.3285 Q1272.93 93.744 1262.77 93.744 L1241.05 93.744 L1241.05 33.264 Z" fill="#000000" fill-rule="nonzero" fill-opacity="1" /><path clip-path="url(#clip450)" d="M1336.45 69.1955 L1336.45 72.8413 L1302.18 72.8413 Q1302.67 80.5381 1306.8 84.589 Q1310.97 88.5994 1318.39 88.5994 Q1322.68 88.5994 1326.69 87.5461 Q1330.74 86.4929 1334.71 84.3864 L1334.71 91.435 Q1330.7 93.1364 1326.49 94.0276 Q1322.27 94.9188 1317.94 94.9188 Q1307.08 94.9188 1300.72 88.5994 Q1294.4 82.2799 1294.4 71.5045 Q1294.4 60.3645 1300.4 53.8426 Q1306.44 47.2801 1316.64 47.2801 Q1325.8 47.2801 1331.11 53.1944 Q1336.45 59.0683 1336.45 69.1955 M1329 67.008 Q1328.92 60.8912 1325.56 57.2454 Q1322.23 53.5995 1316.72 53.5995 Q1310.49 53.5995 1306.72 57.1238 Q1302.99 60.6481 1302.43 67.0485 L1329 67.008 Z" fill="#000000" fill-rule="nonzero" fill-opacity="1" /><path clip-path="url(#clip450)" d="M1386.4 66.3599 L1386.4 93.744 L1378.95 93.744 L1378.95 66.6029 Q1378.95 60.162 1376.44 56.9618 Q1373.92 53.7616 1368.9 53.7616 Q1362.86 53.7616 1359.38 57.6099 Q1355.9 61.4583 1355.9 68.1018 L1355.9 93.744 L1348.4 93.744 L1348.4 48.3739 L1355.9 48.3739 L1355.9 55.4224 Q1358.57 51.331 1362.18 49.3056 Q1365.82 47.2801 1370.56 47.2801 Q1378.38 47.2801 1382.39 52.1412 Q1386.4 56.9618 1386.4 66.3599 Z" fill="#000000" fill-rule="nonzero" fill-opacity="1" /><path clip-path="url(#clip450)" d="M1433.92 50.1158 L1433.92 57.0833 Q1430.76 55.3414 1427.56 54.4907 Q1424.4 53.5995 1421.16 53.5995 Q1413.91 53.5995 1409.9 58.2176 Q1405.89 62.7951 1405.89 71.0994 Q1405.89 79.4038 1409.9 84.0218 Q1413.91 88.5994 1421.16 88.5994 Q1424.4 88.5994 1427.56 87.7487 Q1430.76 86.8575 1433.92 85.1156 L1433.92 92.0021 Q1430.8 93.4604 1427.44 94.1896 Q1424.11 94.9188 1420.35 94.9188 Q1410.1 94.9188 1404.06 88.4778 Q1398.03 82.0369 1398.03 71.0994 Q1398.03 60 1404.1 53.64 Q1410.22 47.2801 1420.83 47.2801 Q1424.28 47.2801 1427.56 48.0093 Q1430.84 48.6979 1433.92 50.1158 Z" fill="#000000" fill-rule="nonzero" fill-opacity="1" /><path clip-path="url(#clip450)" d="M1484.59 66.3599 L1484.59 93.744 L1477.14 93.744 L1477.14 66.6029 Q1477.14 60.162 1474.63 56.9618 Q1472.12 53.7616 1467.09 53.7616 Q1461.06 53.7616 1457.57 57.6099 Q1454.09 61.4583 1454.09 68.1018 L1454.09 93.744 L1446.6 93.744 L1446.6 30.7119 L1454.09 30.7119 L1454.09 55.4224 Q1456.76 51.331 1460.37 49.3056 Q1464.02 47.2801 1468.76 47.2801 Q1476.57 47.2801 1480.58 52.1412 Q1484.59 56.9618 1484.59 66.3599 Z" fill="#000000" fill-rule="nonzero" fill-opacity="1" /><path clip-path="url(#clip450)" d="M1534.78 57.0833 Q1537.58 52.0602 1541.47 49.6702 Q1545.36 47.2801 1550.62 47.2801 Q1557.71 47.2801 1561.56 52.2627 Q1565.41 57.2048 1565.41 66.3599 L1565.41 93.744 L1557.92 93.744 L1557.92 66.6029 Q1557.92 60.081 1555.61 56.9213 Q1553.3 53.7616 1548.56 53.7616 Q1542.77 53.7616 1539.4 57.6099 Q1536.04 61.4583 1536.04 68.1018 L1536.04 93.744 L1528.55 93.744 L1528.55 66.6029 Q1528.55 60.0405 1526.24 56.9213 Q1523.93 53.7616 1519.11 53.7616 Q1513.4 53.7616 1510.03 57.6504 Q1506.67 61.4988 1506.67 68.1018 L1506.67 93.744 L1499.18 93.744 L1499.18 48.3739 L1506.67 48.3739 L1506.67 55.4224 Q1509.22 51.25 1512.79 49.2651 Q1516.35 47.2801 1521.25 47.2801 Q1526.2 47.2801 1529.64 49.7917 Q1533.12 52.3032 1534.78 57.0833 Z" fill="#000000" fill-rule="nonzero" fill-opacity="1" /><path clip-path="url(#clip450)" d="M1600.9 70.9374 Q1591.86 70.9374 1588.38 73.0034 Q1584.89 75.0693 1584.89 80.0519 Q1584.89 84.0218 1587.49 86.3714 Q1590.12 88.6804 1594.62 88.6804 Q1600.81 88.6804 1604.54 84.3054 Q1608.31 79.8899 1608.31 72.5983 L1608.31 70.9374 L1600.9 70.9374 M1615.76 67.8587 L1615.76 93.744 L1608.31 93.744 L1608.31 86.8575 Q1605.76 90.9894 1601.95 92.9743 Q1598.14 94.9188 1592.63 94.9188 Q1585.66 94.9188 1581.53 91.0299 Q1577.44 87.1005 1577.44 80.5381 Q1577.44 72.8818 1582.55 68.993 Q1587.69 65.1041 1597.86 65.1041 L1608.31 65.1041 L1608.31 64.3749 Q1608.31 59.2303 1604.91 56.4352 Q1601.54 53.5995 1595.43 53.5995 Q1591.54 53.5995 1587.85 54.5312 Q1584.17 55.463 1580.76 57.3264 L1580.76 50.4398 Q1584.85 48.86 1588.7 48.0903 Q1592.55 47.2801 1596.2 47.2801 Q1606.04 47.2801 1610.9 52.3843 Q1615.76 57.4884 1615.76 67.8587 Z" fill="#000000" fill-rule="nonzero" fill-opacity="1" /><path clip-path="url(#clip450)" d="M1657.41 55.3414 Q1656.15 54.6123 1654.65 54.2882 Q1653.19 53.9236 1651.41 53.9236 Q1645.09 53.9236 1641.69 58.0555 Q1638.33 62.1469 1638.33 69.8437 L1638.33 93.744 L1630.83 93.744 L1630.83 48.3739 L1638.33 48.3739 L1638.33 55.4224 Q1640.68 51.2905 1644.44 49.3056 Q1648.21 47.2801 1653.6 47.2801 Q1654.37 47.2801 1655.3 47.4017 Q1656.23 47.4827 1657.37 47.6852 L1657.41 55.3414 Z" fill="#000000" fill-rule="nonzero" fill-opacity="1" /><path clip-path="url(#clip450)" d="M1664.94 30.7119 L1672.43 30.7119 L1672.43 67.9397 L1694.67 48.3739 L1704.19 48.3739 L1680.13 69.6006 L1705.21 93.744 L1695.48 93.744 L1672.43 71.5856 L1672.43 93.744 L1664.94 93.744 L1664.94 30.7119 Z" fill="#000000" fill-rule="nonzero" fill-opacity="1" /><path clip-path="url(#clip450)" d="M760.779 177.577 L774.147 177.577 L774.147 131.438 L759.604 134.354 L759.604 126.901 L774.066 123.984 L782.248 123.984 L782.248 177.577 L795.616 177.577 L795.616 184.464 L760.779 184.464 L760.779 177.577 Z" fill="#000000" fill-rule="nonzero" fill-opacity="1" /><path clip-path="url(#clip450)" d="M829.644 129.372 Q823.325 129.372 820.124 135.61 Q816.965 141.808 816.965 154.285 Q816.965 166.721 820.124 172.959 Q823.325 179.157 829.644 179.157 Q836.004 179.157 839.164 172.959 Q842.364 166.721 842.364 154.285 Q842.364 141.808 839.164 135.61 Q836.004 129.372 829.644 129.372 M829.644 122.89 Q839.812 122.89 845.159 130.952 Q850.547 138.972 850.547 154.285 Q850.547 169.557 845.159 177.618 Q839.812 185.639 829.644 185.639 Q819.476 185.639 814.089 177.618 Q808.741 169.557 808.741 154.285 Q808.741 138.972 814.089 130.952 Q819.476 122.89 829.644 122.89 Z" fill="#000000" fill-rule="nonzero" fill-opacity="1" /><path clip-path="url(#clip450)" d="M882.427 129.372 Q876.108 129.372 872.908 135.61 Q869.748 141.808 869.748 154.285 Q869.748 166.721 872.908 172.959 Q876.108 179.157 882.427 179.157 Q888.787 179.157 891.947 172.959 Q895.147 166.721 895.147 154.285 Q895.147 141.808 891.947 135.61 Q888.787 129.372 882.427 129.372 M882.427 122.89 Q892.595 122.89 897.942 130.952 Q903.33 138.972 903.33 154.285 Q903.33 169.557 897.942 177.618 Q892.595 185.639 882.427 185.639 Q872.259 185.639 866.872 177.618 Q861.525 169.557 861.525 154.285 Q861.525 138.972 866.872 130.952 Q872.259 122.89 882.427 122.89 Z" fill="#000000" fill-rule="nonzero" fill-opacity="1" /><path clip-path="url(#clip450)" d="M935.211 129.372 Q928.891 129.372 925.691 135.61 Q922.531 141.808 922.531 154.285 Q922.531 166.721 925.691 172.959 Q928.891 179.157 935.211 179.157 Q941.57 179.157 944.73 172.959 Q947.93 166.721 947.93 154.285 Q947.93 141.808 944.73 135.61 Q941.57 129.372 935.211 129.372 M935.211 122.89 Q945.378 122.89 950.725 130.952 Q956.113 138.972 956.113 154.285 Q956.113 169.557 950.725 177.618 Q945.378 185.639 935.211 185.639 Q925.043 185.639 919.655 177.618 Q914.308 169.557 914.308 154.285 Q914.308 138.972 919.655 130.952 Q925.043 122.89 935.211 122.89 Z" fill="#000000" fill-rule="nonzero" fill-opacity="1" /><path clip-path="url(#clip450)" d="M1033.53 157.08 L1033.53 184.464 L1026.07 184.464 L1026.07 157.323 Q1026.07 150.882 1023.56 147.682 Q1021.05 144.482 1016.03 144.482 Q1009.99 144.482 1006.51 148.33 Q1003.02 152.178 1003.02 158.822 L1003.02 184.464 L995.529 184.464 L995.529 139.094 L1003.02 139.094 L1003.02 146.142 Q1005.7 142.051 1009.3 140.026 Q1012.95 138 1017.69 138 Q1025.51 138 1029.52 142.861 Q1033.53 147.682 1033.53 157.08 Z" fill="#000000" fill-rule="nonzero" fill-opacity="1" /><path clip-path="url(#clip450)" d="M1065.97 144.32 Q1059.98 144.32 1056.49 149.019 Q1053.01 153.677 1053.01 161.819 Q1053.01 169.962 1056.45 174.661 Q1059.94 179.319 1065.97 179.319 Q1071.93 179.319 1075.41 174.62 Q1078.9 169.921 1078.9 161.819 Q1078.9 153.758 1075.41 149.059 Q1071.93 144.32 1065.97 144.32 M1065.97 138 Q1075.7 138 1081.25 144.32 Q1086.8 150.639 1086.8 161.819 Q1086.8 172.959 1081.25 179.319 Q1075.7 185.639 1065.97 185.639 Q1056.21 185.639 1050.66 179.319 Q1045.15 172.959 1045.15 161.819 Q1045.15 150.639 1050.66 144.32 Q1056.21 138 1065.97 138 Z" fill="#000000" fill-rule="nonzero" fill-opacity="1" /><path clip-path="url(#clip450)" d="M1129.01 145.98 L1129.01 121.432 L1136.46 121.432 L1136.46 184.464 L1129.01 184.464 L1129.01 177.658 Q1126.66 181.709 1123.05 183.694 Q1119.49 185.639 1114.46 185.639 Q1106.24 185.639 1101.05 179.076 Q1095.91 172.514 1095.91 161.819 Q1095.91 151.125 1101.05 144.563 Q1106.24 138 1114.46 138 Q1119.49 138 1123.05 139.985 Q1126.66 141.93 1129.01 145.98 M1103.61 161.819 Q1103.61 170.043 1106.97 174.742 Q1110.37 179.4 1116.29 179.4 Q1122.2 179.4 1125.6 174.742 Q1129.01 170.043 1129.01 161.819 Q1129.01 153.596 1125.6 148.938 Q1122.2 144.239 1116.29 144.239 Q1110.37 144.239 1106.97 148.938 Q1103.61 153.596 1103.61 161.819 Z" fill="#000000" fill-rule="nonzero" fill-opacity="1" /><path clip-path="url(#clip450)" d="M1190.62 159.916 L1190.62 163.561 L1156.35 163.561 Q1156.84 171.258 1160.97 175.309 Q1165.14 179.319 1172.55 179.319 Q1176.85 179.319 1180.86 178.266 Q1184.91 177.213 1188.88 175.106 L1188.88 182.155 Q1184.87 183.856 1180.65 184.748 Q1176.44 185.639 1172.11 185.639 Q1161.25 185.639 1154.89 179.319 Q1148.57 173 1148.57 162.225 Q1148.57 151.085 1154.57 144.563 Q1160.6 138 1170.81 138 Q1179.97 138 1185.27 143.914 Q1190.62 149.788 1190.62 159.916 M1183.17 157.728 Q1183.09 151.611 1179.72 147.965 Q1176.4 144.32 1170.89 144.32 Q1164.65 144.32 1160.89 147.844 Q1157.16 151.368 1156.59 157.769 L1183.17 157.728 Z" fill="#000000" fill-rule="nonzero" fill-opacity="1" /><path clip-path="url(#clip450)" d="M1231.78 140.431 L1231.78 147.479 Q1228.62 145.859 1225.21 145.049 Q1221.81 144.239 1218.17 144.239 Q1212.62 144.239 1209.82 145.94 Q1207.07 147.641 1207.07 151.044 Q1207.07 153.637 1209.05 155.135 Q1211.04 156.594 1217.03 157.931 L1219.58 158.498 Q1227.52 160.199 1230.85 163.318 Q1234.21 166.397 1234.21 171.947 Q1234.21 178.266 1229.18 181.952 Q1224.2 185.639 1215.45 185.639 Q1211.81 185.639 1207.84 184.91 Q1203.91 184.221 1199.53 182.803 L1199.53 175.106 Q1203.66 177.253 1207.67 178.347 Q1211.68 179.4 1215.61 179.4 Q1220.88 179.4 1223.72 177.618 Q1226.55 175.795 1226.55 172.514 Q1226.55 169.476 1224.49 167.855 Q1222.46 166.235 1215.53 164.736 L1212.94 164.128 Q1206.01 162.67 1202.93 159.672 Q1199.86 156.634 1199.86 151.368 Q1199.86 144.968 1204.39 141.484 Q1208.93 138 1217.27 138 Q1221.41 138 1225.05 138.608 Q1228.7 139.215 1231.78 140.431 Z" fill="#000000" fill-rule="nonzero" fill-opacity="1" /><path clip-path="url(#clip450)" d="M1247.98 174.175 L1256.53 174.175 L1256.53 181.142 L1249.88 194.105 L1244.66 194.105 L1247.98 181.142 L1247.98 174.175 Z" fill="#000000" fill-rule="nonzero" fill-opacity="1" /><path clip-path="url(#clip450)" d="M1301.29 177.577 L1314.66 177.577 L1314.66 131.438 L1300.12 134.354 L1300.12 126.901 L1314.58 123.984 L1322.76 123.984 L1322.76 177.577 L1336.13 177.577 L1336.13 184.464 L1301.29 184.464 L1301.29 177.577 Z" fill="#000000" fill-rule="nonzero" fill-opacity="1" /><path clip-path="url(#clip450)" d="M1370.16 129.372 Q1363.84 129.372 1360.64 135.61 Q1357.48 141.808 1357.48 154.285 Q1357.48 166.721 1360.64 172.959 Q1363.84 179.157 1370.16 179.157 Q1376.52 179.157 1379.68 172.959 Q1382.88 166.721 1382.88 154.285 Q1382.88 141.808 1379.68 135.61 Q1376.52 129.372 1370.16 129.372 M1370.16 122.89 Q1380.32 122.89 1385.67 130.952 Q1391.06 138.972 1391.06 154.285 Q1391.06 169.557 1385.67 177.618 Q1380.32 185.639 1370.16 185.639 Q1359.99 185.639 1354.6 177.618 Q1349.25 169.557 1349.25 154.285 Q1349.25 138.972 1354.6 130.952 Q1359.99 122.89 1370.16 122.89 Z" fill="#000000" fill-rule="nonzero" fill-opacity="1" /><path clip-path="url(#clip450)" d="M1422.94 129.372 Q1416.62 129.372 1413.42 135.61 Q1410.26 141.808 1410.26 154.285 Q1410.26 166.721 1413.42 172.959 Q1416.62 179.157 1422.94 179.157 Q1429.3 179.157 1432.46 172.959 Q1435.66 166.721 1435.66 154.285 Q1435.66 141.808 1432.46 135.61 Q1429.3 129.372 1422.94 129.372 M1422.94 122.89 Q1433.11 122.89 1438.45 130.952 Q1443.84 138.972 1443.84 154.285 Q1443.84 169.557 1438.45 177.618 Q1433.11 185.639 1422.94 185.639 Q1412.77 185.639 1407.38 177.618 Q1402.04 169.557 1402.04 154.285 Q1402.04 138.972 1407.38 130.952 Q1412.77 122.89 1422.94 122.89 Z" fill="#000000" fill-rule="nonzero" fill-opacity="1" /><path clip-path="url(#clip450)" d="M1475.72 129.372 Q1469.4 129.372 1466.2 135.61 Q1463.04 141.808 1463.04 154.285 Q1463.04 166.721 1466.2 172.959 Q1469.4 179.157 1475.72 179.157 Q1482.08 179.157 1485.24 172.959 Q1488.44 166.721 1488.44 154.285 Q1488.44 141.808 1485.24 135.61 Q1482.08 129.372 1475.72 129.372 M1475.72 122.89 Q1485.89 122.89 1491.24 130.952 Q1496.63 138.972 1496.63 154.285 Q1496.63 169.557 1491.24 177.618 Q1485.89 185.639 1475.72 185.639 Q1465.55 185.639 1460.17 177.618 Q1454.82 169.557 1454.82 154.285 Q1454.82 138.972 1460.17 130.952 Q1465.55 122.89 1475.72 122.89 Z" fill="#000000" fill-rule="nonzero" fill-opacity="1" /><path clip-path="url(#clip450)" d="M1565.25 140.431 L1565.25 147.479 Q1562.09 145.859 1558.69 145.049 Q1555.28 144.239 1551.64 144.239 Q1546.09 144.239 1543.29 145.94 Q1540.54 147.641 1540.54 151.044 Q1540.54 153.637 1542.52 155.135 Q1544.51 156.594 1550.5 157.931 L1553.05 158.498 Q1560.99 160.199 1564.32 163.318 Q1567.68 166.397 1567.68 171.947 Q1567.68 178.266 1562.66 181.952 Q1557.67 185.639 1548.92 185.639 Q1545.28 185.639 1541.31 184.91 Q1537.38 184.221 1533 182.803 L1533 175.106 Q1537.13 177.253 1541.14 178.347 Q1545.16 179.4 1549.08 179.4 Q1554.35 179.4 1557.19 177.618 Q1560.02 175.795 1560.02 172.514 Q1560.02 169.476 1557.96 167.855 Q1555.93 166.235 1549 164.736 L1546.41 164.128 Q1539.48 162.67 1536.41 159.672 Q1533.33 156.634 1533.33 151.368 Q1533.33 144.968 1537.86 141.484 Q1542.4 138 1550.75 138 Q1554.88 138 1558.52 138.608 Q1562.17 139.215 1565.25 140.431 Z" fill="#000000" fill-rule="nonzero" fill-opacity="1" /><path clip-path="url(#clip450)" d="M1597.13 144.32 Q1591.13 144.32 1587.65 149.019 Q1584.17 153.677 1584.17 161.819 Q1584.17 169.962 1587.61 174.661 Q1591.09 179.319 1597.13 179.319 Q1603.08 179.319 1606.57 174.62 Q1610.05 169.921 1610.05 161.819 Q1610.05 153.758 1606.57 149.059 Q1603.08 144.32 1597.13 144.32 M1597.13 138 Q1606.85 138 1612.4 144.32 Q1617.95 150.639 1617.95 161.819 Q1617.95 172.959 1612.4 179.319 Q1606.85 185.639 1597.13 185.639 Q1587.37 185.639 1581.82 179.319 Q1576.31 172.959 1576.31 161.819 Q1576.31 150.639 1581.82 144.32 Q1587.37 138 1597.13 138 Z" fill="#000000" fill-rule="nonzero" fill-opacity="1" /><path clip-path="url(#clip450)" d="M1629.54 166.559 L1629.54 139.094 L1636.99 139.094 L1636.99 166.275 Q1636.99 172.716 1639.5 175.957 Q1642.01 179.157 1647.04 179.157 Q1653.07 179.157 1656.56 175.309 Q1660.08 171.461 1660.08 164.817 L1660.08 139.094 L1667.53 139.094 L1667.53 184.464 L1660.08 184.464 L1660.08 177.496 Q1657.37 181.628 1653.76 183.654 Q1650.2 185.639 1645.46 185.639 Q1637.64 185.639 1633.59 180.778 Q1629.54 175.917 1629.54 166.559 M1648.29 138 L1648.29 138 Z" fill="#000000" fill-rule="nonzero" fill-opacity="1" /><path clip-path="url(#clip450)" d="M1709.18 146.061 Q1707.92 145.332 1706.42 145.008 Q1704.96 144.644 1703.18 144.644 Q1696.86 144.644 1693.46 148.776 Q1690.1 152.867 1690.1 160.564 L1690.1 184.464 L1682.6 184.464 L1682.6 139.094 L1690.1 139.094 L1690.1 146.142 Q1692.45 142.011 1696.21 140.026 Q1699.98 138 1705.37 138 Q1706.14 138 1707.07 138.122 Q1708 138.203 1709.14 138.405 L1709.18 146.061 Z" fill="#000000" fill-rule="nonzero" fill-opacity="1" /><path clip-path="url(#clip450)" d="M1747.82 140.836 L1747.82 147.803 Q1744.66 146.061 1741.46 145.211 Q1738.3 144.32 1735.06 144.32 Q1727.81 144.32 1723.8 148.938 Q1719.79 153.515 1719.79 161.819 Q1719.79 170.124 1723.8 174.742 Q1727.81 179.319 1735.06 179.319 Q1738.3 179.319 1741.46 178.469 Q1744.66 177.577 1747.82 175.836 L1747.82 182.722 Q1744.7 184.18 1741.34 184.91 Q1738.02 185.639 1734.25 185.639 Q1724 185.639 1717.97 179.198 Q1711.93 172.757 1711.93 161.819 Q1711.93 150.72 1718.01 144.36 Q1724.12 138 1734.74 138 Q1738.18 138 1741.46 138.729 Q1744.74 139.418 1747.82 140.836 Z" fill="#000000" fill-rule="nonzero" fill-opacity="1" /><path clip-path="url(#clip450)" d="M1799.59 159.916 L1799.59 163.561 L1765.32 163.561 Q1765.81 171.258 1769.94 175.309 Q1774.11 179.319 1781.53 179.319 Q1785.82 179.319 1789.83 178.266 Q1793.88 177.213 1797.85 175.106 L1797.85 182.155 Q1793.84 183.856 1789.63 184.748 Q1785.41 185.639 1781.08 185.639 Q1770.22 185.639 1763.86 179.319 Q1757.54 173 1757.54 162.225 Q1757.54 151.085 1763.54 144.563 Q1769.58 138 1779.78 138 Q1788.94 138 1794.25 143.914 Q1799.59 149.788 1799.59 159.916 M1792.14 157.728 Q1792.06 151.611 1788.7 147.965 Q1785.37 144.32 1779.86 144.32 Q1773.63 144.32 1769.86 147.844 Q1766.13 151.368 1765.56 157.769 L1792.14 157.728 Z" fill="#000000" fill-rule="nonzero" fill-opacity="1" /><path clip-path="url(#clip450)" d="M1840.75 140.431 L1840.75 147.479 Q1837.59 145.859 1834.19 145.049 Q1830.78 144.239 1827.14 144.239 Q1821.59 144.239 1818.79 145.94 Q1816.04 147.641 1816.04 151.044 Q1816.04 153.637 1818.02 155.135 Q1820.01 156.594 1826 157.931 L1828.56 158.498 Q1836.5 160.199 1839.82 163.318 Q1843.18 166.397 1843.18 171.947 Q1843.18 178.266 1838.16 181.952 Q1833.17 185.639 1824.42 185.639 Q1820.78 185.639 1816.81 184.91 Q1812.88 184.221 1808.5 182.803 L1808.5 175.106 Q1812.64 177.253 1816.65 178.347 Q1820.66 179.4 1824.59 179.4 Q1829.85 179.4 1832.69 177.618 Q1835.52 175.795 1835.52 172.514 Q1835.52 169.476 1833.46 167.855 Q1831.43 166.235 1824.51 164.736 L1821.91 164.128 Q1814.99 162.67 1811.91 159.672 Q1808.83 156.634 1808.83 151.368 Q1808.83 144.968 1813.37 141.484 Q1817.9 138 1826.25 138 Q1830.38 138 1834.03 138.608 Q1837.67 139.215 1840.75 140.431 Z" fill="#000000" fill-rule="nonzero" fill-opacity="1" /><polyline clip-path="url(#clip452)" style="stroke:#008000; stroke-linecap:round; stroke-linejoin:round; stroke-width:4; stroke-opacity:1; fill:none" points="309.539,905.736 805.466,1375.42 1301.39,1414.98 1797.32,1447.94 2293.24,1449.58 "/>
<polyline clip-path="url(#clip452)" style="stroke:#800080; stroke-linecap:round; stroke-linejoin:round; stroke-width:4; stroke-opacity:1; fill:none" points="309.539,811.798 805.466,828.278 1301.39,1151.29 1797.32,1281.49 2293.24,1311.15 "/>
<polyline clip-path="url(#clip452)" style="stroke:#0000ff; stroke-linecap:round; stroke-linejoin:round; stroke-width:4; stroke-opacity:1; fill:none" points="805.466,1236.99 1301.39,1354 1797.32,1416.62 2293.24,1421.57 "/>
<polyline clip-path="url(#clip452)" style="stroke:#ffa500; stroke-linecap:round; stroke-linejoin:round; stroke-width:4; stroke-opacity:1; fill:none" points="309.539,220.815 805.466,1100.2 1301.39,1289.89 1797.32,1377.14 2293.24,1397.08 "/>
<path clip-path="url(#clip450)" d="M1909.82 486.569 L2282.66 486.569 L2282.66 227.369 L1909.82 227.369  Z" fill="#ffffff" fill-rule="evenodd" fill-opacity="1"/>
<polyline clip-path="url(#clip450)" style="stroke:#000000; stroke-linecap:round; stroke-linejoin:round; stroke-width:4; stroke-opacity:1; fill:none" points="1909.82,486.569 2282.66,486.569 2282.66,227.369 1909.82,227.369 1909.82,486.569 "/>
<polyline clip-path="url(#clip450)" style="stroke:#008000; stroke-linecap:round; stroke-linejoin:round; stroke-width:4; stroke-opacity:1; fill:none" points="1933.19,279.209 2073.37,279.209 "/>
<path clip-path="url(#clip450)" d="M2103.84 261.929 L2108.52 261.929 L2108.52 294.081 Q2108.52 300.331 2106.13 303.155 Q2103.77 305.979 2098.52 305.979 L2096.73 305.979 L2096.73 302.044 L2098.19 302.044 Q2101.29 302.044 2102.57 300.308 Q2103.84 298.572 2103.84 294.081 L2103.84 261.929 Z" fill="#000000" fill-rule="nonzero" fill-opacity="1" /><path clip-path="url(#clip450)" d="M2117.2 286.257 L2117.2 270.563 L2121.45 270.563 L2121.45 286.095 Q2121.45 289.776 2122.89 291.628 Q2124.33 293.456 2127.2 293.456 Q2130.64 293.456 2132.64 291.257 Q2134.65 289.058 2134.65 285.262 L2134.65 270.563 L2138.91 270.563 L2138.91 296.489 L2134.65 296.489 L2134.65 292.507 Q2133.1 294.868 2131.04 296.026 Q2129 297.16 2126.29 297.16 Q2121.83 297.16 2119.51 294.382 Q2117.2 291.604 2117.2 286.257 M2127.91 269.938 L2127.91 269.938 Z" fill="#000000" fill-rule="nonzero" fill-opacity="1" /><path clip-path="url(#clip450)" d="M2147.68 260.47 L2151.94 260.47 L2151.94 296.489 L2147.68 296.489 L2147.68 260.47 Z" fill="#000000" fill-rule="nonzero" fill-opacity="1" /><path clip-path="url(#clip450)" d="M2160.85 270.563 L2165.11 270.563 L2165.11 296.489 L2160.85 296.489 L2160.85 270.563 M2160.85 260.47 L2165.11 260.47 L2165.11 265.864 L2160.85 265.864 L2160.85 260.47 Z" fill="#000000" fill-rule="nonzero" fill-opacity="1" /><path clip-path="url(#clip450)" d="M2185.81 283.456 Q2180.64 283.456 2178.65 284.637 Q2176.66 285.817 2176.66 288.665 Q2176.66 290.933 2178.14 292.276 Q2179.65 293.595 2182.22 293.595 Q2185.76 293.595 2187.89 291.095 Q2190.04 288.572 2190.04 284.405 L2190.04 283.456 L2185.81 283.456 M2194.3 281.697 L2194.3 296.489 L2190.04 296.489 L2190.04 292.553 Q2188.58 294.915 2186.41 296.049 Q2184.23 297.16 2181.08 297.16 Q2177.1 297.16 2174.74 294.938 Q2172.4 292.692 2172.4 288.942 Q2172.4 284.567 2175.32 282.345 Q2178.26 280.123 2184.07 280.123 L2190.04 280.123 L2190.04 279.706 Q2190.04 276.767 2188.1 275.169 Q2186.18 273.549 2182.68 273.549 Q2180.46 273.549 2178.35 274.081 Q2176.25 274.614 2174.3 275.679 L2174.3 271.743 Q2176.64 270.841 2178.84 270.401 Q2181.04 269.938 2183.12 269.938 Q2188.75 269.938 2191.52 272.855 Q2194.3 275.771 2194.3 281.697 Z" fill="#000000" fill-rule="nonzero" fill-opacity="1" /><polyline clip-path="url(#clip450)" style="stroke:#800080; stroke-linecap:round; stroke-linejoin:round; stroke-width:4; stroke-opacity:1; fill:none" points="1933.19,331.049 2073.37,331.049 "/>
<path clip-path="url(#clip450)" d="M2096.73 313.769 L2116.59 313.769 L2116.59 317.704 L2101.41 317.704 L2101.41 327.889 L2115.11 327.889 L2115.11 331.824 L2101.41 331.824 L2101.41 348.329 L2096.73 348.329 L2096.73 313.769 Z" fill="#000000" fill-rule="nonzero" fill-opacity="1" /><path clip-path="url(#clip450)" d="M2132.17 325.389 Q2128.75 325.389 2126.76 328.074 Q2124.77 330.736 2124.77 335.389 Q2124.77 340.042 2126.73 342.727 Q2128.72 345.389 2132.17 345.389 Q2135.58 345.389 2137.57 342.704 Q2139.56 340.019 2139.56 335.389 Q2139.56 330.782 2137.57 328.097 Q2135.58 325.389 2132.17 325.389 M2132.17 321.778 Q2137.73 321.778 2140.9 325.389 Q2144.07 329 2144.07 335.389 Q2144.07 341.755 2140.9 345.389 Q2137.73 349 2132.17 349 Q2126.59 349 2123.42 345.389 Q2120.27 341.755 2120.27 335.389 Q2120.27 329 2123.42 325.389 Q2126.59 321.778 2132.17 321.778 Z" fill="#000000" fill-rule="nonzero" fill-opacity="1" /><path clip-path="url(#clip450)" d="M2166.15 326.384 Q2165.44 325.968 2164.58 325.782 Q2163.75 325.574 2162.73 325.574 Q2159.12 325.574 2157.17 327.935 Q2155.25 330.273 2155.25 334.671 L2155.25 348.329 L2150.97 348.329 L2150.97 322.403 L2155.25 322.403 L2155.25 326.431 Q2156.59 324.07 2158.75 322.935 Q2160.9 321.778 2163.98 321.778 Q2164.42 321.778 2164.95 321.847 Q2165.48 321.894 2166.13 322.009 L2166.15 326.384 Z" fill="#000000" fill-rule="nonzero" fill-opacity="1" /><path clip-path="url(#clip450)" d="M2174.83 315.042 L2174.83 322.403 L2183.61 322.403 L2183.61 325.713 L2174.83 325.713 L2174.83 339.787 Q2174.83 342.958 2175.69 343.861 Q2176.57 344.764 2179.23 344.764 L2183.61 344.764 L2183.61 348.329 L2179.23 348.329 Q2174.3 348.329 2172.43 346.5 Q2170.55 344.648 2170.55 339.787 L2170.55 325.713 L2167.43 325.713 L2167.43 322.403 L2170.55 322.403 L2170.55 315.042 L2174.83 315.042 Z" fill="#000000" fill-rule="nonzero" fill-opacity="1" /><path clip-path="url(#clip450)" d="M2204.23 326.384 Q2203.51 325.968 2202.66 325.782 Q2201.82 325.574 2200.81 325.574 Q2197.2 325.574 2195.25 327.935 Q2193.33 330.273 2193.33 334.671 L2193.33 348.329 L2189.05 348.329 L2189.05 322.403 L2193.33 322.403 L2193.33 326.431 Q2194.67 324.07 2196.82 322.935 Q2198.98 321.778 2202.06 321.778 Q2202.5 321.778 2203.03 321.847 Q2203.56 321.894 2204.21 322.009 L2204.23 326.384 Z" fill="#000000" fill-rule="nonzero" fill-opacity="1" /><path clip-path="url(#clip450)" d="M2220.48 335.296 Q2215.32 335.296 2213.33 336.477 Q2211.34 337.657 2211.34 340.505 Q2211.34 342.773 2212.82 344.116 Q2214.32 345.435 2216.89 345.435 Q2220.44 345.435 2222.57 342.935 Q2224.72 340.412 2224.72 336.245 L2224.72 335.296 L2220.48 335.296 M2228.98 333.537 L2228.98 348.329 L2224.72 348.329 L2224.72 344.393 Q2223.26 346.755 2221.08 347.889 Q2218.91 349 2215.76 349 Q2211.78 349 2209.42 346.778 Q2207.08 344.532 2207.08 340.782 Q2207.08 336.407 2210 334.185 Q2212.94 331.963 2218.75 331.963 L2224.72 331.963 L2224.72 331.546 Q2224.72 328.607 2222.77 327.009 Q2220.85 325.389 2217.36 325.389 Q2215.13 325.389 2213.03 325.921 Q2210.92 326.454 2208.98 327.519 L2208.98 323.583 Q2211.32 322.681 2213.51 322.241 Q2215.71 321.778 2217.8 321.778 Q2223.42 321.778 2226.2 324.695 Q2228.98 327.611 2228.98 333.537 Z" fill="#000000" fill-rule="nonzero" fill-opacity="1" /><path clip-path="url(#clip450)" d="M2259.3 332.681 L2259.3 348.329 L2255.04 348.329 L2255.04 332.819 Q2255.04 329.139 2253.61 327.31 Q2252.17 325.482 2249.3 325.482 Q2245.85 325.482 2243.86 327.681 Q2241.87 329.88 2241.87 333.676 L2241.87 348.329 L2237.59 348.329 L2237.59 322.403 L2241.87 322.403 L2241.87 326.431 Q2243.4 324.093 2245.46 322.935 Q2247.54 321.778 2250.25 321.778 Q2254.72 321.778 2257.01 324.556 Q2259.3 327.31 2259.3 332.681 Z" fill="#000000" fill-rule="nonzero" fill-opacity="1" /><polyline clip-path="url(#clip450)" style="stroke:#0000ff; stroke-linecap:round; stroke-linejoin:round; stroke-width:4; stroke-opacity:1; fill:none" points="1933.19,382.889 2073.37,382.889 "/>
<path clip-path="url(#clip450)" d="M2124.6 368.271 L2124.6 373.201 Q2122.24 371.002 2119.56 369.914 Q2116.89 368.826 2113.89 368.826 Q2107.96 368.826 2104.81 372.46 Q2101.66 376.072 2101.66 382.923 Q2101.66 389.752 2104.81 393.386 Q2107.96 396.997 2113.89 396.997 Q2116.89 396.997 2119.56 395.909 Q2122.24 394.821 2124.6 392.622 L2124.6 397.507 Q2122.15 399.173 2119.39 400.007 Q2116.66 400.84 2113.61 400.84 Q2105.76 400.84 2101.25 396.048 Q2096.73 391.234 2096.73 382.923 Q2096.73 374.59 2101.25 369.798 Q2105.76 364.984 2113.61 364.984 Q2116.71 364.984 2119.44 365.817 Q2122.2 366.627 2124.6 368.271 Z" fill="#000000" fill-rule="nonzero" fill-opacity="1" /><polyline clip-path="url(#clip450)" style="stroke:#ffa500; stroke-linecap:round; stroke-linejoin:round; stroke-width:4; stroke-opacity:1; fill:none" points="1933.19,434.729 2073.37,434.729 "/>
<path clip-path="url(#clip450)" d="M2101.41 421.291 L2101.41 434.277 L2107.29 434.277 Q2110.55 434.277 2112.33 432.587 Q2114.12 430.898 2114.12 427.773 Q2114.12 424.671 2112.33 422.981 Q2110.55 421.291 2107.29 421.291 L2101.41 421.291 M2096.73 417.449 L2107.29 417.449 Q2113.1 417.449 2116.06 420.088 Q2119.05 422.703 2119.05 427.773 Q2119.05 432.888 2116.06 435.504 Q2113.1 438.12 2107.29 438.12 L2101.41 438.12 L2101.41 452.009 L2096.73 452.009 L2096.73 417.449 Z" fill="#000000" fill-rule="nonzero" fill-opacity="1" /><path clip-path="url(#clip450)" d="M2135.92 454.416 Q2134.12 459.046 2132.4 460.458 Q2130.69 461.87 2127.82 461.87 L2124.42 461.87 L2124.42 458.305 L2126.92 458.305 Q2128.68 458.305 2129.65 457.472 Q2130.62 456.638 2131.8 453.536 L2132.57 451.592 L2122.08 426.083 L2126.59 426.083 L2134.7 446.361 L2142.8 426.083 L2147.31 426.083 L2135.92 454.416 Z" fill="#000000" fill-rule="nonzero" fill-opacity="1" /><path clip-path="url(#clip450)" d="M2157.4 418.722 L2157.4 426.083 L2166.18 426.083 L2166.18 429.393 L2157.4 429.393 L2157.4 443.467 Q2157.4 446.638 2158.26 447.541 Q2159.14 448.444 2161.8 448.444 L2166.18 448.444 L2166.18 452.009 L2161.8 452.009 Q2156.87 452.009 2155 450.18 Q2153.12 448.328 2153.12 443.467 L2153.12 429.393 L2150 429.393 L2150 426.083 L2153.12 426.083 L2153.12 418.722 L2157.4 418.722 Z" fill="#000000" fill-rule="nonzero" fill-opacity="1" /><path clip-path="url(#clip450)" d="M2193.33 436.361 L2193.33 452.009 L2189.07 452.009 L2189.07 436.499 Q2189.07 432.819 2187.64 430.99 Q2186.2 429.162 2183.33 429.162 Q2179.88 429.162 2177.89 431.361 Q2175.9 433.56 2175.9 437.356 L2175.9 452.009 L2171.62 452.009 L2171.62 415.99 L2175.9 415.99 L2175.9 430.111 Q2177.43 427.773 2179.49 426.615 Q2181.57 425.458 2184.28 425.458 Q2188.75 425.458 2191.04 428.236 Q2193.33 430.99 2193.33 436.361 Z" fill="#000000" fill-rule="nonzero" fill-opacity="1" /><path clip-path="url(#clip450)" d="M2211.87 429.069 Q2208.45 429.069 2206.45 431.754 Q2204.46 434.416 2204.46 439.069 Q2204.46 443.722 2206.43 446.407 Q2208.42 449.069 2211.87 449.069 Q2215.27 449.069 2217.26 446.384 Q2219.26 443.699 2219.26 439.069 Q2219.26 434.462 2217.26 431.777 Q2215.27 429.069 2211.87 429.069 M2211.87 425.458 Q2217.43 425.458 2220.6 429.069 Q2223.77 432.68 2223.77 439.069 Q2223.77 445.435 2220.6 449.069 Q2217.43 452.68 2211.87 452.68 Q2206.29 452.68 2203.12 449.069 Q2199.97 445.435 2199.97 439.069 Q2199.97 432.68 2203.12 429.069 Q2206.29 425.458 2211.87 425.458 Z" fill="#000000" fill-rule="nonzero" fill-opacity="1" /><path clip-path="url(#clip450)" d="M2252.38 436.361 L2252.38 452.009 L2248.12 452.009 L2248.12 436.499 Q2248.12 432.819 2246.69 430.99 Q2245.25 429.162 2242.38 429.162 Q2238.93 429.162 2236.94 431.361 Q2234.95 433.56 2234.95 437.356 L2234.95 452.009 L2230.67 452.009 L2230.67 426.083 L2234.95 426.083 L2234.95 430.111 Q2236.48 427.773 2238.54 426.615 Q2240.62 425.458 2243.33 425.458 Q2247.8 425.458 2250.09 428.236 Q2252.38 430.99 2252.38 436.361 Z" fill="#000000" fill-rule="nonzero" fill-opacity="1" /></svg>
