<?xml version="1.0" encoding="utf-8"?>
<svg xmlns="http://www.w3.org/2000/svg" xmlns:xlink="http://www.w3.org/1999/xlink" width="600" height="400" viewBox="0 0 2400 1600">
<defs>
  <clipPath id="clip750">
    <rect x="0" y="0" width="2400" height="1600"/>
  </clipPath>
</defs>
<path clip-path="url(#clip750)" d="M0 1600 L2400 1600 L2400 0 L0 0  Z" fill="#ffffff" fill-rule="evenodd" fill-opacity="1"/>
<defs>
  <clipPath id="clip751">
    <rect x="480" y="0" width="1681" height="1600"/>
  </clipPath>
</defs>
<path clip-path="url(#clip750)" d="M205.121 1486.45 L2352.76 1486.45 L2352.76 183.952 L205.121 183.952  Z" fill="#ffffff" fill-rule="evenodd" fill-opacity="1"/>
<defs>
  <clipPath id="clip752">
    <rect x="205" y="183" width="2149" height="1303"/>
  </clipPath>
</defs>
<polyline clip-path="url(#clip752)" style="stroke:#000000; stroke-linecap:round; stroke-linejoin:round; stroke-width:2; stroke-opacity:0.1; fill:none" points="265.903,1486.45 265.903,183.952 "/>
<polyline clip-path="url(#clip752)" style="stroke:#000000; stroke-linecap:round; stroke-linejoin:round; stroke-width:2; stroke-opacity:0.1; fill:none" points="671.117,1486.45 671.117,183.952 "/>
<polyline clip-path="url(#clip752)" style="stroke:#000000; stroke-linecap:round; stroke-linejoin:round; stroke-width:2; stroke-opacity:0.1; fill:none" points="1076.33,1486.45 1076.33,183.952 "/>
<polyline clip-path="url(#clip752)" style="stroke:#000000; stroke-linecap:round; stroke-linejoin:round; stroke-width:2; stroke-opacity:0.1; fill:none" points="1481.55,1486.45 1481.55,183.952 "/>
<polyline clip-path="url(#clip752)" style="stroke:#000000; stroke-linecap:round; stroke-linejoin:round; stroke-width:2; stroke-opacity:0.1; fill:none" points="1886.76,1486.45 1886.76,183.952 "/>
<polyline clip-path="url(#clip752)" style="stroke:#000000; stroke-linecap:round; stroke-linejoin:round; stroke-width:2; stroke-opacity:0.1; fill:none" points="2291.97,1486.45 2291.97,183.952 "/>
<polyline clip-path="url(#clip750)" style="stroke:#000000; stroke-linecap:round; stroke-linejoin:round; stroke-width:4; stroke-opacity:1; fill:none" points="205.121,1486.45 2352.76,1486.45 "/>
<polyline clip-path="url(#clip750)" style="stroke:#000000; stroke-linecap:round; stroke-linejoin:round; stroke-width:4; stroke-opacity:1; fill:none" points="265.903,1486.45 265.903,1467.55 "/>
<polyline clip-path="url(#clip750)" style="stroke:#000000; stroke-linecap:round; stroke-linejoin:round; stroke-width:4; stroke-opacity:1; fill:none" points="671.117,1486.45 671.117,1467.55 "/>
<polyline clip-path="url(#clip750)" style="stroke:#000000; stroke-linecap:round; stroke-linejoin:round; stroke-width:4; stroke-opacity:1; fill:none" points="1076.33,1486.45 1076.33,1467.55 "/>
<polyline clip-path="url(#clip750)" style="stroke:#000000; stroke-linecap:round; stroke-linejoin:round; stroke-width:4; stroke-opacity:1; fill:none" points="1481.55,1486.45 1481.55,1467.55 "/>
<polyline clip-path="url(#clip750)" style="stroke:#000000; stroke-linecap:round; stroke-linejoin:round; stroke-width:4; stroke-opacity:1; fill:none" points="1886.76,1486.45 1886.76,1467.55 "/>
<polyline clip-path="url(#clip750)" style="stroke:#000000; stroke-linecap:round; stroke-linejoin:round; stroke-width:4; stroke-opacity:1; fill:none" points="2291.97,1486.45 2291.97,1467.55 "/>
<path clip-path="url(#clip750)" d="M200.197 1514.29 L204.873 1514.29 L204.873 1544.91 L221.702 1544.91 L221.702 1548.85 L200.197 1548.85 L200.197 1514.29 Z" fill="#000000" fill-rule="nonzero" fill-opacity="1" /><path clip-path="url(#clip750)" d="M235.637 1525.91 Q232.211 1525.91 230.22 1528.59 Q228.23 1531.26 228.23 1535.91 Q228.23 1540.56 230.197 1543.25 Q232.188 1545.91 235.637 1545.91 Q239.04 1545.91 241.031 1543.22 Q243.021 1540.54 243.021 1535.91 Q243.021 1531.3 241.031 1528.62 Q239.04 1525.91 235.637 1525.91 M235.637 1522.3 Q241.193 1522.3 244.364 1525.91 Q247.535 1529.52 247.535 1535.91 Q247.535 1542.27 244.364 1545.91 Q241.193 1549.52 235.637 1549.52 Q230.058 1549.52 226.887 1545.91 Q223.739 1542.27 223.739 1535.91 Q223.739 1529.52 226.887 1525.91 Q230.058 1522.3 235.637 1522.3 Z" fill="#000000" fill-rule="nonzero" fill-opacity="1" /><path clip-path="url(#clip750)" d="M264.642 1525.91 Q261.216 1525.91 259.225 1528.59 Q257.234 1531.26 257.234 1535.91 Q257.234 1540.56 259.202 1543.25 Q261.192 1545.91 264.642 1545.91 Q268.044 1545.91 270.035 1543.22 Q272.026 1540.54 272.026 1535.91 Q272.026 1531.3 270.035 1528.62 Q268.044 1525.91 264.642 1525.91 M264.642 1522.3 Q270.197 1522.3 273.368 1525.91 Q276.54 1529.52 276.54 1535.91 Q276.54 1542.27 273.368 1545.91 Q270.197 1549.52 264.642 1549.52 Q259.063 1549.52 255.892 1545.91 Q252.743 1542.27 252.743 1535.91 Q252.743 1529.52 255.892 1525.91 Q259.063 1522.3 264.642 1522.3 Z" fill="#000000" fill-rule="nonzero" fill-opacity="1" /><path clip-path="url(#clip750)" d="M287.72 1544.96 L287.72 1558.71 L283.438 1558.71 L283.438 1522.92 L287.72 1522.92 L287.72 1526.86 Q289.063 1524.54 291.1 1523.43 Q293.16 1522.3 296.007 1522.3 Q300.729 1522.3 303.669 1526.05 Q306.632 1529.8 306.632 1535.91 Q306.632 1542.02 303.669 1545.77 Q300.729 1549.52 296.007 1549.52 Q293.16 1549.52 291.1 1548.41 Q289.063 1547.27 287.72 1544.96 M302.211 1535.91 Q302.211 1531.21 300.266 1528.55 Q298.345 1525.86 294.965 1525.86 Q291.586 1525.86 289.641 1528.55 Q287.72 1531.21 287.72 1535.91 Q287.72 1540.61 289.641 1543.29 Q291.586 1545.95 294.965 1545.95 Q298.345 1545.95 300.266 1543.29 Q302.211 1540.61 302.211 1535.91 Z" fill="#000000" fill-rule="nonzero" fill-opacity="1" /><path clip-path="url(#clip750)" d="M330.22 1523.69 L330.22 1527.71 Q328.414 1526.79 326.47 1526.32 Q324.525 1525.86 322.442 1525.86 Q319.271 1525.86 317.674 1526.83 Q316.1 1527.81 316.1 1529.75 Q316.1 1531.23 317.234 1532.09 Q318.368 1532.92 321.794 1533.69 L323.252 1534.01 Q327.789 1534.98 329.687 1536.76 Q331.609 1538.52 331.609 1541.7 Q331.609 1545.31 328.738 1547.41 Q325.891 1549.52 320.891 1549.52 Q318.808 1549.52 316.539 1549.1 Q314.294 1548.71 311.794 1547.9 L311.794 1543.5 Q314.155 1544.73 316.447 1545.35 Q318.738 1545.95 320.984 1545.95 Q323.993 1545.95 325.613 1544.94 Q327.234 1543.89 327.234 1542.02 Q327.234 1540.28 326.053 1539.36 Q324.896 1538.43 320.938 1537.57 L319.456 1537.23 Q315.498 1536.39 313.738 1534.68 Q311.979 1532.95 311.979 1529.94 Q311.979 1526.28 314.572 1524.29 Q317.164 1522.3 321.933 1522.3 Q324.294 1522.3 326.377 1522.64 Q328.461 1522.99 330.22 1523.69 Z" fill="#000000" fill-rule="nonzero" fill-opacity="1" /><path clip-path="url(#clip750)" d="M562.46 1548.85 L549.266 1514.29 L554.15 1514.29 L565.099 1543.38 L576.071 1514.29 L580.933 1514.29 L567.761 1548.85 L562.46 1548.85 Z" fill="#000000" fill-rule="nonzero" fill-opacity="1" /><path clip-path="url(#clip750)" d="M604.289 1534.82 L604.289 1536.9 L584.706 1536.9 Q584.983 1541.3 587.345 1543.62 Q589.729 1545.91 593.965 1545.91 Q596.419 1545.91 598.71 1545.31 Q601.025 1544.7 603.294 1543.5 L603.294 1547.53 Q601.002 1548.5 598.594 1549.01 Q596.187 1549.52 593.71 1549.52 Q587.507 1549.52 583.872 1545.91 Q580.261 1542.3 580.261 1536.14 Q580.261 1529.77 583.687 1526.05 Q587.136 1522.3 592.97 1522.3 Q598.201 1522.3 601.233 1525.68 Q604.289 1529.03 604.289 1534.82 M600.03 1533.57 Q599.983 1530.07 598.062 1527.99 Q596.164 1525.91 593.016 1525.91 Q589.451 1525.91 587.298 1527.92 Q585.169 1529.94 584.845 1533.59 L600.03 1533.57 Z" fill="#000000" fill-rule="nonzero" fill-opacity="1" /><path clip-path="url(#clip750)" d="M629.937 1523.92 L629.937 1527.9 Q628.131 1526.9 626.303 1526.42 Q624.497 1525.91 622.645 1525.91 Q618.502 1525.91 616.21 1528.55 Q613.918 1531.16 613.918 1535.91 Q613.918 1540.65 616.21 1543.29 Q618.502 1545.91 622.645 1545.91 Q624.497 1545.91 626.303 1545.42 Q628.131 1544.91 629.937 1543.92 L629.937 1547.85 Q628.155 1548.69 626.233 1549.1 Q624.335 1549.52 622.182 1549.52 Q616.326 1549.52 612.877 1545.84 Q609.428 1542.16 609.428 1535.91 Q609.428 1529.57 612.9 1525.93 Q616.395 1522.3 622.46 1522.3 Q624.428 1522.3 626.303 1522.71 Q628.178 1523.11 629.937 1523.92 Z" fill="#000000" fill-rule="nonzero" fill-opacity="1" /><path clip-path="url(#clip750)" d="M641.557 1515.56 L641.557 1522.92 L650.33 1522.92 L650.33 1526.23 L641.557 1526.23 L641.557 1540.31 Q641.557 1543.48 642.414 1544.38 Q643.293 1545.28 645.955 1545.28 L650.33 1545.28 L650.33 1548.85 L645.955 1548.85 Q641.025 1548.85 639.15 1547.02 Q637.275 1545.17 637.275 1540.31 L637.275 1526.23 L634.15 1526.23 L634.15 1522.92 L637.275 1522.92 L637.275 1515.56 L641.557 1515.56 Z" fill="#000000" fill-rule="nonzero" fill-opacity="1" /><path clip-path="url(#clip750)" d="M665.978 1525.91 Q662.552 1525.91 660.562 1528.59 Q658.571 1531.26 658.571 1535.91 Q658.571 1540.56 660.539 1543.25 Q662.529 1545.91 665.978 1545.91 Q669.381 1545.91 671.372 1543.22 Q673.363 1540.54 673.363 1535.91 Q673.363 1531.3 671.372 1528.62 Q669.381 1525.91 665.978 1525.91 M665.978 1522.3 Q671.534 1522.3 674.705 1525.91 Q677.876 1529.52 677.876 1535.91 Q677.876 1542.27 674.705 1545.91 Q671.534 1549.52 665.978 1549.52 Q660.4 1549.52 657.228 1545.91 Q654.08 1542.27 654.08 1535.91 Q654.08 1529.52 657.228 1525.91 Q660.4 1522.3 665.978 1522.3 Z" fill="#000000" fill-rule="nonzero" fill-opacity="1" /><path clip-path="url(#clip750)" d="M699.96 1526.9 Q699.242 1526.49 698.386 1526.3 Q697.552 1526.09 696.534 1526.09 Q692.923 1526.09 690.978 1528.45 Q689.057 1530.79 689.057 1535.19 L689.057 1548.85 L684.775 1548.85 L684.775 1522.92 L689.057 1522.92 L689.057 1526.95 Q690.4 1524.59 692.552 1523.45 Q694.705 1522.3 697.784 1522.3 Q698.224 1522.3 698.756 1522.37 Q699.288 1522.41 699.937 1522.53 L699.96 1526.9 Z" fill="#000000" fill-rule="nonzero" fill-opacity="1" /><path clip-path="url(#clip750)" d="M704.427 1522.92 L708.686 1522.92 L708.686 1548.85 L704.427 1548.85 L704.427 1522.92 M704.427 1512.83 L708.686 1512.83 L708.686 1518.22 L704.427 1518.22 L704.427 1512.83 Z" fill="#000000" fill-rule="nonzero" fill-opacity="1" /><path clip-path="url(#clip750)" d="M715.747 1522.92 L735.978 1522.92 L735.978 1526.81 L719.96 1545.45 L735.978 1545.45 L735.978 1548.85 L715.168 1548.85 L715.168 1544.96 L731.186 1526.32 L715.747 1526.32 L715.747 1522.92 Z" fill="#000000" fill-rule="nonzero" fill-opacity="1" /><path clip-path="url(#clip750)" d="M764.658 1534.82 L764.658 1536.9 L745.075 1536.9 Q745.353 1541.3 747.714 1543.62 Q750.098 1545.91 754.334 1545.91 Q756.788 1545.91 759.08 1545.31 Q761.395 1544.7 763.663 1543.5 L763.663 1547.53 Q761.371 1548.5 758.964 1549.01 Q756.557 1549.52 754.08 1549.52 Q747.876 1549.52 744.242 1545.91 Q740.631 1542.3 740.631 1536.14 Q740.631 1529.77 744.057 1526.05 Q747.506 1522.3 753.339 1522.3 Q758.57 1522.3 761.603 1525.68 Q764.658 1529.03 764.658 1534.82 M760.399 1533.57 Q760.353 1530.07 758.432 1527.99 Q756.533 1525.91 753.385 1525.91 Q749.821 1525.91 747.668 1527.92 Q745.538 1529.94 745.214 1533.59 L760.399 1533.57 Z" fill="#000000" fill-rule="nonzero" fill-opacity="1" /><path clip-path="url(#clip750)" d="M788.709 1526.86 L788.709 1512.83 L792.968 1512.83 L792.968 1548.85 L788.709 1548.85 L788.709 1544.96 Q787.367 1547.27 785.306 1548.41 Q783.269 1549.52 780.399 1549.52 Q775.7 1549.52 772.737 1545.77 Q769.797 1542.02 769.797 1535.91 Q769.797 1529.8 772.737 1526.05 Q775.7 1522.3 780.399 1522.3 Q783.269 1522.3 785.306 1523.43 Q787.367 1524.54 788.709 1526.86 M774.195 1535.91 Q774.195 1540.61 776.117 1543.29 Q778.061 1545.95 781.441 1545.95 Q784.82 1545.95 786.765 1543.29 Q788.709 1540.61 788.709 1535.91 Q788.709 1531.21 786.765 1528.55 Q784.82 1525.86 781.441 1525.86 Q778.061 1525.86 776.117 1528.55 Q774.195 1531.21 774.195 1535.91 Z" fill="#000000" fill-rule="nonzero" fill-opacity="1" /><path clip-path="url(#clip750)" d="M995.394 1514.29 L1001.69 1514.29 L1017.01 1543.2 L1017.01 1514.29 L1021.55 1514.29 L1021.55 1548.85 L1015.26 1548.85 L999.931 1519.94 L999.931 1548.85 L995.394 1548.85 L995.394 1514.29 Z" fill="#000000" fill-rule="nonzero" fill-opacity="1" /><path clip-path="url(#clip750)" d="M1030.23 1538.62 L1030.23 1522.92 L1034.49 1522.92 L1034.49 1538.45 Q1034.49 1542.13 1035.93 1543.99 Q1037.36 1545.82 1040.23 1545.82 Q1043.68 1545.82 1045.67 1543.62 Q1047.69 1541.42 1047.69 1537.62 L1047.69 1522.92 L1051.94 1522.92 L1051.94 1548.85 L1047.69 1548.85 L1047.69 1544.87 Q1046.13 1547.23 1044.07 1548.38 Q1042.04 1549.52 1039.33 1549.52 Q1034.86 1549.52 1032.55 1546.74 Q1030.23 1543.96 1030.23 1538.62 M1040.95 1522.3 L1040.95 1522.3 Z" fill="#000000" fill-rule="nonzero" fill-opacity="1" /><path clip-path="url(#clip750)" d="M1080.9 1527.9 Q1082.5 1525.03 1084.72 1523.66 Q1086.94 1522.3 1089.95 1522.3 Q1094 1522.3 1096.2 1525.14 Q1098.4 1527.97 1098.4 1533.2 L1098.4 1548.85 L1094.12 1548.85 L1094.12 1533.34 Q1094.12 1529.61 1092.8 1527.81 Q1091.48 1526 1088.77 1526 Q1085.46 1526 1083.54 1528.2 Q1081.62 1530.4 1081.62 1534.2 L1081.62 1548.85 L1077.34 1548.85 L1077.34 1533.34 Q1077.34 1529.59 1076.02 1527.81 Q1074.7 1526 1071.94 1526 Q1068.68 1526 1066.76 1528.22 Q1064.84 1530.42 1064.84 1534.2 L1064.84 1548.85 L1060.56 1548.85 L1060.56 1522.92 L1064.84 1522.92 L1064.84 1526.95 Q1066.3 1524.57 1068.33 1523.43 Q1070.37 1522.3 1073.17 1522.3 Q1076 1522.3 1077.96 1523.73 Q1079.95 1525.17 1080.9 1527.9 Z" fill="#000000" fill-rule="nonzero" fill-opacity="1" /><path clip-path="url(#clip750)" d="M1125.51 1535.91 Q1125.51 1531.21 1123.56 1528.55 Q1121.64 1525.86 1118.26 1525.86 Q1114.88 1525.86 1112.94 1528.55 Q1111.02 1531.21 1111.02 1535.91 Q1111.02 1540.61 1112.94 1543.29 Q1114.88 1545.95 1118.26 1545.95 Q1121.64 1545.95 1123.56 1543.29 Q1125.51 1540.61 1125.51 1535.91 M1111.02 1526.86 Q1112.36 1524.54 1114.4 1523.43 Q1116.46 1522.3 1119.31 1522.3 Q1124.03 1522.3 1126.97 1526.05 Q1129.93 1529.8 1129.93 1535.91 Q1129.93 1542.02 1126.97 1545.77 Q1124.03 1549.52 1119.31 1549.52 Q1116.46 1549.52 1114.4 1548.41 Q1112.36 1547.27 1111.02 1544.96 L1111.02 1548.85 L1106.74 1548.85 L1106.74 1512.83 L1111.02 1512.83 L1111.02 1526.86 Z" fill="#000000" fill-rule="nonzero" fill-opacity="1" /><path clip-path="url(#clip750)" d="M1148.77 1535.82 Q1143.61 1535.82 1141.62 1537 Q1139.63 1538.18 1139.63 1541.02 Q1139.63 1543.29 1141.11 1544.63 Q1142.62 1545.95 1145.19 1545.95 Q1148.73 1545.95 1150.86 1543.45 Q1153.01 1540.93 1153.01 1536.76 L1153.01 1535.82 L1148.77 1535.82 M1157.27 1534.06 L1157.27 1548.85 L1153.01 1548.85 L1153.01 1544.91 Q1151.55 1547.27 1149.37 1548.41 Q1147.2 1549.52 1144.05 1549.52 Q1140.07 1549.52 1137.71 1547.3 Q1135.37 1545.05 1135.37 1541.3 Q1135.37 1536.93 1138.29 1534.7 Q1141.23 1532.48 1147.04 1532.48 L1153.01 1532.48 L1153.01 1532.07 Q1153.01 1529.13 1151.06 1527.53 Q1149.14 1525.91 1145.65 1525.91 Q1143.43 1525.91 1141.32 1526.44 Q1139.21 1526.97 1137.27 1528.04 L1137.27 1524.1 Q1139.61 1523.2 1141.81 1522.76 Q1144 1522.3 1146.09 1522.3 Q1151.71 1522.3 1154.49 1525.21 Q1157.27 1528.13 1157.27 1534.06 Z" fill="#000000" fill-rule="nonzero" fill-opacity="1" /><path clip-path="url(#clip750)" d="M1400.24 1544.91 L1416.56 1544.91 L1416.56 1548.85 L1394.61 1548.85 L1394.61 1544.91 Q1397.28 1542.16 1401.86 1537.53 Q1406.46 1532.88 1407.65 1531.53 Q1409.89 1529.01 1410.77 1527.27 Q1411.67 1525.51 1411.67 1523.82 Q1411.67 1521.07 1409.73 1519.33 Q1407.81 1517.6 1404.71 1517.6 Q1402.51 1517.6 1400.05 1518.36 Q1397.62 1519.13 1394.84 1520.68 L1394.84 1515.95 Q1397.67 1514.82 1400.12 1514.24 Q1402.58 1513.66 1404.61 1513.66 Q1409.98 1513.66 1413.18 1516.35 Q1416.37 1519.03 1416.37 1523.52 Q1416.37 1525.65 1415.56 1527.57 Q1414.78 1529.47 1412.67 1532.07 Q1412.09 1532.74 1408.99 1535.95 Q1405.89 1539.15 1400.24 1544.91 Z" fill="#000000" fill-rule="nonzero" fill-opacity="1" /><path clip-path="url(#clip750)" d="M1466.9 1516.95 L1466.9 1521.88 Q1464.54 1519.68 1461.86 1518.59 Q1459.2 1517.51 1456.19 1517.51 Q1450.26 1517.51 1447.11 1521.14 Q1443.96 1524.75 1443.96 1531.6 Q1443.96 1538.43 1447.11 1542.07 Q1450.26 1545.68 1456.19 1545.68 Q1459.2 1545.68 1461.86 1544.59 Q1464.54 1543.5 1466.9 1541.3 L1466.9 1546.19 Q1464.45 1547.85 1461.7 1548.69 Q1458.96 1549.52 1455.91 1549.52 Q1448.06 1549.52 1443.55 1544.73 Q1439.03 1539.91 1439.03 1531.6 Q1439.03 1523.27 1443.55 1518.48 Q1448.06 1513.66 1455.91 1513.66 Q1459.01 1513.66 1461.74 1514.5 Q1464.5 1515.31 1466.9 1516.95 Z" fill="#000000" fill-rule="nonzero" fill-opacity="1" /><path clip-path="url(#clip750)" d="M1483.99 1525.91 Q1480.56 1525.91 1478.57 1528.59 Q1476.58 1531.26 1476.58 1535.91 Q1476.58 1540.56 1478.55 1543.25 Q1480.54 1545.91 1483.99 1545.91 Q1487.39 1545.91 1489.38 1543.22 Q1491.37 1540.54 1491.37 1535.91 Q1491.37 1531.3 1489.38 1528.62 Q1487.39 1525.91 1483.99 1525.91 M1483.99 1522.3 Q1489.54 1522.3 1492.71 1525.91 Q1495.89 1529.52 1495.89 1535.91 Q1495.89 1542.27 1492.71 1545.91 Q1489.54 1549.52 1483.99 1549.52 Q1478.41 1549.52 1475.24 1545.91 Q1472.09 1542.27 1472.09 1535.91 Q1472.09 1529.52 1475.24 1525.91 Q1478.41 1522.3 1483.99 1522.3 Z" fill="#000000" fill-rule="nonzero" fill-opacity="1" /><path clip-path="url(#clip750)" d="M1517.97 1526.9 Q1517.25 1526.49 1516.39 1526.3 Q1515.56 1526.09 1514.54 1526.09 Q1510.93 1526.09 1508.99 1528.45 Q1507.07 1530.79 1507.07 1535.19 L1507.07 1548.85 L1502.78 1548.85 L1502.78 1522.92 L1507.07 1522.92 L1507.07 1526.95 Q1508.41 1524.59 1510.56 1523.45 Q1512.71 1522.3 1515.79 1522.3 Q1516.23 1522.3 1516.77 1522.37 Q1517.3 1522.41 1517.95 1522.53 L1517.97 1526.9 Z" fill="#000000" fill-rule="nonzero" fill-opacity="1" /><path clip-path="url(#clip750)" d="M1543.57 1534.82 L1543.57 1536.9 L1523.99 1536.9 Q1524.27 1541.3 1526.63 1543.62 Q1529.01 1545.91 1533.25 1545.91 Q1535.7 1545.91 1537.99 1545.31 Q1540.31 1544.7 1542.58 1543.5 L1542.58 1547.53 Q1540.28 1548.5 1537.88 1549.01 Q1535.47 1549.52 1532.99 1549.52 Q1526.79 1549.52 1523.15 1545.91 Q1519.54 1542.3 1519.54 1536.14 Q1519.54 1529.77 1522.97 1526.05 Q1526.42 1522.3 1532.25 1522.3 Q1537.48 1522.3 1540.52 1525.68 Q1543.57 1529.03 1543.57 1534.82 M1539.31 1533.57 Q1539.27 1530.07 1537.34 1527.99 Q1535.45 1525.91 1532.3 1525.91 Q1528.73 1525.91 1526.58 1527.92 Q1524.45 1529.94 1524.13 1533.59 L1539.31 1533.57 Z" fill="#000000" fill-rule="nonzero" fill-opacity="1" /><path clip-path="url(#clip750)" d="M1567.09 1523.69 L1567.09 1527.71 Q1565.28 1526.79 1563.34 1526.32 Q1561.39 1525.86 1559.31 1525.86 Q1556.14 1525.86 1554.54 1526.83 Q1552.97 1527.81 1552.97 1529.75 Q1552.97 1531.23 1554.1 1532.09 Q1555.24 1532.92 1558.66 1533.69 L1560.12 1534.01 Q1564.66 1534.98 1566.56 1536.76 Q1568.48 1538.52 1568.48 1541.7 Q1568.48 1545.31 1565.61 1547.41 Q1562.76 1549.52 1557.76 1549.52 Q1555.68 1549.52 1553.41 1549.1 Q1551.16 1548.71 1548.66 1547.9 L1548.66 1543.5 Q1551.02 1544.73 1553.32 1545.35 Q1555.61 1545.95 1557.85 1545.95 Q1560.86 1545.95 1562.48 1544.94 Q1564.1 1543.89 1564.1 1542.02 Q1564.1 1540.28 1562.92 1539.36 Q1561.76 1538.43 1557.81 1537.57 L1556.33 1537.23 Q1552.37 1536.39 1550.61 1534.68 Q1548.85 1532.95 1548.85 1529.94 Q1548.85 1526.28 1551.44 1524.29 Q1554.03 1522.3 1558.8 1522.3 Q1561.16 1522.3 1563.25 1522.64 Q1565.33 1522.99 1567.09 1523.69 Z" fill="#000000" fill-rule="nonzero" fill-opacity="1" /><path clip-path="url(#clip750)" d="M1814.85 1518.36 L1803.04 1536.81 L1814.85 1536.81 L1814.85 1518.36 M1813.62 1514.29 L1819.5 1514.29 L1819.5 1536.81 L1824.43 1536.81 L1824.43 1540.7 L1819.5 1540.7 L1819.5 1548.85 L1814.85 1548.85 L1814.85 1540.7 L1799.25 1540.7 L1799.25 1536.19 L1813.62 1514.29 Z" fill="#000000" fill-rule="nonzero" fill-opacity="1" /><path clip-path="url(#clip750)" d="M1872.7 1516.95 L1872.7 1521.88 Q1870.34 1519.68 1867.65 1518.59 Q1864.99 1517.51 1861.98 1517.51 Q1856.05 1517.51 1852.91 1521.14 Q1849.76 1524.75 1849.76 1531.6 Q1849.76 1538.43 1852.91 1542.07 Q1856.05 1545.68 1861.98 1545.68 Q1864.99 1545.68 1867.65 1544.59 Q1870.34 1543.5 1872.7 1541.3 L1872.7 1546.19 Q1870.24 1547.85 1867.49 1548.69 Q1864.76 1549.52 1861.7 1549.52 Q1853.85 1549.52 1849.34 1544.73 Q1844.83 1539.91 1844.83 1531.6 Q1844.83 1523.27 1849.34 1518.48 Q1853.85 1513.66 1861.7 1513.66 Q1864.8 1513.66 1867.54 1514.5 Q1870.29 1515.31 1872.7 1516.95 Z" fill="#000000" fill-rule="nonzero" fill-opacity="1" /><path clip-path="url(#clip750)" d="M1889.78 1525.91 Q1886.35 1525.91 1884.36 1528.59 Q1882.37 1531.26 1882.37 1535.91 Q1882.37 1540.56 1884.34 1543.25 Q1886.33 1545.91 1889.78 1545.91 Q1893.18 1545.91 1895.17 1543.22 Q1897.16 1540.54 1897.16 1535.91 Q1897.16 1531.3 1895.17 1528.62 Q1893.18 1525.91 1889.78 1525.91 M1889.78 1522.3 Q1895.34 1522.3 1898.51 1525.91 Q1901.68 1529.52 1901.68 1535.91 Q1901.68 1542.27 1898.51 1545.91 Q1895.34 1549.52 1889.78 1549.52 Q1884.2 1549.52 1881.03 1545.91 Q1877.88 1542.27 1877.88 1535.91 Q1877.88 1529.52 1881.03 1525.91 Q1884.2 1522.3 1889.78 1522.3 Z" fill="#000000" fill-rule="nonzero" fill-opacity="1" /><path clip-path="url(#clip750)" d="M1923.76 1526.9 Q1923.04 1526.49 1922.19 1526.3 Q1921.35 1526.09 1920.34 1526.09 Q1916.72 1526.09 1914.78 1528.45 Q1912.86 1530.79 1912.86 1535.19 L1912.86 1548.85 L1908.58 1548.85 L1908.58 1522.92 L1912.86 1522.92 L1912.86 1526.95 Q1914.2 1524.59 1916.35 1523.45 Q1918.51 1522.3 1921.59 1522.3 Q1922.03 1522.3 1922.56 1522.37 Q1923.09 1522.41 1923.74 1522.53 L1923.76 1526.9 Z" fill="#000000" fill-rule="nonzero" fill-opacity="1" /><path clip-path="url(#clip750)" d="M1949.36 1534.82 L1949.36 1536.9 L1929.78 1536.9 Q1930.06 1541.3 1932.42 1543.62 Q1934.8 1545.91 1939.04 1545.91 Q1941.49 1545.91 1943.78 1545.31 Q1946.1 1544.7 1948.37 1543.5 L1948.37 1547.53 Q1946.08 1548.5 1943.67 1549.01 Q1941.26 1549.52 1938.78 1549.52 Q1932.58 1549.52 1928.95 1545.91 Q1925.34 1542.3 1925.34 1536.14 Q1925.34 1529.77 1928.76 1526.05 Q1932.21 1522.3 1938.04 1522.3 Q1943.28 1522.3 1946.31 1525.68 Q1949.36 1529.03 1949.36 1534.82 M1945.1 1533.57 Q1945.06 1530.07 1943.14 1527.99 Q1941.24 1525.91 1938.09 1525.91 Q1934.53 1525.91 1932.37 1527.92 Q1930.24 1529.94 1929.92 1533.59 L1945.1 1533.57 Z" fill="#000000" fill-rule="nonzero" fill-opacity="1" /><path clip-path="url(#clip750)" d="M1972.88 1523.69 L1972.88 1527.71 Q1971.08 1526.79 1969.13 1526.32 Q1967.19 1525.86 1965.1 1525.86 Q1961.93 1525.86 1960.34 1526.83 Q1958.76 1527.81 1958.76 1529.75 Q1958.76 1531.23 1959.9 1532.09 Q1961.03 1532.92 1964.46 1533.69 L1965.91 1534.01 Q1970.45 1534.98 1972.35 1536.76 Q1974.27 1538.52 1974.27 1541.7 Q1974.27 1545.31 1971.4 1547.41 Q1968.55 1549.52 1963.55 1549.52 Q1961.47 1549.52 1959.2 1549.1 Q1956.96 1548.71 1954.46 1547.9 L1954.46 1543.5 Q1956.82 1544.73 1959.11 1545.35 Q1961.4 1545.95 1963.65 1545.95 Q1966.66 1545.95 1968.28 1544.94 Q1969.9 1543.89 1969.9 1542.02 Q1969.9 1540.28 1968.72 1539.36 Q1967.56 1538.43 1963.6 1537.57 L1962.12 1537.23 Q1958.16 1536.39 1956.4 1534.68 Q1954.64 1532.95 1954.64 1529.94 Q1954.64 1526.28 1957.23 1524.29 Q1959.83 1522.3 1964.59 1522.3 Q1966.96 1522.3 1969.04 1522.64 Q1971.12 1522.99 1972.88 1523.69 Z" fill="#000000" fill-rule="nonzero" fill-opacity="1" /><path clip-path="url(#clip750)" d="M2216.77 1532.44 Q2213.43 1532.44 2211.51 1534.22 Q2209.61 1536 2209.61 1539.13 Q2209.61 1542.25 2211.51 1544.03 Q2213.43 1545.82 2216.77 1545.82 Q2220.1 1545.82 2222.02 1544.03 Q2223.94 1542.23 2223.94 1539.13 Q2223.94 1536 2222.02 1534.22 Q2220.12 1532.44 2216.77 1532.44 M2212.09 1530.45 Q2209.08 1529.7 2207.39 1527.64 Q2205.72 1525.58 2205.72 1522.62 Q2205.72 1518.48 2208.66 1516.07 Q2211.63 1513.66 2216.77 1513.66 Q2221.93 1513.66 2224.87 1516.07 Q2227.81 1518.48 2227.81 1522.62 Q2227.81 1525.58 2226.12 1527.64 Q2224.45 1529.7 2221.46 1530.45 Q2224.84 1531.23 2226.72 1533.52 Q2228.62 1535.82 2228.62 1539.13 Q2228.62 1544.15 2225.54 1546.83 Q2222.48 1549.52 2216.77 1549.52 Q2211.05 1549.52 2207.97 1546.83 Q2204.91 1544.15 2204.91 1539.13 Q2204.91 1535.82 2206.81 1533.52 Q2208.71 1531.23 2212.09 1530.45 M2210.38 1523.06 Q2210.38 1525.75 2212.04 1527.25 Q2213.73 1528.76 2216.77 1528.76 Q2219.78 1528.76 2221.46 1527.25 Q2223.18 1525.75 2223.18 1523.06 Q2223.18 1520.38 2221.46 1518.87 Q2219.78 1517.37 2216.77 1517.37 Q2213.73 1517.37 2212.04 1518.87 Q2210.38 1520.38 2210.38 1523.06 Z" fill="#000000" fill-rule="nonzero" fill-opacity="1" /><path clip-path="url(#clip750)" d="M2277.46 1516.95 L2277.46 1521.88 Q2275.1 1519.68 2272.41 1518.59 Q2269.75 1517.51 2266.74 1517.51 Q2260.82 1517.51 2257.67 1521.14 Q2254.52 1524.75 2254.52 1531.6 Q2254.52 1538.43 2257.67 1542.07 Q2260.82 1545.68 2266.74 1545.68 Q2269.75 1545.68 2272.41 1544.59 Q2275.1 1543.5 2277.46 1541.3 L2277.46 1546.19 Q2275.01 1547.85 2272.25 1548.69 Q2269.52 1549.52 2266.46 1549.52 Q2258.62 1549.52 2254.1 1544.73 Q2249.59 1539.91 2249.59 1531.6 Q2249.59 1523.27 2254.1 1518.48 Q2258.62 1513.66 2266.46 1513.66 Q2269.57 1513.66 2272.3 1514.5 Q2275.05 1515.31 2277.46 1516.95 Z" fill="#000000" fill-rule="nonzero" fill-opacity="1" /><path clip-path="url(#clip750)" d="M2294.54 1525.91 Q2291.12 1525.91 2289.13 1528.59 Q2287.14 1531.26 2287.14 1535.91 Q2287.14 1540.56 2289.1 1543.25 Q2291.09 1545.91 2294.54 1545.91 Q2297.95 1545.91 2299.94 1543.22 Q2301.93 1540.54 2301.93 1535.91 Q2301.93 1531.3 2299.94 1528.62 Q2297.95 1525.91 2294.54 1525.91 M2294.54 1522.3 Q2300.1 1522.3 2303.27 1525.91 Q2306.44 1529.52 2306.44 1535.91 Q2306.44 1542.27 2303.27 1545.91 Q2300.1 1549.52 2294.54 1549.52 Q2288.96 1549.52 2285.79 1545.91 Q2282.65 1542.27 2282.65 1535.91 Q2282.65 1529.52 2285.79 1525.91 Q2288.96 1522.3 2294.54 1522.3 Z" fill="#000000" fill-rule="nonzero" fill-opacity="1" /><path clip-path="url(#clip750)" d="M2328.52 1526.9 Q2327.81 1526.49 2326.95 1526.3 Q2326.12 1526.09 2325.1 1526.09 Q2321.49 1526.09 2319.54 1528.45 Q2317.62 1530.79 2317.62 1535.19 L2317.62 1548.85 L2313.34 1548.85 L2313.34 1522.92 L2317.62 1522.92 L2317.62 1526.95 Q2318.96 1524.59 2321.12 1523.45 Q2323.27 1522.3 2326.35 1522.3 Q2326.79 1522.3 2327.32 1522.37 Q2327.85 1522.41 2328.5 1522.53 L2328.52 1526.9 Z" fill="#000000" fill-rule="nonzero" fill-opacity="1" /><path clip-path="url(#clip750)" d="M2354.13 1534.82 L2354.13 1536.9 L2334.54 1536.9 Q2334.82 1541.3 2337.18 1543.62 Q2339.57 1545.91 2343.8 1545.91 Q2346.26 1545.91 2348.55 1545.31 Q2350.86 1544.7 2353.13 1543.5 L2353.13 1547.53 Q2350.84 1548.5 2348.43 1549.01 Q2346.02 1549.52 2343.55 1549.52 Q2337.34 1549.52 2333.71 1545.91 Q2330.1 1542.3 2330.1 1536.14 Q2330.1 1529.77 2333.52 1526.05 Q2336.97 1522.3 2342.81 1522.3 Q2348.04 1522.3 2351.07 1525.68 Q2354.13 1529.03 2354.13 1534.82 M2349.87 1533.57 Q2349.82 1530.07 2347.9 1527.99 Q2346 1525.91 2342.85 1525.91 Q2339.29 1525.91 2337.14 1527.92 Q2335.01 1529.94 2334.68 1533.59 L2349.87 1533.57 Z" fill="#000000" fill-rule="nonzero" fill-opacity="1" /><path clip-path="url(#clip750)" d="M2377.64 1523.69 L2377.64 1527.71 Q2375.84 1526.79 2373.89 1526.32 Q2371.95 1525.86 2369.87 1525.86 Q2366.7 1525.86 2365.1 1526.83 Q2363.52 1527.81 2363.52 1529.75 Q2363.52 1531.23 2364.66 1532.09 Q2365.79 1532.92 2369.22 1533.69 L2370.68 1534.01 Q2375.21 1534.98 2377.11 1536.76 Q2379.03 1538.52 2379.03 1541.7 Q2379.03 1545.31 2376.16 1547.41 Q2373.32 1549.52 2368.32 1549.52 Q2366.23 1549.52 2363.96 1549.1 Q2361.72 1548.71 2359.22 1547.9 L2359.22 1543.5 Q2361.58 1544.73 2363.87 1545.35 Q2366.16 1545.95 2368.41 1545.95 Q2371.42 1545.95 2373.04 1544.94 Q2374.66 1543.89 2374.66 1542.02 Q2374.66 1540.28 2373.48 1539.36 Q2372.32 1538.43 2368.36 1537.57 L2366.88 1537.23 Q2362.92 1536.39 2361.16 1534.68 Q2359.4 1532.95 2359.4 1529.94 Q2359.4 1526.28 2362 1524.29 Q2364.59 1522.3 2369.36 1522.3 Q2371.72 1522.3 2373.8 1522.64 Q2375.89 1522.99 2377.64 1523.69 Z" fill="#000000" fill-rule="nonzero" fill-opacity="1" /><polyline clip-path="url(#clip752)" style="stroke:#000000; stroke-linecap:round; stroke-linejoin:round; stroke-width:2; stroke-opacity:0.1; fill:none" points="205.121,1486.45 2352.76,1486.45 "/>
<polyline clip-path="url(#clip752)" style="stroke:#000000; stroke-linecap:round; stroke-linejoin:round; stroke-width:2; stroke-opacity:0.1; fill:none" points="205.121,1179.98 2352.76,1179.98 "/>
<polyline clip-path="url(#clip752)" style="stroke:#000000; stroke-linecap:round; stroke-linejoin:round; stroke-width:2; stroke-opacity:0.1; fill:none" points="205.121,873.509 2352.76,873.509 "/>
<polyline clip-path="url(#clip752)" style="stroke:#000000; stroke-linecap:round; stroke-linejoin:round; stroke-width:2; stroke-opacity:0.1; fill:none" points="205.121,567.039 2352.76,567.039 "/>
<polyline clip-path="url(#clip752)" style="stroke:#000000; stroke-linecap:round; stroke-linejoin:round; stroke-width:2; stroke-opacity:0.1; fill:none" points="205.121,260.57 2352.76,260.57 "/>
<polyline clip-path="url(#clip750)" style="stroke:#000000; stroke-linecap:round; stroke-linejoin:round; stroke-width:4; stroke-opacity:1; fill:none" points="205.121,1486.45 205.121,183.952 "/>
<polyline clip-path="url(#clip750)" style="stroke:#000000; stroke-linecap:round; stroke-linejoin:round; stroke-width:4; stroke-opacity:1; fill:none" points="205.121,1486.45 224.019,1486.45 "/>
<polyline clip-path="url(#clip750)" style="stroke:#000000; stroke-linecap:round; stroke-linejoin:round; stroke-width:4; stroke-opacity:1; fill:none" points="205.121,1179.98 224.019,1179.98 "/>
<polyline clip-path="url(#clip750)" style="stroke:#000000; stroke-linecap:round; stroke-linejoin:round; stroke-width:4; stroke-opacity:1; fill:none" points="205.121,873.509 224.019,873.509 "/>
<polyline clip-path="url(#clip750)" style="stroke:#000000; stroke-linecap:round; stroke-linejoin:round; stroke-width:4; stroke-opacity:1; fill:none" points="205.121,567.039 224.019,567.039 "/>
<polyline clip-path="url(#clip750)" style="stroke:#000000; stroke-linecap:round; stroke-linejoin:round; stroke-width:4; stroke-opacity:1; fill:none" points="205.121,260.57 224.019,260.57 "/>
<path clip-path="url(#clip750)" d="M157.177 1472.25 Q153.566 1472.25 151.737 1475.81 Q149.931 1479.35 149.931 1486.48 Q149.931 1493.59 151.737 1497.15 Q153.566 1500.7 157.177 1500.7 Q160.811 1500.7 162.616 1497.15 Q164.445 1493.59 164.445 1486.48 Q164.445 1479.35 162.616 1475.81 Q160.811 1472.25 157.177 1472.25 M157.177 1468.54 Q162.987 1468.54 166.042 1473.15 Q169.121 1477.73 169.121 1486.48 Q169.121 1495.21 166.042 1499.82 Q162.987 1504.4 157.177 1504.4 Q151.366 1504.4 148.288 1499.82 Q145.232 1495.21 145.232 1486.48 Q145.232 1477.73 148.288 1473.15 Q151.366 1468.54 157.177 1468.54 Z" fill="#000000" fill-rule="nonzero" fill-opacity="1" /><path clip-path="url(#clip750)" d="M121.043 1193.32 L137.362 1193.32 L137.362 1197.26 L115.418 1197.26 L115.418 1193.32 Q118.08 1190.57 122.663 1185.94 Q127.269 1181.29 128.45 1179.94 Q130.695 1177.42 131.575 1175.68 Q132.478 1173.93 132.478 1172.24 Q132.478 1169.48 130.533 1167.74 Q128.612 1166.01 125.51 1166.01 Q123.311 1166.01 120.857 1166.77 Q118.427 1167.54 115.649 1169.09 L115.649 1164.36 Q118.473 1163.23 120.927 1162.65 Q123.38 1162.07 125.418 1162.07 Q130.788 1162.07 133.982 1164.76 Q137.177 1167.44 137.177 1171.93 Q137.177 1174.06 136.367 1175.99 Q135.579 1177.88 133.473 1180.48 Q132.894 1181.15 129.792 1184.36 Q126.691 1187.56 121.043 1193.32 Z" fill="#000000" fill-rule="nonzero" fill-opacity="1" /><path clip-path="url(#clip750)" d="M157.177 1165.78 Q153.566 1165.78 151.737 1169.34 Q149.931 1172.88 149.931 1180.01 Q149.931 1187.12 151.737 1190.68 Q153.566 1194.23 157.177 1194.23 Q160.811 1194.23 162.616 1190.68 Q164.445 1187.12 164.445 1180.01 Q164.445 1172.88 162.616 1169.34 Q160.811 1165.78 157.177 1165.78 M157.177 1162.07 Q162.987 1162.07 166.042 1166.68 Q169.121 1171.26 169.121 1180.01 Q169.121 1188.74 166.042 1193.35 Q162.987 1197.93 157.177 1197.93 Q151.366 1197.93 148.288 1193.35 Q145.232 1188.74 145.232 1180.01 Q145.232 1171.26 148.288 1166.68 Q151.366 1162.07 157.177 1162.07 Z" fill="#000000" fill-rule="nonzero" fill-opacity="1" /><path clip-path="url(#clip750)" d="M129.862 860.303 L118.056 878.752 L129.862 878.752 L129.862 860.303 M128.635 856.229 L134.515 856.229 L134.515 878.752 L139.445 878.752 L139.445 882.641 L134.515 882.641 L134.515 890.789 L129.862 890.789 L129.862 882.641 L114.26 882.641 L114.26 878.127 L128.635 856.229 Z" fill="#000000" fill-rule="nonzero" fill-opacity="1" /><path clip-path="url(#clip750)" d="M157.177 859.307 Q153.566 859.307 151.737 862.872 Q149.931 866.414 149.931 873.543 Q149.931 880.65 151.737 884.215 Q153.566 887.756 157.177 887.756 Q160.811 887.756 162.616 884.215 Q164.445 880.65 164.445 873.543 Q164.445 866.414 162.616 862.872 Q160.811 859.307 157.177 859.307 M157.177 855.604 Q162.987 855.604 166.042 860.21 Q169.121 864.793 169.121 873.543 Q169.121 882.27 166.042 886.877 Q162.987 891.46 157.177 891.46 Q151.366 891.46 148.288 886.877 Q145.232 882.27 145.232 873.543 Q145.232 864.793 148.288 860.21 Q151.366 855.604 157.177 855.604 Z" fill="#000000" fill-rule="nonzero" fill-opacity="1" /><path clip-path="url(#clip750)" d="M127.593 565.176 Q124.445 565.176 122.593 567.328 Q120.765 569.481 120.765 573.231 Q120.765 576.958 122.593 579.134 Q124.445 581.287 127.593 581.287 Q130.742 581.287 132.57 579.134 Q134.422 576.958 134.422 573.231 Q134.422 569.481 132.57 567.328 Q130.742 565.176 127.593 565.176 M136.876 550.523 L136.876 554.782 Q135.117 553.949 133.311 553.509 Q131.529 553.069 129.769 553.069 Q125.14 553.069 122.686 556.194 Q120.255 559.319 119.908 565.639 Q121.274 563.625 123.334 562.56 Q125.394 561.472 127.871 561.472 Q133.08 561.472 136.089 564.643 Q139.121 567.791 139.121 573.231 Q139.121 578.555 135.973 581.773 Q132.825 584.99 127.593 584.99 Q121.598 584.99 118.427 580.407 Q115.256 575.801 115.256 567.074 Q115.256 558.879 119.144 554.018 Q123.033 549.134 129.584 549.134 Q131.343 549.134 133.126 549.481 Q134.931 549.829 136.876 550.523 Z" fill="#000000" fill-rule="nonzero" fill-opacity="1" /><path clip-path="url(#clip750)" d="M157.177 552.838 Q153.566 552.838 151.737 556.403 Q149.931 559.944 149.931 567.074 Q149.931 574.18 151.737 577.745 Q153.566 581.287 157.177 581.287 Q160.811 581.287 162.616 577.745 Q164.445 574.18 164.445 567.074 Q164.445 559.944 162.616 556.403 Q160.811 552.838 157.177 552.838 M157.177 549.134 Q162.987 549.134 166.042 553.741 Q169.121 558.324 169.121 567.074 Q169.121 575.801 166.042 580.407 Q162.987 584.99 157.177 584.99 Q151.366 584.99 148.288 580.407 Q145.232 575.801 145.232 567.074 Q145.232 558.324 148.288 553.741 Q151.366 549.134 157.177 549.134 Z" fill="#000000" fill-rule="nonzero" fill-opacity="1" /><path clip-path="url(#clip750)" d="M127.015 261.438 Q123.681 261.438 121.76 263.22 Q119.862 265.002 119.862 268.127 Q119.862 271.252 121.76 273.035 Q123.681 274.817 127.015 274.817 Q130.348 274.817 132.269 273.035 Q134.191 271.229 134.191 268.127 Q134.191 265.002 132.269 263.22 Q130.371 261.438 127.015 261.438 M122.339 259.447 Q119.33 258.706 117.64 256.646 Q115.973 254.586 115.973 251.623 Q115.973 247.479 118.913 245.072 Q121.876 242.665 127.015 242.665 Q132.177 242.665 135.117 245.072 Q138.056 247.479 138.056 251.623 Q138.056 254.586 136.367 256.646 Q134.7 258.706 131.714 259.447 Q135.093 260.234 136.968 262.526 Q138.867 264.817 138.867 268.127 Q138.867 273.15 135.788 275.836 Q132.732 278.521 127.015 278.521 Q121.297 278.521 118.218 275.836 Q115.163 273.15 115.163 268.127 Q115.163 264.817 117.061 262.526 Q118.959 260.234 122.339 259.447 M120.626 252.063 Q120.626 254.748 122.293 256.252 Q123.982 257.757 127.015 257.757 Q130.024 257.757 131.714 256.252 Q133.427 254.748 133.427 252.063 Q133.427 249.377 131.714 247.873 Q130.024 246.368 127.015 246.368 Q123.982 246.368 122.293 247.873 Q120.626 249.377 120.626 252.063 Z" fill="#000000" fill-rule="nonzero" fill-opacity="1" /><path clip-path="url(#clip750)" d="M157.177 246.368 Q153.566 246.368 151.737 249.933 Q149.931 253.475 149.931 260.604 Q149.931 267.711 151.737 271.275 Q153.566 274.817 157.177 274.817 Q160.811 274.817 162.616 271.275 Q164.445 267.711 164.445 260.604 Q164.445 253.475 162.616 249.933 Q160.811 246.368 157.177 246.368 M157.177 242.665 Q162.987 242.665 166.042 247.271 Q169.121 251.854 169.121 260.604 Q169.121 269.331 166.042 273.938 Q162.987 278.521 157.177 278.521 Q151.366 278.521 148.288 273.938 Q145.232 269.331 145.232 260.604 Q145.232 251.854 148.288 247.271 Q151.366 242.665 157.177 242.665 Z" fill="#000000" fill-rule="nonzero" fill-opacity="1" /><path clip-path="url(#clip750)" d="M16.4842 1163.78 L16.4842 1133.74 L21.895 1133.74 L21.895 1157.35 L35.9632 1157.35 L35.9632 1134.72 L41.3741 1134.72 L41.3741 1157.35 L58.5933 1157.35 L58.5933 1133.16 L64.0042 1133.16 L64.0042 1163.78 L16.4842 1163.78 Z" fill="#000000" fill-rule="nonzero" fill-opacity="1" /><path clip-path="url(#clip750)" d="M28.3562 1093.22 L45.7028 1106.11 L64.0042 1092.55 L64.0042 1099.46 L49.9996 1109.83 L64.0042 1120.21 L64.0042 1127.12 L45.3526 1113.27 L28.3562 1125.94 L28.3562 1119.03 L41.0558 1109.58 L28.3562 1100.12 L28.3562 1093.22 Z" fill="#000000" fill-rule="nonzero" fill-opacity="1" /><path clip-path="url(#clip750)" d="M44.7161 1055.79 L47.5806 1055.79 L47.5806 1082.71 Q53.6281 1082.33 56.8109 1079.09 Q59.9619 1075.81 59.9619 1069.98 Q59.9619 1066.61 59.1344 1063.46 Q58.3069 1060.28 56.6518 1057.16 L62.1899 1057.16 Q63.5267 1060.31 64.227 1063.62 Q64.9272 1066.93 64.9272 1070.33 Q64.9272 1078.86 59.9619 1083.86 Q54.9967 1088.83 46.5303 1088.83 Q37.7774 1088.83 32.6531 1084.12 Q27.4968 1079.37 27.4968 1071.35 Q27.4968 1064.16 32.1438 1059.99 Q36.7589 1055.79 44.7161 1055.79 M42.9973 1061.64 Q38.1912 1061.71 35.3266 1064.35 Q32.4621 1066.96 32.4621 1071.29 Q32.4621 1076.19 35.2312 1079.15 Q38.0002 1082.08 43.0292 1082.52 L42.9973 1061.64 Z" fill="#000000" fill-rule="nonzero" fill-opacity="1" /><path clip-path="url(#clip750)" d="M29.7248 1020.52 L35.1993 1020.52 Q33.8307 1023 33.1623 1025.52 Q32.4621 1028 32.4621 1030.55 Q32.4621 1036.24 36.0905 1039.4 Q39.6872 1042.55 46.212 1042.55 Q52.7369 1042.55 56.3653 1039.4 Q59.9619 1036.24 59.9619 1030.55 Q59.9619 1028 59.2935 1025.52 Q58.5933 1023 57.2247 1020.52 L62.6355 1020.52 Q63.7814 1022.97 64.3543 1025.61 Q64.9272 1028.22 64.9272 1031.18 Q64.9272 1039.24 59.8664 1043.98 Q54.8057 1048.72 46.212 1048.72 Q37.491 1048.72 32.4939 1043.95 Q27.4968 1039.14 27.4968 1030.8 Q27.4968 1028.1 28.0697 1025.52 Q28.6108 1022.94 29.7248 1020.52 Z" fill="#000000" fill-rule="nonzero" fill-opacity="1" /><path clip-path="url(#clip750)" d="M49.9359 1010.94 L28.3562 1010.94 L28.3562 1005.08 L49.7131 1005.08 Q54.7739 1005.08 57.3202 1003.11 Q59.8346 1001.14 59.8346 997.191 Q59.8346 992.449 56.8109 989.712 Q53.7872 986.943 48.5673 986.943 L28.3562 986.943 L28.3562 981.086 L64.0042 981.086 L64.0042 986.943 L58.5296 986.943 Q61.7762 989.075 63.3676 991.908 Q64.9272 994.709 64.9272 998.433 Q64.9272 1004.58 61.1078 1007.76 Q57.2883 1010.94 49.9359 1010.94 M27.4968 996.205 L27.4968 996.205 Z" fill="#000000" fill-rule="nonzero" fill-opacity="1" /><path clip-path="url(#clip750)" d="M18.2347 963.23 L28.3562 963.23 L28.3562 951.167 L32.9077 951.167 L32.9077 963.23 L52.2594 963.23 Q56.6199 963.23 57.8613 962.053 Q59.1026 960.843 59.1026 957.183 L59.1026 951.167 L64.0042 951.167 L64.0042 957.183 Q64.0042 963.962 61.4897 966.54 Q58.9434 969.119 52.2594 969.119 L32.9077 969.119 L32.9077 973.415 L28.3562 973.415 L28.3562 969.119 L18.2347 969.119 L18.2347 963.23 Z" fill="#000000" fill-rule="nonzero" fill-opacity="1" /><path clip-path="url(#clip750)" d="M28.3562 943.465 L28.3562 937.608 L64.0042 937.608 L64.0042 943.465 L28.3562 943.465 M14.479 943.465 L14.479 937.608 L21.895 937.608 L21.895 943.465 L14.479 943.465 Z" fill="#000000" fill-rule="nonzero" fill-opacity="1" /><path clip-path="url(#clip750)" d="M32.4621 911.541 Q32.4621 916.251 36.1542 918.989 Q39.8145 921.726 46.212 921.726 Q52.6095 921.726 56.3017 919.02 Q59.9619 916.283 59.9619 911.541 Q59.9619 906.862 56.2698 904.125 Q52.5777 901.387 46.212 901.387 Q39.8781 901.387 36.186 904.125 Q32.4621 906.862 32.4621 911.541 M27.4968 911.541 Q27.4968 903.902 32.4621 899.541 Q37.4273 895.181 46.212 895.181 Q54.9649 895.181 59.9619 899.541 Q64.9272 903.902 64.9272 911.541 Q64.9272 919.211 59.9619 923.572 Q54.9649 927.901 46.212 927.901 Q37.4273 927.901 32.4621 923.572 Q27.4968 919.211 27.4968 911.541 Z" fill="#000000" fill-rule="nonzero" fill-opacity="1" /><path clip-path="url(#clip750)" d="M42.4881 855.841 L64.0042 855.841 L64.0042 861.697 L42.679 861.697 Q37.6183 861.697 35.1038 863.671 Q32.5894 865.644 32.5894 869.591 Q32.5894 874.333 35.6131 877.07 Q38.6368 879.808 43.8567 879.808 L64.0042 879.808 L64.0042 885.696 L28.3562 885.696 L28.3562 879.808 L33.8944 879.808 Q30.6797 877.707 29.0883 874.874 Q27.4968 872.01 27.4968 868.286 Q27.4968 862.143 31.3163 858.992 Q35.1038 855.841 42.4881 855.841 Z" fill="#000000" fill-rule="nonzero" fill-opacity="1" /><path clip-path="url(#clip750)" d="M16.4842 829.773 L16.4842 789.574 L21.895 789.574 L21.895 806.443 L64.0042 806.443 L64.0042 812.904 L21.895 812.904 L21.895 829.773 L16.4842 829.773 Z" fill="#000000" fill-rule="nonzero" fill-opacity="1" /><path clip-path="url(#clip750)" d="M28.3562 785.627 L28.3562 779.771 L64.0042 779.771 L64.0042 785.627 L28.3562 785.627 M14.479 785.627 L14.479 779.771 L21.895 779.771 L21.895 785.627 L14.479 785.627 Z" fill="#000000" fill-rule="nonzero" fill-opacity="1" /><path clip-path="url(#clip750)" d="M35.1993 739.762 Q31.2526 737.566 29.3747 734.51 Q27.4968 731.455 27.4968 727.317 Q27.4968 721.747 31.4117 718.723 Q35.2948 715.7 42.4881 715.7 L64.0042 715.7 L64.0042 721.588 L42.679 721.588 Q37.5546 721.588 35.072 723.402 Q32.5894 725.217 32.5894 728.94 Q32.5894 733.492 35.6131 736.134 Q38.6368 738.775 43.8567 738.775 L64.0042 738.775 L64.0042 744.664 L42.679 744.664 Q37.5228 744.664 35.072 746.478 Q32.5894 748.292 32.5894 752.08 Q32.5894 756.568 35.6449 759.209 Q38.6686 761.851 43.8567 761.851 L64.0042 761.851 L64.0042 767.739 L28.3562 767.739 L28.3562 761.851 L33.8944 761.851 Q30.616 759.846 29.0564 757.045 Q27.4968 754.244 27.4968 750.393 Q27.4968 746.51 29.4702 743.804 Q31.4436 741.067 35.1993 739.762 Z" fill="#000000" fill-rule="nonzero" fill-opacity="1" /><path clip-path="url(#clip750)" d="M44.7161 673.527 L47.5806 673.527 L47.5806 700.454 Q53.6281 700.072 56.8109 696.825 Q59.9619 693.547 59.9619 687.722 Q59.9619 684.349 59.1344 681.198 Q58.3069 678.015 56.6518 674.896 L62.1899 674.896 Q63.5267 678.047 64.227 681.357 Q64.9272 684.667 64.9272 688.073 Q64.9272 696.603 59.9619 701.6 Q54.9967 706.565 46.5303 706.565 Q37.7774 706.565 32.6531 701.854 Q27.4968 697.112 27.4968 689.091 Q27.4968 681.898 32.1438 677.728 Q36.7589 673.527 44.7161 673.527 M42.9973 679.383 Q38.1912 679.447 35.3266 682.089 Q32.4621 684.699 32.4621 689.027 Q32.4621 693.929 35.2312 696.889 Q38.0002 699.817 43.0292 700.263 L42.9973 679.383 Z" fill="#000000" fill-rule="nonzero" fill-opacity="1" /><path clip-path="url(#clip750)" d="M14.479 643.735 L14.479 630.24 L19.0304 630.24 L19.0304 637.879 L68.0464 637.879 L68.0464 630.24 L72.5979 630.24 L72.5979 643.735 L14.479 643.735 Z" fill="#000000" fill-rule="nonzero" fill-opacity="1" /><path clip-path="url(#clip750)" d="M35.1993 590.009 Q31.2526 587.813 29.3747 584.757 Q27.4968 581.702 27.4968 577.564 Q27.4968 571.994 31.4117 568.97 Q35.2948 565.947 42.4881 565.947 L64.0042 565.947 L64.0042 571.835 L42.679 571.835 Q37.5546 571.835 35.072 573.649 Q32.5894 575.463 32.5894 579.187 Q32.5894 583.739 35.6131 586.38 Q38.6368 589.022 43.8567 589.022 L64.0042 589.022 L64.0042 594.91 L42.679 594.91 Q37.5228 594.91 35.072 596.725 Q32.5894 598.539 32.5894 602.327 Q32.5894 606.814 35.6449 609.456 Q38.6686 612.098 43.8567 612.098 L64.0042 612.098 L64.0042 617.986 L28.3562 617.986 L28.3562 612.098 L33.8944 612.098 Q30.616 610.093 29.0564 607.292 Q27.4968 604.491 27.4968 600.64 Q27.4968 596.757 29.4702 594.051 Q31.4436 591.314 35.1993 590.009 Z" fill="#000000" fill-rule="nonzero" fill-opacity="1" /><path clip-path="url(#clip750)" d="M29.4065 531.54 L34.9447 531.54 Q33.6716 534.023 33.035 536.696 Q32.3984 539.37 32.3984 542.234 Q32.3984 546.595 33.7352 548.791 Q35.072 550.955 37.7456 550.955 Q39.7826 550.955 40.9603 549.396 Q42.1061 547.836 43.1565 543.125 L43.6021 541.12 Q44.9389 534.882 47.3897 532.272 Q49.8086 529.63 54.1691 529.63 Q59.1344 529.63 62.0308 533.577 Q64.9272 537.492 64.9272 544.367 Q64.9272 547.231 64.3543 550.351 Q63.8132 553.438 62.6992 556.875 L56.6518 556.875 Q58.3387 553.629 59.198 550.478 Q60.0256 547.327 60.0256 544.239 Q60.0256 540.102 58.6251 537.874 Q57.1929 535.646 54.6147 535.646 Q52.2276 535.646 50.9545 537.269 Q49.6813 538.86 48.5037 544.303 L48.0262 546.34 Q46.8804 551.783 44.5251 554.202 Q42.138 556.621 38.0002 556.621 Q32.9713 556.621 30.2341 553.056 Q27.4968 549.491 27.4968 542.934 Q27.4968 539.688 27.9743 536.823 Q28.4517 533.959 29.4065 531.54 Z" fill="#000000" fill-rule="nonzero" fill-opacity="1" /><path clip-path="url(#clip750)" d="M14.479 506.618 L72.5979 506.618 L72.5979 520.113 L68.0464 520.113 L68.0464 512.506 L19.0304 512.506 L19.0304 520.113 L14.479 520.113 L14.479 506.618 Z" fill="#000000" fill-rule="nonzero" fill-opacity="1" /><path clip-path="url(#clip750)" d="M875.124 33.264 L883.388 33.264 L896.108 84.3864 L908.787 33.264 L917.983 33.264 L930.702 84.3864 L943.382 33.264 L951.686 33.264 L936.495 93.744 L926.206 93.744 L913.446 41.2443 L900.564 93.744 L890.274 93.744 L875.124 33.264 Z" fill="#000000" fill-rule="nonzero" fill-opacity="1" /><path clip-path="url(#clip750)" d="M960.396 48.3739 L967.849 48.3739 L967.849 93.744 L960.396 93.744 L960.396 48.3739 M960.396 30.7119 L967.849 30.7119 L967.849 40.1505 L960.396 40.1505 L960.396 30.7119 Z" fill="#000000" fill-rule="nonzero" fill-opacity="1" /><path clip-path="url(#clip750)" d="M1009.74 55.3414 Q1008.48 54.6123 1006.98 54.2882 Q1005.52 53.9236 1003.74 53.9236 Q997.421 53.9236 994.018 58.0555 Q990.656 62.1469 990.656 69.8437 L990.656 93.744 L983.162 93.744 L983.162 48.3739 L990.656 48.3739 L990.656 55.4224 Q993.005 51.2905 996.773 49.3056 Q1000.54 47.2801 1005.93 47.2801 Q1006.7 47.2801 1007.63 47.4017 Q1008.56 47.4827 1009.7 47.6852 L1009.74 55.3414 Z" fill="#000000" fill-rule="nonzero" fill-opacity="1" /><path clip-path="url(#clip750)" d="M1054.54 69.1955 L1054.54 72.8413 L1020.27 72.8413 Q1020.75 80.5381 1024.89 84.589 Q1029.06 88.5994 1036.47 88.5994 Q1040.77 88.5994 1044.78 87.5461 Q1048.83 86.4929 1052.8 84.3864 L1052.8 91.435 Q1048.79 93.1364 1044.57 94.0276 Q1040.36 94.9188 1036.03 94.9188 Q1025.17 94.9188 1018.81 88.5994 Q1012.49 82.2799 1012.49 71.5045 Q1012.49 60.3645 1018.49 53.8426 Q1024.52 47.2801 1034.73 47.2801 Q1043.88 47.2801 1049.19 53.1944 Q1054.54 59.0683 1054.54 69.1955 M1047.08 67.008 Q1047 60.8912 1043.64 57.2454 Q1040.32 53.5995 1034.81 53.5995 Q1028.57 53.5995 1024.8 57.1238 Q1021.08 60.6481 1020.51 67.0485 L1047.08 67.008 Z" fill="#000000" fill-rule="nonzero" fill-opacity="1" /><path clip-path="url(#clip750)" d="M1096.63 55.2604 L1096.63 30.7119 L1104.08 30.7119 L1104.08 93.744 L1096.63 93.744 L1096.63 86.9385 Q1094.28 90.9894 1090.67 92.9743 Q1087.11 94.9188 1082.08 94.9188 Q1073.86 94.9188 1068.68 88.3563 Q1063.53 81.7938 1063.53 71.0994 Q1063.53 60.4051 1068.68 53.8426 Q1073.86 47.2801 1082.08 47.2801 Q1087.11 47.2801 1090.67 49.2651 Q1094.28 51.2095 1096.63 55.2604 M1071.23 71.0994 Q1071.23 79.3228 1074.59 84.0218 Q1077.99 88.6804 1083.91 88.6804 Q1089.82 88.6804 1093.22 84.0218 Q1096.63 79.3228 1096.63 71.0994 Q1096.63 62.8761 1093.22 58.2176 Q1089.82 53.5185 1083.91 53.5185 Q1077.99 53.5185 1074.59 58.2176 Q1071.23 62.8761 1071.23 71.0994 Z" fill="#000000" fill-rule="nonzero" fill-opacity="1" /><path clip-path="url(#clip750)" d="M1120.49 83.4547 L1129.03 83.4547 L1129.03 93.744 L1120.49 93.744 L1120.49 83.4547 Z" fill="#000000" fill-rule="nonzero" fill-opacity="1" /><path clip-path="url(#clip750)" d="M1145.81 48.3739 L1153.26 48.3739 L1153.26 94.5542 Q1153.26 103.223 1149.94 107.112 Q1146.66 111.001 1139.32 111.001 L1136.49 111.001 L1136.49 104.681 L1138.47 104.681 Q1142.73 104.681 1144.27 102.696 Q1145.81 100.752 1145.81 94.5542 L1145.81 48.3739 M1145.81 30.7119 L1153.26 30.7119 L1153.26 40.1505 L1145.81 40.1505 L1145.81 30.7119 Z" fill="#000000" fill-rule="nonzero" fill-opacity="1" /><path clip-path="url(#clip750)" d="M1168.86 30.7119 L1176.31 30.7119 L1176.31 93.744 L1168.86 93.744 L1168.86 30.7119 Z" fill="#000000" fill-rule="nonzero" fill-opacity="1" /><path clip-path="url(#clip750)" d="M1226.78 64.8611 L1226.78 87.0195 L1239.91 87.0195 Q1246.51 87.0195 1249.67 84.3054 Q1252.87 81.5508 1252.87 75.92 Q1252.87 70.2488 1249.67 67.5752 Q1246.51 64.8611 1239.91 64.8611 L1226.78 64.8611 M1226.78 39.9885 L1226.78 58.2176 L1238.9 58.2176 Q1244.89 58.2176 1247.81 55.9896 Q1250.76 53.7211 1250.76 49.103 Q1250.76 44.5255 1247.81 42.257 Q1244.89 39.9885 1238.9 39.9885 L1226.78 39.9885 M1218.6 33.264 L1239.5 33.264 Q1248.86 33.264 1253.92 37.1529 Q1258.99 41.0417 1258.99 48.2118 Q1258.99 53.7616 1256.4 57.0428 Q1253.8 60.324 1248.78 61.1342 Q1254.82 62.4305 1258.14 66.5624 Q1261.5 70.6538 1261.5 76.8112 Q1261.5 84.913 1255.99 89.3285 Q1250.48 93.744 1240.31 93.744 L1218.6 93.744 L1218.6 33.264 Z" fill="#000000" fill-rule="nonzero" fill-opacity="1" /><path clip-path="url(#clip750)" d="M1314 69.1955 L1314 72.8413 L1279.73 72.8413 Q1280.21 80.5381 1284.35 84.589 Q1288.52 88.5994 1295.93 88.5994 Q1300.23 88.5994 1304.24 87.5461 Q1308.29 86.4929 1312.26 84.3864 L1312.26 91.435 Q1308.25 93.1364 1304.03 94.0276 Q1299.82 94.9188 1295.49 94.9188 Q1284.63 94.9188 1278.27 88.5994 Q1271.95 82.2799 1271.95 71.5045 Q1271.95 60.3645 1277.95 53.8426 Q1283.98 47.2801 1294.19 47.2801 Q1303.35 47.2801 1308.65 53.1944 Q1314 59.0683 1314 69.1955 M1306.55 67.008 Q1306.46 60.8912 1303.1 57.2454 Q1299.78 53.5995 1294.27 53.5995 Q1288.03 53.5995 1284.27 57.1238 Q1280.54 60.6481 1279.97 67.0485 L1306.55 67.008 Z" fill="#000000" fill-rule="nonzero" fill-opacity="1" /><path clip-path="url(#clip750)" d="M1363.95 66.3599 L1363.95 93.744 L1356.49 93.744 L1356.49 66.6029 Q1356.49 60.162 1353.98 56.9618 Q1351.47 53.7616 1346.45 53.7616 Q1340.41 53.7616 1336.93 57.6099 Q1333.44 61.4583 1333.44 68.1018 L1333.44 93.744 L1325.95 93.744 L1325.95 48.3739 L1333.44 48.3739 L1333.44 55.4224 Q1336.12 51.331 1339.72 49.3056 Q1343.37 47.2801 1348.11 47.2801 Q1355.93 47.2801 1359.94 52.1412 Q1363.95 56.9618 1363.95 66.3599 Z" fill="#000000" fill-rule="nonzero" fill-opacity="1" /><path clip-path="url(#clip750)" d="M1411.46 50.1158 L1411.46 57.0833 Q1408.3 55.3414 1405.1 54.4907 Q1401.94 53.5995 1398.7 53.5995 Q1391.45 53.5995 1387.44 58.2176 Q1383.43 62.7951 1383.43 71.0994 Q1383.43 79.4038 1387.44 84.0218 Q1391.45 88.5994 1398.7 88.5994 Q1401.94 88.5994 1405.1 87.7487 Q1408.3 86.8575 1411.46 85.1156 L1411.46 92.0021 Q1408.34 93.4604 1404.98 94.1896 Q1401.66 94.9188 1397.89 94.9188 Q1387.64 94.9188 1381.61 88.4778 Q1375.57 82.0369 1375.57 71.0994 Q1375.57 60 1381.65 53.64 Q1387.77 47.2801 1398.38 47.2801 Q1401.82 47.2801 1405.1 48.0093 Q1408.39 48.6979 1411.46 50.1158 Z" fill="#000000" fill-rule="nonzero" fill-opacity="1" /><path clip-path="url(#clip750)" d="M1462.14 66.3599 L1462.14 93.744 L1454.69 93.744 L1454.69 66.6029 Q1454.69 60.162 1452.18 56.9618 Q1449.66 53.7616 1444.64 53.7616 Q1438.6 53.7616 1435.12 57.6099 Q1431.64 61.4583 1431.64 68.1018 L1431.64 93.744 L1424.14 93.744 L1424.14 30.7119 L1431.64 30.7119 L1431.64 55.4224 Q1434.31 51.331 1437.92 49.3056 Q1441.56 47.2801 1446.3 47.2801 Q1454.12 47.2801 1458.13 52.1412 Q1462.14 56.9618 1462.14 66.3599 Z" fill="#000000" fill-rule="nonzero" fill-opacity="1" /><path clip-path="url(#clip750)" d="M1512.33 57.0833 Q1515.13 52.0602 1519.02 49.6702 Q1522.9 47.2801 1528.17 47.2801 Q1535.26 47.2801 1539.11 52.2627 Q1542.96 57.2048 1542.96 66.3599 L1542.96 93.744 L1535.46 93.744 L1535.46 66.6029 Q1535.46 60.081 1533.15 56.9213 Q1530.84 53.7616 1526.1 53.7616 Q1520.31 53.7616 1516.95 57.6099 Q1513.59 61.4583 1513.59 68.1018 L1513.59 93.744 L1506.09 93.744 L1506.09 66.6029 Q1506.09 60.0405 1503.78 56.9213 Q1501.47 53.7616 1496.65 53.7616 Q1490.94 53.7616 1487.58 57.6504 Q1484.22 61.4988 1484.22 68.1018 L1484.22 93.744 L1476.72 93.744 L1476.72 48.3739 L1484.22 48.3739 L1484.22 55.4224 Q1486.77 51.25 1490.33 49.2651 Q1493.9 47.2801 1498.8 47.2801 Q1503.74 47.2801 1507.19 49.7917 Q1510.67 52.3032 1512.33 57.0833 Z" fill="#000000" fill-rule="nonzero" fill-opacity="1" /><path clip-path="url(#clip750)" d="M1578.44 70.9374 Q1569.41 70.9374 1565.92 73.0034 Q1562.44 75.0693 1562.44 80.0519 Q1562.44 84.0218 1565.03 86.3714 Q1567.67 88.6804 1572.16 88.6804 Q1578.36 88.6804 1582.09 84.3054 Q1585.86 79.8899 1585.86 72.5983 L1585.86 70.9374 L1578.44 70.9374 M1593.31 67.8587 L1593.31 93.744 L1585.86 93.744 L1585.86 86.8575 Q1583.3 90.9894 1579.5 92.9743 Q1575.69 94.9188 1570.18 94.9188 Q1563.21 94.9188 1559.08 91.0299 Q1554.99 87.1005 1554.99 80.5381 Q1554.99 72.8818 1560.09 68.993 Q1565.24 65.1041 1575.4 65.1041 L1585.86 65.1041 L1585.86 64.3749 Q1585.86 59.2303 1582.45 56.4352 Q1579.09 53.5995 1572.97 53.5995 Q1569.08 53.5995 1565.4 54.5312 Q1561.71 55.463 1558.31 57.3264 L1558.31 50.4398 Q1562.4 48.86 1566.25 48.0903 Q1570.1 47.2801 1573.74 47.2801 Q1583.59 47.2801 1588.45 52.3843 Q1593.31 57.4884 1593.31 67.8587 Z" fill="#000000" fill-rule="nonzero" fill-opacity="1" /><path clip-path="url(#clip750)" d="M1634.95 55.3414 Q1633.7 54.6123 1632.2 54.2882 Q1630.74 53.9236 1628.96 53.9236 Q1622.64 53.9236 1619.23 58.0555 Q1615.87 62.1469 1615.87 69.8437 L1615.87 93.744 L1608.38 93.744 L1608.38 48.3739 L1615.87 48.3739 L1615.87 55.4224 Q1618.22 51.2905 1621.99 49.3056 Q1625.76 47.2801 1631.14 47.2801 Q1631.91 47.2801 1632.85 47.4017 Q1633.78 47.4827 1634.91 47.6852 L1634.95 55.3414 Z" fill="#000000" fill-rule="nonzero" fill-opacity="1" /><path clip-path="url(#clip750)" d="M1642.49 30.7119 L1649.98 30.7119 L1649.98 67.9397 L1672.22 48.3739 L1681.74 48.3739 L1657.68 69.6006 L1682.75 93.744 L1673.03 93.744 L1649.98 71.5856 L1649.98 93.744 L1642.49 93.744 L1642.49 30.7119 Z" fill="#000000" fill-rule="nonzero" fill-opacity="1" /><path clip-path="url(#clip750)" d="M738.325 177.577 L751.693 177.577 L751.693 131.438 L737.15 134.354 L737.15 126.901 L751.612 123.984 L759.795 123.984 L759.795 177.577 L773.163 177.577 L773.163 184.464 L738.325 184.464 L738.325 177.577 Z" fill="#000000" fill-rule="nonzero" fill-opacity="1" /><path clip-path="url(#clip750)" d="M807.19 129.372 Q800.871 129.372 797.671 135.61 Q794.511 141.808 794.511 154.285 Q794.511 166.721 797.671 172.959 Q800.871 179.157 807.19 179.157 Q813.55 179.157 816.71 172.959 Q819.91 166.721 819.91 154.285 Q819.91 141.808 816.71 135.61 Q813.55 129.372 807.19 129.372 M807.19 122.89 Q817.358 122.89 822.705 130.952 Q828.093 138.972 828.093 154.285 Q828.093 169.557 822.705 177.618 Q817.358 185.639 807.19 185.639 Q797.023 185.639 791.635 177.618 Q786.288 169.557 786.288 154.285 Q786.288 138.972 791.635 130.952 Q797.023 122.89 807.19 122.89 Z" fill="#000000" fill-rule="nonzero" fill-opacity="1" /><path clip-path="url(#clip750)" d="M859.974 129.372 Q853.654 129.372 850.454 135.61 Q847.294 141.808 847.294 154.285 Q847.294 166.721 850.454 172.959 Q853.654 179.157 859.974 179.157 Q866.334 179.157 869.493 172.959 Q872.694 166.721 872.694 154.285 Q872.694 141.808 869.493 135.61 Q866.334 129.372 859.974 129.372 M859.974 122.89 Q870.141 122.89 875.489 130.952 Q880.876 138.972 880.876 154.285 Q880.876 169.557 875.489 177.618 Q870.141 185.639 859.974 185.639 Q849.806 185.639 844.418 177.618 Q839.071 169.557 839.071 154.285 Q839.071 138.972 844.418 130.952 Q849.806 122.89 859.974 122.89 Z" fill="#000000" fill-rule="nonzero" fill-opacity="1" /><path clip-path="url(#clip750)" d="M912.757 129.372 Q906.438 129.372 903.237 135.61 Q900.078 141.808 900.078 154.285 Q900.078 166.721 903.237 172.959 Q906.438 179.157 912.757 179.157 Q919.117 179.157 922.277 172.959 Q925.477 166.721 925.477 154.285 Q925.477 141.808 922.277 135.61 Q919.117 129.372 912.757 129.372 M912.757 122.89 Q922.925 122.89 928.272 130.952 Q933.66 138.972 933.66 154.285 Q933.66 169.557 928.272 177.618 Q922.925 185.639 912.757 185.639 Q902.589 185.639 897.201 177.618 Q891.854 169.557 891.854 154.285 Q891.854 138.972 897.201 130.952 Q902.589 122.89 912.757 122.89 Z" fill="#000000" fill-rule="nonzero" fill-opacity="1" /><path clip-path="url(#clip750)" d="M1011.07 157.08 L1011.07 184.464 L1003.62 184.464 L1003.62 157.323 Q1003.62 150.882 1001.11 147.682 Q998.596 144.482 993.572 144.482 Q987.537 144.482 984.053 148.33 Q980.569 152.178 980.569 158.822 L980.569 184.464 L973.075 184.464 L973.075 139.094 L980.569 139.094 L980.569 146.142 Q983.243 142.051 986.848 140.026 Q990.494 138 995.233 138 Q1003.05 138 1007.06 142.861 Q1011.07 147.682 1011.07 157.08 Z" fill="#000000" fill-rule="nonzero" fill-opacity="1" /><path clip-path="url(#clip750)" d="M1043.52 144.32 Q1037.52 144.32 1034.04 149.019 Q1030.56 153.677 1030.56 161.819 Q1030.56 169.962 1034 174.661 Q1037.48 179.319 1043.52 179.319 Q1049.47 179.319 1052.96 174.62 Q1056.44 169.921 1056.44 161.819 Q1056.44 153.758 1052.96 149.059 Q1049.47 144.32 1043.52 144.32 M1043.52 138 Q1053.24 138 1058.79 144.32 Q1064.34 150.639 1064.34 161.819 Q1064.34 172.959 1058.79 179.319 Q1053.24 185.639 1043.52 185.639 Q1033.76 185.639 1028.21 179.319 Q1022.7 172.959 1022.7 161.819 Q1022.7 150.639 1028.21 144.32 Q1033.76 138 1043.52 138 Z" fill="#000000" fill-rule="nonzero" fill-opacity="1" /><path clip-path="url(#clip750)" d="M1106.55 145.98 L1106.55 121.432 L1114.01 121.432 L1114.01 184.464 L1106.55 184.464 L1106.55 177.658 Q1104.2 181.709 1100.6 183.694 Q1097.03 185.639 1092.01 185.639 Q1083.79 185.639 1078.6 179.076 Q1073.46 172.514 1073.46 161.819 Q1073.46 151.125 1078.6 144.563 Q1083.79 138 1092.01 138 Q1097.03 138 1100.6 139.985 Q1104.2 141.93 1106.55 145.98 M1081.15 161.819 Q1081.15 170.043 1084.52 174.742 Q1087.92 179.4 1093.83 179.4 Q1099.75 179.4 1103.15 174.742 Q1106.55 170.043 1106.55 161.819 Q1106.55 153.596 1103.15 148.938 Q1099.75 144.239 1093.83 144.239 Q1087.92 144.239 1084.52 148.938 Q1081.15 153.596 1081.15 161.819 Z" fill="#000000" fill-rule="nonzero" fill-opacity="1" /><path clip-path="url(#clip750)" d="M1168.17 159.916 L1168.17 163.561 L1133.9 163.561 Q1134.38 171.258 1138.51 175.309 Q1142.69 179.319 1150.1 179.319 Q1154.39 179.319 1158.4 178.266 Q1162.45 177.213 1166.42 175.106 L1166.42 182.155 Q1162.41 183.856 1158.2 184.748 Q1153.99 185.639 1149.65 185.639 Q1138.8 185.639 1132.44 179.319 Q1126.12 173 1126.12 162.225 Q1126.12 151.085 1132.11 144.563 Q1138.15 138 1148.36 138 Q1157.51 138 1162.82 143.914 Q1168.17 149.788 1168.17 159.916 M1160.71 157.728 Q1160.63 151.611 1157.27 147.965 Q1153.95 144.32 1148.44 144.32 Q1142.2 144.32 1138.43 147.844 Q1134.71 151.368 1134.14 157.769 L1160.71 157.728 Z" fill="#000000" fill-rule="nonzero" fill-opacity="1" /><path clip-path="url(#clip750)" d="M1209.32 140.431 L1209.32 147.479 Q1206.16 145.859 1202.76 145.049 Q1199.36 144.239 1195.71 144.239 Q1190.16 144.239 1187.37 145.94 Q1184.61 147.641 1184.61 151.044 Q1184.61 153.637 1186.6 155.135 Q1188.58 156.594 1194.58 157.931 L1197.13 158.498 Q1205.07 160.199 1208.39 163.318 Q1211.75 166.397 1211.75 171.947 Q1211.75 178.266 1206.73 181.952 Q1201.75 185.639 1193 185.639 Q1189.35 185.639 1185.38 184.91 Q1181.45 184.221 1177.08 182.803 L1177.08 175.106 Q1181.21 177.253 1185.22 178.347 Q1189.23 179.4 1193.16 179.4 Q1198.43 179.4 1201.26 177.618 Q1204.1 175.795 1204.1 172.514 Q1204.1 169.476 1202.03 167.855 Q1200.01 166.235 1193.08 164.736 L1190.49 164.128 Q1183.56 162.67 1180.48 159.672 Q1177.4 156.634 1177.4 151.368 Q1177.4 144.968 1181.94 141.484 Q1186.48 138 1194.82 138 Q1198.95 138 1202.6 138.608 Q1206.24 139.215 1209.32 140.431 Z" fill="#000000" fill-rule="nonzero" fill-opacity="1" /><path clip-path="url(#clip750)" d="M1225.53 174.175 L1234.07 174.175 L1234.07 181.142 L1227.43 194.105 L1222.21 194.105 L1225.53 181.142 L1225.53 174.175 Z" fill="#000000" fill-rule="nonzero" fill-opacity="1" /><path clip-path="url(#clip750)" d="M1278.84 177.577 L1292.21 177.577 L1292.21 131.438 L1277.66 134.354 L1277.66 126.901 L1292.12 123.984 L1300.31 123.984 L1300.31 177.577 L1313.67 177.577 L1313.67 184.464 L1278.84 184.464 L1278.84 177.577 Z" fill="#000000" fill-rule="nonzero" fill-opacity="1" /><path clip-path="url(#clip750)" d="M1347.7 129.372 Q1341.38 129.372 1338.18 135.61 Q1335.02 141.808 1335.02 154.285 Q1335.02 166.721 1338.18 172.959 Q1341.38 179.157 1347.7 179.157 Q1354.06 179.157 1357.22 172.959 Q1360.42 166.721 1360.42 154.285 Q1360.42 141.808 1357.22 135.61 Q1354.06 129.372 1347.7 129.372 M1347.7 122.89 Q1357.87 122.89 1363.22 130.952 Q1368.61 138.972 1368.61 154.285 Q1368.61 169.557 1363.22 177.618 Q1357.87 185.639 1347.7 185.639 Q1337.53 185.639 1332.15 177.618 Q1326.8 169.557 1326.8 154.285 Q1326.8 138.972 1332.15 130.952 Q1337.53 122.89 1347.7 122.89 Z" fill="#000000" fill-rule="nonzero" fill-opacity="1" /><path clip-path="url(#clip750)" d="M1400.49 129.372 Q1394.17 129.372 1390.97 135.61 Q1387.81 141.808 1387.81 154.285 Q1387.81 166.721 1390.97 172.959 Q1394.17 179.157 1400.49 179.157 Q1406.85 179.157 1410.01 172.959 Q1413.21 166.721 1413.21 154.285 Q1413.21 141.808 1410.01 135.61 Q1406.85 129.372 1400.49 129.372 M1400.49 122.89 Q1410.65 122.89 1416 130.952 Q1421.39 138.972 1421.39 154.285 Q1421.39 169.557 1416 177.618 Q1410.65 185.639 1400.49 185.639 Q1390.32 185.639 1384.93 177.618 Q1379.58 169.557 1379.58 154.285 Q1379.58 138.972 1384.93 130.952 Q1390.32 122.89 1400.49 122.89 Z" fill="#000000" fill-rule="nonzero" fill-opacity="1" /><path clip-path="url(#clip750)" d="M1453.27 129.372 Q1446.95 129.372 1443.75 135.61 Q1440.59 141.808 1440.59 154.285 Q1440.59 166.721 1443.75 172.959 Q1446.95 179.157 1453.27 179.157 Q1459.63 179.157 1462.79 172.959 Q1465.99 166.721 1465.99 154.285 Q1465.99 141.808 1462.79 135.61 Q1459.63 129.372 1453.27 129.372 M1453.27 122.89 Q1463.44 122.89 1468.78 130.952 Q1474.17 138.972 1474.17 154.285 Q1474.17 169.557 1468.78 177.618 Q1463.44 185.639 1453.27 185.639 Q1443.1 185.639 1437.71 177.618 Q1432.37 169.557 1432.37 154.285 Q1432.37 138.972 1437.71 130.952 Q1443.1 122.89 1453.27 122.89 Z" fill="#000000" fill-rule="nonzero" fill-opacity="1" /><path clip-path="url(#clip750)" d="M1542.79 140.431 L1542.79 147.479 Q1539.63 145.859 1536.23 145.049 Q1532.83 144.239 1529.18 144.239 Q1523.63 144.239 1520.84 145.94 Q1518.08 147.641 1518.08 151.044 Q1518.08 153.637 1520.07 155.135 Q1522.05 156.594 1528.05 157.931 L1530.6 158.498 Q1538.54 160.199 1541.86 163.318 Q1545.22 166.397 1545.22 171.947 Q1545.22 178.266 1540.2 181.952 Q1535.22 185.639 1526.47 185.639 Q1522.82 185.639 1518.85 184.91 Q1514.92 184.221 1510.55 182.803 L1510.55 175.106 Q1514.68 177.253 1518.69 178.347 Q1522.7 179.4 1526.63 179.4 Q1531.9 179.4 1534.73 177.618 Q1537.57 175.795 1537.57 172.514 Q1537.57 169.476 1535.5 167.855 Q1533.48 166.235 1526.55 164.736 L1523.96 164.128 Q1517.03 162.67 1513.95 159.672 Q1510.87 156.634 1510.87 151.368 Q1510.87 144.968 1515.41 141.484 Q1519.95 138 1528.29 138 Q1532.42 138 1536.07 138.608 Q1539.72 139.215 1542.79 140.431 Z" fill="#000000" fill-rule="nonzero" fill-opacity="1" /><path clip-path="url(#clip750)" d="M1574.67 144.32 Q1568.68 144.32 1565.2 149.019 Q1561.71 153.677 1561.71 161.819 Q1561.71 169.962 1565.16 174.661 Q1568.64 179.319 1574.67 179.319 Q1580.63 179.319 1584.11 174.62 Q1587.6 169.921 1587.6 161.819 Q1587.6 153.758 1584.11 149.059 Q1580.63 144.32 1574.67 144.32 M1574.67 138 Q1584.4 138 1589.95 144.32 Q1595.5 150.639 1595.5 161.819 Q1595.5 172.959 1589.95 179.319 Q1584.4 185.639 1574.67 185.639 Q1564.91 185.639 1559.36 179.319 Q1553.85 172.959 1553.85 161.819 Q1553.85 150.639 1559.36 144.32 Q1564.91 138 1574.67 138 Z" fill="#000000" fill-rule="nonzero" fill-opacity="1" /><path clip-path="url(#clip750)" d="M1607.08 166.559 L1607.08 139.094 L1614.54 139.094 L1614.54 166.275 Q1614.54 172.716 1617.05 175.957 Q1619.56 179.157 1624.58 179.157 Q1630.62 179.157 1634.1 175.309 Q1637.63 171.461 1637.63 164.817 L1637.63 139.094 L1645.08 139.094 L1645.08 184.464 L1637.63 184.464 L1637.63 177.496 Q1634.91 181.628 1631.31 183.654 Q1627.74 185.639 1623 185.639 Q1615.18 185.639 1611.13 180.778 Q1607.08 175.917 1607.08 166.559 M1625.84 138 L1625.84 138 Z" fill="#000000" fill-rule="nonzero" fill-opacity="1" /><path clip-path="url(#clip750)" d="M1686.72 146.061 Q1685.47 145.332 1683.97 145.008 Q1682.51 144.644 1680.73 144.644 Q1674.41 144.644 1671.01 148.776 Q1667.64 152.867 1667.64 160.564 L1667.64 184.464 L1660.15 184.464 L1660.15 139.094 L1667.64 139.094 L1667.64 146.142 Q1669.99 142.011 1673.76 140.026 Q1677.53 138 1682.91 138 Q1683.68 138 1684.62 138.122 Q1685.55 138.203 1686.68 138.405 L1686.72 146.061 Z" fill="#000000" fill-rule="nonzero" fill-opacity="1" /><path clip-path="url(#clip750)" d="M1725.37 140.836 L1725.37 147.803 Q1722.21 146.061 1719.01 145.211 Q1715.85 144.32 1712.61 144.32 Q1705.36 144.32 1701.35 148.938 Q1697.34 153.515 1697.34 161.819 Q1697.34 170.124 1701.35 174.742 Q1705.36 179.319 1712.61 179.319 Q1715.85 179.319 1719.01 178.469 Q1722.21 177.577 1725.37 175.836 L1725.37 182.722 Q1722.25 184.18 1718.89 184.91 Q1715.57 185.639 1711.8 185.639 Q1701.55 185.639 1695.51 179.198 Q1689.48 172.757 1689.48 161.819 Q1689.48 150.72 1695.55 144.36 Q1701.67 138 1712.28 138 Q1715.73 138 1719.01 138.729 Q1722.29 139.418 1725.37 140.836 Z" fill="#000000" fill-rule="nonzero" fill-opacity="1" /><path clip-path="url(#clip750)" d="M1777.14 159.916 L1777.14 163.561 L1742.87 163.561 Q1743.35 171.258 1747.49 175.309 Q1751.66 179.319 1759.07 179.319 Q1763.37 179.319 1767.38 178.266 Q1771.43 177.213 1775.4 175.106 L1775.4 182.155 Q1771.39 183.856 1767.17 184.748 Q1762.96 185.639 1758.63 185.639 Q1747.77 185.639 1741.41 179.319 Q1735.09 173 1735.09 162.225 Q1735.09 151.085 1741.09 144.563 Q1747.12 138 1757.33 138 Q1766.49 138 1771.79 143.914 Q1777.14 149.788 1777.14 159.916 M1769.69 157.728 Q1769.6 151.611 1766.24 147.965 Q1762.92 144.32 1757.41 144.32 Q1751.17 144.32 1747.41 147.844 Q1743.68 151.368 1743.11 157.769 L1769.69 157.728 Z" fill="#000000" fill-rule="nonzero" fill-opacity="1" /><path clip-path="url(#clip750)" d="M1818.3 140.431 L1818.3 147.479 Q1815.14 145.859 1811.73 145.049 Q1808.33 144.239 1804.69 144.239 Q1799.14 144.239 1796.34 145.94 Q1793.59 147.641 1793.59 151.044 Q1793.59 153.637 1795.57 155.135 Q1797.56 156.594 1803.55 157.931 L1806.1 158.498 Q1814.04 160.199 1817.36 163.318 Q1820.73 166.397 1820.73 171.947 Q1820.73 178.266 1815.7 181.952 Q1810.72 185.639 1801.97 185.639 Q1798.33 185.639 1794.36 184.91 Q1790.43 184.221 1786.05 182.803 L1786.05 175.106 Q1790.18 177.253 1794.19 178.347 Q1798.2 179.4 1802.13 179.4 Q1807.4 179.4 1810.23 177.618 Q1813.07 175.795 1813.07 172.514 Q1813.07 169.476 1811 167.855 Q1808.98 166.235 1802.05 164.736 L1799.46 164.128 Q1792.53 162.67 1789.45 159.672 Q1786.37 156.634 1786.37 151.368 Q1786.37 144.968 1790.91 141.484 Q1795.45 138 1803.79 138 Q1807.93 138 1811.57 138.608 Q1815.22 139.215 1818.3 140.431 Z" fill="#000000" fill-rule="nonzero" fill-opacity="1" /><polyline clip-path="url(#clip752)" style="stroke:#008000; stroke-linecap:round; stroke-linejoin:round; stroke-width:4; stroke-opacity:1; fill:none" points="265.903,945.529 671.117,1382.25 1481.55,1419.02 1886.76,1449.67 2291.97,1451.2 "/>
<circle clip-path="url(#clip752)" cx="265.903" cy="945.529" r="14.4" fill="#008000" fill-rule="evenodd" fill-opacity="1" stroke="#000000" stroke-opacity="1" stroke-width="3.2"/>
<circle clip-path="url(#clip752)" cx="671.117" cy="1382.25" r="14.4" fill="#008000" fill-rule="evenodd" fill-opacity="1" stroke="#000000" stroke-opacity="1" stroke-width="3.2"/>
<circle clip-path="url(#clip752)" cx="1481.55" cy="1419.02" r="14.4" fill="#008000" fill-rule="evenodd" fill-opacity="1" stroke="#000000" stroke-opacity="1" stroke-width="3.2"/>
<circle clip-path="url(#clip752)" cx="1886.76" cy="1449.67" r="14.4" fill="#008000" fill-rule="evenodd" fill-opacity="1" stroke="#000000" stroke-opacity="1" stroke-width="3.2"/>
<circle clip-path="url(#clip752)" cx="2291.97" cy="1451.2" r="14.4" fill="#008000" fill-rule="evenodd" fill-opacity="1" stroke="#000000" stroke-opacity="1" stroke-width="3.2"/>
<polyline clip-path="url(#clip752)" style="stroke:#800080; stroke-linecap:round; stroke-linejoin:round; stroke-width:4; stroke-opacity:1; fill:none" points="265.903,858.185 671.117,873.509 1481.55,1173.85 1886.76,1294.9 2291.97,1322.49 "/>
<circle clip-path="url(#clip752)" cx="265.903" cy="858.185" r="14.4" fill="#800080" fill-rule="evenodd" fill-opacity="1" stroke="#000000" stroke-opacity="1" stroke-width="3.2"/>
<circle clip-path="url(#clip752)" cx="671.117" cy="873.509" r="14.4" fill="#800080" fill-rule="evenodd" fill-opacity="1" stroke="#000000" stroke-opacity="1" stroke-width="3.2"/>
<circle clip-path="url(#clip752)" cx="1481.55" cy="1173.85" r="14.4" fill="#800080" fill-rule="evenodd" fill-opacity="1" stroke="#000000" stroke-opacity="1" stroke-width="3.2"/>
<circle clip-path="url(#clip752)" cx="1886.76" cy="1294.9" r="14.4" fill="#800080" fill-rule="evenodd" fill-opacity="1" stroke="#000000" stroke-opacity="1" stroke-width="3.2"/>
<circle clip-path="url(#clip752)" cx="2291.97" cy="1322.49" r="14.4" fill="#800080" fill-rule="evenodd" fill-opacity="1" stroke="#000000" stroke-opacity="1" stroke-width="3.2"/>
<polyline clip-path="url(#clip752)" style="stroke:#0000ff; stroke-linecap:round; stroke-linejoin:round; stroke-width:4; stroke-opacity:1; fill:none" points="671.117,1279.58 1481.55,1373.05 1886.76,1428.22 2291.97,1432.82 "/>
<circle clip-path="url(#clip752)" cx="671.117" cy="1279.58" r="14.4" fill="#0000ff" fill-rule="evenodd" fill-opacity="1" stroke="#000000" stroke-opacity="1" stroke-width="3.2"/>
<circle clip-path="url(#clip752)" cx="1481.55" cy="1373.05" r="14.4" fill="#0000ff" fill-rule="evenodd" fill-opacity="1" stroke="#000000" stroke-opacity="1" stroke-width="3.2"/>
<circle clip-path="url(#clip752)" cx="1886.76" cy="1428.22" r="14.4" fill="#0000ff" fill-rule="evenodd" fill-opacity="1" stroke="#000000" stroke-opacity="1" stroke-width="3.2"/>
<circle clip-path="url(#clip752)" cx="2291.97" cy="1432.82" r="14.4" fill="#0000ff" fill-rule="evenodd" fill-opacity="1" stroke="#000000" stroke-opacity="1" stroke-width="3.2"/>
<polyline clip-path="url(#clip752)" style="stroke:#ffa500; stroke-linecap:round; stroke-linejoin:round; stroke-width:4; stroke-opacity:1; fill:none" points="265.903,-261924 671.117,308.685 1076.33,1126.35 1481.55,1302.72 1886.76,1383.84 2291.97,1402.38 "/>
<circle clip-path="url(#clip752)" cx="671.117" cy="308.685" r="14.4" fill="#ffa500" fill-rule="evenodd" fill-opacity="1" stroke="#000000" stroke-opacity="1" stroke-width="3.2"/>
<circle clip-path="url(#clip752)" cx="1076.33" cy="1126.35" r="14.4" fill="#ffa500" fill-rule="evenodd" fill-opacity="1" stroke="#000000" stroke-opacity="1" stroke-width="3.2"/>
<circle clip-path="url(#clip752)" cx="1481.55" cy="1302.72" r="14.4" fill="#ffa500" fill-rule="evenodd" fill-opacity="1" stroke="#000000" stroke-opacity="1" stroke-width="3.2"/>
<circle clip-path="url(#clip752)" cx="1886.76" cy="1383.84" r="14.4" fill="#ffa500" fill-rule="evenodd" fill-opacity="1" stroke="#000000" stroke-opacity="1" stroke-width="3.2"/>
<circle clip-path="url(#clip752)" cx="2291.97" cy="1402.38" r="14.4" fill="#ffa500" fill-rule="evenodd" fill-opacity="1" stroke="#000000" stroke-opacity="1" stroke-width="3.2"/>
<path clip-path="url(#clip750)" d="M1903.84 486.569 L2281.17 486.569 L2281.17 227.369 L1903.84 227.369  Z" fill="#ffffff" fill-rule="evenodd" fill-opacity="1"/>
<polyline clip-path="url(#clip750)" style="stroke:#000000; stroke-linecap:round; stroke-linejoin:round; stroke-width:4; stroke-opacity:1; fill:none" points="1903.84,486.569 2281.17,486.569 2281.17,227.369 1903.84,227.369 1903.84,486.569 "/>
<polyline clip-path="url(#clip750)" style="stroke:#008000; stroke-linecap:round; stroke-linejoin:round; stroke-width:4; stroke-opacity:1; fill:none" points="1927.7,279.209 2070.87,279.209 "/>
<circle clip-path="url(#clip750)" cx="1999.29" cy="279.209" r="19.8855" fill="#008000" fill-rule="evenodd" fill-opacity="1" stroke="#000000" stroke-opacity="1" stroke-width="4.55111"/>
<path clip-path="url(#clip750)" d="M2101.84 261.929 L2106.52 261.929 L2106.52 294.081 Q2106.52 300.331 2104.13 303.155 Q2101.77 305.979 2096.52 305.979 L2094.74 305.979 L2094.74 302.044 L2096.2 302.044 Q2099.3 302.044 2100.57 300.308 Q2101.84 298.572 2101.84 294.081 L2101.84 261.929 Z" fill="#000000" fill-rule="nonzero" fill-opacity="1" /><path clip-path="url(#clip750)" d="M2115.2 286.257 L2115.2 270.563 L2119.46 270.563 L2119.46 286.095 Q2119.46 289.776 2120.89 291.628 Q2122.33 293.456 2125.2 293.456 Q2128.65 293.456 2130.64 291.257 Q2132.65 289.058 2132.65 285.262 L2132.65 270.563 L2136.91 270.563 L2136.91 296.489 L2132.65 296.489 L2132.65 292.507 Q2131.1 294.868 2129.04 296.026 Q2127.01 297.16 2124.3 297.16 Q2119.83 297.16 2117.51 294.382 Q2115.2 291.604 2115.2 286.257 M2125.92 269.938 L2125.92 269.938 Z" fill="#000000" fill-rule="nonzero" fill-opacity="1" /><path clip-path="url(#clip750)" d="M2145.69 260.47 L2149.94 260.47 L2149.94 296.489 L2145.69 296.489 L2145.69 260.47 Z" fill="#000000" fill-rule="nonzero" fill-opacity="1" /><path clip-path="url(#clip750)" d="M2158.86 270.563 L2163.12 270.563 L2163.12 296.489 L2158.86 296.489 L2158.86 270.563 M2158.86 260.47 L2163.12 260.47 L2163.12 265.864 L2158.86 265.864 L2158.86 260.47 Z" fill="#000000" fill-rule="nonzero" fill-opacity="1" /><path clip-path="url(#clip750)" d="M2183.81 283.456 Q2178.65 283.456 2176.66 284.637 Q2174.67 285.817 2174.67 288.665 Q2174.67 290.933 2176.15 292.276 Q2177.65 293.595 2180.22 293.595 Q2183.76 293.595 2185.89 291.095 Q2188.05 288.572 2188.05 284.405 L2188.05 283.456 L2183.81 283.456 M2192.31 281.697 L2192.31 296.489 L2188.05 296.489 L2188.05 292.553 Q2186.59 294.915 2184.41 296.049 Q2182.24 297.16 2179.09 297.16 Q2175.11 297.16 2172.75 294.938 Q2170.41 292.692 2170.41 288.942 Q2170.41 284.567 2173.32 282.345 Q2176.26 280.123 2182.07 280.123 L2188.05 280.123 L2188.05 279.706 Q2188.05 276.767 2186.1 275.169 Q2184.18 273.549 2180.69 273.549 Q2178.46 273.549 2176.36 274.081 Q2174.25 274.614 2172.31 275.679 L2172.31 271.743 Q2174.64 270.841 2176.84 270.401 Q2179.04 269.938 2181.13 269.938 Q2186.75 269.938 2189.53 272.855 Q2192.31 275.771 2192.31 281.697 Z" fill="#000000" fill-rule="nonzero" fill-opacity="1" /><polyline clip-path="url(#clip750)" style="stroke:#800080; stroke-linecap:round; stroke-linejoin:round; stroke-width:4; stroke-opacity:1; fill:none" points="1927.7,331.049 2070.87,331.049 "/>
<circle clip-path="url(#clip750)" cx="1999.29" cy="331.049" r="19.8855" fill="#800080" fill-rule="evenodd" fill-opacity="1" stroke="#000000" stroke-opacity="1" stroke-width="4.55111"/>
<path clip-path="url(#clip750)" d="M2094.74 313.769 L2114.6 313.769 L2114.6 317.704 L2099.41 317.704 L2099.41 327.889 L2113.12 327.889 L2113.12 331.824 L2099.41 331.824 L2099.41 348.329 L2094.74 348.329 L2094.74 313.769 Z" fill="#000000" fill-rule="nonzero" fill-opacity="1" /><path clip-path="url(#clip750)" d="M2130.18 325.389 Q2126.75 325.389 2124.76 328.074 Q2122.77 330.736 2122.77 335.389 Q2122.77 340.042 2124.74 342.727 Q2126.73 345.389 2130.18 345.389 Q2133.58 345.389 2135.57 342.704 Q2137.56 340.019 2137.56 335.389 Q2137.56 330.782 2135.57 328.097 Q2133.58 325.389 2130.18 325.389 M2130.18 321.778 Q2135.73 321.778 2138.9 325.389 Q2142.07 329 2142.07 335.389 Q2142.07 341.755 2138.9 345.389 Q2135.73 349 2130.18 349 Q2124.6 349 2121.43 345.389 Q2118.28 341.755 2118.28 335.389 Q2118.28 329 2121.43 325.389 Q2124.6 321.778 2130.18 321.778 Z" fill="#000000" fill-rule="nonzero" fill-opacity="1" /><path clip-path="url(#clip750)" d="M2164.16 326.384 Q2163.44 325.968 2162.58 325.782 Q2161.75 325.574 2160.73 325.574 Q2157.12 325.574 2155.18 327.935 Q2153.26 330.273 2153.26 334.671 L2153.26 348.329 L2148.97 348.329 L2148.97 322.403 L2153.26 322.403 L2153.26 326.431 Q2154.6 324.07 2156.75 322.935 Q2158.9 321.778 2161.98 321.778 Q2162.42 321.778 2162.95 321.847 Q2163.49 321.894 2164.13 322.009 L2164.16 326.384 Z" fill="#000000" fill-rule="nonzero" fill-opacity="1" /><path clip-path="url(#clip750)" d="M2172.84 315.042 L2172.84 322.403 L2181.61 322.403 L2181.61 325.713 L2172.84 325.713 L2172.84 339.787 Q2172.84 342.958 2173.69 343.861 Q2174.57 344.764 2177.24 344.764 L2181.61 344.764 L2181.61 348.329 L2177.24 348.329 Q2172.31 348.329 2170.43 346.5 Q2168.56 344.648 2168.56 339.787 L2168.56 325.713 L2165.43 325.713 L2165.43 322.403 L2168.56 322.403 L2168.56 315.042 L2172.84 315.042 Z" fill="#000000" fill-rule="nonzero" fill-opacity="1" /><path clip-path="url(#clip750)" d="M2202.24 326.384 Q2201.52 325.968 2200.66 325.782 Q2199.83 325.574 2198.81 325.574 Q2195.2 325.574 2193.25 327.935 Q2191.33 330.273 2191.33 334.671 L2191.33 348.329 L2187.05 348.329 L2187.05 322.403 L2191.33 322.403 L2191.33 326.431 Q2192.68 324.07 2194.83 322.935 Q2196.98 321.778 2200.06 321.778 Q2200.5 321.778 2201.03 321.847 Q2201.57 321.894 2202.21 322.009 L2202.24 326.384 Z" fill="#000000" fill-rule="nonzero" fill-opacity="1" /><path clip-path="url(#clip750)" d="M2218.49 335.296 Q2213.32 335.296 2211.33 336.477 Q2209.34 337.657 2209.34 340.505 Q2209.34 342.773 2210.82 344.116 Q2212.33 345.435 2214.9 345.435 Q2218.44 345.435 2220.57 342.935 Q2222.72 340.412 2222.72 336.245 L2222.72 335.296 L2218.49 335.296 M2226.98 333.537 L2226.98 348.329 L2222.72 348.329 L2222.72 344.393 Q2221.26 346.755 2219.09 347.889 Q2216.91 349 2213.76 349 Q2209.78 349 2207.42 346.778 Q2205.08 344.532 2205.08 340.782 Q2205.08 336.407 2208 334.185 Q2210.94 331.963 2216.75 331.963 L2222.72 331.963 L2222.72 331.546 Q2222.72 328.607 2220.78 327.009 Q2218.86 325.389 2215.36 325.389 Q2213.14 325.389 2211.03 325.921 Q2208.93 326.454 2206.98 327.519 L2206.98 323.583 Q2209.32 322.681 2211.52 322.241 Q2213.72 321.778 2215.8 321.778 Q2221.43 321.778 2224.2 324.695 Q2226.98 327.611 2226.98 333.537 Z" fill="#000000" fill-rule="nonzero" fill-opacity="1" /><path clip-path="url(#clip750)" d="M2257.31 332.681 L2257.31 348.329 L2253.05 348.329 L2253.05 332.819 Q2253.05 329.139 2251.61 327.31 Q2250.18 325.482 2247.31 325.482 Q2243.86 325.482 2241.87 327.681 Q2239.88 329.88 2239.88 333.676 L2239.88 348.329 L2235.59 348.329 L2235.59 322.403 L2239.88 322.403 L2239.88 326.431 Q2241.4 324.093 2243.46 322.935 Q2245.55 321.778 2248.25 321.778 Q2252.72 321.778 2255.01 324.556 Q2257.31 327.31 2257.31 332.681 Z" fill="#000000" fill-rule="nonzero" fill-opacity="1" /><polyline clip-path="url(#clip750)" style="stroke:#0000ff; stroke-linecap:round; stroke-linejoin:round; stroke-width:4; stroke-opacity:1; fill:none" points="1927.7,382.889 2070.87,382.889 "/>
<circle clip-path="url(#clip750)" cx="1999.29" cy="382.889" r="19.8855" fill="#0000ff" fill-rule="evenodd" fill-opacity="1" stroke="#000000" stroke-opacity="1" stroke-width="4.55111"/>
<path clip-path="url(#clip750)" d="M2122.61 368.271 L2122.61 373.201 Q2120.25 371.002 2117.56 369.914 Q2114.9 368.826 2111.89 368.826 Q2105.96 368.826 2102.82 372.46 Q2099.67 376.072 2099.67 382.923 Q2099.67 389.752 2102.82 393.386 Q2105.96 396.997 2111.89 396.997 Q2114.9 396.997 2117.56 395.909 Q2120.25 394.821 2122.61 392.622 L2122.61 397.507 Q2120.15 399.173 2117.4 400.007 Q2114.67 400.84 2111.61 400.84 Q2103.76 400.84 2099.25 396.048 Q2094.74 391.234 2094.74 382.923 Q2094.74 374.59 2099.25 369.798 Q2103.76 364.984 2111.61 364.984 Q2114.71 364.984 2117.45 365.817 Q2120.2 366.627 2122.61 368.271 Z" fill="#000000" fill-rule="nonzero" fill-opacity="1" /><polyline clip-path="url(#clip750)" style="stroke:#ffa500; stroke-linecap:round; stroke-linejoin:round; stroke-width:4; stroke-opacity:1; fill:none" points="1927.7,434.729 2070.87,434.729 "/>
<circle clip-path="url(#clip750)" cx="1999.29" cy="434.729" r="19.8855" fill="#ffa500" fill-rule="evenodd" fill-opacity="1" stroke="#000000" stroke-opacity="1" stroke-width="4.55111"/>
<path clip-path="url(#clip750)" d="M2099.41 421.291 L2099.41 434.277 L2105.29 434.277 Q2108.56 434.277 2110.34 432.587 Q2112.12 430.898 2112.12 427.773 Q2112.12 424.671 2110.34 422.981 Q2108.56 421.291 2105.29 421.291 L2099.41 421.291 M2094.74 417.449 L2105.29 417.449 Q2111.1 417.449 2114.07 420.088 Q2117.05 422.703 2117.05 427.773 Q2117.05 432.888 2114.07 435.504 Q2111.1 438.12 2105.29 438.12 L2099.41 438.12 L2099.41 452.009 L2094.74 452.009 L2094.74 417.449 Z" fill="#000000" fill-rule="nonzero" fill-opacity="1" /><path clip-path="url(#clip750)" d="M2133.93 454.416 Q2132.12 459.046 2130.41 460.458 Q2128.7 461.87 2125.82 461.87 L2122.42 461.87 L2122.42 458.305 L2124.92 458.305 Q2126.68 458.305 2127.65 457.472 Q2128.63 456.638 2129.81 453.536 L2130.57 451.592 L2120.08 426.083 L2124.6 426.083 L2132.7 446.361 L2140.8 426.083 L2145.32 426.083 L2133.93 454.416 Z" fill="#000000" fill-rule="nonzero" fill-opacity="1" /><path clip-path="url(#clip750)" d="M2155.41 418.722 L2155.41 426.083 L2164.18 426.083 L2164.18 429.393 L2155.41 429.393 L2155.41 443.467 Q2155.41 446.638 2156.26 447.541 Q2157.14 448.444 2159.81 448.444 L2164.18 448.444 L2164.18 452.009 L2159.81 452.009 Q2154.88 452.009 2153 450.18 Q2151.13 448.328 2151.13 443.467 L2151.13 429.393 L2148 429.393 L2148 426.083 L2151.13 426.083 L2151.13 418.722 L2155.41 418.722 Z" fill="#000000" fill-rule="nonzero" fill-opacity="1" /><path clip-path="url(#clip750)" d="M2191.33 436.361 L2191.33 452.009 L2187.07 452.009 L2187.07 436.499 Q2187.07 432.819 2185.64 430.99 Q2184.2 429.162 2181.33 429.162 Q2177.88 429.162 2175.89 431.361 Q2173.9 433.56 2173.9 437.356 L2173.9 452.009 L2169.62 452.009 L2169.62 415.99 L2173.9 415.99 L2173.9 430.111 Q2175.43 427.773 2177.49 426.615 Q2179.57 425.458 2182.28 425.458 Q2186.75 425.458 2189.04 428.236 Q2191.33 430.99 2191.33 436.361 Z" fill="#000000" fill-rule="nonzero" fill-opacity="1" /><path clip-path="url(#clip750)" d="M2209.88 429.069 Q2206.45 429.069 2204.46 431.754 Q2202.47 434.416 2202.47 439.069 Q2202.47 443.722 2204.44 446.407 Q2206.43 449.069 2209.88 449.069 Q2213.28 449.069 2215.27 446.384 Q2217.26 443.699 2217.26 439.069 Q2217.26 434.462 2215.27 431.777 Q2213.28 429.069 2209.88 429.069 M2209.88 425.458 Q2215.43 425.458 2218.6 429.069 Q2221.77 432.68 2221.77 439.069 Q2221.77 445.435 2218.6 449.069 Q2215.43 452.68 2209.88 452.68 Q2204.3 452.68 2201.13 449.069 Q2197.98 445.435 2197.98 439.069 Q2197.98 432.68 2201.13 429.069 Q2204.3 425.458 2209.88 425.458 Z" fill="#000000" fill-rule="nonzero" fill-opacity="1" /><path clip-path="url(#clip750)" d="M2250.38 436.361 L2250.38 452.009 L2246.12 452.009 L2246.12 436.499 Q2246.12 432.819 2244.69 430.99 Q2243.25 429.162 2240.38 429.162 Q2236.94 429.162 2234.94 431.361 Q2232.95 433.56 2232.95 437.356 L2232.95 452.009 L2228.67 452.009 L2228.67 426.083 L2232.95 426.083 L2232.95 430.111 Q2234.48 427.773 2236.54 426.615 Q2238.63 425.458 2241.33 425.458 Q2245.8 425.458 2248.09 428.236 Q2250.38 430.99 2250.38 436.361 Z" fill="#000000" fill-rule="nonzero" fill-opacity="1" /></svg>
