<svg width="576" height="576" xmlns="http://www.w3.org/2000/svg" xmlns:xlink="http://www.w3.org/1999/xlink" overflow="hidden"><defs><clipPath id="clip0"><rect x="0" y="0" width="576" height="576"/></clipPath><clipPath id="clip1"><rect x="136" y="10" width="291" height="528"/></clipPath><clipPath id="clip2"><rect x="136" y="10" width="291" height="528"/></clipPath></defs><g clip-path="url(#clip0)"><rect x="0" y="0" width="576" height="576" fill="#FFFFFF"/><g clip-path="url(#clip1)"><g clip-path="url(#clip2)"><path d="M0 647.098 647.098 647.098 647.098 0 0 0Z" fill="#FFFFFF" fill-rule="evenodd" transform="matrix(1 0 0 1.00107 -54.4668 -16.9934)"/><path d="M37.947 617.406 637.545 617.406 637.545 9.55361 37.947 9.55361Z" fill="#FFFFFF" fill-rule="evenodd" transform="matrix(1 0 0 1.00107 -54.4668 -16.9934)"/><path d="M422.85 414.788 412.147 437.744 457.812 545.265 443.598 429.315 422.85 414.788 422.85 414.788Z" fill="#FF0000" fill-rule="evenodd" transform="matrix(1 0 0 1.00107 -54.4668 -16.9934)"/><path d="M422.85 414.788 412.147 437.744 457.812 545.265 443.598 429.315 422.85 414.788" stroke="#FF0000" stroke-width="0.808873" fill="none" transform="matrix(1 0 0 1.00107 -54.4668 -16.9934)"/><path d="M440.399 404.657 237.78 53.714 202.685 73.9756 405.304 424.919 440.399 404.657Z" fill="#F2F2F2" fill-rule="evenodd" transform="matrix(1 0 0 1.00107 -54.4668 -16.9934)"/><path d="M440.399 404.657 237.78 53.714 202.685 73.9756 405.304 424.919 440.399 404.657" stroke="#000000" stroke-width="0.808873" fill="none" transform="matrix(1 0 0 1.00107 -54.4668 -16.9934)"/><path d="M440.399 404.657 475.492 384.396 399.874 334.469 440.399 404.657Z" fill="#000080" fill-rule="evenodd" transform="matrix(1 0 0 1.00107 -54.4668 -16.9934)"/><path d="M440.399 404.657 475.492 384.396 399.874 334.469 440.399 404.657" stroke="#000000" stroke-width="0.808873" fill="none" transform="matrix(1 0 0 1.00107 -54.4668 -16.9934)"/><path d="M405.304 424.919 370.209 445.181 364.779 354.731 405.304 424.919Z" fill="#000080" fill-rule="evenodd" transform="matrix(1 0 0 1.00107 -54.4668 -16.9934)"/><path d="M405.304 424.919 370.209 445.181 364.779 354.731 405.304 424.919" stroke="#000000" stroke-width="0.808873" fill="none" transform="matrix(1 0 0 1.00107 -54.4668 -16.9934)"/><path d="M237.78 53.714 235.98 51.0937 233.79 48.7874 231.269 46.8519 228.474 45.3347 225.477 44.2734 222.351 43.6941 219.172 43.6108 216.022 44.0257 212.972 44.9288 210.103 46.2976 207.482 48.0984 205.177 50.287 203.239 52.8095 201.723 55.6035 200.662 58.6006 200.083 61.7269 199.999 64.9052 200.414 68.0575 201.317 71.106 202.685 73.9756 220.234 63.8447 237.78 53.714Z" fill="#000080" fill-rule="evenodd" transform="matrix(1 0 0 1.00107 -54.4668 -16.9934)"/><path d="M237.78 53.714 235.98 51.0937 233.79 48.7874 231.269 46.8519 228.474 45.3347 225.477 44.2734 222.351 43.6941 219.172 43.6108 216.022 44.0257 212.972 44.9288 210.103 46.2976 207.482 48.0984 205.177 50.287 203.239 52.8095 201.723 55.6035 200.662 58.6006 200.083 61.7269 199.999 64.9052 200.414 68.0575 201.317 71.106 202.685 73.9756 220.234 63.8447 237.78 53.714" stroke="#000000" stroke-width="0.808873" fill="none" transform="matrix(1 0 0 1.00107 -54.4668 -16.9934)"/><path d="M237.78 53.714 235.98 51.0937 233.79 48.7874 231.269 46.8519 228.474 45.3347 225.477 44.2734 222.351 43.6941 219.172 43.6108 216.022 44.0257 212.972 44.9288 210.103 46.2976 207.482 48.0984 205.177 50.287 203.239 52.8095 201.723 55.6035 200.662 58.6006 200.083 61.7269 199.999 64.9052 200.414 68.0575 201.317 71.106 202.685 73.9756 220.234 63.8447 237.78 53.714Z" fill="#000080" fill-rule="evenodd" transform="matrix(1 0 0 1.00107 -54.4668 -16.9934)"/><path d="M237.78 53.714 235.98 51.0937 233.79 48.7874 231.269 46.8519 228.474 45.3347 225.477 44.2734 222.351 43.6941 219.172 43.6108 216.022 44.0257 212.972 44.9288 210.103 46.2976 207.482 48.0984 205.177 50.287 203.239 52.8095 201.723 55.6035 200.662 58.6006 200.083 61.7269 199.999 64.9052 200.414 68.0575 201.317 71.106 202.685 73.9756 220.234 63.8447 237.78 53.714" stroke="#000000" stroke-width="0.808873" fill="none" transform="matrix(1 0 0 1.00107 -54.4668 -16.9934)"/></g></g><path d="M282.5 273.5C282.5 267.977 286.753 263.5 292 263.5 297.247 263.5 301.5 267.977 301.5 273.5 301.5 279.023 297.247 283.5 292 283.5 286.753 283.5 282.5 279.023 282.5 273.5Z" stroke="#000000" stroke-width="1.33333" stroke-miterlimit="8" fill="#FFFFFF" fill-rule="evenodd"/><path d="M292.5 263.5 292.5 282.7" stroke="#000000" stroke-width="1.33333" stroke-miterlimit="8" fill="none" fill-rule="evenodd"/><path d="M282.5 273.5 301.7 273.5" stroke="#000000" stroke-width="1.33333" stroke-miterlimit="8" fill="none" fill-rule="evenodd"/><path d="M282.5 272.991C282.505 267.748 286.757 263.5 292 263.5L292 273Z" stroke="#000000" stroke-width="1.33333" stroke-miterlimit="8" fill-rule="evenodd"/><path d="M301.5 273.509C301.495 278.476 297.243 282.5 292 282.5L292 273.5Z" stroke="#000000" stroke-width="1.33333" stroke-miterlimit="8" fill-rule="evenodd"/><path d="M170.5 57.5001 446.459 534.523" stroke="#000000" stroke-width="1.33333" stroke-miterlimit="8" stroke-dasharray="5.33333 4 1.33333 4" fill="none" fill-rule="evenodd"/><path d="M0 0 185.361 108.055" stroke="#000000" stroke-width="1.33333" stroke-miterlimit="8" stroke-dasharray="5.33333 4" fill="none" fill-rule="evenodd" transform="matrix(1 0 0 -1 276.5 455.555)"/><path d="M408.058 548.556 369.5 401.5" stroke="#000000" stroke-width="1.33333" stroke-miterlimit="8" stroke-dasharray="5.33333 4" fill="none" fill-rule="evenodd"/><path d="M0.66664-0.00597022 2.34491 187.391 1.01163 187.403-0.66664 0.00597022ZM6.85193 179.685 1.69011 188.719-3.63269 179.779C-3.82105 179.462-3.71728 179.053-3.40092 178.865-3.08456 178.677-2.6754 178.78-2.48704 179.097L2.25108 187.055 1.09942 187.065 5.69426 179.023C5.87692 178.704 6.28415 178.593 6.60384 178.775 6.92352 178.958 7.0346 179.365 6.85193 179.685Z" transform="matrix(1 0 0 -1 368.5 402.216)"/><path d="M297.096 276.023C318.898 263.42 343.625 256.756 368.808 256.695" stroke="#000000" stroke-width="1.33333" stroke-miterlimit="8" fill="none" fill-rule="evenodd"/><text font-family="Cambria Math,Cambria Math_MSFontService,sans-serif" font-weight="400" font-size="24" transform="translate(332.717 250)">𝜃</text><path d="M0.00576817-0.666642 149.615 0.62786 149.603 1.96114-0.00576817 0.666642ZM141.991-4.01412 150.933 1.30596 141.901 6.47052C141.581 6.65328 141.174 6.54233 140.991 6.2227 140.808 5.90308 140.919 5.49581 141.239 5.31305L149.279 0.715773 149.269 1.86744 141.31-2.86827C140.993-3.05654 140.889-3.46566 141.078-3.78208 141.266-4.0985 141.675-4.20239 141.991-4.01412Z" transform="matrix(1 0 0 -1 368.5 402.806)"/><text font-family="Cambria Math,Cambria Math_MSFontService,sans-serif" font-weight="400" font-size="24" transform="translate(384.875 222)">𝑦<tspan font-size="24" x="121.918" y="168">𝑥</tspan></text><path d="M376.268 425 394.513 493.334 389.361 494.71 371.115 426.376ZM361.497 431.704 367.5 402.5 387.261 424.825Z" fill="#0D0D0D"/><path d="M290.344 340.203 289.833 282.524 295.167 282.476 295.678 340.156ZM306.32 337.395 293.224 364.179 279.655 337.631Z"/><text font-family="Cambria Math,Cambria Math_MSFontService,sans-serif" font-weight="400" font-size="24" transform="translate(268.418 386)">𝑚𝑔<tspan font-size="24" x="88.851" y="114">𝑇</tspan></text><path d="M428.198 504.074C418.804 509.591 408.701 513.802 398.17 516.592" stroke="#000000" stroke-width="1.33333" stroke-miterlimit="8" fill="none" fill-rule="evenodd"/><text font-family="Cambria Math,Cambria Math_MSFontService,sans-serif" font-weight="400" font-size="24" transform="translate(413.941 531)">𝛼</text><path d="M271.62 450.989 196.614 322.023 197.767 321.352 272.773 450.319ZM272.593 436.915 272.887 451.84 260.06 444.205C259.743 444.016 259.639 443.607 259.828 443.291 260.016 442.974 260.425 442.871 260.741 443.059L272.537 450.08 271.53 450.666 271.26 436.942C271.252 436.573 271.545 436.269 271.913 436.262 272.281 436.255 272.586 436.547 272.593 436.915ZM196.794 335.425 196.5 320.501 209.327 328.136C209.644 328.324 209.748 328.733 209.559 329.05 209.371 329.366 208.962 329.47 208.645 329.282L196.849 322.26 197.857 321.674 198.127 335.399C198.134 335.767 197.842 336.071 197.474 336.079 197.106 336.086 196.801 335.793 196.794 335.425Z"/><text font-family="Cambria Math,Cambria Math_MSFontService,sans-serif" font-weight="400" font-size="24" transform="translate(200.205 413)">ℎ<tspan font-size="18" x="13.3333" y="4">𝑐𝑔</tspan></text></g></svg>