<?xml version="1.0" encoding="utf-8"?>
<svg xmlns="http://www.w3.org/2000/svg" xmlns:xlink="http://www.w3.org/1999/xlink" width="400" height="400" viewBox="0 0 1600 1600">
<defs>
  <clipPath id="clip680">
    <rect x="0" y="0" width="1600" height="1600"/>
  </clipPath>
</defs>
<path clip-path="url(#clip680)" d="
M0 1600 L1600 1600 L1600 0 L0 0  Z
  " fill="#ffffff" fill-rule="evenodd" fill-opacity="1"/>
<defs>
  <clipPath id="clip681">
    <rect x="320" y="160" width="1121" height="1121"/>
  </clipPath>
</defs>
<path clip-path="url(#clip680)" d="
M155.906 1484.92 L1568.5 1484.92 L1568.5 31.4961 L155.906 31.4961  Z
  " fill="#ffffff" fill-rule="evenodd" fill-opacity="1"/>
<defs>
  <clipPath id="clip682">
    <rect x="155" y="31" width="1414" height="1454"/>
  </clipPath>
</defs>
<path clip-path="url(#clip682)" d="
M932.835 976.219 L932.835 249.509 L791.575 249.509 L791.575 976.219 L932.835 976.219 L932.835 976.219  Z
  " fill="#d3d3d3" fill-rule="evenodd" fill-opacity="0.5"/>
<polyline clip-path="url(#clip682)" style="stroke:#000000; stroke-width:4; stroke-opacity:0.5; fill:none" points="
  932.835,976.219 932.835,249.509 791.575,249.509 791.575,976.219 932.835,976.219 
  "/>
<path clip-path="url(#clip682)" d="
M932.835 249.509 L932.799 247.203 L932.693 244.9 L932.515 242.601 L932.266 240.309 L931.948 238.027 L931.558 235.756 L931.099 233.499 L930.571 231.258 L929.974 229.035 
  L929.308 226.833 L928.575 224.654 L927.775 222.5 L926.909 220.373 L925.978 218.275 L924.983 216.209 L923.925 214.177 L922.804 212.18 L921.622 210.22 L920.381 208.3 
  L919.081 206.422 L917.724 204.587 L916.31 202.797 L914.843 201.054 L913.322 199.36 L911.75 197.717 L910.128 196.126 L908.458 194.588 L906.741 193.106 L904.979 191.68 
  L903.174 190.313 L901.328 189.005 L899.443 187.759 L897.52 186.574 L895.561 185.453 L893.569 184.396 L891.546 183.405 L889.492 182.481 L887.412 181.624 L885.306 180.835 
  L883.176 180.115 L881.026 179.466 L878.856 178.887 L876.67 178.378 L874.47 177.942 L872.256 177.578 L870.033 177.286 L867.802 177.067 L865.565 176.92 L863.325 176.847 
  L861.084 176.847 L858.844 176.92 L856.607 177.067 L854.376 177.286 L852.153 177.578 L849.94 177.942 L847.739 178.378 L845.553 178.887 L843.384 179.466 L841.233 180.115 
  L839.104 180.835 L836.998 181.624 L834.917 182.481 L832.864 183.405 L830.84 184.396 L828.848 185.453 L826.89 186.574 L824.967 187.759 L823.081 189.005 L821.235 190.313 
  L819.431 191.68 L817.669 193.106 L815.952 194.588 L814.282 196.126 L812.66 197.717 L811.088 199.36 L809.567 201.054 L808.099 202.797 L806.686 204.587 L805.329 206.422 
  L804.029 208.3 L802.787 210.22 L801.605 212.18 L800.485 214.177 L799.426 216.209 L798.431 218.275 L797.5 220.373 L796.634 222.5 L795.834 224.654 L795.101 226.833 
  L794.436 229.035 L793.839 231.258 L793.31 233.499 L792.851 235.756 L792.462 238.027 L792.143 240.309 L791.895 242.601 L791.717 244.9 L791.61 247.203 L791.575 249.509 
  L932.835 249.509  Z
  " fill="#000080" fill-rule="evenodd" fill-opacity="1"/>
<polyline clip-path="url(#clip682)" style="stroke:#000000; stroke-width:4; stroke-opacity:1; fill:none" points="
  932.835,249.509 932.799,247.203 932.693,244.9 932.515,242.601 932.266,240.309 931.948,238.027 931.558,235.756 931.099,233.499 930.571,231.258 929.974,229.035 
  929.308,226.833 928.575,224.654 927.775,222.5 926.909,220.373 925.978,218.275 924.983,216.209 923.925,214.177 922.804,212.18 921.622,210.22 920.381,208.3 
  919.081,206.422 917.724,204.587 916.31,202.797 914.843,201.054 913.322,199.36 911.75,197.717 910.128,196.126 908.458,194.588 906.741,193.106 904.979,191.68 
  903.174,190.313 901.328,189.005 899.443,187.759 897.52,186.574 895.561,185.453 893.569,184.396 891.546,183.405 889.492,182.481 887.412,181.624 885.306,180.835 
  883.176,180.115 881.026,179.466 878.856,178.887 876.67,178.378 874.47,177.942 872.256,177.578 870.033,177.286 867.802,177.067 865.565,176.92 863.325,176.847 
  861.084,176.847 858.844,176.92 856.607,177.067 854.376,177.286 852.153,177.578 849.94,177.942 847.739,178.378 845.553,178.887 843.384,179.466 841.233,180.115 
  839.104,180.835 836.998,181.624 834.917,182.481 832.864,183.405 830.84,184.396 828.848,185.453 826.89,186.574 824.967,187.759 823.081,189.005 821.235,190.313 
  819.431,191.68 817.669,193.106 815.952,194.588 814.282,196.126 812.66,197.717 811.088,199.36 809.567,201.054 808.099,202.797 806.686,204.587 805.329,206.422 
  804.029,208.3 802.787,210.22 801.605,212.18 800.485,214.177 799.426,216.209 798.431,218.275 797.5,220.373 796.634,222.5 795.834,224.654 795.101,226.833 
  794.436,229.035 793.839,231.258 793.31,233.499 792.851,235.756 792.462,238.027 792.143,240.309 791.895,242.601 791.717,244.9 791.61,247.203 791.575,249.509 
  932.835,249.509 
  "/>
<path clip-path="url(#clip682)" d="
M932.835 976.219 L1003.46 976.219 L932.835 830.877 L932.835 976.219 L932.835 976.219  Z
  " fill="#000080" fill-rule="evenodd" fill-opacity="1"/>
<polyline clip-path="url(#clip682)" style="stroke:#000000; stroke-width:4; stroke-opacity:1; fill:none" points="
  932.835,976.219 1003.46,976.219 932.835,830.877 932.835,976.219 
  "/>
<path clip-path="url(#clip682)" d="
M791.575 976.219 L720.945 976.219 L791.575 830.877 L791.575 976.219 L791.575 976.219  Z
  " fill="#000080" fill-rule="evenodd" fill-opacity="1"/>
<polyline clip-path="url(#clip682)" style="stroke:#000000; stroke-width:4; stroke-opacity:1; fill:none" points="
  791.575,976.219 720.945,976.219 791.575,830.877 791.575,976.219 
  "/>
<path clip-path="url(#clip682)" d="
M862.205 976.219 L932.835 1048.89 L862.205 1339.57 L791.575 1048.89 L862.205 976.219 L862.205 976.219  Z
  " fill="#ff4500" fill-rule="evenodd" fill-opacity="0.9"/>
<polyline clip-path="url(#clip682)" style="stroke:#ffffff; stroke-width:4; stroke-opacity:0.9; fill:none" points="
  862.205,976.219 932.835,1048.89 862.205,1339.57 791.575,1048.89 862.205,976.219 
  "/>
<polyline clip-path="url(#clip682)" style="stroke:#00a9ad; stroke-width:4; stroke-opacity:1; fill:none" points="
  155.906,1484.92 155.906,31.4961 
  "/>
<polyline clip-path="url(#clip682)" style="stroke:#ed5d92; stroke-width:4; stroke-opacity:1; fill:none" points="
  155.906,1484.92 1568.5,1484.92 
  "/>
<polyline clip-path="url(#clip682)" style="stroke:#c68125; stroke-width:4; stroke-opacity:1; fill:none" points="
  1568.5,1484.92 1568.5,31.4961 
  "/>
<polyline clip-path="url(#clip682)" style="stroke:#00a98d; stroke-width:4; stroke-opacity:1; fill:none" points="
  155.906,31.4961 1568.5,31.4961 
  "/>
<g clip-path="url(#clip680)">
<text style="fill:#1a1a1a; fill-opacity:1; font-family:Courier,Courier New,Lucida Sans Typewriter,Lucida Typewriter,monospace; font-size:105px; text-anchor:middle;" transform="rotate(0, 862.205, 461.687)" x="862.205" y="461.687">F</text>
</g>
<g clip-path="url(#clip680)">
<text style="fill:#1a1a1a; fill-opacity:1; font-family:Courier,Courier New,Lucida Sans Typewriter,Lucida Typewriter,monospace; font-size:105px; text-anchor:middle;" transform="rotate(0, 862.205, 570.693)" x="862.205" y="570.693">S</text>
</g>
<g clip-path="url(#clip680)">
<text style="fill:#1a1a1a; fill-opacity:1; font-family:Courier,Courier New,Lucida Sans Typewriter,Lucida Typewriter,monospace; font-size:105px; text-anchor:middle;" transform="rotate(0, 862.205, 679.699)" x="862.205" y="679.699">L</text>
</g>
</svg>
