<?xml version="1.0" encoding="utf-8"?>
<svg xmlns="http://www.w3.org/2000/svg" xmlns:xlink="http://www.w3.org/1999/xlink" width="400" height="400" viewBox="0 0 1600 1600">
<defs>
  <clipPath id="clip860">
    <rect x="0" y="0" width="1600" height="1600"/>
  </clipPath>
</defs>
<path clip-path="url(#clip860)" d="
M0 1600 L1600 1600 L1600 0 L0 0  Z
  " fill="#ffffff" fill-rule="evenodd" fill-opacity="1"/>
<defs>
  <clipPath id="clip861">
    <rect x="320" y="160" width="1121" height="1121"/>
  </clipPath>
</defs>
<path clip-path="url(#clip860)" d="
M171.654 1469.17 L1552.76 1469.17 L1552.76 47.2441 L171.654 47.2441  Z
  " fill="#ffffff" fill-rule="evenodd" fill-opacity="1"/>
<defs>
  <clipPath id="clip862">
    <rect x="171" y="47" width="1382" height="1423"/>
  </clipPath>
</defs>
<path clip-path="url(#clip862)" d="
M931.26 971.495 L931.26 260.533 L793.15 260.533 L793.15 971.495 L931.26 971.495 L931.26 971.495  Z
  " fill="#d3d3d3" fill-rule="evenodd" fill-opacity="0.5"/>
<polyline clip-path="url(#clip862)" style="stroke:#000000; stroke-width:4; stroke-opacity:0.5; fill:none" points="
  931.26,971.495 931.26,260.533 793.15,260.533 793.15,971.495 931.26,971.495 
  "/>
<path clip-path="url(#clip862)" d="
M931.26 260.533 L931.225 258.277 L931.121 256.023 L930.947 253.775 L930.704 251.532 L930.392 249.299 L930.012 247.078 L929.563 244.869 L929.047 242.677 L928.463 240.503 
  L927.812 238.348 L927.095 236.216 L926.313 234.109 L925.467 232.028 L924.556 229.976 L923.583 227.955 L922.549 225.966 L921.453 224.012 L920.298 222.095 L919.084 220.217 
  L917.813 218.379 L916.486 216.584 L915.104 214.833 L913.669 213.128 L912.182 211.471 L910.645 209.863 L909.059 208.306 L907.426 206.802 L905.748 205.352 L904.025 203.957 
  L902.261 202.619 L900.456 201.34 L898.612 200.12 L896.732 198.962 L894.818 197.865 L892.87 196.831 L890.891 195.861 L888.884 194.957 L886.85 194.118 L884.791 193.347 
  L882.709 192.643 L880.606 192.007 L878.485 191.441 L876.348 190.944 L874.196 190.517 L872.032 190.16 L869.859 189.875 L867.677 189.66 L865.491 189.517 L863.3 189.445 
  L861.109 189.445 L858.919 189.517 L856.732 189.66 L854.551 189.875 L852.377 190.16 L850.213 190.517 L848.062 190.944 L845.924 191.441 L843.803 192.007 L841.701 192.643 
  L839.619 193.347 L837.56 194.118 L835.526 194.957 L833.518 195.861 L831.54 196.831 L829.592 197.865 L827.677 198.962 L825.797 200.12 L823.954 201.34 L822.149 202.619 
  L820.384 203.957 L818.662 205.352 L816.983 206.802 L815.35 208.306 L813.764 209.863 L812.227 211.471 L810.74 213.128 L809.306 214.833 L807.924 216.584 L806.597 218.379 
  L805.326 220.217 L804.112 222.095 L802.957 224.012 L801.861 225.966 L800.826 227.955 L799.853 229.976 L798.943 232.028 L798.096 234.109 L797.314 236.216 L796.598 238.348 
  L795.947 240.503 L795.363 242.677 L794.846 244.869 L794.398 247.078 L794.017 249.299 L793.705 251.532 L793.462 253.775 L793.289 256.023 L793.184 258.277 L793.15 260.533 
  L931.26 260.533  Z
  " fill="#000080" fill-rule="evenodd" fill-opacity="0.7"/>
<polyline clip-path="url(#clip862)" style="stroke:#000000; stroke-width:4; stroke-opacity:0.7; fill:none" points="
  931.26,260.533 931.225,258.277 931.121,256.023 930.947,253.775 930.704,251.532 930.392,249.299 930.012,247.078 929.563,244.869 929.047,242.677 928.463,240.503 
  927.812,238.348 927.095,236.216 926.313,234.109 925.467,232.028 924.556,229.976 923.583,227.955 922.549,225.966 921.453,224.012 920.298,222.095 919.084,220.217 
  917.813,218.379 916.486,216.584 915.104,214.833 913.669,213.128 912.182,211.471 910.645,209.863 909.059,208.306 907.426,206.802 905.748,205.352 904.025,203.957 
  902.261,202.619 900.456,201.34 898.612,200.12 896.732,198.962 894.818,197.865 892.87,196.831 890.891,195.861 888.884,194.957 886.85,194.118 884.791,193.347 
  882.709,192.643 880.606,192.007 878.485,191.441 876.348,190.944 874.196,190.517 872.032,190.16 869.859,189.875 867.677,189.66 865.491,189.517 863.3,189.445 
  861.109,189.445 858.919,189.517 856.732,189.66 854.551,189.875 852.377,190.16 850.213,190.517 848.062,190.944 845.924,191.441 843.803,192.007 841.701,192.643 
  839.619,193.347 837.56,194.118 835.526,194.957 833.518,195.861 831.54,196.831 829.592,197.865 827.677,198.962 825.797,200.12 823.954,201.34 822.149,202.619 
  820.384,203.957 818.662,205.352 816.983,206.802 815.35,208.306 813.764,209.863 812.227,211.471 810.74,213.128 809.306,214.833 807.924,216.584 806.597,218.379 
  805.326,220.217 804.112,222.095 802.957,224.012 801.861,225.966 800.826,227.955 799.853,229.976 798.943,232.028 798.096,234.109 797.314,236.216 796.598,238.348 
  795.947,240.503 795.363,242.677 794.846,244.869 794.398,247.078 794.017,249.299 793.705,251.532 793.462,253.775 793.289,256.023 793.184,258.277 793.15,260.533 
  931.26,260.533 
  "/>
<path clip-path="url(#clip862)" d="
M931.26 971.495 L1000.32 971.495 L931.26 829.302 L931.26 971.495 L931.26 971.495  Z
  " fill="#000080" fill-rule="evenodd" fill-opacity="0.7"/>
<polyline clip-path="url(#clip862)" style="stroke:#000000; stroke-width:4; stroke-opacity:0.7; fill:none" points="
  931.26,971.495 1000.32,971.495 931.26,829.302 931.26,971.495 
  "/>
<path clip-path="url(#clip862)" d="
M793.15 971.495 L724.095 971.495 L793.15 829.302 L793.15 971.495 L793.15 971.495  Z
  " fill="#000080" fill-rule="evenodd" fill-opacity="0.7"/>
<polyline clip-path="url(#clip862)" style="stroke:#000000; stroke-width:4; stroke-opacity:0.7; fill:none" points="
  793.15,971.495 724.095,971.495 793.15,829.302 793.15,971.495 
  "/>
<path clip-path="url(#clip862)" d="
M862.205 971.495 L931.26 1042.59 L862.205 1326.98 L793.15 1042.59 L862.205 971.495 L862.205 971.495  Z
  " fill="#ff4500" fill-rule="evenodd" fill-opacity="0.9"/>
<polyline clip-path="url(#clip862)" style="stroke:#ffffff; stroke-width:4; stroke-opacity:0.9; fill:none" points="
  862.205,971.495 931.26,1042.59 862.205,1326.98 793.15,1042.59 862.205,971.495 
  "/>
<g clip-path="url(#clip860)">
<text style="fill:#1a1a1a; fill-opacity:1; font-family:Courier,Courier New,Lucida Sans Typewriter,Lucida Typewriter,monospace; font-size:105px; text-anchor:middle;" transform="rotate(0, 862.205, 468.773)" x="862.205" y="468.773">F</text>
</g>
<g clip-path="url(#clip860)">
<text style="fill:#1a1a1a; fill-opacity:1; font-family:Courier,Courier New,Lucida Sans Typewriter,Lucida Typewriter,monospace; font-size:105px; text-anchor:middle;" transform="rotate(0, 862.205, 539.869)" x="862.205" y="539.869">S</text>
</g>
<g clip-path="url(#clip860)">
<text style="fill:#1a1a1a; fill-opacity:1; font-family:Courier,Courier New,Lucida Sans Typewriter,Lucida Typewriter,monospace; font-size:105px; text-anchor:middle;" transform="rotate(0, 862.205, 610.966)" x="862.205" y="610.966">L</text>
</g>
</svg>
